<?xml version="1.0" standalone="no"?>
<!DOCTYPE svg PUBLIC "-//W3C//DTD SVG 1.1//EN" "http://www.w3.org/Graphics/SVG/1.1/DTD/svg11.dtd" >
<svg xmlns="http://www.w3.org/2000/svg">
<metadata></metadata>
<defs>
<font id="inconsolata_lgcbold-italic" horiz-adv-x="1228" >
<font-face units-per-em="2048" ascent="1679" descent="-369" />
<missing-glyph horiz-adv-x="500" />
<glyph />
<glyph />
<glyph unicode="&#xd;" />
<glyph unicode=" " />
<glyph unicode="!" d="M442.5 144.5q12.5 70.5 71.5 120.5t130 50t113 -50t28.5 -120.5t-72 -121t-129 -50.5t-112.5 50.5t-29.5 121zM588 494l67 589q10 78 15.5 165t13.5 128q12 70 39 115t66.5 69.5t82.5 24.5q47 0 81 -32.5t40 -92.5q2 -39 -8 -104q-10 -53 -37.5 -150.5t-34.5 -122.5 l-147 -589h-178z" />
<glyph unicode="&#x22;" d="M498 946l14 90q4 51 13.5 100.5t15.5 84.5v4l2 4q6 14 7 45t5 51l18 107q12 68 57.5 108.5t93.5 40.5t69.5 -42t7.5 -124l-41 -225l-39 -244h-223zM911 946l15 90q4 51 13 100.5t15 84.5v4l2 4q6 14 7.5 45t5.5 51l18 107q12 68 57.5 108.5t93.5 40.5t69.5 -42t6.5 -124 l-40 -225l-39 -244h-224z" />
<glyph unicode="#" d="M115 387l45 170l235 4l101 342l-258 -2l45 174l264 2l119 402l206 10l-120 -408l198 2l115 383l211 11l-117 -392l215 2l-49 -176l-217 -2l-102 -338l235 4l-49 -172l-238 -4l-127 -426l-206 -12l127 436l-201 -4l-125 -420l-203 -10l125 428zM604 596l201 2l100 340 l-200 -2z" />
<glyph unicode="$" d="M164 240l164 174l20 -11q14 -6 19.5 -18t3.5 -20l-2 -11l-2 -4q80 -98 219 -125l80 447q-59 23 -105 45q-70 33 -116 78t-62 87t-23.5 86t2.5 79q23 131 145 230t288 126l24 141h205l4 -18q2 -10 0 -21q-2 -12 -7 -21t-9 -14l-6 -4l-11 -61q207 -31 314 -182l12 -19 l-158 -157l-18 4q-31 8 -29 43q0 2 2 10q-2 2 -4 6q-49 72 -153 98l-68 -385q84 -29 129 -49q238 -106 199 -334q-25 -139 -150 -255.5t-317 -147.5l-27 -148h-201l27 142q-246 25 -375 190zM586 1079q-16 -91 86 -157q16 -8 35 -19l57 328q-82 -18 -125 -60.5t-53 -91.5z M786 215q90 27 146.5 83t66.5 122q19 98 -73 155q-25 14 -72 31z" />
<glyph unicode="%" d="M78 0l1112 1479h231l-1122 -1479h-221zM264 1180q25 139 128.5 232t225.5 93q123 0 193 -95t47 -232q-25 -135 -127 -229.5t-227 -94.5q-123 0 -193 94.5t-47 231.5zM469 1108q2 -29 17.5 -43t26.5 -18.5t24 -4.5q18 0 36.5 7.5t41 39t30.5 82.5q27 147 -63 148 q-18 0 -37 -7t-41.5 -40t-32.5 -84q-4 -51 -2 -80zM657 299q23 135 126.5 229.5t227.5 94.5t192.5 -94.5t45.5 -229.5q-25 -137 -127 -230.5t-226 -93.5t-193.5 93.5t-45.5 230.5zM860 299q-14 -78 10.5 -109.5t59.5 -31.5q33 0 67.5 29.5t46.5 107.5q6 47 3 75.5t-17 43 t-26.5 19.5t-26.5 5q-35 0 -69 -30.5t-48 -108.5z" />
<glyph unicode="&#x26;" d="M139 362q23 133 122 256t243 201q-119 186 -92 346q25 139 145.5 233.5t269.5 94.5q145 0 229.5 -95t59.5 -239q-20 -113 -105 -217t-206 -170l170 -299q63 66 102 143q2 4 2 9v4t1 10t1 12q6 29 29 47l20 15l175 -131l-19 -23q-98 -131 -213 -252l133 -213l-215 -137 l-90 203q-205 -184 -430 -185q-172 0 -266 111t-66 276zM385 393q-14 -90 29 -146.5t123 -56.5q70 0 144.5 43t127.5 93l-207 364q-88 -57 -145.5 -137t-71.5 -160zM635 1149q-18 -98 76 -254q74 43 123 108.5t61 131.5q12 72 -21 113.5t-86 41.5t-98 -39t-55 -102zM831 244 l41 49l-16 -92z" />
<glyph unicode="'" d="M705 946l12 90q4 51 14 100.5t14 84.5v6l5 4q6 12 6 42t4 52l18 107q12 70 65.5 109.5t107 39.5t80 -41t11.5 -125l-41 -225l-36 -244h-260z" />
<glyph unicode="(" d="M427 612.5q56 323.5 269.5 583.5t520.5 383l28 12l64 -192l-27 -15q-18 -8 -37 -8h-12t-9 1l-3 1l-7 -2q-221 -115 -369.5 -315.5t-189.5 -439.5q-47 -262 46.5 -491.5t302.5 -362.5l26 -15l-141 -172l-23 14q-262 145 -378.5 420t-60.5 598.5z" />
<glyph unicode=")" d="M115 -229l24 10q254 121 430 338t222 469q43 248 -53.5 460.5t-303.5 331.5l-20 13l98 198l29 -14q274 -133 404 -400.5t75 -582.5q-55 -319 -284.5 -591.5t-557.5 -414.5l-35 -14z" />
<glyph unicode="*" d="M217 788l125 218l334 -172l35 397h260l-6 -8q-6 -18 -14.5 -35t-10.5 -27l-90 -327l385 161l53 -207l-411 -90l229 -346l-203 -119l-184 359l-324 -361l-157 121l360 344z" />
<glyph unicode="+" d="M213 659l37 207h420l65 375h211l-65 -375h405l-37 -207h-405l-78 -444h-211l78 444h-420z" />
<glyph unicode="," d="M309 -313l31 18q72 51 133 121q39 43 45 72q2 16 -6 26t-29 23q-70 53 -55 131q10 68 67.5 117t129.5 49q80 0 126 -64.5t29 -163.5q-33 -176 -334 -407l-24 -21z" />
<glyph unicode="-" d="M274 668l39 219h916l-39 -219h-916z" />
<glyph unicode="." d="M430 78.5q12 68.5 70.5 118t129 49.5t112.5 -49.5t30 -118t-71.5 -117.5t-130 -49t-111.5 49t-29 117.5z" />
<glyph unicode="/" d="M129 -14l1053 1601l178 -94l-1053 -1604z" />
<glyph unicode="0" d="M225.5 412.5q-18.5 140.5 12.5 314.5q29 168 97 313.5t156.5 241.5t189.5 151.5t198 55.5q131 0 227 -91t138 -263t1 -420q-33 -178 -102.5 -323.5t-157.5 -234.5t-183 -136.5t-188 -47.5q-98 0 -180 52.5t-136 149.5t-72.5 237.5zM434 516l576 608q-29 80 -74 119 t-94 39q-47 0 -102.5 -36t-111 -101.5t-103.5 -176t-72 -243.5q-19 -109 -19 -209zM481 354q31 -84 78 -126t98 -42q43 0 93.5 29t105.5 87t102 169t74 254q20 121 23 227z" />
<glyph unicode="1" d="M414 1270l456 211h152l-260 -1483h-227l213 1214l-297 -79z" />
<glyph unicode="2" d="M164 0l24 135l5 6q119 168 243.5 291t286.5 244q68 51 101.5 78.5t88 79t84 102.5t39.5 106q18 100 -43 169t-168 69q-78 0 -144.5 -37t-102.5 -82q-2 -2 -4.5 -10t-9.5 -20.5t-19 -26.5l-23 -27l-143 133l16 25q90 117 221.5 185.5t264.5 68.5q193 0 304 -124t81 -302 q-14 -76 -51 -147.5t-95.5 -133t-100.5 -99.5t-106 -87q-8 -6 -50 -38t-61.5 -47t-60.5 -48t-68.5 -58.5t-64.5 -58.5t-69.5 -67.5t-63.5 -71.5h567h2q2 2 5 2q35 27 63 16l21 -6l-39 -219h-930z" />
<glyph unicode="3" d="M174 174l199 195l18 -25q14 -14 18.5 -30.5t1.5 -23.5t1 -14q8 -12 24.5 -28.5t64.5 -39t103 -22.5q115 0 204 75t107 181q20 106 -55.5 171t-218.5 65q-35 0 -72 -6l-37 -4l35 188h31q141 2 227 35q70 27 116 81t56 113q14 78 -39 133.5t-153 55.5q-135 0 -250 -103 l-27 -24l-108 147l22 21q185 168 408 168q184 0 290.5 -115t78.5 -274q-16 -96 -80 -178t-154 -130q90 -55 129 -152t19 -214q-33 -184 -190 -314.5t-374 -130.5q-119 0 -218 46.5t-163 132.5z" />
<glyph unicode="4" d="M172 379l27 158l809 944h186l-158 -895h191l-37 -209h-191l-65 -377h-234l68 379h-596zM459 586h346l94 528z" />
<glyph unicode="5" d="M172 238l215 143l14 -14q14 -10 18.5 -27.5t0.5 -28.5l-2 -10q8 -16 30.5 -40.5t76 -52.5t116.5 -28q111 0 203 80t119 225q27 150 -39 229t-179 79q-70 0 -143.5 -34t-132.5 -93l-18 -19l-138 60l191 772h809l-37 -211h-612l-74 -316q109 39 215 39q205 0 317.5 -137 t71.5 -371q-43 -238 -210 -374t-378 -136q-141 0 -252.5 63.5t-169.5 178.5z" />
<glyph unicode="6" d="M268 676q50 274 146 446q98 184 248.5 278.5t304.5 94.5q94 0 178 -38t141 -105l17 -21l-183 -170l-18 17q-14 10 -21.5 24.5t-7.5 22.5v8q-6 6 -20.5 16.5t-49 23.5t-73.5 13q-33 0 -66 -7t-82 -32.5t-91 -67.5t-86 -122t-73 -187q135 115 299 115q178 0 283 -137 t66 -363q-41 -225 -198 -367.5t-345 -142.5q-109 0 -200 52.5t-140 150.5q-86 168 -29 498zM481 565q-31 -166 28.5 -273.5t170.5 -107.5q90 0 169.5 74t104.5 219q29 156 -28.5 228.5t-147.5 72.5q-70 0 -148.5 -45t-140.5 -123q-4 -16 -8 -45z" />
<glyph unicode="7" d="M299 0l20 39q199 381 416 754q137 236 281 467h-619l39 219h899l-20 -125l-4 -4q-209 -330 -398 -666q-184 -328 -352 -664l-10 -20h-252z" />
<glyph unicode="8" d="M201 385q20 121 111 227.5t223 173.5q-80 57 -116 144.5t-20 187.5q29 158 173.5 268.5t324.5 110.5q174 0 276.5 -106.5t75.5 -260.5q-18 -98 -90 -189t-174 -150q102 -66 153.5 -170.5t28.5 -225.5q-31 -176 -192.5 -298t-366.5 -122q-201 0 -319.5 119t-87.5 291z M440 424q-18 -98 43.5 -168t169.5 -70q106 0 189.5 67t99.5 161t-45 176t-186 127q-104 -43 -180 -123t-91 -170zM621 1116q-8 -49 10 -96t53 -81t63.5 -53.5t55.5 -31.5q86 45 145.5 113.5t71.5 138.5q14 80 -35 135t-135 55t-151.5 -53t-77.5 -127z" />
<glyph unicode="9" d="M190 139l183 170l20 -16q4 -4 9.5 -8t8.5 -8.5t5 -9.5t3 -9t2 -7t1 -6v-5v-4q59 -47 151 -48q82 0 160 40t135 128q57 98 97 254q-133 -104 -287 -104q-182 0 -285.5 135t-66.5 348q39 215 196.5 359.5t347.5 144.5q133 0 237.5 -83t133.5 -247q29 -145 -18 -405 q-46 -260 -142 -432q-98 -170 -246.5 -260.5t-302.5 -90.5q-203 0 -323 144zM549.5 994q-23.5 -136 32 -208.5t147.5 -72.5q70 0 145.5 41t133.5 110q10 39 12 58q31 168 -28.5 265t-162.5 97q-94 0 -175 -77t-104.5 -213z" />
<glyph unicode=":" d="M430 78.5q12 68.5 70.5 118t129 49.5t112.5 -49.5t30 -118t-71.5 -117.5t-130 -49t-111.5 49t-29 117.5zM563 836.5q12 68.5 70.5 118t129 49.5t112.5 -49.5t30 -118t-71.5 -117.5t-130 -49t-111.5 49t-29 117.5z" />
<glyph unicode=";" d="M309 -313l31 18q72 51 133 121q39 43 45 72q2 16 -6 26t-29 23q-70 53 -55 131q10 68 67.5 117t129.5 49q80 0 126 -64.5t29 -163.5q-33 -176 -334 -407l-24 -21zM563 836.5q12 68.5 70.5 118t129 49.5t112.5 -49.5t30 -118t-71.5 -117.5t-130 -49t-111.5 49t-29 117.5z " />
<glyph unicode="&#x3c;" d="M193 684l26 152l1161 534l-43 -240l-854 -374l721 -420l-45 -250z" />
<glyph unicode="=" d="M168 404l35 207h1036l-35 -207h-1036zM254 895l35 207h1036l-35 -207h-1036z" />
<glyph unicode="&#x3e;" d="M98 86l45 250l869 420l-723 374l43 240l973 -534l-27 -152z" />
<glyph unicode="?" d="M360 1296l19 21q102 125 243.5 193.5t284.5 68.5q207 0 307.5 -132t67.5 -317q-10 -57 -33.5 -109t-48 -88t-62.5 -73t-62.5 -55.5t-62.5 -46t-48 -35.5q-51 -37 -79 -75t-36 -65.5t-16 -76.5l-5 -23h-217l4 23q16 98 51 171t126 154q12 10 55 49.5t63.5 58.5t51 55 t48 72t23.5 77q16 92 -35 155.5t-145 63.5q-82 0 -171 -51t-157 -140l-26 -32zM493.5 136.5q12.5 68.5 71 117.5t129 49t112.5 -49t29.5 -117.5t-71.5 -118t-130 -49.5t-112 49.5t-28.5 118z" />
<glyph unicode="@" d="M191.5 395.5q-27.5 145.5 3.5 349.5q27 154 86 282t132.5 214t163 146.5t177.5 87t174 26.5q141 0 245.5 -71.5t141.5 -200.5q16 -55 18 -121t-4 -110t-18 -115l-88 -498h-205l8 47q-104 -68 -219 -67q-139 0 -221 99t-56 241q18 109 99.5 201.5t206.5 140.5 q106 39 294 38h5q4 98 -65 163t-181 65q-72 0 -145.5 -33t-143.5 -98.5t-125 -177t-80 -252.5q-25 -160 -5 -270.5t81 -180.5t135 -100.5t158 -30.5q131 0 250 72l33 20l63 -170l-27 -16q-182 -102 -366 -103q-123 0 -228.5 44t-187.5 138.5t-109.5 240zM739 711 q-10 -63 28 -108.5t103 -45.5q45 0 89.5 23.5t72.5 68.5q43 63 70 213l8 43h-8q-174 0 -256 -49q-90 -57 -107 -145z" />
<glyph unicode="A" d="M12 -2l809 1507h62l329 -1505h-237l-94 401h-426l-213 -403h-230zM543 592h311l-84 440z" />
<glyph unicode="B" d="M104 0l261 1479h450q188 0 283 -43q100 -44 146 -136q33 -66 33 -140q0 -29 -5 -58q-16 -94 -79 -176t-155 -133q100 -53 146 -153q32 -69 33 -147q0 -35 -7 -71q-23 -121 -110.5 -223.5t-222.5 -153.5q-55 -20 -118 -31.5t-100.5 -12.5t-105.5 -1h-449zM367 207h251 q117 0 183 24q72 29 119 85.5t57 125.5q4 21 4 41q-1 47 -21 89q-28 60 -94 94q-65 30 -202 30h-211zM487 897h201q131 0 197 25t105.5 68.5t49.5 96.5q2 12 2 24q0 39 -20 73q-26 46 -84 69q-57 23 -180 23h-203z" />
<glyph unicode="C" d="M198 436q-6 42 -5 89q0 94 22 206q29 168 91.5 302t138 218t164.5 139.5t171 78t162 22.5q156 0 272.5 -85t153.5 -226l8 -27l-219 -98l-12 10q-20 16 -15 47q0 6 2 12l3 6q0 2 -5 11q-29 72 -90 113.5t-137 41.5q-150 0 -284 -145t-179 -406q-17 -94 -17 -173 q0 -144 56 -242q86 -150 240 -150q80 0 163 44t142 122l20 27l156 -113l-20 -27q-94 -121 -229.5 -189.5t-276.5 -68.5q-82 0 -158 25t-145.5 80t-113 142t-59.5 214z" />
<glyph unicode="D" d="M117 -2l260 1481h377q117 0 196.5 -15.5t151.5 -64.5q129 -92 170 -265q21 -89 21 -190q0 -96 -19 -203q-43 -242 -163 -421t-302 -263q-82 -37 -161 -48t-183 -11h-348zM369 190h120q86 0 146.5 10.5t124.5 47.5q221 127 280 473q19 104 19 189q0 201 -105 296 q-49 43 -105 56.5t-140 13.5h-148z" />
<glyph unicode="E" d="M129 0l260 1481h969l-37 -209h-750l-67 -393h618l-39 -213h-618l-80 -457h743l-36 -209h-963z" />
<glyph unicode="F" d="M174 0l260 1481h914l-35 -207h-684l-66 -373h553l-37 -205h-553l-123 -696h-229z" />
<glyph unicode="G" d="M188 433q-5 43 -5 91q0 91 20 199q33 182 100.5 324.5t146 223.5t174 134t171 70.5t147.5 17.5q143 0 254 -70.5t156 -193.5l8 -21l-178 -151l-19 12q-20 14 -33 61q-18 68 -78.5 112t-148.5 44t-179 -47t-159 -137q-92 -127 -131 -346q-19 -106 -19 -193q0 -171 72 -266 q84 -113 238 -113q121 0 248 70l49 281h-268l37 204h483l-107 -600l-14 -8q-244 -154 -479 -154q-86 0 -164 25t-148.5 79t-113.5 141t-60 211z" />
<glyph unicode="H" d="M119 0l260 1479h235l4 -17q4 -12 3 -24q-4 -25 -13 -34l-10 -9l-92 -518h518l106 602h230l6 -15q3 -8 3 -16q0 -4 -1 -8q-2 -20 -8 -29.5t-11.5 -10.5t-5.5 -3l-245 -1399h-230l119 676h-516l-119 -674h-233z" />
<glyph unicode="I" d="M182 -2l35 201h291l190 1079h-274l35 201h794l-34 -201h-293l-191 -1081h307l-34 -199h-826z" />
<glyph unicode="J" d="M127 168l178 178l21 -20q14 -14 10 -47q14 -16 32.5 -35t61.5 -40.5t88 -21.5q94 0 162 76q59 68 88 229l139 791h-284l34 201h738l-35 -201h-227l-138 -776q-12 -72 -20 -110t-34 -101.5t-64 -114.5q-72 -96 -178.5 -149.5t-221.5 -53.5q-104 0 -193 46.5t-145 127.5z " />
<glyph unicode="K" d="M90 0l260 1481h258l-2 -27q-2 -27 -31 -57l-2 -2v-6l-96 -543l692 649l17 -4q43 -12 112 -12h129l-700 -645l471 -836h-59l-211 -8l-17 -2l-374 733l-99 -90l-110 -631h-238z" />
<glyph unicode="L" d="M147 -2l261 1481h249v-27q0 -25 -20 -53q-12 -16 -14 -27l-207 -1169h712l-34 -205h-947z" />
<glyph unicode="M" d="M86 -2l260 1481h182l226 -686l475 688h174l-260 -1483h-219l180 1026l-359 -504h-100l-164 490l-178 -1012h-217z" />
<glyph unicode="N" d="M109 0l260 1479h211l393 -1010l178 1012h235l-2 -27q0 -23 -18 -47q-8 -10 -8 -18l-246 -1391h-180l-412 1077l-190 -1075h-221z" />
<glyph unicode="O" d="M173 443q-5 41 -5 86q0 96 22 212q29 164 88.5 297t131 216t157.5 139.5t164 79t154 22.5q137 0 245.5 -73t157.5 -212q34 -96 34 -227q0 -110 -24 -246q-51 -291 -172 -469q-100 -143 -235 -217t-270 -74q-78 0 -150 25t-138.5 80t-105.5 144t-54 217zM404 490 q10 -108 54 -172t93 -90.5t108 -26.5q74 0 150 42t135 130q86 127 125 344q22 126 22 223q0 77 -14 135q-27 104 -92 153.5t-145 49.5q-55 0 -112.5 -24.5t-119 -79t-113 -161t-75.5 -251.5q-18 -119 -18 -209q-1 -33 2 -63z" />
<glyph unicode="P" d="M129 0l260 1479h481q61 0 99.5 -2t91.5 -14.5t96 -37.5q100 -53 140 -155q26 -68 26 -143q-1 -39 -7 -79q-20 -120 -96.5 -221.5t-193.5 -154.5q-111 -49 -293 -49h-260l-111 -623h-233zM506 829h268q104 0 163.5 26t97.5 75t50 110q3 19 3 37q0 41 -15 77q-22 52 -76 81 q-54 27 -163 27h-248z" />
<glyph unicode="Q" d="M174 422q-4 40 -4 85q0 104 20 234q29 164 88.5 297t131 216t157.5 139.5t165 79t155 22.5q135 0 245.5 -74t157.5 -215q33 -94 33 -223q0 -112 -25 -250q-51 -287 -174 -465q-78 -113 -180 -183.5t-211 -94.5q-1 -9 -1 -17q0 -47 20 -74q22 -32 102 -32q27 0 95.5 5 t97.5 7l32 2l-45 -225h-166q-164 0 -237 41q-113 60 -113 215q0 35 6 76q-88 18 -157.5 67t-125 141.5t-67.5 225.5zM402 490q8 -109 52 -175.5t94 -94t111 -27.5q37 0 76 10t92.5 43t97.5 87t85 152.5t63 229.5q23 127 23 224q0 79 -15 138q-29 106 -95 155.5t-146 49.5 q-55 0 -114.5 -25.5t-121 -81t-112 -162t-74.5 -249.5q-19 -122 -19 -214q0 -32 3 -60z" />
<glyph unicode="R" d="M123 0l260 1479h467q61 0 99 -2t92.5 -14.5t97.5 -35.5q98 -53 139 -151q27 -65 27 -139q0 -38 -7 -78q-25 -139 -124 -253t-236 -161l236 -645h-256l-220 623h-235l-111 -623h-229zM498 829h256q104 0 164 25q59 27 97 76t50 110q3 19 3 37q0 41 -16 77q-22 54 -77 81 q-51 27 -162 27h-238z" />
<glyph unicode="S" d="M139 193l162 215l25 -15q25 -14 18 -49l-2 -6q41 -63 119 -107.5t184 -44.5q139 0 228.5 69t103.5 159q3 16 3 31q0 83 -83 139q-33 23 -193.5 89t-232.5 124q-122 99 -122 240q0 29 5 59q29 162 186.5 276.5t364.5 114.5q127 0 232 -50.5t168 -144.5l12 -18l-164 -178 l-20 6q-31 10 -25 47v6q-31 61 -95.5 97t-156.5 36q-111 0 -182.5 -52t-83.5 -126q-3 -15 -3 -30q0 -90 105 -154q41 -27 132 -63t172 -78t132 -95q82 -89 82 -209q0 -32 -6 -67q-14 -78 -57 -152t-113.5 -139.5t-183.5 -106.5t-246 -41q-303 0 -452 201z" />
<glyph unicode="T" d="M287 1270l37 211h1085l-37 -211h-436l-223 -1272h-230l224 1272h-420z" />
<glyph unicode="U" d="M184 316q-2 29 -2 54t2 45q4 40 17 103l168 961h237l4 -19q4 -10 2 -22q-4 -20 -30 -49q-4 -4 -7 -13l-149 -854q-12 -67 -12 -118q0 -46 10 -78q23 -72 84 -111t143 -39t157 39t124 111q47 68 69 202l168 951h220l-168 -953q-10 -66 -20.5 -107.5t-36 -100t-62.5 -107.5 q-86 -117 -217 -177.5t-273 -60.5q-141 0 -250.5 60.5t-154.5 175.5q-19 49 -23 107z" />
<glyph unicode="V" d="M299 1481h238l168 -1067l524 1065h229l-778 -1489h-121z" />
<glyph unicode="W" d="M270 -10l17 1489h215l-15 -883l342 774h99l71 -770l273 879h203l-506 -1489h-115l-76 887l-389 -887h-119z" />
<glyph unicode="X" d="M66 0l552 754l-284 727h248l200 -529l381 529h234l-516 -723l301 -758h-256l-213 553l-396 -553h-251z" />
<glyph unicode="Y" d="M299 1481h258l221 -678l430 676h244l-596 -895l-102 -584h-242l102 584z" />
<glyph unicode="Z" d="M109 -2l26 149l918 1121h-693l37 211h977l-31 -150l-905 -1122h645q4 0 23.5 7t42.5 7h39l-39 -223h-1040z" />
<glyph unicode="[" d="M264 -211l318 1800h739l-37 -203h-526l-246 -1400h528l-34 -197h-742z" />
<glyph unicode="\" d="M395 1493l213 94l488 -1601l-213 -97z" />
<glyph unicode="]" d="M150 -211l34 197h529l245 1400h-526l37 203h739l-317 -1800h-741z" />
<glyph unicode="^" d="M354 889l494 590h86l242 -590l-197 -86l-150 395l-315 -393z" />
<glyph unicode="_" d="M27 -252l36 207h1086l-37 -207h-1085z" />
<glyph unicode="`" d="M311 1610l58 -86q35 -45 65.5 -96.5t52.5 -84.5l2 -4v-2q12 -33 32 -57.5t32 -44.5l70 -105q39 -72 60.5 -181t23.5 -193q0 -16 1 -32.5t-7.5 -33t-24.5 -24.5q-10 -6 -21.5 -7.5t-21.5 4t-17.5 10.5t-16.5 15t-13.5 16.5t-12.5 18.5l-129 225l-127 213z" />
<glyph unicode="a" d="M150 313q27 141 94 269.5t153 217.5t183.5 155.5t186.5 98t159 31.5q106 0 167.5 -10t79 -22.5t41 -28.5t54.5 -23l45 -12l-31 -35q-6 -8 -18.5 -41.5t-18.5 -66.5q-25 -127 -50.5 -266.5t-45.5 -251.5q-9 -50 -9 -96q0 -94 38 -173l-17 -59l-241 -12l-5 26 q-10 53 -10 130q0 48 4 106q-45 -74 -99 -128t-101 -82t-105.5 -43t-96.5 -18.5t-91 -3.5q-41 0 -78 7q-115 18 -166 102q-33 54 -33 132q0 44 11 97zM377 297q0 -4 -1 -7q0 -48 26 -74q26 -28 51 -28q133 0 265 96.5t208 239.5q53 100 92 287l12 68q-28 18 -96 18 q-53 0 -136 -43t-169 -114.5t-157 -181t-93 -224.5q-2 -18 -2 -37z" />
<glyph unicode="b" d="M139 74l275 1505h254l4 -27q2 -23 -13 -41q-2 -4 -6 -7t-6 -5h-4v-2h-2l-2 -2l-4 -2v-4l-88 -506q143 127 319 127q35 0 68 -6q166 -26 255 -172q60 -98 60 -238q0 -67 -14 -145q-45 -240 -216 -394.5t-390 -154.5q-125 0 -203 9t-163 33t-95 26zM401 227q29 -39 160 -39 q88 0 175 35t160 115t93 188q14 70 15 125q0 78 -24 131.5t-60.5 77t-70.5 32.5t-69 9q-74 0 -141.5 -36t-106.5 -95q-36 -60 -65 -201z" />
<glyph unicode="c" d="M219 549q45 242 234.5 399.5t439.5 157.5q137 0 241.5 -57.5t155.5 -159.5l10 -21l-182 -176l-20 19q-14 12 -18.5 29.5t-0.5 27.5l4 10q-6 12 -18 27.5t-38 39t-71 39t-100 15.5q-141 0 -254 -94t-143 -252q-8 -43 -8 -84q0 -127 74.5 -203t199.5 -76q82 0 188.5 35 t161.5 88l27 25l112 -166l-18 -18q-94 -84 -239.5 -132.5t-274.5 -48.5q-49 1 -96 9q-204 34 -306 192q-73 113 -73 256q0 57 12 119z" />
<glyph unicode="d" d="M195 557q23 125 93 225.5t153 154.5t179.5 90t161 47t107.5 11q84 0 172 -30l92 524h244l-4 -35q-4 -23 -27 -51q-6 -8 -8 -18q-23 -121 -103.5 -567.5t-103.5 -571.5q-10 -54 -10 -104q0 -94 37 -171l-17 -61l-243 -12l-3 30q-4 51 -4 127q-78 -76 -173 -123t-185 -47 q-33 0 -66 7q-166 27 -253 176q-56 96 -56 234q0 76 17 165zM412 467q0 -80 19.5 -138.5t52 -87t66.5 -41t71 -12.5q78 0 157.5 51.5t122.5 137.5t62 188l49 307q-78 31 -158 31q-74 0 -165 -37t-169 -107.5t-94 -152.5q-14 -63 -14 -139z" />
<glyph unicode="e" d="M199 539q27 139 89 250.5t145 180t174 104.5t181 36q154 0 228 -20.5t125 -63.5q89 -79 89 -190q0 -27 -5 -56q-18 -94 -93 -154.5t-221 -107.5q-68 -23 -152.5 -34t-143 -13t-156.5 -2h-35q-4 -51 -6 -91v-11q0 -34 11 -60q13 -31 26.5 -52.5t38 -35.5t46 -23.5 t50 -14.5t51.5 -6t49 -1q82 0 185.5 32t156.5 83l25 22l117 -139l-21 -20q-86 -84 -228.5 -130.5t-273.5 -46.5q-57 1 -108 9q-195 33 -291 179q-66 101 -66 242q0 63 13 134zM457 662h54h62q150 0 224 14q106 20 145 42.5t47 63.5q2 10 2 21q0 49 -41 82t-125 33 q-72 0 -141.5 -24t-135 -84t-91.5 -148z" />
<glyph unicode="f" d="M289 836l35 188h235l14 78q16 90 40 157.5t75 131.5q76 96 190.5 148t237.5 52q227 0 332 -161l10 -17l-125 -188h-16q-18 0 -33.5 15t-13.5 38l2 10l-2 2q-23 47 -71 77t-114 30q-137 0 -217 -109q-47 -61 -69 -198q-2 -4 -3 -11.5t-1 -11.5l-9 -45h355l-35 -188h-354 l-217 -1178h-226l215 1180h-235z" />
<glyph unicode="g" d="M51 -227l174 186l23 -22q6 -6 9 -11.5t5 -10.5t3 -9t1 -7v-6.5v-4.5v-3q23 -29 88.5 -65.5t139.5 -36.5q133 0 165.5 5t96.5 38q84 41 98 123l27 157q-145 -131 -318 -131q-35 0 -67 7q-168 27 -262 177q-62 100 -62 243q0 72 16 155q23 127 94.5 226.5t157.5 153.5 t186.5 90t173 47t126.5 11q68 0 124 -13t119.5 -36.5t106.5 -34.5l45 -12l-31 -35q-4 -8 -17 -41.5t-20 -66.5l-168 -899q-10 -61 -50 -123t-103.5 -114t-162.5 -85t-216 -33q-225 0 -331 37t-159 123zM412 467q0 -80 19.5 -138.5t52 -87t66.5 -41t71 -12.5q78 0 157.5 51.5 t122.5 137.5t62 188l49 307q-78 31 -158 31q-74 0 -165 -37t-169 -107.5t-94 -152.5q-14 -63 -14 -139z" />
<glyph unicode="h" d="M150 0l288 1577h250l4 -27v-16q-4 -20 -30 -43l-3 -2v-4l-94 -529q172 154 353 154q102 0 179 -54.5t103 -148.5q12 -40 12 -97q0 -69 -18 -163l-59 -317q-7 -52 -9 -100v-23q0 -33 2 -55q4 -30 11.5 -59.5t10.5 -37.5t7 -14l19 -39l-289 -14l-2 30q-3 38 -3 79 q0 101 21 218l62 330q12 60 12 105q0 65 -25 100q-35 51 -108 51q-66 0 -141.5 -43t-122.5 -90q-37 -37 -53.5 -71.5t-24.5 -88.5l-115 -608h-237z" />
<glyph unicode="i" d="M403 885l35 200h496l-139 -741q-8 -47 -9 -72q0 -35 10.5 -48t39.5 -13q27 0 78 5t73 7l41 2l-45 -225h-135q-154 0 -213 39q-85 56 -85 188q0 47 11 103v5v5l105 545h-263zM725 1409q10 61 60.5 104t113.5 43q12 0 27 -2q54 -10 84 -54q23 -33 23 -74q0 -13 -3 -27 q-10 -61 -60 -104.5t-114 -43.5q-13 0 -27 2q-53 11 -83 55q-23 34 -23 74q0 13 2 27z" />
<glyph unicode="j" d="M55 -231l178 192l21 -20q6 -6 9 -11.5t5 -9.5t3 -9t1 -9v-7.5v-5.5q6 -12 19.5 -29.5t55.5 -41t93 -23.5q63 0 119.5 31t91.5 88q35 51 54 149l143 820h-404l35 202h637l-174 -991q-10 -57 -18.5 -93t-30 -87t-51.5 -94q-78 -113 -199 -173.5t-250 -60.5q-106 0 -191 42 t-134 122zM904 1404q11 62 64.5 107t117 45t100.5 -45q28 -34 28 -79q0 -14 -2 -28q-12 -63 -64 -108t-115.5 -45t-101.5 45q-29 35 -29 80q0 13 2 28z" />
<glyph unicode="k" d="M147 -2l279 1579h252l-2 -27q0 -27 -29 -57l-4 -4v-4l-151 -860l585 467l15 -2q45 -12 118 -13h140l-572 -438l445 -641h-66h-16q-51 0 -101.5 -2t-77.5 -4l-26 -2l-16 -2l-336 540l-127 -102l-76 -428h-234z" />
<glyph unicode="l" d="M438 1378l35 199h543l-228 -1229q-8 -49 -8 -74q0 -37 10.5 -50t38.5 -13q27 0 78 5t74 7l41 2l-45 -225h-135q-154 0 -213 41q-85 56 -85 191q0 48 11 106v5v5l190 1030h-307z" />
<glyph unicode="m" d="M74 0l141 756q13 89 13 152q0 16 -1 30q-4 70 -22 102l-21 37l254 35l8 -25q6 -18 7 -81q111 104 231 104q63 0 111.5 -31.5t68.5 -85.5q109 117 256 117q131 0 180 -98q16 -31 20 -73q3 -25 4 -46q0 -13 -2 -25q-3 -30 -13 -77q0 -6 -2 -18.5t-4 -18.5l-80 -424 q-7 -52 -9 -100v-23q0 -33 2 -55q4 -30 11.5 -59.5t10.5 -37.5t7 -14l19 -39l-283 -14l-2 30q-3 40 -3 84q0 108 21 234l68 412q2 10 6 29.5t6 29.5q6 31 6 53q0 18 -4 31q-10 37 -45 37q-33 0 -66.5 -19.5t-54.5 -44.5q-41 -49 -55 -123l-129 -741h-223l139 739q2 8 5 24.5 t5 24.5q5 33 5 56q0 12 -1 22q-6 51 -55 52q-59 0 -123 -82q-43 -55 -57 -136l-131 -700h-219z" />
<glyph unicode="n" d="M145 0l142 756q13 89 13 152q0 16 -1 30q-4 70 -23 102l-20 37l270 33l9 -23q9 -29 9 -98q0 -23 -1 -51q180 170 368 172h7q99 0 174 -54q77 -56 104 -149q12 -40 13 -97q0 -69 -19 -163l-60 -317q-8 -52 -9 -100v-18q0 -36 3 -60q4 -30 11.5 -59.5t10.5 -37.5t7 -14 l18 -39l-288 -14l-2 28q-3 38 -3 79q0 102 21 220l64 332q11 57 11 100q0 68 -26 103q-35 51 -108 51q-66 0 -141.5 -43t-123.5 -90q-37 -37 -53 -71.5t-24 -88.5l-115 -608h-238z" />
<glyph unicode="o" d="M180 535q43 244 231.5 408.5t413.5 164.5q100 0 185.5 -37t144.5 -109q59 -74 83 -180q12 -52 11 -112q0 -62 -12 -133q-45 -256 -223 -411t-396 -155q-221 0 -351 161q-98 121 -98 288q0 55 11 115zM424 549q-8 -49 -9 -93q0 -106 51 -176q71 -100 191 -100 q115 0 215.5 91t131.5 259q10 57 10 106q0 106 -49 170q-72 94 -189 95q-117 0 -220 -93t-132 -259z" />
<glyph unicode="p" d="M57 -395l219 1202q7 57 7 102q0 86 -25 131l-20 37l254 35l8 -25q14 -43 14 -137q162 158 358 158q37 0 74 -6q164 -29 254 -172q61 -98 61 -238q0 -66 -14 -143q-27 -137 -87 -246.5t-137 -173t-157 -96.5t-155 -33q-172 0 -342 33l-74 -428h-238zM406 242 q141 -57 225 -58q35 0 70.5 6.5t85 29t89 57t74.5 99t51 148.5q12 68 13 123q0 66 -17.5 115t-41 74.5t-57.5 41t-59.5 19.5t-52.5 4q-76 0 -145.5 -36t-108.5 -95q-36 -55 -61 -186z" />
<glyph unicode="q" d="M188 559q23 125 94.5 224.5t157.5 154.5t187.5 90t173 46t125.5 11q68 0 124 -13t119.5 -36.5t106.5 -34.5l45 -12l-31 -35q-4 -8 -17 -41.5t-20 -66.5l-168 -895q-8 -51 -9 -103v-19q0 -39 3 -65q4 -32 11.5 -62t10.5 -39l5 -15l20 -41l-288 -15l-2 29q-6 47 -6 99 q0 97 20 212l31 174q-145 -131 -318 -131q-34 1 -67 7q-168 27 -262 177q-62 100 -62 244q0 72 16 156zM412 467q0 -80 19.5 -138.5t52 -87t66.5 -41t71 -12.5q78 0 157.5 51.5t122.5 137.5t62 188l49 307q-78 31 -158 31q-74 0 -165 -37t-169 -107.5t-94 -152.5 q-14 -63 -14 -139z" />
<glyph unicode="r" d="M219 0l141 756q13 91 13 155q-1 15 -1 27q-4 70 -22 102l-20 37l270 33l8 -23q12 -43 13 -114q152 135 362 137h6q214 0 318 -131l14 -16l-143 -218l-27 31q-10 10 -16.5 21.5t-10.5 22.5t-8 16q-38 65 -193 65h-5q-49 0 -91.5 -11t-78 -37t-53 -40t-46.5 -45 q-37 -37 -53 -71.5t-25 -88.5l-114 -608h-238z" />
<glyph unicode="s" d="M141 176l160 211l23 -12q16 -8 22 -21.5t2 -23.5l-2 -11v-4q18 -27 48 -52t98.5 -54t150.5 -29q141 0 229.5 40t98.5 97q2 8 2 16q0 50 -70 83q-35 16 -163 47t-169 45q-2 0 -6 2q-232 82 -232 246q0 23 5 47q25 129 166 218t334 89q127 0 230 -47t169 -135l14 -21 l-155 -182l-19 4q-12 4 -23.5 19.5t-6.5 35.5v4q-31 49 -92.5 90.5t-153.5 41.5q-86 0 -150.5 -35t-72.5 -80l-2 -12q0 -47 69 -82q31 -14 200 -54.5t236 -78.5q88 -51 117 -122q18 -45 19 -89q0 -26 -7 -52q-37 -164 -168 -252t-335 -88q-201 0 -332 43.5t-215 139.5z" />
<glyph unicode="t" d="M311 883l37 200h260l72 287l240 39l6 -20q4 -10 0 -27q-2 -14 -8.5 -26.5t-12.5 -20.5t-6 -10q-18 -51 -61 -220h350l-35 -202h-358q-49 -172 -82 -361q-10 -57 -27 -190q-2 -133 127 -133q100 0 242 92l37 24l43 -194l-23 -15q-193 -126 -384 -126h-3q-180 0 -252 118 q-25 44 -31 102q-4 34 -4 61q0 18 2 32q4 35 17 98q41 233 106 492h-252z" />
<glyph unicode="u" d="M202 304v17q0 42 4 71q5 34 15 95l62 324q11 55 11 101q0 76 -30 128l-20 37l270 33l8 -23q18 -52 18 -113q0 -46 -10 -97l-73 -394q-15 -75 -14 -129q0 -46 10 -75q37 -104 155 -105q66 0 136.5 39t115.5 98q53 70 76 191l111 581h233l-141 -755q-8 -39 -8 -80v-16 q2 -50 6 -79.5t15 -58t15 -37t9 -12.5l26 -43l-291 -14l-4 20q-10 39 -14 113q-78 -66 -172 -107t-176 -41q-119 0 -209 60.5t-121 171.5q-12 45 -13 99z" />
<glyph unicode="v" d="M260 1085h277v-24q0 -14 -4.5 -27.5t-8.5 -19.5l-4 -6v-2l160 -725l203 335q158 260 225 445l8 24h217l-14 -34q-78 -190 -244 -455l-379 -604h-174z" />
<glyph unicode="w" d="M211 1085h233l5 -20q1 -5 1 -10q0 -26 -18 -58q-6 -12 -6 -24v-2l16 -647l277 659h151l80 -659q174 535 201 684q4 20 8 45l4 30h223l-10 -32q-164 -526 -360 -1028l-10 -25h-207l-70 618l-276 -618h-201z" />
<glyph unicode="x" d="M74 0l499 551l-301 534h260l201 -378l322 378h248l-463 -528l321 -557h-270l-211 397l-338 -397h-268z" />
<glyph unicode="y" d="M51 -227l174 186l23 -22q6 -6 9 -11.5t5 -10.5t3 -9t1 -7v-6.5v-4.5v-3q23 -29 88.5 -65.5t139.5 -36.5h60h41.5t33 2t23 3t20.5 6t16 7t22.5 10.5t26.5 14.5q84 41 99 123l30 151q-166 -127 -321 -127q-119 0 -209 60.5t-121 171.5q-12 45 -13 99v17q0 43 4 71 q5 34 15 95l62 324q11 55 11 101q0 76 -30 128l-20 37l270 33l8 -23q18 -52 18 -113q0 -46 -10 -97l-73 -394q-15 -75 -15 -129q0 -45 11 -75q37 -104 155 -105q66 0 136.5 39t115.5 98q53 70 76 191l111 581h233l-213 -1136q-12 -63 -48 -124t-96.5 -114t-156.5 -85 t-213 -32q-225 0 -330.5 37t-159.5 123z" />
<glyph unicode="z" d="M109 -2l26 147l766 729h-590l37 211h905l-24 -147l-758 -731h582q6 0 24.5 7t40.5 7h12l27 -4l-39 -219h-1009z" />
<glyph unicode="{" d="M205 510l35 195h77q92 0 144 43q63 55 84 172q4 27 11 81t11 82q39 217 185 330q84 61 174 79.5t204 18.5h156l-35 -196h-112q-18 0 -50 1t-45 1q-84 0 -133 -27q-90 -49 -114 -188q-4 -25 -9.5 -77t-11.5 -83q-20 -119 -76 -197q-59 -86 -151 -139q145 -98 98 -366 q-8 -41 -23.5 -106.5t-19.5 -92.5q-29 -162 45 -221q43 -33 168 -33h164l-35 -195h-190q-106 0 -177 14.5t-126 63.5q-125 113 -80 369q10 51 28.5 128t24.5 109q25 143 -20 195q-33 39 -121 39h-80z" />
<glyph unicode="|" d="M430 -420l346 1968h221l-346 -1968h-221z" />
<glyph unicode="}" d="M139 -408l35 195h164q125 0 178 33q96 59 125 221q4 27 11 92.5t16 106.5q47 268 227 366q-74 53 -102 139q-29 78 -9 197q6 31 19.5 83t17.5 77q25 139 -49 188q-41 27 -125 27q-12 0 -43 -1t-51 -1h-113l35 196h156q74 0 123 -4t113.5 -27.5t107.5 -66.5 q106 -113 67 -330q-4 -29 -17 -83t-17 -80q-20 -117 22 -172q18 -20 43 -30.5t41 -11.5t47 -1h78l-35 -195h-80q-88 0 -135 -39q-63 -51 -88 -195q-6 -33 -14 -109.5t-19 -127.5q-45 -256 -209 -369q-72 -49 -147.5 -63.5t-181.5 -14.5h-191z" />
<glyph unicode="~" d="M238 909l20 27q72 72 173 119t208 47q74 0 134.5 -18.5t94 -40t72.5 -40t72 -18.5q74 0 192 80l23 27l143 -68l-18 -23q-78 -94 -181.5 -163.5t-214.5 -69.5q-74 0 -132 20.5t-88.5 44t-68.5 44t-75 20.5q-90 0 -182 -72l-23 -26z" />
<glyph unicode="&#xa0;" />
<glyph unicode="&#xa1;" d="M459 99q-2 39 8 104q10 53 37.5 150.5t34.5 122.5l147 589h178l-67 -589q-10 -78 -15.5 -165t-13.5 -128q-12 -70 -39 -115t-66.5 -69.5t-82.5 -24.5q-47 0 -81 32.5t-40 92.5zM666.5 1414.5q13.5 70.5 72 121t129 50.5t112.5 -50.5t29.5 -121t-71.5 -120.5t-130 -50 t-113 50t-28.5 120.5z" />
<glyph unicode="&#xa2;" d="M219 647q41 236 216 396t417 180l80 260l211 -21l-2 -24q-2 -25 -23 -49q-8 -12 -10 -21l-51 -162q172 -45 241 -184l9 -16l-166 -170l-21 16q-23 16 -16 47l4 14q0 2 -2 2q-39 57 -113 89l-227 -730q150 14 274 119l29 25l96 -158l-20 -18q-190 -170 -445 -174l-79 -258 l-195 24l80 264q-166 55 -244 203t-43 346zM453 670q-25 -131 8 -225.5t110 -143.5l224 741q-129 -20 -222 -117t-120 -255z" />
<glyph unicode="&#xa3;" d="M100 156l29 12q100 41 127 55.5t55 48.5q98 115 123 263q14 78 6 196h-161l34 197h117q0 61 10 114q33 195 186.5 316t338.5 121q188 0 305 -129l18 -19l-172 -178l-20 18q-8 6 -13.5 13.5t-7.5 14.5t-4 12.5t-2 8.5v5q-6 6 -19.5 17t-49 25.5t-74.5 14.5 q-92 0 -168 -61.5t-99 -180.5q-8 -47 -6 -112h242l-35 -197h-194q4 -109 -11 -190q-25 -141 -110 -267h10q92 0 207 -46t168 -46q88 0 166 58l34 26l60 -180l-23 -16q-150 -104 -284 -105q-84 0 -205 53.5t-199 53.5q-117 0 -293 -86l-32 -17z" />
<glyph unicode="&#xa4;" d="M221 471l162 131q-43 92 -23.5 201t93.5 201l-113 133l149 127l113 -138q111 61 223 62q113 0 199 -60l160 136l104 -127l-158 -129q47 -94 27 -205q-18 -109 -96 -203l110 -129l-149 -125l-113 131q-102 -57 -219 -57q-115 0 -203 59l-159 -133zM549 804 q-14 -79 38 -135.5t138 -56.5t155.5 56.5t84 135.5t-36.5 135t-136 56t-157 -56t-86 -135z" />
<glyph unicode="&#xa5;" d="M223 203l35 194h332l16 88h-332l35 197h332l2 10l-328 789h254l224 -584l399 582h246l-572 -787l-2 -10h320l-35 -197h-320l-16 -88h320l-35 -194h-320l-35 -203h-223l35 203h-332z" />
<glyph unicode="&#xa6;" d="M434 -389l158 885h221l-158 -885h-221zM616 639l160 909h221l-159 -909h-222z" />
<glyph unicode="&#xa7;" d="M154 106l186 181l20 -8q16 -8 22.5 -22.5t4.5 -25.5l-2 -12q4 -10 15.5 -27.5t35 -42t67.5 -42t99 -17.5q94 0 156.5 45t72.5 105q14 84 -69 137q-37 23 -152.5 57.5t-177.5 73.5q-74 47 -103.5 111.5t-17.5 134.5q12 74 67.5 136t135.5 99q-109 100 -82 252 q25 145 164 248.5t315 103.5q125 0 220.5 -60.5t136.5 -164.5l8 -20l-197 -152l-18 14q-25 23 -19 64q-6 41 -49 80t-116 39q-80 0 -140.5 -44t-70.5 -102q-14 -88 84 -143q29 -16 108.5 -45t126.5 -53q113 -55 156 -131t28 -154q-12 -70 -62 -128t-126 -97 q109 -106 80 -260q-25 -150 -168 -257.5t-330 -107.5q-127 0 -232.5 56.5t-166.5 158.5zM553 797q-16 -92 84 -148q31 -16 104.5 -37.5t106.5 -36.5q63 39 76 109q18 99 -93 158q-27 16 -93 38.5t-89 32.5q-37 -14 -63.5 -45.5t-32.5 -70.5z" />
<glyph unicode="&#xa8;" d="M480.5 1424.5q11.5 62.5 64.5 107.5t115.5 45t99.5 -45t25.5 -107.5t-63.5 -107.5t-115.5 -45t-100.5 45t-25.5 107.5zM945 1424.5q11 62.5 63.5 107.5t116 45t100.5 -45t25.5 -107.5t-63.5 -107.5t-115.5 -45t-100.5 45t-26 107.5z" />
<glyph unicode="&#xa9;" d="M131 618q47 266 258 452.5t461 186.5q164 0 288 -83.5t179 -231t24 -321.5q-45 -264 -256 -450.5t-460 -186.5q-164 0 -289 84t-180.5 231t-24.5 319zM301 621q-35 -199 70.5 -336.5t285 -137.5t333 137.5t190.5 338.5q35 199 -70.5 336t-285 137t-334 -137.5 t-189.5 -337.5zM377 653q29 164 160 273.5t288 109.5q121 0 198 -67.5t85 -173.5l2 -27l-180 -66l-12 17q-8 14 -9.5 29.5t2.5 23.5l2 8q0 4 -2 11.5t-10 18.5t-19.5 21.5t-33 17.5t-49.5 7q-80 0 -144.5 -48t-79.5 -138q-18 -96 28 -161t124 -65q49 0 93 25t75 66l20 30 l140 -106l-21 -25q-68 -82 -161 -129t-189 -47q-156 0 -246 117.5t-61 277.5z" />
<glyph unicode="&#xaa;" d="M227 330l35 190h891l-35 -190h-891zM379 842q12 68 63.5 130t135.5 101q113 55 315 55h32.5h30.5h5q12 72 -3 105q-27 55 -114 55q-133 0 -215 -92l-29 -31l-98 148l20 20q152 143 369 144q106 0 182 -44t103 -130q18 -63 -5 -183l-90 -520h-211l9 45q-117 -66 -236 -65 q-131 0 -207 76.5t-57 185.5zM596 850q-6 -31 21.5 -55.5t82.5 -24.5q90 0 170 55q33 23 44.5 45.5t19.5 65.5v8h-8h-43h-45q-70 0 -111 -4q-63 -10 -94 -35.5t-37 -54.5z" />
<glyph unicode="&#xab;" d="M244 532l14 80l455 361l109 -144l-332 -260l248 -309l-162 -137zM674 532l14 80l455 361l109 -144l-332 -260l248 -309l-162 -137z" />
<glyph unicode="&#xac;" d="M319 643l39 211h828l-92 -512h-213l53 301h-615z" />
<glyph unicode="&#xad;" d="M274 668l39 219h916l-39 -219h-916z" />
<glyph unicode="&#xae;" d="M131 618q47 266 258 452.5t461 186.5q164 0 288 -83.5t179 -231t24 -321.5q-45 -266 -256 -451.5t-460 -185.5q-164 0 -288 84t-180.5 230t-25.5 320zM307 651q-35 -199 70.5 -336t284.5 -137q166 0 313 119l-144 -18l-96 299h-104l-51 -293h-170l129 739 q-88 -66 -149.5 -163t-82.5 -210zM553 1008h238q115 0 170 -25q63 -29 89.5 -85t16.5 -122q-12 -63 -56 -117.5t-106 -80.5l96 -283q143 137 179 328q35 199 -71 336t-286 137q-139 0 -270 -88zM657 733h93q78 0 108 19l2 2h2q33 18 39 53q8 37 -27 57q-26 17 -104 17h-86z " />
<glyph unicode="&#xaf;" d="M508 1280l35 195h663l-35 -195h-663z" />
<glyph unicode="&#xb0;" d="M487.5 1197q22.5 132 142.5 225.5t265 93.5t231 -93.5t63.5 -225.5t-142 -225t-265 -93t-231.5 93t-63.5 225zM695.5 1200q-9.5 -55 27.5 -92t96.5 -37t109.5 37t59 92t-27.5 92t-96 37t-109.5 -37t-59.5 -92z" />
<glyph unicode="&#xb1;" d="M100 10l37 211h1039l-37 -211h-1039zM233 782l37 207h420l66 375h211l-66 -375h406l-37 -207h-406l-78 -444h-211l78 444h-420z" />
<glyph unicode="&#xb2;" d="M383 600l25 145l8 9q57 59 131 117.5t119 89t114.5 73.5t75.5 47q125 80 137 146q6 41 -26.5 71.5t-104.5 30.5q-55 0 -110.5 -25.5t-89.5 -62.5q-4 -4 -10.5 -16.5t-18.5 -28.5l-21 -31l-143 109l18 24q74 100 184.5 156.5t227.5 56.5q150 0 236 -75.5t67 -186.5 q-20 -117 -160 -215q-43 -35 -160.5 -109.5t-189.5 -133.5h361h2q2 2 4 2q35 27 63 16l21 -6l-35 -203h-725z" />
<glyph unicode="&#xb3;" d="M383 780l180 168l19 -24q18 -20 19 -42t3 -24q57 -68 162 -67q78 0 135 37.5t66 84.5q6 10 1 27.5t-15.5 33t-48.5 28t-97 12.5q-35 0 -68 -4l-34 -4l32 188l33 -4q23 -2 43 -2q168 0 178 63q6 29 -29.5 52.5t-103.5 23.5q-117 0 -215 -98l-25 -29l-106 133l20 23 q78 76 174.5 116.5t192.5 40.5q141 0 228 -72.5t69 -174.5q-16 -96 -115 -156q53 -33 78 -88t15 -121q-25 -131 -157 -218t-288 -87q-102 0 -189 43t-143 121z" />
<glyph unicode="&#xb4;" d="M686 1270l311 401l181 -135l-342 -369z" />
<glyph unicode="&#xb5;" d="M-23 -395l7 30q23 127 95.5 409t98.5 431l107 608h217l-111 -630q-20 -121 0 -181q18 -51 58 -79.5t90 -28.5q55 0 111.5 34.5t92.5 94.5q39 61 60 172l108 618h213l-139 -794q-12 -70 0 -94v-2q10 -29 41 -29q25 0 55.5 23.5t45 41t18.5 25.5l35 57l69 -184l-12 -14 q-49 -59 -117.5 -98.5t-140.5 -39.5q-68 0 -116 39t-64 101q-135 -141 -305 -142q-143 0 -222 103q-49 -272 -79 -441l-7 -30h-209z" />
<glyph unicode="&#xb6;" d="M326 1159q20 117 106 216.5t219 150.5q61 25 132 37t114 14t119 2h368l-307 -1741h-198l272 1544h-160l-272 -1544h-203l158 895q-178 23 -277.5 143.5t-70.5 282.5z" />
<glyph unicode="&#xb7;" d="M549 754.5q12 68.5 70.5 118t129 49.5t112.5 -49.5t30 -118t-71.5 -117.5t-130 -49t-111.5 49t-29 117.5z" />
<glyph unicode="&#xb8;" d="M319 -324l95 121l10 -8q86 -82 213 -82q96 0 102 33q2 14 -16 22h-2q-18 10 -78 11h-82l70 227h127l-33 -106l27 -3q63 -4 94 -18q70 -37 55 -115q-12 -72 -94 -125t-207 -53q-158 0 -272 90z" />
<glyph unicode="&#xb9;" d="M504 1339l379 162h141l-158 -901h-213l119 674l-225 -55z" />
<glyph unicode="&#xba;" d="M227 330l35 190h891l-35 -190h-891zM395 1012q35 203 176.5 334t307.5 131q154 0 243.5 -117t55.5 -322q-27 -147 -105 -254.5t-173 -156.5t-195 -49q-160 0 -252.5 120.5t-57.5 313.5zM602 1022q-23 -123 23.5 -184.5t117.5 -61.5q72 0 138.5 60.5t89.5 185.5 q23 127 -21.5 193.5t-117 66.5t-140 -66.5t-90.5 -193.5z" />
<glyph unicode="&#xbb;" d="M184 260l357 309l-242 260l160 144l329 -361l-14 -80l-477 -409zM614 260l357 309l-242 260l160 144l330 -361l-15 -80l-477 -409z" />
<glyph unicode="&#xbc;" d="M158 -20l1052 1609l150 -90l-1055 -1612zM256 1479l303 130h113l-126 -721h-171l96 539l-180 -44zM554 20l17 100l474 455h109l-73 -417h120l-25 -139h-119l-33 -184h-158l33 185h-345zM778 158h148l32 185z" />
<glyph unicode="&#xbd;" d="M158 -20l1052 1609l150 -90l-1055 -1612zM256 1479l303 130h113l-126 -721h-171l96 539l-180 -44zM603 -173l20 116l7 7q45 47 104.5 94t95.5 71.5t91.5 59t60.5 37.5q100 64 109 117q5 32 -21 56.5t-83 24.5q-44 0 -88.5 -20.5t-71.5 -49.5q-4 -3 -9 -13t-15 -23 l-16 -25l-115 87l15 19q59 80 147.5 125.5t181.5 45.5q120 0 189 -60.5t54 -149.5q-16 -93 -128 -172q-35 -28 -129 -87.5t-151 -106.5h288h2q2 1 3 1q28 22 51 13l16 -5l-28 -162h-580z" />
<glyph unicode="&#xbe;" d="M170 -20l1052 1609l150 -90l-1055 -1612zM191 1036l144 134l16 -19q14 -16 15 -33.5t2 -19.5q46 -54 130 -53q62 0 107.5 30t53.5 67q4 8 0 22t-12 26.5t-38.5 22.5t-77.5 10q-28 0 -55 -3l-27 -3l26 150l26 -3q18 -2 34 -2q135 0 143 51q5 23 -23.5 42t-83.5 19 q-93 0 -172 -79l-20 -23l-84 106l16 19q62 61 139 93t154 32q113 0 182.5 -58t55.5 -139q-13 -77 -92 -125q42 -26 62 -70t12 -97q-20 -105 -125.5 -174.5t-230.5 -69.5q-81 0 -151 34.5t-114 96.5zM554 20l17 100l474 455h109l-73 -417h120l-25 -139h-119l-33 -184h-158 l33 185h-345zM778 158h148l32 185z" />
<glyph unicode="&#xbf;" d="M221 418q10 57 33.5 109t48 88t62.5 73t62.5 55.5t62.5 46t48 35.5q51 37 79 75t36 65.5t16 76.5l5 23h217l-4 -23q-16 -98 -51 -171t-126 -154q-12 -10 -55 -49.5t-63.5 -58.5t-51 -55t-48 -72t-23.5 -77q-16 -92 35 -155.5t145 -63.5q82 0 171 51t157 140l26 32 l140 -157l-19 -21q-102 -125 -243.5 -193.5t-284.5 -68.5q-207 0 -307.5 132t-67.5 317zM667.5 1411.5q12.5 68.5 71.5 118t130 49.5t112 -49.5t28.5 -118t-71 -117.5t-129 -49t-112.5 49t-29.5 117.5z" />
<glyph unicode="&#xc0;" d="M12 -2l809 1507h62l329 -1505h-237l-94 401h-426l-213 -403h-230zM543 592h311l-84 440zM615 1727l157 164l383 -185l-108 -145z" />
<glyph unicode="&#xc1;" d="M12 -2l809 1507h62l329 -1505h-237l-94 401h-426l-213 -403h-230zM543 592h311l-84 440zM647 1706l448 185l99 -164l-490 -166z" />
<glyph unicode="&#xc2;" d="M12 -2l809 1507h62l329 -1505h-237l-94 401h-426l-213 -403h-230zM502 1616l391 262h74l281 -258l-142 -135l-221 172l-299 -166zM543 592h311l-84 440z" />
<glyph unicode="&#xc3;" d="M12 -2l809 1507h62l329 -1505h-237l-94 401h-426l-213 -403h-230zM487 1720l21 25q166 158 321 158q106 0 201 -72q55 -43 88 -43q8 0 14.5 1t14.5 3t14 4t16.5 8t16.5 9.5t21.5 12.5t25.5 13l27 29l116 -78l-20 -21q-88 -92 -152.5 -136t-136.5 -44q-55 0 -103 18.5 t-75 40t-56.5 40t-52.5 18.5q-29 0 -58.5 -14.5t-82.5 -55.5l-22 -26zM543 592h311l-84 440z" />
<glyph unicode="&#xc4;" d="M12 -2l809 1507h62l329 -1505h-237l-94 401h-426l-213 -403h-230zM505.5 1719.5q11.5 62.5 64.5 107.5t115.5 45t99.5 -45t25.5 -107.5t-63.5 -107.5t-115.5 -45t-100.5 45t-25.5 107.5zM543 592h311l-84 440zM970 1719.5q11 62.5 63.5 107.5t116 45t100.5 -45 t25.5 -107.5t-63.5 -107.5t-115.5 -45t-100.5 45t-26 107.5z" />
<glyph unicode="&#xc5;" d="M12 -2l809 1507h62l329 -1505h-237l-94 401h-426l-213 -403h-230zM543 592h311l-84 440zM655.5 1671.5q16.5 88.5 94 152t173 63.5t151.5 -63.5t40 -152t-94 -152t-173 -63.5t-151.5 63.5t-40 152zM801 1674q-6 -39 14 -65t56 -26t66 26t36 65q8 39 -13.5 64.5 t-56.5 25.5t-65.5 -26t-36.5 -64z" />
<glyph unicode="&#xc6;" d="M-10 0l743 1481h727l-37 -209h-409l-66 -393h346l-39 -213h-344l-75 -457h395l-37 -209h-606l65 371h-256l-192 -371h-215zM485 569h203l115 648z" />
<glyph unicode="&#xc7;" d="M198.5 436q-16.5 127 16.5 295q29 168 91.5 302t138 218t164.5 139.5t171 78t162 22.5q156 0 272.5 -85t153.5 -226l8 -27l-219 -98l-12 10q-20 16 -15 47q0 6 2 12l3 6q0 2 -5 11q-29 72 -90 113.5t-137 41.5q-150 0 -284 -145t-179 -406q-47 -266 39 -415.5t240 -149.5 q80 0 163 44t142 122l20 27l156 -113l-20 -27q-94 -121 -229.5 -189.5t-276.5 -68.5q-82 0 -158 25t-145.5 80t-112.5 142t-59.5 214zM319 -324l95 121l10 -8q86 -82 213 -82q96 0 102 33q2 14 -16 22h-2q-18 10 -78 11h-82l70 227h127l-33 -106l27 -3q63 -4 94 -18 q70 -37 55 -115q-12 -72 -94 -125t-207 -53q-158 0 -272 90z" />
<glyph unicode="&#xc8;" d="M129 0l260 1481h969l-37 -209h-750l-67 -393h618l-39 -213h-618l-80 -457h743l-36 -209h-963zM615 1727l157 164l383 -185l-108 -145z" />
<glyph unicode="&#xc9;" d="M129 0l260 1481h969l-37 -209h-750l-67 -393h618l-39 -213h-618l-80 -457h743l-36 -209h-963zM688 1706l448 185l99 -164l-490 -166z" />
<glyph unicode="&#xca;" d="M129 0l260 1481h969l-37 -209h-750l-67 -393h618l-39 -213h-618l-80 -457h743l-36 -209h-963zM522 1616l391 262h74l281 -258l-142 -135l-221 172l-299 -166z" />
<glyph unicode="&#xcb;" d="M129 0l260 1481h969l-37 -209h-750l-67 -393h618l-39 -213h-618l-80 -457h743l-36 -209h-963zM521.5 1719.5q11.5 62.5 64.5 107.5t115.5 45t99.5 -45t25.5 -107.5t-63.5 -107.5t-115.5 -45t-100.5 45t-25.5 107.5zM986 1719.5q11 62.5 63.5 107.5t116 45t100.5 -45 t25.5 -107.5t-63.5 -107.5t-115.5 -45t-100.5 45t-26 107.5z" />
<glyph unicode="&#xcc;" d="M182 -2l35 201h291l190 1079h-274l35 201h794l-34 -201h-293l-191 -1081h307l-34 -199h-826zM615 1727l157 164l383 -185l-108 -145z" />
<glyph unicode="&#xcd;" d="M182 -2l35 201h291l190 1079h-274l35 201h794l-34 -201h-293l-191 -1081h307l-34 -199h-826zM688 1706l448 185l99 -164l-490 -166z" />
<glyph unicode="&#xce;" d="M182 -2l35 201h291l190 1079h-274l35 201h794l-34 -201h-293l-191 -1081h307l-34 -199h-826zM499 1616l391 262h74l281 -258l-142 -135l-221 172l-299 -166z" />
<glyph unicode="&#xcf;" d="M182 -2l35 201h291l190 1079h-274l35 201h794l-34 -201h-293l-191 -1081h307l-34 -199h-826zM513.5 1719.5q11.5 62.5 64.5 107.5t115.5 45t99.5 -45t25.5 -107.5t-63.5 -107.5t-115.5 -45t-100.5 45t-25.5 107.5zM978 1719.5q11 62.5 63.5 107.5t116 45t100.5 -45 t25.5 -107.5t-63.5 -107.5t-115.5 -45t-100.5 45t-26 107.5z" />
<glyph unicode="&#xd0;" d="M176 -2l121 686h-115l35 199h115l104 596h363q113 0 191.5 -18.5t144.5 -71.5q82 -66 125 -172.5t46 -223t-18 -245.5q-41 -242 -170 -433.5t-319 -271.5q-111 -45 -289 -45h-334zM426 197h111q76 0 129 9t110 44q106 61 183 188t106 289q47 276 -45 430 q-25 41 -56.5 67.5t-70.5 37t-66.5 13.5t-72.5 3h-138l-69 -395h248l-35 -199h-248z" />
<glyph unicode="&#xd1;" d="M109 0l260 1479h211l393 -1010l178 1012h235l-2 -27q0 -23 -18 -47q-8 -10 -8 -18l-246 -1391h-180l-412 1077l-190 -1075h-221zM497 1720l21 25q166 158 321 158q106 0 201 -72q55 -43 88 -43q8 0 14.5 1t14.5 3t14 4t16.5 8t16.5 9.5t21.5 12.5t25.5 13l27 29l116 -78 l-20 -21q-88 -92 -152.5 -136t-136.5 -44q-55 0 -103 18.5t-75 40t-56.5 40t-52.5 18.5q-29 0 -58.5 -14.5t-82.5 -55.5l-22 -26z" />
<glyph unicode="&#xd2;" d="M173 443q-15 128 17 298q29 164 88.5 297t131 216t157.5 139.5t164 79t154 22.5q137 0 245.5 -73t157.5 -212q63 -176 10 -473q-51 -291 -172 -469q-100 -143 -235 -217t-270 -74q-78 0 -150 25t-138.5 80t-105.5 144t-54 217zM404.5 489.5q9.5 -108.5 53.5 -172t93 -90 t108 -26.5q74 0 150 42t135 130q86 127 125 344q39 227 8 358q-27 104 -92 153.5t-145 49.5q-55 0 -112.5 -24.5t-119 -79t-113 -161t-75.5 -251.5q-25 -164 -15.5 -272.5zM615 1727l157 164l383 -185l-108 -145z" />
<glyph unicode="&#xd3;" d="M173 443q-15 128 17 298q29 164 88.5 297t131 216t157.5 139.5t164 79t154 22.5q137 0 245.5 -73t157.5 -212q63 -176 10 -473q-51 -291 -172 -469q-100 -143 -235 -217t-270 -74q-78 0 -150 25t-138.5 80t-105.5 144t-54 217zM404.5 489.5q9.5 -108.5 53.5 -172t93 -90 t108 -26.5q74 0 150 42t135 130q86 127 125 344q39 227 8 358q-27 104 -92 153.5t-145 49.5q-55 0 -112.5 -24.5t-119 -79t-113 -161t-75.5 -251.5q-25 -164 -15.5 -272.5zM688 1706l448 185l99 -164l-490 -166z" />
<glyph unicode="&#xd4;" d="M173 443q-15 128 17 298q29 164 88.5 297t131 216t157.5 139.5t164 79t154 22.5q137 0 245.5 -73t157.5 -212q63 -176 10 -473q-51 -291 -172 -469q-100 -143 -235 -217t-270 -74q-78 0 -150 25t-138.5 80t-105.5 144t-54 217zM404.5 489.5q9.5 -108.5 53.5 -172t93 -90 t108 -26.5q74 0 150 42t135 130q86 127 125 344q39 227 8 358q-27 104 -92 153.5t-145 49.5q-55 0 -112.5 -24.5t-119 -79t-113 -161t-75.5 -251.5q-25 -164 -15.5 -272.5zM528 1616l391 262h74l281 -258l-142 -135l-221 172l-299 -166z" />
<glyph unicode="&#xd5;" d="M173 443q-15 128 17 298q29 164 88.5 297t131 216t157.5 139.5t164 79t154 22.5q137 0 245.5 -73t157.5 -212q63 -176 10 -473q-51 -291 -172 -469q-100 -143 -235 -217t-270 -74q-78 0 -150 25t-138.5 80t-105.5 144t-54 217zM404.5 489.5q9.5 -108.5 53.5 -172t93 -90 t108 -26.5q74 0 150 42t135 130q86 127 125 344q39 227 8 358q-27 104 -92 153.5t-145 49.5q-55 0 -112.5 -24.5t-119 -79t-113 -161t-75.5 -251.5q-25 -164 -15.5 -272.5zM497 1720l21 25q166 158 321 158q106 0 201 -72q55 -43 88 -43q8 0 14.5 1t14.5 3t14 4t16.5 8 t16.5 9.5t21.5 12.5t25.5 13l27 29l116 -78l-20 -21q-88 -92 -152.5 -136t-136.5 -44q-55 0 -103 18.5t-75 40t-56.5 40t-52.5 18.5q-29 0 -58.5 -14.5t-82.5 -55.5l-22 -26z" />
<glyph unicode="&#xd6;" d="M173 443q-15 128 17 298q29 164 88.5 297t131 216t157.5 139.5t164 79t154 22.5q137 0 245.5 -73t157.5 -212q63 -176 10 -473q-51 -291 -172 -469q-100 -143 -235 -217t-270 -74q-78 0 -150 25t-138.5 80t-105.5 144t-54 217zM404.5 489.5q9.5 -108.5 53.5 -172t93 -90 t108 -26.5q74 0 150 42t135 130q86 127 125 344q39 227 8 358q-27 104 -92 153.5t-145 49.5q-55 0 -112.5 -24.5t-119 -79t-113 -161t-75.5 -251.5q-25 -164 -15.5 -272.5zM521.5 1719.5q11.5 62.5 64.5 107.5t115.5 45t99.5 -45t25.5 -107.5t-63.5 -107.5t-115.5 -45 t-100.5 45t-25.5 107.5zM986 1719.5q11 62.5 63.5 107.5t116 45t100.5 -45t25.5 -107.5t-63.5 -107.5t-115.5 -45t-100.5 45t-26 107.5z" />
<glyph unicode="&#xd7;" d="M258 459l356 311l-247 295l182 152l239 -312l353 309l131 -145l-361 -297l246 -319l-182 -152l-242 315l-350 -305z" />
<glyph unicode="&#xd8;" d="M53 -68l191 261q-115 203 -54 548q29 164 88.5 297t131 216t157.5 139.5t164 79t154 22.5q141 0 252 -80l141 201l164 -96l-180 -246q16 -31 26 -62q63 -178 10 -475q-51 -291 -172 -469q-100 -143 -235 -217t-270 -74q-141 0 -252 80l-156 -217zM406 383l589 834 q-66 61 -155 61q-55 0 -112.5 -25.5t-120 -84t-115 -171t-78.5 -264.5q-37 -207 -8 -350zM510 258q63 -57 149 -57q74 0 150 44t137 138q88 133 127 362q37 205 21 332z" />
<glyph unicode="&#xd9;" d="M184.5 316.5q-4.5 58.5 0 98.5t16.5 103l168 961h237l4 -19q4 -10 2 -22q-4 -20 -30 -49q-4 -4 -7 -13l-149 -854q-23 -129 -2 -196q23 -72 84 -111t143 -39t157 39t124 111q47 68 69 202l168 951h220l-168 -953q-10 -66 -20.5 -107.5t-36 -100t-62.5 -107.5 q-86 -117 -217 -177.5t-273 -60.5q-141 0 -250.5 60.5t-154.5 175.5q-18 49 -22.5 107.5zM615 1727l157 164l383 -185l-108 -145z" />
<glyph unicode="&#xda;" d="M184.5 316.5q-4.5 58.5 0 98.5t16.5 103l168 961h237l4 -19q4 -10 2 -22q-4 -20 -30 -49q-4 -4 -7 -13l-149 -854q-23 -129 -2 -196q23 -72 84 -111t143 -39t157 39t124 111q47 68 69 202l168 951h220l-168 -953q-10 -66 -20.5 -107.5t-36 -100t-62.5 -107.5 q-86 -117 -217 -177.5t-273 -60.5q-141 0 -250.5 60.5t-154.5 175.5q-18 49 -22.5 107.5zM688 1706l448 185l99 -164l-490 -166z" />
<glyph unicode="&#xdb;" d="M184.5 316.5q-4.5 58.5 0 98.5t16.5 103l168 961h237l4 -19q4 -10 2 -22q-4 -20 -30 -49q-4 -4 -7 -13l-149 -854q-23 -129 -2 -196q23 -72 84 -111t143 -39t157 39t124 111q47 68 69 202l168 951h220l-168 -953q-10 -66 -20.5 -107.5t-36 -100t-62.5 -107.5 q-86 -117 -217 -177.5t-273 -60.5q-141 0 -250.5 60.5t-154.5 175.5q-18 49 -22.5 107.5zM528 1616l391 262h74l281 -258l-142 -135l-221 172l-299 -166z" />
<glyph unicode="&#xdc;" d="M184.5 316.5q-4.5 58.5 0 98.5t16.5 103l168 961h237l4 -19q4 -10 2 -22q-4 -20 -30 -49q-4 -4 -7 -13l-149 -854q-23 -129 -2 -196q23 -72 84 -111t143 -39t157 39t124 111q47 68 69 202l168 951h220l-168 -953q-10 -66 -20.5 -107.5t-36 -100t-62.5 -107.5 q-86 -117 -217 -177.5t-273 -60.5q-141 0 -250.5 60.5t-154.5 175.5q-18 49 -22.5 107.5zM541.5 1719.5q11.5 62.5 64.5 107.5t115.5 45t99.5 -45t25.5 -107.5t-63.5 -107.5t-115.5 -45t-100.5 45t-25.5 107.5zM1006 1719.5q11 62.5 63.5 107.5t116 45t100.5 -45 t25.5 -107.5t-63.5 -107.5t-115.5 -45t-100.5 45t-26 107.5z" />
<glyph unicode="&#xdd;" d="M299 1481h258l221 -678l430 676h244l-596 -895l-102 -584h-242l102 584zM688 1706l448 185l99 -164l-490 -166z" />
<glyph unicode="&#xde;" d="M129 0l260 1479h240l4 -21q2 -10 0 -20q-4 -16 -27 -45q-2 -2 -4 -9l-31 -178h252q61 0 98 -2t90.5 -14t96.5 -35q100 -55 141 -158.5t19.5 -224.5t-98 -222t-193.5 -157q-111 -49 -293 -49h-264l-62 -344h-229zM455 551h270q106 0 164 27q59 29 98 81t51 117 q12 68 -10 124t-76 85q-53 29 -164 29h-251z" />
<glyph unicode="&#xdf;" d="M121 0l174 987q12 70 21.5 110t32 101.5t54.5 114.5q82 129 207 201.5t258 72.5q188 0 301 -133t80 -315q-14 -88 -68.5 -166t-133.5 -129q109 -55 157.5 -165t24.5 -245q-33 -193 -191.5 -326t-355.5 -133q-143 0 -250 78l-20 19l149 186l25 -20q53 -49 131 -50 q102 0 189 74t106 180q14 78 -13.5 144.5t-85.5 103.5q-59 41 -184 41h-102l32 184h99q59 0 98 17q63 23 110.5 82t61.5 129q18 104 -37 175t-149 71q-117 0 -207 -105q-51 -57 -74.5 -125.5t-42.5 -167.5l-174 -991h-223z" />
<glyph unicode="&#xe0;" d="M150 313q27 141 94 269.5t153 217.5t183.5 155.5t186.5 98t159 31.5q106 0 167.5 -10t79 -22.5t41 -28.5t54.5 -23l45 -12l-31 -35q-6 -8 -18.5 -41.5t-18.5 -66.5q-25 -127 -50.5 -266.5t-45.5 -251.5q-28 -152 29 -269l-17 -59l-241 -12l-5 26q-16 86 -6 236 q-45 -74 -99 -128t-101 -82t-105.5 -43t-96.5 -18.5t-91 -3.5q-41 0 -78 7q-115 18 -166 102t-22 229zM377 297q-2 -53 24.5 -81t51.5 -28q133 0 265 96.5t208 239.5q53 100 92 287l12 68q-28 18 -96 18q-53 0 -136 -43t-169 -114.5t-157 -181t-93 -224.5q-2 -18 -2 -37z M676 1536l227 135l170 -401l-186 -103z" />
<glyph unicode="&#xe1;" d="M150 313q27 141 94 269.5t153 217.5t183.5 155.5t186.5 98t159 31.5q106 0 167.5 -10t79 -22.5t41 -28.5t54.5 -23l45 -12l-31 -35q-6 -8 -18.5 -41.5t-18.5 -66.5q-25 -127 -50.5 -266.5t-45.5 -251.5q-28 -152 29 -269l-17 -59l-241 -12l-5 26q-16 86 -6 236 q-45 -74 -99 -128t-101 -82t-105.5 -43t-96.5 -18.5t-91 -3.5q-41 0 -78 7q-115 18 -166 102t-22 229zM377 297q-2 -53 24.5 -81t51.5 -28q133 0 265 96.5t208 239.5q53 100 92 287l12 68q-28 18 -96 18q-53 0 -136 -43t-169 -114.5t-157 -181t-93 -224.5q-2 -18 -2 -37z M686 1270l311 401l181 -135l-342 -369z" />
<glyph unicode="&#xe2;" d="M150 313q27 141 94 269.5t153 217.5t183.5 155.5t186.5 98t159 31.5q106 0 167.5 -10t79 -22.5t41 -28.5t54.5 -23l45 -12l-31 -35q-6 -8 -18.5 -41.5t-18.5 -66.5q-25 -127 -50.5 -266.5t-45.5 -251.5q-28 -152 29 -269l-17 -59l-241 -12l-5 26q-16 86 -6 236 q-45 -74 -99 -128t-101 -82t-105.5 -43t-96.5 -18.5t-91 -3.5q-41 0 -78 7q-115 18 -166 102t-22 229zM377 297q-2 -53 24.5 -81t51.5 -28q133 0 265 96.5t208 239.5q53 100 92 287l12 68q-28 18 -96 18q-53 0 -136 -43t-169 -114.5t-157 -181t-93 -224.5q-2 -18 -2 -37z M534 1257l356 369h80l226 -373l-181 -118l-137 237l-231 -237z" />
<glyph unicode="&#xe3;" d="M150 313q27 141 94 269.5t153 217.5t183.5 155.5t186.5 98t159 31.5q106 0 167.5 -10t79 -22.5t41 -28.5t54.5 -23l45 -12l-31 -35q-6 -8 -18.5 -41.5t-18.5 -66.5q-25 -127 -50.5 -266.5t-45.5 -251.5q-28 -152 29 -269l-17 -59l-241 -12l-5 26q-16 86 -6 236 q-45 -74 -99 -128t-101 -82t-105.5 -43t-96.5 -18.5t-91 -3.5q-41 0 -78 7q-115 18 -166 102t-22 229zM377 297q-2 -53 24.5 -81t51.5 -28q133 0 265 96.5t208 239.5q53 100 92 287l12 68q-28 18 -96 18q-53 0 -136 -43t-169 -114.5t-157 -181t-93 -224.5q-2 -18 -2 -37z M467 1421l21 25q166 158 321 158q106 0 201 -72q55 -43 88 -43q8 0 14.5 1t14.5 3t14 4t16.5 8t16.5 9.5t21.5 12.5t25.5 13l27 29l116 -78l-20 -21q-88 -92 -152.5 -136t-136.5 -44q-55 0 -103 18.5t-75 40t-56.5 40t-52.5 18.5q-29 0 -58.5 -14.5t-82.5 -55.5l-22 -26z " />
<glyph unicode="&#xe4;" d="M150 313q27 141 94 269.5t153 217.5t183.5 155.5t186.5 98t159 31.5q106 0 167.5 -10t79 -22.5t41 -28.5t54.5 -23l45 -12l-31 -35q-6 -8 -18.5 -41.5t-18.5 -66.5q-25 -127 -50.5 -266.5t-45.5 -251.5q-28 -152 29 -269l-17 -59l-241 -12l-5 26q-16 86 -6 236 q-45 -74 -99 -128t-101 -82t-105.5 -43t-96.5 -18.5t-91 -3.5q-41 0 -78 7q-115 18 -166 102t-22 229zM377 297q-2 -53 24.5 -81t51.5 -28q133 0 265 96.5t208 239.5q53 100 92 287l12 68q-28 18 -96 18q-53 0 -136 -43t-169 -114.5t-157 -181t-93 -224.5q-2 -18 -2 -37z M511.5 1424.5q11.5 62.5 64.5 107.5t115.5 45t99.5 -45t25.5 -107.5t-63.5 -107.5t-115.5 -45t-100.5 45t-25.5 107.5zM976 1424.5q11 62.5 63.5 107.5t116 45t100.5 -45t25.5 -107.5t-63.5 -107.5t-115.5 -45t-100.5 45t-26 107.5z" />
<glyph unicode="&#xe5;" d="M150 313q27 141 94 269.5t153 217.5t183.5 155.5t186.5 98t159 31.5q106 0 167.5 -10t79 -22.5t41 -28.5t54.5 -23l45 -12l-31 -35q-6 -8 -18.5 -41.5t-18.5 -66.5q-25 -127 -50.5 -266.5t-45.5 -251.5q-28 -152 29 -269l-17 -59l-241 -12l-5 26q-16 86 -6 236 q-45 -74 -99 -128t-101 -82t-105.5 -43t-96.5 -18.5t-91 -3.5q-41 0 -78 7q-115 18 -166 102t-22 229zM377 297q-2 -53 24.5 -81t51.5 -28q133 0 265 96.5t208 239.5q53 100 92 287l12 68q-28 18 -96 18q-53 0 -136 -43t-169 -114.5t-157 -181t-93 -224.5q-2 -18 -2 -37z M651.5 1429.5q16.5 88.5 94 152t173 63.5t151.5 -63.5t40 -152t-94 -152t-173 -63.5t-151.5 63.5t-40 152zM797 1432q-6 -39 14 -65t56 -26t66 26t36 65q8 39 -13.5 64.5t-56.5 25.5t-65.5 -26t-36.5 -64z" />
<glyph unicode="&#xe6;" d="M66 307q20 100 95 187.5t197 136.5q102 39 248 45h29l6 35q14 68 6 104q-8 47 -40 72.5t-79 25.5q-41 0 -89 -24.5t-83 -67.5l-28 -30l-101 159l17 19q66 66 150.5 102.5t168.5 36.5q80 0 143.5 -32t100.5 -89q119 121 274 121q27 0 54 -4q117 -18 173 -112.5t33 -217.5 q-18 -100 -59 -153.5t-147 -81.5q-90 -25 -293 -33h-33l-14 -82q-16 -86 -4 -133q14 -55 59 -86t106 -31q96 0 166 76l27 29l102 -152l-18 -18q-139 -135 -313 -136q-86 0 -158 37t-117 103q-123 -139 -293 -140q-28 0 -55 4q-121 20 -187.5 113.5t-43.5 216.5zM279 270 q-2 -53 30.5 -86.5t83.5 -33.5q43 0 85 24.5t67 69.5q18 37 30 108l25 135h-14q-117 -3 -178 -32q-53 -25 -86 -68t-41 -90q-2 -12 -2 -27zM844 694h14q170 8 213 19q23 8 50.5 30.5t31.5 40.5q2 14 2 29q2 51 -30.5 85t-84.5 34q-43 0 -85 -24.5t-66 -69.5 q-29 -56 -37 -107q-2 -12 -8 -37z" />
<glyph unicode="&#xe7;" d="M219 549q45 242 234.5 399.5t439.5 157.5q137 0 241.5 -57.5t155.5 -159.5l10 -21l-182 -176l-20 19q-14 12 -18.5 29.5t-0.5 27.5l4 10q-6 12 -18 27.5t-38 39t-71 39t-100 15.5q-141 0 -254 -94t-143 -252q-8 -43 -8 -84q0 -127 74.5 -203t199.5 -76q82 0 188.5 35 t161.5 88l27 25l112 -166l-18 -18q-94 -84 -239.5 -132.5t-274.5 -48.5q-49 1 -96 9q-203 33 -305.5 191.5t-61.5 375.5zM319 -324l95 121l10 -8q86 -82 213 -82q96 0 102 33q2 14 -16 22h-2q-18 10 -78 11h-82l70 227h127l-33 -106l27 -3q63 -4 94 -18q70 -37 55 -115 q-12 -72 -94 -125t-207 -53q-158 0 -272 90z" />
<glyph unicode="&#xe8;" d="M199 539q27 139 89 250.5t145 180t174 104.5t181 36q154 0 228 -20.5t125 -63.5q111 -98 84 -246q-18 -94 -93 -154.5t-221 -107.5q-68 -23 -152.5 -34t-143 -13t-156.5 -2h-35q-4 -51 -6 -91t11 -71t26.5 -52.5t38 -35.5t46 -23.5t50 -14.5t51.5 -6t49 -1q82 0 185.5 32 t156.5 83l25 22l117 -139l-21 -20q-86 -84 -228.5 -130.5t-273.5 -46.5q-57 1 -108 9q-195 33 -291 179t-53 376zM457 662h54h62q150 0 224 14q106 20 145 42.5t47 63.5q2 10 2 21q0 49 -41 82t-125 33q-72 0 -141.5 -24t-135 -84t-91.5 -148zM676 1536l227 135l170 -401 l-186 -103z" />
<glyph unicode="&#xe9;" d="M199 539q27 139 89 250.5t145 180t174 104.5t181 36q154 0 228 -20.5t125 -63.5q111 -98 84 -246q-18 -94 -93 -154.5t-221 -107.5q-68 -23 -152.5 -34t-143 -13t-156.5 -2h-35q-4 -51 -6 -91t11 -71t26.5 -52.5t38 -35.5t46 -23.5t50 -14.5t51.5 -6t49 -1q82 0 185.5 32 t156.5 83l25 22l117 -139l-21 -20q-86 -84 -228.5 -130.5t-273.5 -46.5q-57 1 -108 9q-195 33 -291 179t-53 376zM457 662h54h62q150 0 224 14q106 20 145 42.5t47 63.5q2 10 2 21q0 49 -41 82t-125 33q-72 0 -141.5 -24t-135 -84t-91.5 -148zM686 1270l311 401l181 -135 l-342 -369z" />
<glyph unicode="&#xea;" d="M199 539q27 139 89 250.5t145 180t174 104.5t181 36q154 0 228 -20.5t125 -63.5q111 -98 84 -246q-18 -94 -93 -154.5t-221 -107.5q-68 -23 -152.5 -34t-143 -13t-156.5 -2h-35q-4 -51 -6 -91t11 -71t26.5 -52.5t38 -35.5t46 -23.5t50 -14.5t51.5 -6t49 -1q82 0 185.5 32 t156.5 83l25 22l117 -139l-21 -20q-86 -84 -228.5 -130.5t-273.5 -46.5q-57 1 -108 9q-195 33 -291 179t-53 376zM457 662h54h62q150 0 224 14q106 20 145 42.5t47 63.5q2 10 2 21q0 49 -41 82t-125 33q-72 0 -141.5 -24t-135 -84t-91.5 -148zM518 1257l356 369h80l226 -373 l-181 -118l-137 237l-231 -237z" />
<glyph unicode="&#xeb;" d="M199 539q27 139 89 250.5t145 180t174 104.5t181 36q154 0 228 -20.5t125 -63.5q111 -98 84 -246q-18 -94 -93 -154.5t-221 -107.5q-68 -23 -152.5 -34t-143 -13t-156.5 -2h-35q-4 -51 -6 -91t11 -71t26.5 -52.5t38 -35.5t46 -23.5t50 -14.5t51.5 -6t49 -1q82 0 185.5 32 t156.5 83l25 22l117 -139l-21 -20q-86 -84 -228.5 -130.5t-273.5 -46.5q-57 1 -108 9q-195 33 -291 179t-53 376zM457 662h54h62q150 0 224 14q106 20 145 42.5t47 63.5q2 10 2 21q0 49 -41 82t-125 33q-72 0 -141.5 -24t-135 -84t-91.5 -148zM484.5 1424.5 q11.5 62.5 64.5 107.5t115.5 45t99.5 -45t25.5 -107.5t-63.5 -107.5t-115.5 -45t-100.5 45t-25.5 107.5zM949 1424.5q11 62.5 63.5 107.5t116 45t100.5 -45t25.5 -107.5t-63.5 -107.5t-115.5 -45t-100.5 45t-26 107.5z" />
<glyph unicode="&#xec;" d="M403 885l35 200h496l-139 -741q-8 -47 -9 -72q0 -35 10.5 -48t39.5 -13q27 0 78 5t73 7l41 2l-45 -225h-135q-154 0 -213 39q-115 76 -74 291v5v5l105 545h-263zM574 1536l227 135l170 -401l-186 -103z" />
<glyph unicode="&#xed;" d="M403 885l35 200h496l-139 -741q-8 -47 -9 -72q0 -35 10.5 -48t39.5 -13q27 0 78 5t73 7l41 2l-45 -225h-135q-154 0 -213 39q-115 76 -74 291v5v5l105 545h-263zM686 1270l311 401l181 -135l-342 -369z" />
<glyph unicode="&#xee;" d="M403 885l35 200h496l-139 -741q-8 -47 -9 -72q0 -35 10.5 -48t39.5 -13q27 0 78 5t73 7l41 2l-45 -225h-135q-154 0 -213 39q-115 76 -74 291v5v5l105 545h-263zM489 1257l356 369h80l226 -373l-181 -118l-137 237l-231 -237z" />
<glyph unicode="&#xef;" d="M403 885l35 200h496l-139 -741q-8 -47 -9 -72q0 -35 10.5 -48t39.5 -13q27 0 78 5t73 7l41 2l-45 -225h-135q-154 0 -213 39q-115 76 -74 291v5v5l105 545h-263zM476.5 1424.5q11.5 62.5 64.5 107.5t115.5 45t99.5 -45t25.5 -107.5t-63.5 -107.5t-115.5 -45t-100.5 45 t-25.5 107.5zM941 1424.5q11 62.5 63.5 107.5t116 45t100.5 -45t25.5 -107.5t-63.5 -107.5t-115.5 -45t-100.5 45t-26 107.5z" />
<glyph unicode="&#xf0;" d="M178 528q43 240 228.5 410t398.5 170q109 0 194 -51q-37 102 -98 188l-328 -88l-34 170l231 59q-78 66 -168 111l-80 39l307 61l9 -6q98 -61 176 -141l278 74l35 -164l-199 -53q195 -291 121 -705q-45 -252 -168 -403q-86 -109 -207.5 -168.5t-250.5 -59.5 q-223 0 -354.5 160t-90.5 397zM424 551q-29 -174 43 -272.5t192 -98.5q47 0 96.5 17.5t100.5 56.5t91.5 116t58.5 179q18 86 6.5 147.5t-31.5 101.5t-57 62.5t-71 31.5t-69 9q-119 0 -224 -90t-136 -260z" />
<glyph unicode="&#xf1;" d="M145 0l142 756q16 111 12 181.5t-23 102.5l-20 37l270 33l9 -23q12 -39 8 -149q180 170 368 172q104 2 181 -53.5t104 -149.5q27 -90 -6 -260l-60 -317q-8 -51 -9 -99.5t3 -79t11.5 -59.5t10.5 -37t7 -14l18 -39l-288 -14l-2 28q-12 133 18 299l64 332q27 145 -15 203 q-35 51 -108 51q-66 0 -141.5 -43t-123.5 -90q-37 -37 -53 -71.5t-24 -88.5l-115 -608h-238zM432 1421l21 25q166 158 321 158q106 0 201 -72q55 -43 88 -43q8 0 14.5 1t14.5 3t14 4t16.5 8t16.5 9.5t21.5 12.5t25.5 13l27 29l116 -78l-20 -21q-88 -92 -152.5 -136 t-136.5 -44q-55 0 -103 18.5t-75 40t-56.5 40t-52.5 18.5q-29 0 -58.5 -14.5t-82.5 -55.5l-22 -26z" />
<glyph unicode="&#xf2;" d="M180 535q43 244 231.5 408.5t413.5 164.5q100 0 185.5 -37t144.5 -109.5t83 -179t-1 -245.5q-45 -256 -223 -411t-396 -155q-221 0 -351 161t-87 403zM424 549q-29 -170 42 -269.5t191 -99.5q115 0 215.5 91t131.5 259q33 182 -39 276.5t-189 94.5t-220 -93t-132 -259z M676 1536l227 135l170 -401l-186 -103z" />
<glyph unicode="&#xf3;" d="M180 535q43 244 231.5 408.5t413.5 164.5q100 0 185.5 -37t144.5 -109.5t83 -179t-1 -245.5q-45 -256 -223 -411t-396 -155q-221 0 -351 161t-87 403zM424 549q-29 -170 42 -269.5t191 -99.5q115 0 215.5 91t131.5 259q33 182 -39 276.5t-189 94.5t-220 -93t-132 -259z M686 1270l311 401l181 -135l-342 -369z" />
<glyph unicode="&#xf4;" d="M180 535q43 244 231.5 408.5t413.5 164.5q100 0 185.5 -37t144.5 -109.5t83 -179t-1 -245.5q-45 -256 -223 -411t-396 -155q-221 0 -351 161t-87 403zM424 549q-29 -170 42 -269.5t191 -99.5q115 0 215.5 91t131.5 259q33 182 -39 276.5t-189 94.5t-220 -93t-132 -259z M518 1257l356 369h80l226 -373l-181 -118l-137 237l-231 -237z" />
<glyph unicode="&#xf5;" d="M180 535q43 244 231.5 408.5t413.5 164.5q100 0 185.5 -37t144.5 -109.5t83 -179t-1 -245.5q-45 -256 -223 -411t-396 -155q-221 0 -351 161t-87 403zM424 549q-29 -170 42 -269.5t191 -99.5q115 0 215.5 91t131.5 259q33 182 -39 276.5t-189 94.5t-220 -93t-132 -259z M444 1421l21 25q166 158 321 158q106 0 201 -72q55 -43 88 -43q8 0 14.5 1t14.5 3t14 4t16.5 8t16.5 9.5t21.5 12.5t25.5 13l27 29l116 -78l-20 -21q-88 -92 -152.5 -136t-136.5 -44q-55 0 -103 18.5t-75 40t-56.5 40t-52.5 18.5q-29 0 -58.5 -14.5t-82.5 -55.5l-22 -26z " />
<glyph unicode="&#xf6;" d="M180 535q43 244 231.5 408.5t413.5 164.5q100 0 185.5 -37t144.5 -109.5t83 -179t-1 -245.5q-45 -256 -223 -411t-396 -155q-221 0 -351 161t-87 403zM424 549q-29 -170 42 -269.5t191 -99.5q115 0 215.5 91t131.5 259q33 182 -39 276.5t-189 94.5t-220 -93t-132 -259z M480.5 1424.5q11.5 62.5 64.5 107.5t115.5 45t99.5 -45t25.5 -107.5t-63.5 -107.5t-115.5 -45t-100.5 45t-25.5 107.5zM945 1424.5q11 62.5 63.5 107.5t116 45t100.5 -45t25.5 -107.5t-63.5 -107.5t-115.5 -45t-100.5 45t-26 107.5z" />
<glyph unicode="&#xf7;" d="M270 637l39 219h916l-39 -219h-916zM555 376.5q10 57.5 57 97.5t104.5 40t90.5 -40t23.5 -97.5t-57.5 -97t-104.5 -39.5t-90 39.5t-23.5 97zM680 1077.5q10 57.5 57 97t103.5 39.5t90.5 -39.5t23.5 -97t-57.5 -97.5t-104.5 -40t-90 40t-22.5 97.5z" />
<glyph unicode="&#xf8;" d="M131 -70l143 191q-139 164 -94 411q43 246 231.5 411t413.5 165q88 0 166 -31l119 164l164 -96l-129 -170q141 -162 92 -436q-45 -258 -223 -413t-396 -155q-106 0 -196 43l-129 -176zM420 518q-23 -127 6 -225l428 594q-37 14 -78 14q-117 0 -221 -101.5t-135 -281.5z M557 203q47 -23 100 -23q115 0 217.5 98.5t133.5 282.5q27 147 -11 250z" />
<glyph unicode="&#xf9;" d="M202 304q-1 54 4 88t15 95l62 324q29 145 -19 229l-20 37l270 33l8 -23q31 -90 8 -210l-73 -394q-27 -139 -4 -204q37 -104 155 -105q66 0 136.5 39t115.5 98q53 70 76 191l111 581h233l-141 -755q-10 -47 -8 -96.5t6 -79t15 -58t15 -37t9 -12.5l26 -43l-291 -14l-4 20 q-10 39 -14 113q-78 -66 -172 -107t-176 -41q-119 0 -209 60.5t-121 171.5q-12 45 -13 99zM676 1536l227 135l170 -401l-186 -103z" />
<glyph unicode="&#xfa;" d="M202 304q-1 54 4 88t15 95l62 324q29 145 -19 229l-20 37l270 33l8 -23q31 -90 8 -210l-73 -394q-27 -139 -4 -204q37 -104 155 -105q66 0 136.5 39t115.5 98q53 70 76 191l111 581h233l-141 -755q-10 -47 -8 -96.5t6 -79t15 -58t15 -37t9 -12.5l26 -43l-291 -14l-4 20 q-10 39 -14 113q-78 -66 -172 -107t-176 -41q-119 0 -209 60.5t-121 171.5q-12 45 -13 99zM686 1270l311 401l181 -135l-342 -369z" />
<glyph unicode="&#xfb;" d="M202 304q-1 54 4 88t15 95l62 324q29 145 -19 229l-20 37l270 33l8 -23q31 -90 8 -210l-73 -394q-27 -139 -4 -204q37 -104 155 -105q66 0 136.5 39t115.5 98q53 70 76 191l111 581h233l-141 -755q-10 -47 -8 -96.5t6 -79t15 -58t15 -37t9 -12.5l26 -43l-291 -14l-4 20 q-10 39 -14 113q-78 -66 -172 -107t-176 -41q-119 0 -209 60.5t-121 171.5q-12 45 -13 99zM518 1257l356 369h80l226 -373l-181 -118l-137 237l-231 -237z" />
<glyph unicode="&#xfc;" d="M202 304q-1 54 4 88t15 95l62 324q29 145 -19 229l-20 37l270 33l8 -23q31 -90 8 -210l-73 -394q-27 -139 -4 -204q37 -104 155 -105q66 0 136.5 39t115.5 98q53 70 76 191l111 581h233l-141 -755q-10 -47 -8 -96.5t6 -79t15 -58t15 -37t9 -12.5l26 -43l-291 -14l-4 20 q-10 39 -14 113q-78 -66 -172 -107t-176 -41q-119 0 -209 60.5t-121 171.5q-12 45 -13 99zM480.5 1424.5q11.5 62.5 64.5 107.5t115.5 45t99.5 -45t25.5 -107.5t-63.5 -107.5t-115.5 -45t-100.5 45t-25.5 107.5zM945 1424.5q11 62.5 63.5 107.5t116 45t100.5 -45 t25.5 -107.5t-63.5 -107.5t-115.5 -45t-100.5 45t-26 107.5z" />
<glyph unicode="&#xfd;" d="M51 -227l174 186l23 -22q6 -6 9 -11.5t5 -10.5t3 -9t1 -7v-6.5v-4.5v-3q23 -29 88.5 -65.5t139.5 -36.5h60h41.5t33 2t23 3t20.5 6t16 7t22.5 10.5t26.5 14.5q84 41 99 123l30 151q-166 -127 -321 -127q-119 0 -209 60.5t-121 171.5q-12 45 -13 99t4 88t15 95l62 324 q29 145 -19 229l-20 37l270 33l8 -23q31 -90 8 -210l-73 -394q-27 -139 -4 -204q37 -104 155 -105q66 0 136.5 39t115.5 98q53 70 76 191l111 581h233l-213 -1136q-12 -63 -48 -124t-96.5 -114t-156.5 -85t-213 -32q-225 0 -330.5 37t-159.5 123zM686 1270l311 401l181 -135 l-342 -369z" />
<glyph unicode="&#xfe;" d="M63 -395l349 1972h250l-7 -35q-4 -25 -16 -44t-14 -30l-86 -491q152 131 333 131q90 0 166 -34t133.5 -102.5t78 -172t-2.5 -244.5q-25 -141 -87 -255t-144 -184.5t-173 -107.5t-184 -37q-172 0 -274 119l-86 -485h-236zM443 414q-5 -49 6 -109q16 -57 71 -89t127 -32 q33 0 68 6.5t81 28t85 56t72.5 98t47.5 147.5q16 74 11.5 130.5t-15 97t-34 68.5t-45 44.5t-51 25.5t-50 12t-41.5 3q-76 0 -143.5 -35t-104.5 -94q-35 -53 -57 -184q-23 -125 -28 -174z" />
<glyph unicode="&#xff;" d="M51 -227l174 186l23 -22q6 -6 9 -11.5t5 -10.5t3 -9t1 -7v-6.5v-4.5v-3q23 -29 88.5 -65.5t139.5 -36.5h60h41.5t33 2t23 3t20.5 6t16 7t22.5 10.5t26.5 14.5q84 41 99 123l30 151q-166 -127 -321 -127q-119 0 -209 60.5t-121 171.5q-12 45 -13 99t4 88t15 95l62 324 q29 145 -19 229l-20 37l270 33l8 -23q31 -90 8 -210l-73 -394q-27 -139 -4 -204q37 -104 155 -105q66 0 136.5 39t115.5 98q53 70 76 191l111 581h233l-213 -1136q-12 -63 -48 -124t-96.5 -114t-156.5 -85t-213 -32q-225 0 -330.5 37t-159.5 123zM480.5 1424.5 q11.5 62.5 64.5 107.5t115.5 45t99.5 -45t25.5 -107.5t-63.5 -107.5t-115.5 -45t-100.5 45t-25.5 107.5zM945 1424.5q11 62.5 63.5 107.5t116 45t100.5 -45t25.5 -107.5t-63.5 -107.5t-115.5 -45t-100.5 45t-26 107.5z" />
<glyph unicode="&#x152;" d="M119 295q-23 182 24 446q57 326 172 512q80 127 181.5 186.5t193.5 59.5q90 0 156 -49l4 31h610l-37 -209h-401l-68 -393h340l-39 -213h-340l-79 -457h395l-37 -209h-606l6 35q-82 -51 -172 -51q-111 0 -196 76.5t-107 234.5zM346 328q20 -78 56 -108t75 -30q49 0 95 39 t75 105l139 790q-12 72 -44.5 124t-86.5 52q-43 0 -91 -38.5t-93 -120.5q-63 -113 -111 -373q-51 -293 -14 -440z" />
<glyph unicode="&#x153;" d="M100 176q-43 135 4 389q39 217 134 342q72 96 168 147.5t192 51.5q133 0 209 -92q115 92 252 92q100 0 180 -54.5t100 -164.5q12 -66 2 -119q-23 -94 -62.5 -150.5t-119.5 -82.5q-121 -41 -258 -41h-139q-29 -170 -10 -228q27 -104 163 -104q121 0 209 78l27 24l100 -147 l-20 -17q-156 -129 -344 -129q-150 0 -256 90q-121 -88 -250 -88q-90 0 -168 49.5t-113 153.5zM295 315q10 -74 47 -104.5t84 -30.5q39 0 70.5 18.5t35.5 43.5q2 2 2.5 44t7.5 117.5t23 161.5q12 72 29.5 134.5t30 98.5t12.5 42q6 29 -11.5 45t-54.5 16q-43 0 -92 -28.5 t-86 -84.5q-55 -80 -82 -213q-31 -166 -16 -260zM799 662q217 8 254 18q20 6 54 33.5t36 46.5q2 12 2 24q2 53 -36 92t-91 39q-109 1 -172 -112q-31 -68 -47 -141z" />
<glyph unicode="&#x178;" d="M299 1481h258l221 -678l430 676h244l-596 -895l-102 -584h-242l102 584zM521.5 1719.5q11.5 62.5 64.5 107.5t115.5 45t99.5 -45t25.5 -107.5t-63.5 -107.5t-115.5 -45t-100.5 45t-25.5 107.5zM986 1719.5q11 62.5 63.5 107.5t116 45t100.5 -45t25.5 -107.5t-63.5 -107.5 t-115.5 -45t-100.5 45t-26 107.5z" />
<glyph unicode="&#x2c6;" d="M518 1257l356 369h80l226 -373l-181 -118l-137 237l-231 -237z" />
<glyph unicode="&#x2dc;" d="M444 1421l21 25q166 158 321 158q106 0 201 -72q55 -43 88 -43q8 0 14.5 1t14.5 3t14 4t16.5 8t16.5 9.5t21.5 12.5t25.5 13l27 29l116 -78l-20 -21q-88 -92 -152.5 -136t-136.5 -44q-55 0 -103 18.5t-75 40t-56.5 40t-52.5 18.5q-29 0 -58.5 -14.5t-82.5 -55.5l-22 -26z " />
<glyph unicode="&#x2000;" horiz-adv-x="951" />
<glyph unicode="&#x2001;" horiz-adv-x="1903" />
<glyph unicode="&#x2002;" horiz-adv-x="951" />
<glyph unicode="&#x2003;" horiz-adv-x="1903" />
<glyph unicode="&#x2004;" horiz-adv-x="634" />
<glyph unicode="&#x2005;" horiz-adv-x="475" />
<glyph unicode="&#x2006;" horiz-adv-x="317" />
<glyph unicode="&#x2007;" horiz-adv-x="317" />
<glyph unicode="&#x2008;" horiz-adv-x="237" />
<glyph unicode="&#x2009;" horiz-adv-x="380" />
<glyph unicode="&#x200a;" horiz-adv-x="105" />
<glyph unicode="&#x2010;" d="M274 668l39 219h916l-39 -219h-916z" />
<glyph unicode="&#x2011;" d="M274 668l39 219h916l-39 -219h-916z" />
<glyph unicode="&#x2012;" d="M274 668l39 219h916l-39 -219h-916z" />
<glyph unicode="&#x2013;" d="M338 668l39 219h786l-39 -219h-786z" />
<glyph unicode="&#x2014;" d="M197 668l39 219h1089l-39 -219h-1089z" />
<glyph unicode="&#x2018;" d="M574 1098q33 176 334 407l24 21l113 -99l-31 -18q-72 -51 -133 -121q-39 -43 -45 -72q-2 -16 6 -26t29 -23q70 -53 55 -131q-10 -68 -67.5 -117t-129.5 -49q-80 0 -126 64.5t-29 163.5z" />
<glyph unicode="&#x2019;" d="M532 957l31 18q72 51 133 121q39 43 45 72q2 16 -6 26t-29 23q-70 53 -55 131q10 68 67.5 117t129.5 49q80 0 126 -64.5t29 -163.5q-33 -176 -334 -407l-24 -21z" />
<glyph unicode="&#x201a;" d="M309 -313l31 18q72 51 133 121q39 43 45 72q2 16 -6 26t-29 23q-70 53 -55 131q10 68 67.5 117t129.5 49q80 0 126 -64.5t29 -163.5q-33 -176 -334 -407l-24 -21z" />
<glyph unicode="&#x201c;" d="M328 1098q33 176 334 407l24 21l113 -99l-31 -18q-72 -51 -133 -121q-39 -43 -45 -72q-2 -16 6 -26t29 -23q70 -53 55 -131q-10 -68 -67.5 -117t-129.5 -49q-80 0 -126 64.5t-29 163.5zM820 1098q33 176 334 407l24 21l113 -99l-31 -18q-72 -51 -133 -121 q-39 -43 -45 -72q-2 -16 6 -26t29 -23q70 -53 55 -131q-10 -68 -67.5 -117t-129.5 -49q-80 0 -126 64.5t-29 163.5z" />
<glyph unicode="&#x201d;" d="M286 957l31 18q72 51 133 121q39 43 45 72q2 16 -6 26t-29 23q-70 53 -55 131q10 68 67.5 117t129.5 49q80 0 126 -64.5t29 -163.5q-33 -176 -334 -407l-24 -21zM778 957l31 18q72 51 133 121q39 43 45 72q2 16 -6 26t-29 23q-70 53 -55 131q10 68 67.5 117t129.5 49 q80 0 126 -64.5t29 -163.5q-33 -176 -334 -407l-24 -21z" />
<glyph unicode="&#x201e;" d="M63 -313l31 18q72 51 133 121q39 43 45 72q2 16 -6 26t-29 23q-70 53 -55 131q10 68 67.5 117t129.5 49q80 0 126 -64.5t29 -163.5q-33 -176 -334 -407l-24 -21zM555 -313l31 18q72 51 133 121q39 43 45 72q2 16 -6 26t-29 23q-70 53 -55 131q10 68 67.5 117t129.5 49 q80 0 126 -64.5t29 -163.5q-33 -176 -334 -407l-24 -21z" />
<glyph unicode="&#x2022;" d="M519.5 703.5q17.5 95.5 97 162t176 66.5t152.5 -66.5t39 -162t-97 -162t-176.5 -66.5t-152.5 66.5t-38.5 162z" />
<glyph unicode="&#x2026;" d="M20 78.5q12 68.5 70.5 118t129 49.5t112.5 -49.5t30 -118t-71.5 -117.5t-130 -49t-111.5 49t-29 117.5zM430 78.5q12 68.5 70.5 118t129 49.5t112.5 -49.5t30 -118t-71.5 -117.5t-130 -49t-111.5 49t-29 117.5zM840 78.5q12 68.5 70.5 118t129 49.5t112.5 -49.5t30 -118 t-71.5 -117.5t-130 -49t-111.5 49t-29 117.5z" />
<glyph unicode="&#x202f;" horiz-adv-x="380" />
<glyph unicode="&#x2039;" d="M428 532l14 80l455 361l109 -144l-332 -260l248 -309l-162 -137z" />
<glyph unicode="&#x203a;" d="M369 260l356 309l-242 260l160 144l330 -361l-15 -80l-477 -409z" />
<glyph unicode="&#x205f;" horiz-adv-x="475" />
<glyph unicode="&#x20ac;" d="M145 487l80 199h88q2 4 2 6q10 63 25 123h-137l80 199h123q49 117 116 205q115 143 260.5 206.5t282.5 63.5q206 0 317 -135l13 -15l-121 -221l-29 27q-12 14 -16 27.5t-2 19.5l4 6q-8 12 -25.5 28.5t-70 41t-115.5 24.5q-113 0 -222.5 -64.5t-179.5 -207.5q-2 -2 -4 -6 h592l-108 -199h-549q-12 -51 -23 -108q-2 -10 -2 -21h502l-113 -199h-403q6 -104 51 -176q86 -133 266 -133q135 0 250 88l33 27l68 -174l-21 -17q-172 -129 -375 -129q-66 0 -128 13.5t-128.5 50.5t-117 92t-82 148.5t-31.5 209.5h-150z" />
<glyph unicode="&#x2122;" d="M270 1350l27 155h586l-27 -155h-213l-104 -590h-168l102 590h-203zM758 760l133 745h133l98 -307q27 39 80 119q59 86 121 172l12 16h127l-133 -745h-160l74 422q-14 -20 -18 -27q-49 -66 -92 -127l-13 -16l-73 4l-54 158l-73 -414h-162z" />
<glyph unicode="&#xe000;" horiz-adv-x="1085" d="M0 0v1085h1085v-1085h-1085z" />
</font>
</defs>
</svg>
