<?xml version="1.0" standalone="no"?>
<!DOCTYPE svg PUBLIC "-//W3C//DTD SVG 1.1//EN" "http://www.w3.org/Graphics/SVG/1.1/DTD/svg11.dtd" >
<svg xmlns="http://www.w3.org/2000/svg">
<metadata></metadata>
<defs>
<font id="linux_libertinebold_italic" horiz-adv-x="1052" >
<font-face units-per-em="2048" ascent="1638" descent="-410" />
<missing-glyph horiz-adv-x="512" />
<glyph unicode="&#x2e;&#x2e;&#x2e;" horiz-adv-x="1533" d="M82 119q0 59 45 102t106.5 43t104.5 -41t43 -100q0 -57 -45 -100t-106.5 -43t-104.5 41t-43 98zM625 119q0 59 45 102t106.5 43t104.5 -41t43 -100q0 -57 -45 -100t-106.5 -43t-104.5 41t-43 98zM1165 119q0 59 45 102t106.5 43t104.5 -41t43 -100q0 -57 -45 -100 t-106.5 -43t-104.5 41t-43 98z" />
<glyph unicode="&#xfb01;" horiz-adv-x="1421" d="M-199 -344q0 36 25 65.5t72 29.5q32 0 63.5 -23.5t51.5 -50.5q2 -3 6.5 -10.5t6.5 -10t6 -8.5t7 -8.5t8 -6t9.5 -5t10.5 -3t14 -1.5q28 0 60 21t52 53q41 64 61 152t34.5 247.5t18.5 191.5q8 61 84 493h-168q-12 0 -12 4q0 27 8 52q8 33 57 34l136 7q20 106 61 189 t76 124t102 106q57 56 148 93.5t168 37.5q89 0 183.5 -27.5t161 -79t66.5 -109.5q0 -51 -30.5 -94.5t-94.5 -43.5q-37 0 -64 14.5t-42 41.5t-23 50t-14 55q-9 45 -48 68.5t-94 23.5q-51 0 -106.5 -37.5t-86.5 -92.5q-47 -83 -73 -203l-24 -116h409q162 14 234 14 q42 0 42 -43q0 -16 -6 -44.5t-17.5 -75t-17.5 -74.5l-87 -402q-29 -125 8 -125q18 0 62.5 27.5t80.5 68.5q18 0 36 -19.5t24 -37.5q-70 -90 -170 -139t-209 -49q-76 0 -100 67q-16 45 14 189l90 421q12 57 12 84q0 39 -36 41h-383l-7 -34q-17 -96 -50.5 -257t-45.5 -225 q-24 -128 -54 -226.5t-70.5 -174t-57.5 -102t-60 -86.5q-55 -77 -130.5 -116t-154.5 -39q-114 0 -173.5 42.5t-59.5 91.5z" />
<glyph horiz-adv-x="2048" />
<glyph horiz-adv-x="2048" />
<glyph unicode="&#xd;" horiz-adv-x="682" />
<glyph unicode=" "  horiz-adv-x="512" />
<glyph unicode="&#x09;" horiz-adv-x="512" />
<glyph unicode="&#xa0;" horiz-adv-x="512" />
<glyph unicode="!" horiz-adv-x="544" d="M127 119q0 59 45 102t106.5 43t104.5 -41t43 -100q0 -57 -45 -100t-106.5 -43t-104.5 41t-43 98zM280 414q-6 29 7 82q14 74 29.5 227t19.5 260q4 144 19 211q17 78 67.5 116t103.5 38q58 0 89.5 -40t16.5 -114q-12 -59 -74 -217q-129 -350 -165 -506q-20 -86 -72 -86 q-35 0 -41 29z" />
<glyph unicode="&#x22;" horiz-adv-x="770" d="M255 850q12 348 15 360q8 41 49 76t100 35q54 0 66.5 -20.5t3.5 -55.5q-3 -14 -41.5 -111.5t-57.5 -143.5l-55 -136l-53 -12zM527 850q12 348 15 360q9 40 50 75.5t98 35.5q38 0 56 -11.5t18 -28.5t-3 -36q-3 -14 -41.5 -111.5t-75.5 -188.5l-38 -91l-52 -12z" />
<glyph unicode="#" d="M143 383l46 135h193q69 190 79 219h-193l46 135h193q22 59 65.5 177t65.5 178h108l-133 -355h187q22 59 64.5 177t64.5 178h100l-127 -355h225l-46 -135h-227l-80 -219h227l-44 -135h-229q-20 -55 -62.5 -173t-66.5 -181h-102l131 354h-185q-22 -56 -65 -173.5 t-68 -180.5h-106l130 354h-191zM487 518h185l80 219h-181q-14 -38 -42 -109.5t-42 -109.5z" />
<glyph unicode="$" d="M161 18q-8 125 32 314q64 17 90 6q0 -110 50 -182.5t128 -89.5l114 430q-8 6 -44.5 31t-54 38.5t-46.5 38t-48.5 50t-33.5 53.5q-42 85 -14 215q14 67 59 130t107 107q117 83 274 90l43 163q28 10 81 10l-46 -175q64 -4 131.5 -24.5t96.5 -24.5q-20 -184 -42 -289 q-16 -12 -45 -14.5t-46 4.5q-5 105 -28 173.5t-89 90.5l-110 -413l8 -5q2 -1 21 -13t24.5 -16t24 -15.5t27 -18.5t24.5 -19t26 -22l22.5 -22.5t22.5 -25t18 -26.5q35 -55 48 -102.5t-2 -114.5q-32 -152 -177 -266q-126 -99 -289 -102l-46 -173q-19 -10 -81 -10l49 184 q-99 3 -170 19t-109 16zM539 64q72 9 125.5 51t66.5 104q24 112 -92 224zM574 1001q-20 -95 82 -198l97 368q-64 -6 -113.5 -51.5t-65.5 -118.5z" />
<glyph unicode="%" horiz-adv-x="1304" d="M212 -8l923 1026q-118 -47 -218 -47q-66 0 -127 38q-10 -147 -120 -281q-99 -120 -220 -120q-156 0 -155 155q0 172 122 295q100 101 229 101q79 0 116 -40q34 -23 91.5 -39.5t102.5 -16.5q199 0 310 102l82 -43l-1037 -1155zM465 746q0 -22 10 -40t24 -18q50 0 113 82 q96 127 96 249q0 66 -56 66q-53 0 -115 -106q-37 -63 -54.5 -113t-17.5 -120zM776 116q0 172 122 295q100 101 230 101q63 0 103.5 -29t40.5 -96q0 -159 -121 -306q-99 -120 -219 -120q-156 0 -156 155zM946 99q0 -22 10 -40t24 -18q50 0 113 82q96 127 96 249q0 66 -56 66 q-53 0 -115 -106q-37 -63 -54.5 -113t-17.5 -120z" />
<glyph unicode="&#x26;" horiz-adv-x="1492" d="M154 307q25 116 122 214t302 195q-49 94 -62.5 155.5t0.5 134.5q10 48 47.5 110t92 113t140 80.5t170.5 29.5q123 0 183 -76.5t42 -162.5q-22 -103 -114.5 -179t-248.5 -149l6 -10q39 -120 133 -324q4 -11 13 -13.5t16 5.5q173 187 239 297q53 88 -57 96q-15 1 -12 15 l10 49l9 6q121 -4 198 -4l160 4l3 -4l-10 -47q-4 -17 -25 -19q-42 -3 -79.5 -31t-91.5 -94q-214 -254 -313 -379q5 -14 14.5 -40.5t15.5 -42.5t15.5 -39t17.5 -37.5t18.5 -28t22 -20.5t23.5 -7q24 0 40.5 3.5t45.5 22t58 54.5q14 0 29 -18.5t20 -40.5q-133 -145 -267 -145 q-79 0 -137.5 29.5t-97.5 120.5q-172 -151 -379 -150q-181 0 -262 73q-87 80 -50 254zM409 348q-22 -104 14.5 -194.5t96.5 -90.5q71 0 135.5 35t141.5 117q-94 188 -191 434q-95 -72 -137 -144.5t-60 -156.5zM763 1098q-8 -36 0.5 -110t31.5 -128l7 -12q184 132 205 231 q15 72 -12 124t-83 52q-75 0 -116 -65q-21 -33 -33 -92z" />
<glyph unicode="'" horiz-adv-x="440" d="M232 850q12 348 15 360q9 40 50.5 75.5t98.5 35.5q38 0 56 -11.5t17.5 -28.5t-3.5 -36q-3 -14 -41.5 -111.5t-56.5 -143.5l-56 -136l-53 -12z" />
<glyph unicode="(" horiz-adv-x="645" d="M175 259.5q-1 111.5 6 161.5t17 97q57 268 236 520.5t418 436.5l39 -70q-358 -352 -471 -887q-117 -550 94 -889l-72 -65q-99 113 -161 245.5t-83.5 235.5t-22.5 214.5z" />
<glyph unicode=")" horiz-adv-x="645" d="M-27 -373q358 352 472 887q117 550 -94 889l71 65q99 -113 161.5 -245.5t83.5 -235.5t22 -214t-6 -161.5t-17 -97.5q-57 -268 -236 -520.5t-418 -435.5z" />
<glyph unicode="*" horiz-adv-x="886" d="M290 1245q5 25 25 45.5t52 20.5q36 0 83 -45.5t77 -61.5q5 43 -9 102t-9 85q7 31 35 55t55 24q29 0 49 -18.5t13 -52.5q-6 -28 -43.5 -96.5t-45.5 -98.5q43 18 101.5 64.5t92.5 46.5q39 0 52 -23.5t9 -46.5q-17 -82 -151 -82q-69 0 -105 -6q18 -27 57.5 -51.5t59.5 -50.5 t10 -72q-5 -26 -28.5 -42.5t-45.5 -16.5q-42 0 -57.5 31.5t-20.5 90t-15 84.5q-22 -30 -48 -89.5t-53 -88t-78 -28.5q-24 0 -36.5 16.5t-7.5 40.5q10 49 40.5 75t79.5 50t78 53q-7 1 -24.5 5.5t-24.5 5t-28 -0.5q-69 -18 -111 -2.5t-28 78.5z" />
<glyph unicode="+" horiz-adv-x="1099" d="M243 399l32 152h321l71 336h159l-71 -336h321l-33 -152h-320l-71 -333h-159l71 333h-321z" />
<glyph unicode="," horiz-adv-x="499" d="M11 -279q66 17 148 98t91 126q3 13 0 23t-11.5 18t-15 12t-17.5 9t-12 5q-32 17 -45 57t-4 81q8 34 59 72t90 38q81 0 112.5 -64t4.5 -188q-11 -52 -57.5 -118t-99.5 -111q-52 -44 -119 -77.5t-124 -43.5q-26 21 0 63z" />
<glyph unicode="-" horiz-adv-x="733" d="M188 483q0 29 32 74t63 45h409q74 0 74 -43q0 -25 -32.5 -72t-63.5 -47h-406q-76 0 -76 43z" />
<glyph unicode="." horiz-adv-x="462" d="M82 119q0 59 45 102t106.5 43t104.5 -41t43 -100q0 -57 -45 -100t-106.5 -43t-104.5 41t-43 98z" />
<glyph unicode="/" horiz-adv-x="606" d="M50 -43l659 1440h121l-658 -1440h-122z" />
<glyph unicode="0" d="M196 400q0 211 78 399.5t188 298.5q152 152 336 151q63 0 118.5 -19.5t103.5 -62.5t76.5 -121.5t28.5 -185.5q0 -196 -72.5 -390t-164.5 -300q-84 -97 -182 -143.5t-187 -46.5q-159 0 -241 115.5t-82 304.5zM440 242q0 -174 99 -174q97 0 185 219q44 109 95 325t51 348 q0 101 -25.5 149t-65.5 48q-90 0 -163 -151q-56 -118 -116 -354.5t-60 -409.5z" />
<glyph unicode="1" d="M261.5 30.5q5.5 25.5 21.5 35.5q41 2 63.5 4.5t55 13.5t51.5 29.5t38 53t30 83.5l136 641q11 50 11.5 74.5t-5 30t-19.5 5.5q-87 0 -211 -51q-33 30 -24 88q62 25 221 86.5t233 94.5q67 31 103 30q33 0 25 -35q-40 -117 -63 -225l-157 -739q-8 -36 -8 -63.5t4.5 -46.5 t18 -32.5t26 -20.5t35.5 -12t39 -6.5t44 -2.5q12 -9 6.5 -35t-21.5 -35q-241 4 -320 4q-77 0 -327 -4q-12 9 -6.5 34.5z" />
<glyph unicode="2" d="M127 35q3 24 11 39q128 116 349 345l168 173q89 91 126.5 173.5t37.5 188.5q0 77 -48 124.5t-116 47.5q-111 0 -145 -64q-14 -16 -5 -62t5 -69q-9 -45 -47 -68t-85 -23q-43 0 -67.5 27.5t-24.5 64.5q0 147 240 262q116 55 232 55q131 0 230 -73.5t99 -188.5q0 -32 -3 -60 t-16 -57.5t-20.5 -49t-34.5 -52.5t-40 -49t-55.5 -56.5t-61.5 -58t-77 -70.5t-85 -77l-111 -101q-74 -68 -149 -153h289q66 0 95.5 25t83.5 128q45 0 82 -20q-73 -221 -131 -336h-723q-6 11 -3 35z" />
<glyph unicode="3" d="M125 120q0 42 28.5 74.5t76.5 32.5q79 0 115 -75q16 -31 59 -58.5t94 -27.5q112 0 185 90q40 49 58 93t18 124q0 107 -65.5 165t-140.5 58q-62 0 -102 -4q-15 25 10 82q113 14 191 52q93 45 127 103t34 158q0 58 -44 98.5t-103.5 40.5t-98 -18t-51.5 -74 q-34 -145 -122 -145q-37 0 -64.5 22t-27.5 60q0 65 107 144q180 134 339 134q78 0 139 -24.5t94 -63t49.5 -78t16.5 -75.5q0 -101 -55 -167t-176 -130l2 -7q99 -34 151.5 -103t52.5 -157q0 -106 -37.5 -176.5t-111.5 -143.5q-144 -144 -423 -144q-70 0 -151.5 19.5 t-127.5 47.5q-46 27 -46 73z" />
<glyph unicode="4" d="M142 430q1 6 19 27q35 41 208.5 251.5t280.5 333.5t192 207h173l-175 -821h189q29 0 22 -33q-4 -19 -27 -41t-42 -22h-162l-18 -82q-9 -42 -10 -72.5t8 -50t19 -31.5t33 -18t40.5 -8.5t49.5 -3.5q12 -9 7 -35t-21 -35q-61 1 -124.5 2t-100.5 1.5t-71 0.5q-77 0 -301 -4 q-12 9 -7 34.5t21 35.5q50 3 76.5 8t58.5 22t51.5 54.5t32.5 99.5l17 82h-341q-50 0 -60 14l-21 37q-3 9 -8 19.5t-7.5 17.5t-1.5 10zM247 428h354l128 598q-125 -138 -482 -598z" />
<glyph unicode="5" d="M138 129q0 45 30 78.5t81 33.5q50 0 86 -23t51 -56q17 -38 47.5 -65t59.5 -27q92 0 150 68q90 104 90 257q0 165 -127 205q-44 14 -131 26.5t-143 14.5l-22 16l207 592q34 -3 117 -11.5t129 -8.5q41 0 83 2.5t70 5t86 9t94 9.5l38 -26l-74 -176q-179 -12 -224 -13 q-177 0 -277 11q-47 -121 -79 -216q56 -9 218 -49q152 -37 225.5 -133t73.5 -206q0 -122 -41 -193t-137 -158q-65 -59 -163 -87.5t-200 -28.5q-171 0 -260 57q-58 37 -58 92z" />
<glyph unicode="6" d="M183 377q0 193 101 374t260 300q128 95 254 154t291 98q20 -24 20 -71q-183 -69 -349 -190q-82 -60 -146 -152t-98 -201q116 58 212 71q92 -2 158.5 -28.5t99 -68.5t46.5 -84t14 -88q0 -106 -43 -206t-121 -174q-64 -59 -157 -95t-195 -36q-63 0 -122.5 24.5t-110.5 71.5 t-82.5 125t-31.5 176zM433 281q0 -106 45.5 -160.5t91.5 -54.5q35 0 76 24t68 72q26 46 46.5 132t20.5 166q0 81 -37 139t-103 58q-63 0 -156 -53q-53 -140 -52 -323z" />
<glyph unicode="7" d="M244 0q416 576 713 1020h-422q-49 0 -82.5 -35.5t-79.5 -142.5q-40 -7 -67 6q39 229 78 395q1 6 9 6q10 -3 23 -8.5t29 -8.5t45 -3h692l8 -19q-173 -262 -314.5 -493.5t-218 -365t-198.5 -355.5l-209 -21z" />
<glyph unicode="8" d="M149 235q0 133 138 260q90 83 232 146l-35 27q-138 104 -139 213q0 146 125 256q127 112 333 112q142 0 222.5 -70.5t80.5 -161.5q0 -70 -23.5 -115t-73.5 -93q-73 -69 -175 -98l93 -68q107 -78 107 -225q0 -108 -46 -187.5t-141 -147.5q-146 -104 -340 -103 q-152 0 -255 68t-103 187zM385 225q0 -68 44 -113.5t107 -45.5q107 0 172 73q33 38 57 100t24 129q0 46 -24.5 83.5t-84.5 78.5l-92 64q-123 -79 -163 -165.5t-40 -203.5zM598 955q0 -93 78 -142l85 -53q55 32 92 103.5t37 153.5q0 64 -31 104t-84 40q-94 0 -131 -41 q-46 -51 -46 -165z" />
<glyph unicode="9" d="M157 -3q184 69 349 189q82 60 146 152t98 202q-116 -58 -212 -71q-92 2 -158.5 28t-99 68.5t-46.5 84.5t-14 88q0 106 43 206t121 174q64 59 157.5 95t194.5 36q63 0 123 -24.5t110.5 -71.5t82 -125.5t31.5 -175.5q0 -193 -101 -374t-260 -300q-128 -95 -254 -154.5 t-290 -97.5q-21 24 -21 71zM485 769q0 -81 37.5 -139.5t102.5 -58.5q63 1 156 54q53 140 53 323q0 106 -46 160.5t-92 54.5q-35 0 -76 -24t-68 -72q-26 -46 -46.5 -132.5t-20.5 -165.5z" />
<glyph unicode=":" horiz-adv-x="524" d="M145 139q0 59 45.5 102.5t106.5 43.5t104 -41t43 -101q0 -57 -45 -100t-106.5 -43t-104.5 41t-43 98zM266 743q0 59 45 102.5t106.5 43.5t104.5 -41t43 -100q0 -57 -45 -100.5t-106.5 -43.5t-104.5 41t-43 98z" />
<glyph unicode=";" horiz-adv-x="524" d="M32 -279q66 17 147.5 98t91.5 126q3 13 0 23t-12 18t-15 12t-17.5 9t-12.5 5q-32 17 -45 57t-4 81q8 34 59 72t90 38q81 0 113 -64t5 -188q-11 -52 -57.5 -118t-100.5 -111q-52 -44 -119 -77.5t-123 -43.5q-26 21 0 63zM260 741q0 59 45 102.5t106.5 43.5t104.5 -41 t43 -101q0 -57 -45 -100t-106.5 -43t-104.5 41t-43 98z" />
<glyph unicode="&#x3c;" horiz-adv-x="1048" d="M211 446l19 91l894 319l-27 -127l-662 -237l561 -238l-27 -127z" />
<glyph unicode="=" horiz-adv-x="1128" d="M217 291l24 115h835l-24 -115h-835zM271 545l25 117h835l-25 -117h-835z" />
<glyph unicode="&#x3e;" horiz-adv-x="1048" d="M143 123l27 127l661 237l-560 238l27 127l758 -322l-19 -90z" />
<glyph unicode="?" horiz-adv-x="880" d="M235 119q13 60 64 102.5t109 42.5t89.5 -40.5t19.5 -100.5q-12 -58 -63.5 -100.5t-109.5 -42.5t-89.5 40.5t-19.5 98.5zM276 1092q11 51 43.5 90t96.5 86q107 80 280 80q164 0 242 -86t48 -228q-11 -54 -39.5 -101t-76.5 -90t-79.5 -67t-90.5 -63q-42 -27 -68 -49.5 t-58.5 -74.5t-46.5 -120l-6 -27q-9 -40 -24 -54.5t-54 -14.5q-36 0 -45.5 16.5t-1.5 52.5l6 31q9 44 18 71.5t30 74.5t61.5 94t98.5 94q127 100 157 242q21 97 -4 161t-102 64q-63 0 -114 -32t-60 -75q-4 -20 -2 -50.5t-5 -59.5q-8 -38 -41.5 -61t-78.5 -23q-39 0 -67 32.5 t-17 86.5z" />
<glyph unicode="@" horiz-adv-x="2023" d="M342 453q34 159 124.5 307t218 261.5t296 182t345.5 68.5q213 0 361 -90.5t204.5 -246t15.5 -347.5q-46 -215 -226 -377t-374 -162q-119 0 -143 31q-30 38 -19 96q-56 -59 -122 -91t-108 -32q-126 0 -176 58q-61 69 -30 213q27 126 130.5 250t235 200t241.5 76 q122 0 164 -78l86 68l47 -23l-224 -518q-49 -114 -53 -135q-4 -18 3 -23.5t25 -5.5q30 0 80.5 26t108.5 74.5t110 134.5t74 189q31 170 3 290.5t-104.5 197.5t-164.5 113t-178 36q-114 0 -232 -48.5t-225 -137.5t-190.5 -230.5t-119.5 -312.5q-17 -78 -18.5 -158.5 t12.5 -161.5t52 -151.5t95.5 -125.5t147.5 -86.5t204 -31.5q229 0 437 154l28 -60q-126 -87 -241 -130.5t-278 -43.5q-345 0 -521 216.5t-102 564.5zM937 336q-40 -188 68 -189q94 0 220 248q97 196 111 260q14 54 9 89.5t-38 35.5q-88 0 -173 -78q-148 -135 -197 -366z" />
<glyph unicode="A" horiz-adv-x="1454" d="M10 30q6 24 17 36q51 4 80.5 12t67.5 38.5t75 92.5l631 1048q74 0 233 91l178 -1172q2 -16 6.5 -30.5t11.5 -24.5t11 -17.5t17.5 -13.5t17.5 -9t22.5 -6t20.5 -4t24.5 -3t24.5 -2q5 -6 5 -16q0 -8 -3 -19q-6 -25 -16 -35q-143 4 -263 4q-188 0 -335 -4q-8 10 -3 34.5 t15 35.5q12 0 30.5 1t29 2t26.5 2t23.5 3t20.5 6t15 10t11.5 14.5t6.5 18.5t-1 24l-45 334h-373q-57 0 -76 -35l-160 -284q-12 -20 -14 -35.5t8 -26t18.5 -16.5t32 -10t34.5 -5t38 -3q8 -10 2 -35t-16 -35q-143 4 -260 4q-39 0 -187 -4q-5 6 -5 16q0 8 3 18zM604 606 q-4 -6 -4 -11q0 -6 6 -9q10 -6 43 -6h299l-67 485h-13z" />
<glyph unicode="B" horiz-adv-x="1271" d="M28 21q0 33 21 45q49 2 73.5 7t52.5 22.5t44.5 55t28.5 99.5l160 821q9 45 9 77v6q0 62 -30.5 79.5t-105.5 21.5q-9 7 -9 23q0 34 23 47q223 -4 301 -4q27 0 127 2t154 2q414 0 414 -252q0 -112 -69 -200t-178 -134l-2 -4q236 -69 237 -268q0 -219 -154 -345t-463 -126 q-63 0 -176 2t-146 2l-303 -4q-9 7 -9 25zM503 138q0 -29 25.5 -42.5t92.5 -13.5q102 0 176.5 34t115 92t59 122.5t18.5 136.5q0 102 -60 159.5t-182 57.5h-140l-100 -512q-5 -21 -5 -34zM625 770h110q124 0 202.5 81t78.5 230q0 158 -162 158q-88 0 -117 -19.5t-39 -68.5z " />
<glyph unicode="C" horiz-adv-x="1382" d="M197 645q63 326 303.5 514.5t541.5 188.5q106 0 186.5 -20.5t136.5 -44t91 -28.5q-8 -203 -18 -317q-31 -16 -57 -16q-16 0 -31 6q-14 158 -87 246t-257 88q-172 0 -314.5 -167t-189.5 -411q-17 -86 -17 -163q0 -142 56 -257q86 -178 254 -178q250 0 477 213 q16 0 34.5 -14.5t22.5 -28.5q-258 -276 -555 -276q-299 0 -444 129q-96 87 -129 235q-18 79 -18 159q0 70 14 142z" />
<glyph unicode="D" horiz-adv-x="1429" d="M51 19q0 34 23 47q49 2 73.5 7t52 22.5t44 55t28.5 99.5l160 821q9 49 10 82q0 63 -31.5 80.5t-107.5 21.5q-9 7 -8 23q0 34 22 47q225 -4 304 -4q35 0 121.5 1t142.5 1q298 0 450 -146t152 -384q0 -195 -79.5 -368.5t-186.5 -256.5q-221 -172 -541 -172q-39 0 -159 2 t-159 2l-303 -4q-9 7 -8 23zM539 180q0 -58 37 -78t126 -20q90 0 179 60.5t159 163.5t113.5 252.5t43.5 314.5q0 80 -16 142.5t-52.5 114.5t-104.5 79.5t-164 27.5q-121 0 -151 -154l-162 -839q-7 -37 -8 -64z" />
<glyph unicode="E" horiz-adv-x="1183" d="M16 30q6 24 17 36q111 4 147.5 33.5t59.5 150.5l157 819q13 62 13 100q0 39 -12 53q-24 30 -134 33q-8 10 -3 35t15 35l304 -4h579q51 0 98 8q7 0 7 -7q0 -10 -8 -62q-8 -56 -16.5 -126.5t-10.5 -107.5q-26 -12 -57 -12q-14 0 -29 2q-14 119 -50 169t-139 50h-168 q-35 0 -63.5 -30.5t-36.5 -69.5l-74 -383h160q102 0 142 22.5t61 104.5q10 10 43 10t41 -10q-4 -23 -37 -177q-10 -55 -33 -180q-10 -10 -43 -10t-41 10q2 17 2 31q-1 47 -25 69q-32 28 -130 27h-160l-90 -465q-2 -13 -2 -24q0 -26 12 -46q18 -28 51 -28h199q207 0 328 262 q19 4 35 4q30 0 51 -14q-2 -8 -46.5 -144.5t-72.5 -197.5q-176 4 -271 4h-462q-209 -2 -306 -4q-4 6 -4 15q-1 8 2 19z" />
<glyph unicode="F" horiz-adv-x="1060" d="M20 30q5 26 21 36q49 2 73.5 7t52.5 22.5t44 55t29 99.5l157 819q13 62 13 100q0 39 -12 53q-24 30 -134 33q-8 10 -3 35t15 35l304 -4h589q51 0 99 8q6 0 6 -6t-8.5 -64.5t-17.5 -132t-11 -110.5q-26 -12 -57 -12q-14 0 -29 2q-14 121 -50 175t-138 54h-177 q-35 0 -63.5 -30.5t-36.5 -69.5l-82 -424h160q102 0 142 22.5t61 104.5q10 10 42.5 10t41.5 -10q-6 -23 -37 -176q-10 -55 -33 -181q-10 -10 -43 -10t-41 10q2 17 2 31q-1 46 -25 68q-32 28 -131 28h-159l-70 -358q-6 -35 -7 -62.5t3 -47t15.5 -33t22.5 -20.5t32.5 -12 t37 -6t44.5 -3q12 -8 7 -35t-22 -35q-156 4 -317 4q-143 0 -303 -4q-8 6 -8 21q0 5 1 13z" />
<glyph unicode="G" horiz-adv-x="1480" d="M184 629q63 322 338 528q252 191 539 191q135 0 281.5 -36t191.5 -36q-20 -211 -21 -336l-90 -12q-14 147 -111.5 240.5t-295.5 93.5q-182 0 -326 -152q-143 -154 -201 -440q-16 -84 -17 -167v-8q0 -79 20 -155q20 -80 62 -140.5t118 -97t176 -36.5q80 0 131 18t111 68 l59 305q3 16 3 28q0 34 -22 47q-32 17 -122 23q-8 10 -2 38t16 38q184 -4 301 -4t236 4q4 -6 4 -17q0 -8 -3 -21q-6 -28 -16 -38q-47 -4 -73.5 -25.5t-36.5 -72.5l-45 -240q-6 -33 18 -57q-115 -84 -283 -132t-340 -48q-326 0 -479 155q-88 88 -119 220q-15 69 -15 140 q0 66 13 134z" />
<glyph unicode="H" horiz-adv-x="1505" d="M52 30q5 26 22 36q49 2 73.5 7t52 22.5t44 55t28.5 99.5l160 821q8 43 10 73t-5 49t-16 31.5t-29.5 18.5t-38 8t-50.5 4q-12 8 -7 35t21 35q156 -4 304 -4q139 0 299 4q12 -8 7 -34.5t-22 -35.5q-49 -2 -73.5 -7t-52 -22.5t-44 -55t-28.5 -99.5l-62 -319h512l62 319 q8 43 10 73t-5 49t-16.5 31.5t-30 18.5t-38 8t-49.5 4q-12 8 -7.5 35t21.5 35q156 -4 303 -4q139 0 299 4q8 -6 8 -21q0 -6 -1 -14q-5 -26 -21 -35q-49 -2 -74 -7t-52.5 -22.5t-44 -55t-28.5 -99.5l-160 -821q-8 -43 -10 -73t5 -49t15.5 -31.5t30 -18.5t37.5 -8t49 -4 q12 -8 8 -35t-20 -35q-156 4 -299 4t-303 -4q-12 8 -7 34.5t21 35.5q49 2 73.5 7t52.5 22.5t44.5 55t28.5 99.5l78 403h-512l-78 -403q-8 -43 -10 -73t5 -49t15 -31.5t29.5 -18.5t38 -8t49.5 -4q12 -8 8 -35t-20 -35q-156 4 -299.5 4t-303.5 -4q-8 6 -8 21q0 5 1 13z" />
<glyph unicode="I" horiz-adv-x="718" d="M52 30q5 26 22 36q49 2 73.5 7t52 22.5t44 55t28.5 99.5l160 821q8 43 10 73t-5 49t-16 31.5t-29.5 18.5t-38 8t-50.5 4q-12 8 -7 35t21 35q156 -4 304 -4q139 0 299 4q8 -6 8 -21q0 -6 -1 -14q-5 -26 -22 -35q-49 -2 -73.5 -7t-52 -22.5t-44 -55t-28.5 -99.5l-160 -821 q-8 -43 -10 -73t5 -49t15 -31.5t29.5 -18.5t38 -8t49.5 -4q12 -8 8 -35t-20 -35q-156 4 -299.5 4t-303.5 -4q-8 6 -8 21q0 5 1 13z" />
<glyph unicode="J" horiz-adv-x="735" d="M-180 -238q8 41 56 78t79 37q27 0 45 -10t24.5 -21.5t14.5 -33t12 -27.5q25 -47 82 -47q63 0 95 75.5t85 352.5l174 903q12 59 12 96q0 41 -15 57q-27 29 -150 33q-8 10 -3 35t15 35q197 -4 326 -4q100 0 293 4q5 -6 5 -16q0 -8 -3 -19q-6 -24 -17 -35 q-96 -4 -129.5 -34.5t-56.5 -151.5l-168 -858q-20 -104 -53 -185t-79 -137.5t-78 -85t-83 -67.5q-156 -119 -319 -119q-55 0 -116 41q-50 34 -50 83q0 10 2 21z" />
<glyph unicode="K" horiz-adv-x="1445" d="M52 30q5 26 22 36q49 2 73.5 7t52 22.5t44 55t28.5 99.5l160 821q8 43 10 73t-5 49t-16 31.5t-29.5 18.5t-38 8t-50.5 4q-12 8 -7 35t21 35q156 -4 304 -4q139 0 299 4q12 -8 7 -34.5t-22 -35.5q-49 -2 -73.5 -7t-52 -22.5t-44 -55t-28.5 -99.5l-68 -350q46 7 98.5 40 t161.5 120q174 129 248 194q99 87 99 133q0 40 -75 47q-8 10 -1.5 35t16.5 35q184 -4 241 -4q2 0 187 4q5 -6 5 -18q0 -7 -2 -17q-5 -24 -15 -35q-37 -4 -73 -16t-61.5 -23.5t-63.5 -38t-57.5 -41t-65.5 -51t-67 -53.5l-251 -198q-29 -23 -35 -60q-1 -2 -1 -5q0 -23 42 -87 l327 -530q47 -74 136 -86q8 -10 3 -35t-16 -35q-184 4 -217 4q-139 0 -217 -4q-8 0 -8 12v9q0 55 -43 135l-219 403q-23 41 -40.5 57t-53.5 20l-74 -382q-8 -43 -10 -73t5 -49t15 -31.5t29.5 -18.5t38 -8t49.5 -4q12 -8 8 -35t-20 -35q-156 4 -299.5 4t-303.5 -4q-8 6 -8 21 q0 5 1 13z" />
<glyph unicode="L" horiz-adv-x="1130" d="M52 30q5 26 22 36q49 2 73.5 7t52 22.5t44 55t28.5 99.5l160 821q8 43 10 73t-5 49t-16 31.5t-29.5 18.5t-38 8t-50.5 4q-12 8 -7 35t21 35q225 -4 304 -4q35 0 71.5 1t100 2t127.5 1q12 -8 7 -34.5t-22 -35.5q-49 -2 -73.5 -7t-52 -22.5t-44 -55t-28.5 -99.5l-160 -823 q-11 -52 -11 -87q0 -75 48 -75h118q143 0 227.5 68.5t141.5 193.5q16 2 29 2q31 0 53 -12q-55 -182 -117 -342q-178 4 -235 4h-439l-303 -4q-8 6 -8 21q0 5 1 13z" />
<glyph unicode="M" horiz-adv-x="1765" d="M16 30q6 24 17 36q82 8 118.5 47t63.5 135l242 844q21 78 21 113q0 16 -4 23q-14 21 -118 27q-8 10 -3 35t16 35l403 -4l174 -909h10l551 909l396 4q5 -6 5 -18q0 -7 -2 -17q-5 -24 -16 -35q-98 -6 -125.5 -32.5t-38.5 -112.5l-108 -862q-8 -66 -8 -104q0 -36 7 -48 q15 -26 116 -30q8 -10 3 -35t-16 -35q-131 4 -215 4q-143 0 -327 -4q-8 10 -3 34.5t15 35.5q98 4 121 26.5t39 145.5l114 856h-4l-653 -1084q-14 -26 -39 -26h-2q-10 0 -21.5 8t-13.5 18l-190 1010h-9l-200 -768q-20 -55 -20 -94q0 -22 6 -38q18 -46 108 -54q8 -10 2 -35 t-16 -35q-119 4 -224 4q-51 0 -170 -4q-4 6 -4 15q-1 8 2 19z" />
<glyph unicode="N" horiz-adv-x="1452" d="M26 30q5 24 15 36q113 12 150.5 43.5t62.5 162.5l166 854q-2 45 -37 85t-94 44q-8 10 -2 35t16 35l336 -4l135 -215l395 -639q20 -32 33 -32q15 0 23 38l110 576q14 72 15.5 109.5t-18 58t-44 26.5t-84.5 12q-8 10 -2 35t17 35q197 -4 237 -4q29 0 221 4q5 -6 5 -16 q0 -9 -3 -19q-6 -24 -16 -35q-113 -12 -149.5 -43.5t-61.5 -162.5l-164 -840l-31 -209q-51 -25 -145 -25q-33 39 -61 91l-502 815q-25 41 -37 41q-16 0 -25 -41l-118 -609q-14 -72 -15.5 -109.5t18 -58t44 -26.5t84.5 -12q8 -10 2 -35t-17 -35q-197 4 -235 4q-29 0 -221 -4 q-5 6 -5 18q0 7 2 16z" />
<glyph unicode="O" horiz-adv-x="1431" d="M181 493q0 357 268 625q229 229 526 230q238 0 386 -142t148 -379q0 -231 -103.5 -425.5t-287 -308t-407.5 -113.5q-227 0 -378.5 139t-151.5 374zM477 463q0 -188 78.5 -292.5t210.5 -104.5q120 0 223.5 111t163 295.5t59.5 392.5q0 192 -75 294.5t-203 102.5 q-181 0 -307 -219q-58 -101 -104 -265t-46 -315z" />
<glyph unicode="P" horiz-adv-x="1204" d="M52 30q5 26 22 36q49 2 73.5 7t52 22.5t44 55t28.5 99.5l160 821q8 43 10 73t-5 49t-16 31.5t-29.5 18.5t-38 8t-50.5 4q-12 8 -7 35t21 35q39 0 311.5 7t311.5 7q219 0 315 -67q105 -74 104 -206q0 -36 -7 -75q-41 -213 -195 -325q-133 -98 -393 -99q-27 0 -68 6 q-26 20 -26 56q0 14 4 30q39 -6 96 -6q121 0 184.5 71t94.5 232q11 57 11 104q0 195 -200 195q-76 0 -104.5 -36.5t-48.5 -145.5l-160 -823q-8 -43 -10 -73t5 -49t15 -31.5t29.5 -18.5t38 -8t49.5 -4q12 -8 8 -35t-20 -35q-156 4 -299.5 4t-303.5 -4q-8 6 -8 21q0 5 1 13z " />
<glyph unicode="Q" horiz-adv-x="1431" d="M181 493q0 357 268 625q229 229 526 230q238 0 386 -142t148 -379q0 -218 -93.5 -405t-259.5 -303.5t-372 -135.5q-99 -34 -214 -106h12q92 0 178 -47t165 -94t148 -47q113 0 187 75l24 -45q-162 -188 -319 -188q-86 0 -164 34t-125 73.5t-109.5 73.5t-122.5 34 q-34 0 -80 -30q-46 -44 -88 -91l-63 62q18 25 46 49q156 156 351 251q-190 30 -309.5 164.5t-119.5 341.5zM477 463q0 -188 78.5 -292.5t210.5 -104.5q120 0 223.5 111t163 295.5t59.5 392.5q0 192 -75 294.5t-203 102.5q-181 0 -307 -219q-58 -101 -104 -265t-46 -315z" />
<glyph unicode="R" horiz-adv-x="1404" d="M51 19q0 34 23 47q49 2 73.5 7t52 22.5t44 55t28.5 99.5l160 821q9 49 10 82q0 63 -31.5 80.5t-107.5 21.5q-9 7 -8 23q0 34 22 47q39 0 311.5 7t311.5 7q204 0 311 -69t107 -224q0 -86 -30 -160t-79.5 -123t-97.5 -80.5t-98 -51.5l184 -430q33 -72 67.5 -103.5 t96.5 -31.5q1 -5 1 -14q0 -37 -13 -56q-37 -16 -205 -16q-137 0 -223 182l-162 356q-14 39 -46 50.5t-143 11.5l-63 -330q-10 -49 -10 -83q0 -62 31 -79.5t106 -21.5q9 -7 9 -25q0 -33 -21 -45q-156 4 -299.5 4t-303.5 -4q-9 7 -8 23zM629 666h84q74 0 134 18.5t112 60 t81 119t29 184.5q0 113 -60.5 160t-148.5 47q-76 0 -104.5 -36.5t-48.5 -145.5z" />
<glyph unicode="S" horiz-adv-x="987" d="M91 92q0 119 30 266q47 12 68 12q18 0 32 -5q2 -135 74 -217t174 -82t172 58t70 154q0 86 -50.5 144t-157.5 131q-118 81 -179 164t-61 196q0 218 177 343q59 42 146 67t170 25q109 0 210 -27t111 -29q-16 -193 -39 -311q-21 -16 -60 -16q-22 0 -40 6q-4 61 -12 104 t-27.5 91t-60.5 73t-101 25q-80 0 -142.5 -59.5t-62.5 -154.5q0 -70 54 -134.5t116 -100.5q49 -29 94 -64.5t91 -86t74 -114.5t28 -131q0 -111 -51.5 -189t-136.5 -146q-133 -104 -326 -104q-156 0 -250 20t-131 20q-3 37 -3 72z" />
<glyph unicode="T" horiz-adv-x="1280" d="M207 1032q66 158 106 299q0 6 11 6q197 -16 454 -16h277q264 0 444 16q4 0 4 -6q-25 -133 -30 -293q-23 -10 -80 -10q-2 115 -54.5 163t-167.5 48h-45q-51 0 -79.5 -51t-49.5 -158l-151 -778q-12 -58 -12 -95q0 -41 15 -57q28 -30 150 -34q8 -10 2 -35t-16 -35 q-197 4 -330 4t-325 -4q-8 10 -3 34.5t15 35.5q125 4 164 33.5t63 152.5l154 784q13 63 13 108q0 22 -3 40q-10 54 -63 55h-97q-100 0 -170.5 -49t-121.5 -168q-51 0 -74 10z" />
<glyph unicode="U" horiz-adv-x="1437" d="M261 1290q5 25 15 35q197 -4 287 -4q129 0 322 4q8 -10 2 -34.5t-17 -35.5q-121 -4 -156.5 -33.5t-60.5 -152.5l-100 -518q-26 -89 -26 -198v-8q1 -114 53 -177q82 -102 213 -102q96 0 170.5 31.5t120.5 77.5t82 118t52.5 132t32.5 142l99 502q10 53 10 84t-4 50.5 t-30 29.5t-46 13t-76 9q-8 10 -2 35t17 35q197 -4 249 -4q18 0 211 4q5 -6 5 -16q0 -9 -3 -19q-6 -24 -16 -35q-55 -6 -76.5 -11t-47 -23.5t-38 -53t-24.5 -98.5l-93 -465q-29 -143 -76.5 -252.5t-123.5 -195.5t-189.5 -131t-261.5 -45q-272 0 -381 86q-107 84 -107 261 q0 71 17 156l115 586q12 62 12 100q0 37 -11 51q-22 30 -116 35q-5 6 -5 18q0 7 2 17z" />
<glyph unicode="V" horiz-adv-x="1374" d="M253 1290q-2 -9 -2 -16q0 -12 5 -19q49 -6 72.5 -11t49 -29.5t34.5 -69.5l211 -1122q10 -47 55 -48q49 0 76 48l630 1089q49 84 98.5 110.5t125.5 32.5q10 10 16 35q3 11 3 19q0 11 -5 16q-147 -4 -186 -4q-117 0 -260 4q-10 -10 -16.5 -34.5t1.5 -35.5q27 -2 45.5 -5 t41 -9t30.5 -16.5t13 -26.5t-11 -39l-414 -729l-49 -80l-12 92l-100 732q-4 33 18 50t52 22t89 9q10 10 16.5 35t-1.5 35q-147 -4 -347 -4q-121 0 -264 4q-10 -11 -15 -35z" />
<glyph unicode="W" horiz-adv-x="2019" d="M261 1290q5 25 15 35q143 -4 265 -4q199 0 346 4q8 -10 2 -34.5t-17 -35.5q-55 -4 -87.5 -10t-55 -23.5t-18.5 -47.5l92 -732l6 -65l25 53l421 825q30 -6 59.5 -6t59.5 6l117 -813l12 -86l39 74l375 729q16 23 10 39t-13 26.5t-30.5 16.5t-41 9t-44.5 5q-8 10 -2 35 t16 35q143 -4 261 -4q39 0 186 4q5 -6 5 -16q0 -9 -3 -19q-6 -24 -16 -35q-78 -6 -128.5 -32.5t-95.5 -110.5l-591 -1089q-27 -47 -76 -48q-16 0 -33.5 15.5t-22.5 32.5l-143 817l-434 -817q-25 -47 -76 -48q-18 0 -35.5 12.5t-19.5 35.5l-170 1122q-6 45 -32 68.5 t-50.5 29.5t-73.5 12q-5 6 -5 18q0 7 2 17z" />
<glyph unicode="X" horiz-adv-x="1411" d="M16 32q6 24 17 36q152 14 231 98l406 430q31 33 33 49.5t-19 59.5l-203 415q-39 80 -71.5 105.5t-96.5 29.5q-8 8 -4 35t15 35q119 -4 305 -4q129 0 289 4q8 -10 2.5 -34.5t-15.5 -35.5q-81 -5 -99 -31q-8 -11 -7 -28q0 -23 14 -55l100 -262q12 -33 21.5 -39t30.5 10 q117 115 256 305q20 30 20 51q0 44 -86 49q-8 10 -3 35t15 35q156 -4 228 -4q82 0 200 4q5 -6 5 -18q0 -7 -2 -17q-5 -24 -15 -35q-143 -12 -221 -98l-336 -360q-33 -35 -36 -55v-6q0 -21 20 -66l213 -467q37 -78 74.5 -104.5t105.5 -30.5q8 -10 3 -35t-15 -35 q-119 4 -279 4q-147 0 -307 -4q-8 10 -2 34.5t16 35.5q77 4 89 32q3 8 4 18q0 26 -23 64l-119 322q-14 35 -24.5 40t-28.5 -16q-90 -100 -293 -360q-20 -30 -20 -50q0 -44 88 -50q8 -10 1.5 -35t-16.5 -35q-156 4 -239 4q-100 0 -220 -4q-4 6 -4 15q-1 8 2 19z" />
<glyph unicode="Y" horiz-adv-x="1241" d="M286 1290q5 25 15 35q119 -4 277 -4q86 0 245 4q8 -10 2 -34.5t-16 -35.5q-80 -4 -97 -31q-8 -10 -8 -26q0 -23 15 -57l131 -377q6 -16 15 -22.5t18.5 -2.5t19.5 19l271 397q18 27 18 47q0 46 -98 53q-8 10 -3 35t15 35q156 -4 217 -4q66 0 184 4q5 -6 5 -16q0 -8 -3 -19 q-6 -24 -16 -35q-74 -6 -110.5 -23.5t-77.5 -74.5l-338 -438q-41 -51 -66 -170l-59 -299q-12 -57 -12 -95q0 -42 16 -57q28 -30 151 -35q8 -10 2 -33.5t-16 -33.5q-197 4 -311 4q-152 0 -344 -4q-8 10 -3 33.5t15 33.5q125 4 164 34t63 153l54 280q8 48 8 72v9q-2 24 -19 69 l-164 440q-31 82 -61.5 106.5t-95.5 28.5q-5 6 -5 18q0 7 2 17z" />
<glyph unicode="Z" horiz-adv-x="1224" d="M45 31q4 23 25 47l950 1108q8 10 13 16t9.5 14.5t0 12.5t-16.5 4h-377q-188 0 -301 -258q-53 0 -76 10q61 147 119 346q0 6 10 6q197 -16 455 -16h395q31 0 76 2t53 2q18 0 26 -5q6 -4 5 -11q0 -25 -61 -99l-904 -1063q-18 -23 -23 -33t4 -17t40 -7h393q94 0 177 74 t139 198q53 0 75 -10q-78 -256 -123 -362q0 -6 -10 -6q-197 16 -454 16h-588q-32 0 -32 23q0 4 1 8z" />
<glyph unicode="[" horiz-adv-x="813" d="M65 -395l390 1835h490q8 -10 8.5 -30.5t-9.5 -31.5q-149 -11 -216.5 -31t-98.5 -62t-51 -136l-266 -1251q-10 -48 -13 -78t4 -56.5t23.5 -40.5t52.5 -26t81.5 -18.5t119.5 -12.5q7 -9 2.5 -30.5t-15.5 -30.5h-502z" />
<glyph unicode="\" horiz-adv-x="628" d="M253 1430h133l256 -1528h-133z" />
<glyph unicode="]" horiz-adv-x="813" d="M81 -364.5q-1 20.5 10 30.5q149 11 216 31t98.5 62t51.5 137l266 1251q10 48 12.5 77.5t-4.5 56t-23.5 40.5t-52 26.5t-81.5 18.5t-120 12q-7 9 -2.5 31t15.5 31h502l-390 -1835h-489q-8 10 -9 30.5z" />
<glyph unicode="^" horiz-adv-x="1060" d="M287 709l382 622h81l105 -622h-110l-74 456l-274 -456h-110z" />
<glyph unicode="_" horiz-adv-x="995" d="M-45 -315l14 90h979l-16 -90h-977z" />
<glyph unicode="`" horiz-adv-x="802" d="M438 1366l8 20l21 13q20 12 32.5 17t37 12.5t51.5 7.5q18 0 28 -6l99 -256q6 -18 6 -31t-2 -19q-4 -23 -33 -22q-18 0 -53 41z" />
<glyph unicode="a" horiz-adv-x="1142" d="M154 241q0 215 150 405q89 114 207.5 183.5t242.5 69.5q23 0 133 -12q13 -3 32 -3t60.5 4.5t60.5 4.5q42 0 42 -43q0 -16 -6 -44.5t-17.5 -75t-17.5 -74.5l-87 -402q-14 -60 -14 -87q0 -38 23 -38q18 0 62 27.5t81 68.5q18 0 35.5 -19.5t23.5 -37.5q-147 -188 -364 -188 q-78 0 -103 67q-7 19 -6 49q0 51 17 123l10 37l-8 4q-90 -133 -180.5 -206.5t-157.5 -73.5q-107 0 -163 74t-56 187zM410 283q0 -110 90 -110q88 0 246 290q23 58 40 136t22 126l5 49q-6 39 -70 39q-127 0 -229 -169q-104 -172 -104 -361z" />
<glyph unicode="b" horiz-adv-x="1067" d="M223 242l207 911q11 49 11 80q0 34 -13 48q-25 26 -125 26q-3 10 -3 21q0 22 13 48q23 4 106 19.5t144.5 25t89.5 9.5q61 0 62 -68q0 -29 -31 -168l-112 -507l3 -1q182 213 345 213q64 0 108 -23t64 -61t27.5 -72t7.5 -72q0 -154 -62 -279t-192 -241q-189 -171 -443 -171 q-129 0 -180 78q-35 53 -35 119q0 31 8 65zM466 111q14 -45 69 -45q121 0 225 166.5t104 383.5q0 104 -67 105q-71 0 -124.5 -33.5t-126.5 -118.5l-69 -309q-16 -68 -17 -110q1 -23 6 -39z" />
<glyph unicode="c" horiz-adv-x="888" d="M160 412q45 219 207.5 358t339.5 139q147 1 215 -61q53 -49 53 -115q0 -18 -4 -37q-10 -49 -47 -81.5t-82 -32.5q-47 0 -74 28q-24 24 -24 58q0 5 1 10q3 18 3 35q0 36 -12 66q-17 44 -64 44q-78 0 -141.5 -87t-100.5 -253q-14 -66 -15 -121q-1 -78 29 -133 q50 -94 148 -94t227 107q12 0 27.5 -25t15.5 -39q-74 -86 -181.5 -142t-199.5 -56q-190 0 -274 106q-62 80 -62 200q0 58 15 126z" />
<glyph unicode="d" horiz-adv-x="1148" d="M119 254q0 143 69.5 292.5t196.5 250.5q129 102 281 102q55 0 99 -31.5t62 -81.5l84 367q12 50 12 82q-1 33 -13 46q-26 26 -126 26q-3 9 -3 20q0 22 14 49q23 4 105.5 19.5t144 25t90.5 9.5q61 0 61 -68q0 -23 -31 -168l-207 -934q-14 -60 -13 -88q0 -37 22 -37 q18 0 62 27.5t81 68.5q18 0 35.5 -19t23.5 -38q-175 -194 -379 -194h-2q-103 0 -103 114q0 58 19 146l-4 2q-94 -137 -171.5 -199.5t-163.5 -62.5q-127 0 -186.5 75.5t-59.5 198.5zM367 307q0 -192 83 -192h1q57 0 118.5 68.5t139.5 213.5q41 75 64 144l21 96q0 7 1 10 q0 59 -34 108.5t-89 49.5q-125 0 -215 -161t-90 -337zM783 577q5 20 8 37z" />
<glyph unicode="e" horiz-adv-x="837" d="M129 291q0 82 19.5 164t62.5 162.5t105.5 142t157.5 100.5t210 39q117 0 183.5 -43t66.5 -100q0 -104 -64 -166q-108 -102 -475 -182q-2 -16 -2 -70q0 -236 109 -236q74 0 133 32t145 120q18 0 38 -16.5t28 -34.5q-86 -111 -197.5 -167t-220.5 -56q-170 0 -234.5 81.5 t-64.5 229.5zM410 486q47 8 92.5 25t93.5 47.5t77 82.5t29 117q0 57 -65 57q-34 0 -60.5 -11.5t-56 -44t-57.5 -101t-53 -172.5z" />
<glyph unicode="f" horiz-adv-x="813" d="M-209 -344q0 37 23 66t70 29q74 0 119 -74q33 -55 67 -55q27 0 59.5 22t53.5 54q32 50 54.5 130t31 137.5t21 172t17.5 151.5q27 192 84 493h-168q-12 0 -12 4q0 27 8 52q8 33 57 34l136 7q59 297 184 432q109 119 299 119q130 0 223.5 -54.5t93.5 -129.5 q0 -40 -27.5 -75t-78.5 -35q-39 0 -64.5 22.5t-34.5 46.5t-16 60q-17 78 -92 78h-2q-82 0 -127 -86t-80 -262l-22 -116h225q14 0 14 -11l-10 -61q-6 -25 -53 -25h-191l-8 -47q-33 -189 -94 -469q-37 -169 -85 -295.5t-78.5 -177.5t-78.5 -116q-57 -76 -132 -115.5 t-153 -39.5q-114 0 -173.5 42.5t-59.5 91.5z" />
<glyph unicode="g" horiz-adv-x="1017" d="M-6 -279q0 115 272 261q17 9 25 14q-74 27 -74 119q0 133 131 223q-55 33 -85 101.5t-30 140.5q0 131 98.5 225t262.5 94q176 0 240 -76q98 89 204 90q41 0 68 -25t27 -59q0 -35 -21.5 -58t-54.5 -23q-43 0 -69 42q-15 25 -36 24q-14 0 -78 -58q37 -54 37 -160 q0 -145 -105.5 -235.5t-246.5 -90.5q-84 0 -139 35q-16 -30 -16 -65q0 -28 10 -60q16 -55 272 -131q98 -29 174 -95.5t76 -158.5q0 -143 -140.5 -212.5t-367.5 -69.5q-70 0 -139.5 10t-139 31.5t-112.5 64.5t-43 102zM193 -231q0 -178 319 -179q117 0 163 45.5t46 104.5 q0 45 -20.5 67.5t-102.5 61.5q-213 96 -248 104q-106 -76 -136 -129q-21 -38 -21 -75zM465 488.5q0 -15.5 2 -40t9 -39t18.5 -29.5t30 -21.5t44.5 -6.5q20 0 36 3t27 13.5t19 18.5t13.5 25.5t8.5 29t4 36t1 35.5v41v42q0 121 -15.5 171t-76.5 50q-23 0 -40.5 -3t-29.5 -11 t-21.5 -14.5t-14.5 -23.5t-8 -26.5t-4 -34t-1 -37v-44v-45.5q0 -12 -1 -43t-1 -46.5z" />
<glyph unicode="h" horiz-adv-x="1269" d="M187 35q0 9 3.5 25.5t11 42.5t11.5 44l225 1006q11 49 11 81q-1 34 -13 47q-24 26 -125 26q-3 9 -3 20q0 22 14 49q23 4 105.5 19.5t144 25t90.5 9.5q61 0 61 -68q0 -23 -31 -168l-119 -543q217 248 416 248q72 0 127 -40t55 -124q0 -43 -26 -155l-78 -326 q-14 -55 -13 -86q0 -39 21 -39q18 0 62.5 27.5t81.5 68.5q18 0 35.5 -19.5t23.5 -37.5q-70 -90 -170 -139t-209 -49q-76 0 -100 67q-6 18 -6 48q0 53 20 141l76 327q18 80 18 119q0 45 -17.5 59.5t-53.5 14.5q-50 0 -122 -71t-180 -210l-71 -328q-2 -7 -8 -38.5t-9 -41 t-13.5 -32.5t-23 -31t-35 -16t-52.5 -8q-80 0 -107.5 13.5t-27.5 41.5z" />
<glyph unicode="i" horiz-adv-x="700" d="M237 828q1 26 11 38q209 27 352 27q42 0 42 -43q0 -16 -6 -44.5t-17.5 -75t-17.5 -74.5l-87 -402q-13 -55 -13 -86q0 -39 21 -39q18 0 62.5 27.5t81.5 68.5q18 0 35.5 -19.5t23.5 -37.5q-70 -90 -170 -139t-209 -49q-76 0 -100 67q-6 16 -6 43q0 52 20 146l90 421 q12 57 12 84q0 39 -36 41l-82 6q-7 12 -7 34v6zM408 1221q0 51 37.5 89t105.5 38q59 0 96 -42t37 -94q0 -45 -41 -86t-104 -41q-59 0 -95 41.5t-36 94.5z" />
<glyph unicode="j" horiz-adv-x="675" d="M-196 -295q0 44 25 68t56 24q46 0 75.5 -23t39.5 -51t27 -51t42 -23q37 0 65.5 52t62.5 184q20 82 48 238.5t44 236.5l61 297q12 59 12 84q0 39 -36 41l-82 6q-8 14 -7 40t11 38q209 27 352 27q42 0 42 -43q0 -15 -6.5 -44.5t-17.5 -74t-17 -75.5l-35 -175q-1 -4 -2 -9 q-29 -139 -44.5 -208t-46 -183t-55.5 -171.5t-65.5 -133.5t-84.5 -111.5t-104.5 -62t-132.5 -26.5q-100 0 -163.5 31t-63.5 98zM418 1221q0 51 38 89t105 38q59 0 96 -42t37 -94q0 -45 -41 -86t-104 -41q-59 0 -95 41.5t-36 94.5z" />
<glyph unicode="k" horiz-adv-x="1146" d="M176 35q0 9 4 25.5t11 42.5t11 44l226 1006q11 49 11 80q0 34 -13 48q-25 26 -125 26q-3 10 -3 21q0 22 13 48q23 4 106 19.5t144.5 25t89.5 9.5q61 0 62 -68q0 -23 -31 -168l-139 -636q42 8 104 62l82 70q106 94 206.5 151.5t151.5 57.5q63 0 98.5 -37.5t35.5 -83.5 q0 -55 -31.5 -99t-79.5 -44q-38 0 -84 54q-25 31 -51 31q-74 0 -156 -73l-106 -94l2 -8q80 -23 135 -131q29 -57 84 -230q12 -41 25.5 -59.5t40.5 -18.5q46 0 106 87q31 0 61 -35q-43 -90 -119.5 -134t-160.5 -44q-61 0 -105.5 48t-96.5 162q-20 45 -45 137t-44 126 q-19 33 -40 33q-17 0 -30 -2l-74 -337q-2 -7 -7.5 -38.5t-8.5 -41t-13.5 -32.5t-23 -31t-35.5 -16t-53 -8q-80 0 -107.5 13.5t-27.5 41.5z" />
<glyph unicode="l" horiz-adv-x="663" d="M199 96q0 57 20 146l207 911q12 50 12 82q0 33 -13 46q-26 26 -126 26q-3 10 -3 21q0 22 13 48q23 4 106 19.5t144.5 25t89.5 9.5q61 0 62 -68q0 -23 -31 -168l-207 -934q-14 -60 -13 -88q0 -37 21 -37q18 0 62.5 27.5t81.5 68.5q18 0 35.5 -19t23.5 -38 q-175 -194 -379 -194h-2q-104 0 -104 116z" />
<glyph unicode="m" horiz-adv-x="1810" d="M195 35q0 9 4 27t11 44.5t11 40.5l78 351q31 137 31 223q0 59 -37 61l-82 6q-8 14 -7 40t11 38q209 27 340 27q20 0 34 -14t14 -35q0 -86 -25 -207l2 -2q133 158 218 211t171 53q72 0 127 -40t55 -124q0 -16 -3 -37q181 201 376 201h2q72 0 127 -40t55 -124 q0 -43 -27 -155l-77 -326q-14 -55 -13 -86q0 -39 21 -39q18 0 62 27.5t81 68.5q18 0 35.5 -19.5t24.5 -37.5q-70 -90 -170.5 -139t-208.5 -49q-76 0 -101 67q-6 18 -6 47q0 53 21 142l75 327q18 80 19 119q0 74 -51 74q-58 0 -124 -57t-156 -171l-87 -381q-2 -8 -8 -38 t-9 -41t-13.5 -32.5t-23 -30.5t-35 -17t-52.5 -8q-80 0 -107.5 13.5t-27.5 41.5q0 9 4 27t11 44.5t11 40.5l92 416q18 82 19 139q0 53 -41 54q-35 0 -85 -42t-91 -92.5t-121 -154.5l-78 -320q-3 -10 -8.5 -38t-9 -40.5t-13.5 -33.5t-22.5 -30.5t-35 -17t-52.5 -7.5 q-80 0 -107.5 13.5t-27.5 41.5z" />
<glyph unicode="n" horiz-adv-x="1257" d="M182 35q0 9 4.5 27.5t11.5 44.5t10 40l79 351q30 133 30 218v5q0 59 -36 61l-82 6q-8 14 -7 40t11 38q209 27 340 27q20 0 34 -14t14 -35q0 -86 -26 -207l4 -4q133 158 227.5 212t200.5 54q72 0 127.5 -40t55.5 -124q0 -43 -27 -155l-78 -326q-14 -55 -13 -86 q0 -39 21 -39q18 0 62.5 27.5t81.5 68.5q18 0 35.5 -19.5t23.5 -37.5q-70 -90 -170 -139t-209 -49q-76 0 -100 67q-6 18 -6 48q0 53 20 141l76 327q18 80 18 119q0 45 -17 59.5t-54 14.5q-51 0 -124 -73t-183 -216l-78 -320q-3 -11 -9 -39t-9 -40.5t-13 -33t-23 -30t-35 -17 t-53 -7.5q-80 0 -107.5 13.5t-27.5 41.5z" />
<glyph unicode="o" horiz-adv-x="980" d="M137 332q0 138 83.5 279t222.5 218q125 70 253 70q172 0 250 -96t78 -228q0 -196 -90.5 -334.5t-236.5 -211.5q-98 -49 -246 -49q-92 0 -158 35.5t-97.5 93t-45 112t-13.5 111.5zM401 348q0 -282 120 -282h1q238 0 238 466q0 57 -3 96.5t-13.5 87.5t-35 72.5t-63.5 24.5 q-244 0 -244 -465z" />
<glyph unicode="p" horiz-adv-x="1124" d="M-14 -424q0 12 20 16l39 7q92 14 109 92l196 909q-102 -84 -147 -143q-37 0 -58 73q70 88 236 207l25 101q14 61 70 114.5t112 53.5q86 0 86 -56q0 -10 -5 -32.5t-12.5 -50.5t-9.5 -40q121 72 236 72q147 0 221 -85t74 -222q0 -113 -69 -258.5t-181 -241.5 q-132 -112 -304 -112h-3q-82 0 -146 67l-80 -356q-8 -33 4.5 -52.5t26.5 -24.5t37 -7l39 -6q12 -2 12 -17v-61l-4 -4q-139 4 -219 4l-301 -10l-4 4v59zM494 154q63 -88 151 -88q82 0 147.5 98t94 207.5t28.5 187.5q0 236 -102 236q-80 0 -188 -70z" />
<glyph unicode="q" horiz-adv-x="1087" d="M131 301q0 149 70.5 279.5t183.5 213.5q144 105 317 105q119 0 197 -108l77 68q24 22 56 34t47 12q41 0 45 -33q1 -7 1 -15q0 -29 -12 -71l-259 -1116q-3 -12 -3 -22q0 -52 71 -62l39 -6q12 -2 12 -16v-41l-4 -4q-227 4 -307 4l-216 -10l-4 4v39q0 12 21 16l39 6 q49 8 73.5 28.5t34.5 63.5l135 533l-6 2q-162 -225 -327 -225q-135 0 -208 97t-73 224zM395 262q0 -82 27 -127t65 -45q57 0 146.5 90t124.5 189q71 210 71 286q0 63 -34.5 106.5t-89.5 43.5q-150 0 -230 -151.5t-80 -391.5z" />
<glyph unicode="r" horiz-adv-x="872" d="M199 35q0 9 4.5 27.5t11.5 44t10 40.5l76 351q31 141 31 223q0 59 -37 61l-82 6q-8 14 -7 40t11 38q209 27 340 27q20 0 34 -14t14 -35q0 -86 -25 -207l6 -4q64 135 143.5 200.5t154.5 65.5q63 0 95.5 -37t32.5 -84q0 -55 -31.5 -99t-79.5 -44q-38 0 -83 54 q-25 31 -52 31q-41 0 -89 -58t-124 -195l-78 -320q-3 -11 -8.5 -39t-9 -40.5t-13.5 -33t-22.5 -30t-35 -17t-52.5 -7.5q-80 0 -107.5 13.5t-27.5 41.5z" />
<glyph unicode="s" horiz-adv-x="854" d="M133 178q0 45 30 75t58 30q80 0 131 -119q43 -98 156 -98q39 0 72.5 29.5t33.5 70.5q0 129 -131 205q-104 61 -168.5 131.5t-64.5 134.5q0 78 34.5 132t92 81t114 38t117.5 11q98 0 177 -49t87 -123q1 -8 1 -15q1 -32 -21 -58q-26 -30 -55 -40q-16 -4 -30 -4q-18 0 -36 6 q-31 12 -43 43q-2 6 -9 26t-10 28t-11.5 25.5t-14.5 24.5t-15.5 19.5t-19.5 17.5t-24.5 9t-30.5 4q-43 0 -77 -26.5t-34 -63.5t15.5 -67.5t45 -55.5t47 -36t48.5 -27q231 -123 231 -271q0 -111 -93 -198.5t-271 -87.5q-135 0 -233.5 50t-98.5 148z" />
<glyph unicode="t" horiz-adv-x="751" d="M211 786q0 20 10 52q8 33 58 34l108 7l27 102q4 14 10 44t10 44t12.5 33.5t22.5 30t35 16.5q27 6 58 12q30 7 62 11q16 2 30 2t24 -2q22 -4 22 -17q0 -2 -41 -184l-20 -92h203q10 -7 10 -25q0 -11 -4 -25q-10 -38 -29 -47h-201l-122 -522q-14 -58 -14 -88q0 -37 22 -37 q18 0 62 27.5t81 68.5q18 0 35.5 -19t24.5 -38q-175 -194 -379 -194h-2q-104 0 -104 116q0 60 20 146l125 540h-144q-12 0 -12 4z" />
<glyph unicode="u" horiz-adv-x="1323" d="M177 719q70 90 170.5 139t208.5 49q43 0 65.5 -16.5t35.5 -50.5q7 -19 7 -48q0 -53 -22 -141l-76 -327q-10 -35 -10 -66q0 -26 6 -50q16 -52 68 -52q50 0 105.5 57t170.5 207l79 319q3 11 8.5 39.5t9 40.5t13 33t22.5 30.5t35 17t53 7.5q80 0 107.5 -13.5t27.5 -41.5 q0 -9 -4.5 -27.5t-11.5 -44t-10 -41.5l-107 -485q-14 -64 -13 -87q0 -38 22 -38q18 0 62 27.5t81 68.5q18 0 35.5 -19.5t23.5 -37.5q-147 -188 -364 -188q-78 0 -103 67q-7 19 -6 49q0 24 17 123l-5 -15q1 9 10 46l-4 4q-132 -154 -225 -210t-183 -56q-70 0 -126 41.5 t-56 126.5q0 83 16 151l78 326q14 55 14 86q0 39 -22 39q-19 0 -63 -27.5t-80 -68.5q-19 0 -36.5 19.5t-23.5 37.5z" />
<glyph unicode="v" horiz-adv-x="1038" d="M164 667q78 93 182 162.5t168 69.5q109 0 131 -266l34 -413l8 -4q94 74 167.5 202t86.5 225q1 9 1 18q0 57 -43 122q-11 17 -11 42q0 74 124 74q55 0 89 -27t34 -70q0 -89 -55 -218q-62 -145 -200 -321q-68 -86 -173.5 -187t-165.5 -101q-63 0 -82 144l-64 487 q-14 104 -37 105q-16 0 -55 -29t-74 -72q-50 10 -65 57z" />
<glyph unicode="w" horiz-adv-x="1492" d="M156 667q78 93 182 162.5t168 69.5q61 0 93 -79t38 -187l18 -349l9 -4q49 47 121.5 165.5t136.5 263.5q76 32 134 32h3q27 -68 64.5 -228.5t61.5 -292.5l8 -4q79 64 133.5 191.5t69.5 235.5q1 9 1 18q0 57 -43 122q-11 17 -12 42q0 74 124 74q55 0 89.5 -27t34.5 -70 q0 -89 -55 -218q-80 -188 -174 -321q-35 -49 -82.5 -106.5t-118 -119.5t-113.5 -62q-25 0 -42.5 23.5t-24 48t-15.5 72.5l-61 327l-7 2q-95 -178 -207 -326q-112 -147 -177 -147h-1q-69 0 -82 144l-43 487q-8 104 -37 105q-16 0 -55 -29t-74 -72q-50 10 -65 57z" />
<glyph unicode="x" horiz-adv-x="1058" d="M54 89q0 100 99 100q44 0 94 -27.5t59 -27.5q21 0 62 53q122 162 151 214q-37 108 -117 282q-15 35 -59 35q-42 0 -114 -34q-28 27 -34 79q73 42 180.5 89t154.5 47q36 0 54.5 -26.5t49.5 -111.5l53 -148l49 68q75 110 135.5 162.5t149.5 52.5q57 0 99.5 -26t42.5 -72 q0 -47 -27.5 -84t-67.5 -37q-46 0 -92 30q-30 17 -52 17q-27 0 -54 -36l-154 -210l128 -294q21 -49 45 -49q55 0 109 54l51 -51q-85 -94 -156 -126t-148 -32q-58 0 -89.5 42.5t-61.5 132.5l-39 119q-66 -98 -112 -150q-83 -94 -126 -119.5t-118 -25.5q-55 0 -100 30t-45 80z " />
<glyph unicode="y" d="M84 -366q0 63 33.5 104t72.5 41q14 0 42 -14t40 -27q13 -13 42.5 -31t45.5 -18q63 0 177 184q6 14 6 51q0 96 -42 348q-59 350 -110 420q-12 16 -21 21t-29 5q-43 0 -120 -36q-28 27 -35 79q72 42 183 90t159 48q37 0 60.5 -34t46.5 -117q55 -231 78 -570l8 -2l167 279 q66 109 66 221q0 22 -27.5 72.5t-27.5 90.5q0 30 38 45t79 15q48 0 90 -23.5t42 -71.5q0 -76 -23 -145t-81 -163l-391 -639q-93 -152 -213.5 -247t-214.5 -95q-45 0 -93 28.5t-48 90.5z" />
<glyph unicode="z" horiz-adv-x="935" d="M79 15q10 26 161 182q294 301 460 477q-15 0 -39 -2t-39 -2q-26 0 -72.5 14t-101.5 14q-46 0 -110 -37t-82 -77q-46 0 -65 22q32 94 125.5 193.5t160.5 99.5q145 0 319 -49q18 -5 43 -5q38 14 98 77q43 -13 77 -58q-32 -34 -601 -625q21 5 45 5q46 0 107 -18 q16 -5 51.5 -18t63 -20t55.5 -7q19 0 32 2.5t37 13.5t51 39.5t57 73.5h2q45 0 61 -49q-73 -151 -168.5 -216t-193.5 -65q-110 0 -203 43q-82 38 -146 38h-3q-36 -12 -96 -86q-73 11 -86 40z" />
<glyph unicode="{" horiz-adv-x="628" d="M141.5 505q3.5 20 19.5 34q101 10 159 71t76 148l68 377q20 109 89 182.5t152 102t176 28.5q7 -9 4 -24.5t-14 -24.5q-38 -11 -62.5 -23t-57.5 -39.5t-55.5 -79.5t-35.5 -127l-57 -339q-21 -128 -84 -188t-178 -93l-1 -8q96 -47 132 -117.5t4 -189.5l-80 -306 q-30 -129 -0.5 -201.5t96.5 -72.5q7 -9 3.5 -24.5t-14.5 -24.5q-62 0 -110 9t-91 31.5t-64 60.5t-29 95.5t15 137.5l86 348q49 200 -141 225q-9 12 -5.5 32z" />
<glyph unicode="|" horiz-adv-x="450" d="M142 -477l268 1907h116l-268 -1907h-116z" />
<glyph unicode="}" horiz-adv-x="628" d="M-41.5 -407.5q3.5 15.5 14.5 24.5q38 11 62.5 23t57.5 39.5t55.5 79t35.5 126.5l57 340q21 128 84 188t177 93l2 8q-96 47 -132 117.5t-5 189.5l81 305q30 129 0.5 202t-96.5 73q-7 9 -3.5 24.5t13.5 24.5q62 0 110.5 -9t91.5 -31.5t64 -60.5t28.5 -95.5t-14.5 -137.5 l-86 -348q-49 -200 141 -225q9 -12 5.5 -32t-19.5 -34q-101 -10 -159 -71t-76 -148l-69 -377q-20 -109 -88.5 -182.5t-151.5 -102t-177 -28.5q-7 9 -3.5 24.5z" />
<glyph unicode="~" horiz-adv-x="919" d="M129 428q41 109 131 201t176 92q47 0 140.5 -66.5t138.5 -66.5q141 0 207 106q33 4 53 -12q-68 -145 -152 -210.5t-137 -65.5q-55 0 -142 66.5t-141 66.5q-147 0 -229 -117q-29 -12 -45 6z" />
<glyph unicode="&#xa1;" horiz-adv-x="544" d="M77 -305q13 60 73 217q129 350 165 506q20 86 72 86q35 0 41 -29.5t-6 -81.5q-14 -74 -29.5 -227t-20.5 -260q-4 -145 -18 -211q-17 -78 -67.5 -116t-103.5 -38q-58 0 -90 40t-16 114zM283 766q0 57 45 100t106.5 43t104.5 -41t43 -98q0 -59 -45 -102t-106.5 -43 t-104.5 41t-43 100z" />
<glyph unicode="&#xa2;" horiz-adv-x="1105" d="M249 557q44 208 185.5 344t308.5 152l31 143h65l-30 -142q132 -7 194.5 -72.5t47.5 -139.5q-10 -48 -47.5 -81.5t-83.5 -33.5t-74.5 27.5t-24.5 68.5q12 100 -33 133l-144 -676q29 -9 62 -10q79 0 223 117q25 0 11 -63q-66 -77 -156 -131.5t-172 -65.5l-32 -152h-66 l32 151q-169 6 -247 105q-94 119 -50 326zM512 435q20 -80 74 -124l139 656q-144 -23 -211 -338q-22 -114 -2 -194z" />
<glyph unicode="&#xa3;" horiz-adv-x="1105" d="M67 14q18 82 130 142q32 22 57.5 53t63.5 127.5t69 245.5l4 16h-96q-31 0 -41.5 5.5t-7.5 17.5l7 32q9 41 99 41h59l11 49q29 137 90.5 229t160.5 175q139 111 314 110q23 0 47.5 -3.5t55.5 -13t47 -32.5t9 -57q-11 -52 -48.5 -84.5t-86.5 -32.5q-42 0 -81 53 q-9 13 -14 37t-12.5 38t-25.5 14q-114 0 -184 -328l-32 -154h173q27 0 42 -6.5t13 -15.5l-7 -33q-4 -20 -35.5 -30.5t-65.5 -10.5h-141q-62 -250 -253 -391q73 0 125.5 -15t74.5 -32t50.5 -31t59.5 -14q45 0 106.5 31.5t108.5 82.5l40 -30q-51 -92 -135.5 -159t-183.5 -67 q-64 0 -126 32t-112 63.5t-84 31.5q-31 0 -50.5 -9t-25 -19.5t-9.5 -26.5q-9 -41 -41.5 -63.5t-65.5 -22.5q-23 0 -40.5 17.5t-12.5 37.5z" />
<glyph unicode="&#xa4;" horiz-adv-x="948" d="M115 303l121 88q-60 110 -36 221q25 117 132 226q-55 53 -82 84l131 116l72 -112q101 51 207 51q99 0 180 -53q110 109 124 125l86 -125l-126 -93q59 -105 34 -219q-22 -104 -125 -217q32 -33 81 -90l-129 -119l-73 119q-103 -55 -210 -55q-105 0 -181 51 q-19 -21 -61.5 -64t-52.5 -55zM356 614q-23 -108 26 -180t144 -72q96 0 175 72.5t101 177.5q23 107 -28 179.5t-137 72.5q-94 0 -176.5 -72.5t-104.5 -177.5z" />
<glyph unicode="&#xa5;" horiz-adv-x="1105" d="M244.5 30.5q5.5 25.5 15.5 35.5q67 3 97.5 7t59 23.5t42 53.5t27.5 100l6 26h-233l18 86h233l30 140h-233l18 86h228q-1 24 -22 92l-98 328q-21 79 -54.5 115t-92.5 40q-7 9 -2.5 35t15.5 35q115 -4 262 -4q75 0 230 4q7 -9 1.5 -35t-15.5 -35q-78 -4 -96 -19.5t-9 -56.5 l76 -323q9 -38 22.5 -39.5t34.5 33.5l204 329q13 22 14.5 36t-10.5 22t-31 12t-53 6q-7 9 -1.5 35t16.5 35q153 -4 193 -4q44 0 161 4q7 -9 1 -35t-16 -35q-67 -7 -110.5 -33t-81.5 -86l-220 -325q-48 -71 -62 -131h248l-19 -86h-248l-30 -140h249l-19 -86h-248 q-1 -4 -3 -13t-3 -13q-9 -44 -12.5 -72.5t2 -49.5t13.5 -32t31.5 -18t46.5 -9t67 -3q7 -9 1.5 -35t-16.5 -35q-192 4 -295 4q-138 0 -328 -4q-7 9 -1.5 34.5z" />
<glyph unicode="&#xa6;" horiz-adv-x="450" d="M86 -412l157 742h116l-158 -742h-115zM309 639l158 741h115l-158 -741h-115z" />
<glyph unicode="&#xa7;" horiz-adv-x="954" d="M115 -76q8 38 48.5 69.5t74.5 31.5q53 0 79.5 -39.5t21.5 -65.5q-6 -30 -27.5 -58.5t-23.5 -39.5q-2 -8 0.5 -21.5t11 -31.5t34 -30.5t64.5 -12.5q67 0 120 53.5t74 152.5q8 37 -4 71.5t-45.5 67t-58 51t-69.5 48.5q-140 95 -186 184.5t-20 210.5q28 132 186 259 q-47 91 -22 208q11 53 52 116t96 107q115 92 266 93q146 0 223 -70t50 -197q-9 -41 -51.5 -71.5t-78.5 -30.5q-54 0 -76.5 38.5t-16.5 65.5q8 36 26.5 61t21.5 38q9 40 -14 67t-92 27q-77 0 -127.5 -58t-69.5 -145q-14 -66 13 -102.5t96 -75.5q53 -31 79 -47.5t67.5 -46 t60.5 -51t42.5 -55.5t30 -68t7.5 -79.5t-11 -98.5q-30 -141 -198 -268q63 -114 37.5 -234.5t-131.5 -206.5t-289 -86q-75 0 -141.5 28.5t-107 92.5t-22.5 149zM378 664q-17 -81 27 -154t178 -150q96 -54 156 -133q43 48 59 123q7 32 7.5 60t-7.5 53.5t-19 46.5t-33.5 43.5 t-44.5 40.5t-58 40.5t-68 41t-81 45.5q-40 22 -70 59q-31 -43 -46 -116z" />
<glyph unicode="&#xa8;" horiz-adv-x="839" d="M368 1174q3 47 37 79.5t77 32.5q45 0 73 -32.5t25 -79.5q-3 -46 -36 -78.5t-78 -32.5q-44 0 -72.5 32.5t-25.5 78.5zM726 1174q3 48 36.5 80t77.5 32t73 -32.5t25 -79.5q-3 -46 -36.5 -78.5t-77.5 -32.5q-45 0 -73 32.5t-25 78.5z" />
<glyph unicode="&#xa9;" horiz-adv-x="1296" d="M213 627q51 239 246.5 408t421 169t348.5 -169t72 -408.5t-246 -409.5t-420 -170q-148 0 -257.5 78t-153.5 211.5t-11 290.5zM273 627q-45 -212 64.5 -363t311.5 -151q200 0 373.5 150.5t218.5 363.5t-64 363.5t-310 150.5q-202 0 -375.5 -150.5t-218.5 -363.5zM508 627 q26 124 123 209.5t211 85.5q43 0 75.5 -5.5t47 -10.5t32 -14t23.5 -11q-5 -97 -13 -144q-9 -6 -36 -6q-20 74 -42.5 98.5t-81.5 24.5q-51 0 -98.5 -53.5t-73.5 -175.5q-47 -219 94 -219q100 0 159 71q17 -6 27 -31q-40 -51 -101.5 -86.5t-127.5 -35.5q-57 0 -109 22.5 t-79 63.5q-58 88 -30 217z" />
<glyph unicode="&#xaa;" horiz-adv-x="645" d="M268 879q12 59 81.5 104.5t173.5 73.5l78 20q16 72 16.5 111t-10 51t-35.5 12q-85 0 -93 -43q-3 -12 -1 -24.5t-1 -26.5q-5 -23 -32 -40t-55 -17q-25 0 -41.5 16.5t-9.5 48.5q12 57 97.5 102.5t152.5 45.5q98 0 133 -39q58 -61 24 -201l-38 -164q-10 -42 -11.5 -64t3 -27 t14.5 -5q14 0 34 12l12 -32q-29 -23 -72.5 -40.5t-70.5 -17.5q-40 0 -58 16t-14 52q-78 -68 -159 -68q-68 0 -100 31q-36 32 -18 113zM412 885q-16 -74 48 -74q24 0 40 9t51 38l38 164q-159 -51 -177 -137z" />
<glyph unicode="&#xab;" horiz-adv-x="1136" d="M281 424l7 33l30 24q242 193 405 353q38 -14 46 -46q-165 -235 -274 -348q61 -114 126 -348q-21 -31 -66 -45q-47 81 -97.5 153t-75.5 102.5t-101 121.5zM643 424l7 33l30 24q242 193 404 353q38 -14 47 -46q-165 -235 -275 -348q60 -113 127 -348q-21 -31 -66 -45 q-47 81 -97.5 153t-75.5 102.5t-101 121.5z" />
<glyph unicode="&#xac;" horiz-adv-x="1146" d="M224 711l24 110h987l-117 -549h-142l93 439h-845z" />
<glyph unicode="&#xad;" horiz-adv-x="733" d="M188 483q0 29 32 74t63 45h409q74 0 74 -43q0 -25 -32.5 -72t-63.5 -47h-406q-76 0 -76 43z" />
<glyph unicode="&#xae;" horiz-adv-x="1296" d="M213 627q51 239 246.5 408t421 169t348.5 -169t72 -408.5t-246 -409.5t-420 -170q-148 0 -257.5 78t-153.5 211.5t-11 290.5zM273 627q-45 -212 64.5 -363t311.5 -151q200 0 373.5 150.5t218.5 363.5t-64 363.5t-310 150.5q-202 0 -375.5 -150.5t-218.5 -363.5zM461 342 l6 29q3 12 23 12h24q15 0 18 16l95 447q5 23 -3 22l-31 -2q-10 0 -14 3t-2 10l5 26q70 10 258 10q97 0 130 -47.5t21 -105.5q-10 -47 -46 -86t-66 -55l-31 -15l57 -168q12 -34 26 -48.5t37 -14.5l-6 -27q-27 -8 -46 -8q-97 0 -114 78l-58 160q-10 6 -51 6l-40 -187 q-2 -8 -0.5 -11t11.5 -3h23q11 0 15.5 -3t2.5 -9l-6 -29q-103 4 -130 4zM703 633q30 0 49 2.5t46 13.5t45 39.5t28 73.5q24 113 -62 112q-40 0 -56 -6z" />
<glyph unicode="&#xaf;" horiz-adv-x="813" d="M315 1106q0 4 2 8q4 20 20.5 40t35.5 20h499q25 0 25 -23v-6q-4 -18 -22.5 -40t-36.5 -22h-502q-20 0 -21 23z" />
<glyph unicode="&#xb0;" horiz-adv-x="546" d="M283 1075q0 90 63.5 153.5t153.5 63.5t152.5 -63.5t62.5 -153.5q0 -88 -62.5 -151.5t-152.5 -63.5t-153.5 63.5t-63.5 151.5zM371 1073q0 -53 35.5 -94t93 -41t92.5 41t35 94t-34 97t-93.5 44t-94 -43t-34.5 -98z" />
<glyph unicode="&#xb1;" horiz-adv-x="1079" d="M152 16l43 162h809l-43 -162h-809zM284 614l32 152h321l71 336h159l-71 -336h321l-33 -152h-321l-70 -333h-159l71 333h-321z" />
<glyph unicode="&#xb2;" horiz-adv-x="696" d="M265 745q25 117 164 235l136 111q86 70 104 154q16 74 2 115q-11 31 -48 31q-60 0 -81 -37q-5 -9 -13 -48q-1 -5 -3 -15.5t-3 -14.5q-3 -15 -6 -23q-10 -25 -37.5 -42t-57.5 -17q-66 0 -47 88q11 51 97.5 110.5t190.5 59.5q115 0 156 -42q47 -46 28 -136 q-15 -72 -85 -135q-48 -44 -131 -109l-98 -77q-56 -40 -72 -91h158q42 0 83.5 37.5t70.5 89.5q40 0 51 -12q-18 -60 -105 -232h-454z" />
<glyph unicode="&#xb3;" horiz-adv-x="696" d="M243 825q0 33 26 59.5t62 26.5q19 0 32.5 -9.5t19 -20t11.5 -27t7 -18.5q25 -39 73 -39q57 0 112 65.5t55 139.5q0 84 -123 83q-32 0 -67 -8l13 62q78 11 146 62t68 124q0 31 -18 48.5t-47 17.5q-34 0 -65.5 -22.5t-41.5 -57.5q-6 -28 -31.5 -55t-63.5 -27q-53 0 -52 44 q0 6 1 13q10 46 90 106t209 60q85 0 136 -31.5t51 -85.5q0 -91 -124 -166q-3 -3 -3 -5t2 -3q109 -37 108 -129q0 -130 -128 -219q-113 -78 -260 -78q-198 0 -198 90z" />
<glyph unicode="&#xb4;" horiz-adv-x="698" d="M176 1063q3 25 23 49l208 268q13 4 33 4q77 0 110 -49l14 -47l-277 -221q-43 -33 -82 -33q-12 0 -21.5 9.5t-7.5 19.5z" />
<glyph unicode="&#xb5;" horiz-adv-x="1206" d="M117 -334q11 53 45 146q47 132 57 180q3 16 8.5 52t7.5 50q2 17 4.5 87t8.5 100l81 381q5 23 11.5 79.5t11.5 101.5l4 46l272 26q-26 -148 -40 -213l-80 -374q-24 -97 -17.5 -158t54.5 -61q64 0 131.5 24t107.5 68l146 688l256 29l-139 -658q-15 -75 -7.5 -106t39.5 -31 q46 0 87 29q28 -30 22 -58q-138 -115 -284 -114q-65 0 -96 29t-28 90l-16 -1q-6 -5 -19 -13q-53 -39 -80.5 -56.5t-72 -33t-90.5 -15.5q-57 0 -86 14q-2 -11 -16 -83.5t-15 -107.5q0 -107 -8 -147q-13 -62 -56 -96.5t-93 -34.5q-38 0 -80.5 41t-30.5 100z" />
<glyph unicode="&#xb6;" horiz-adv-x="1232" d="M205 788q0 59 8 111q35 195 163 309.5t329 114.5q90 0 202.5 -5t128.5 -5l144 6l227 4l-8 -43q-4 -14 -15 -14h-61q-51 0 -70.5 -26t-31.5 -101l-252 -1434q-8 -41 -8 -72q0 -33 14 -43t51 -12h61q12 0 9 -14l-9 -43h-671l8 43q2 14 14 14h60q51 2 69.5 25.5t32.5 103.5 l133 758q-53 -25 -162 -25q-49 0 -96 9.5t-97 35t-87 63.5t-61.5 100.5t-24.5 139.5zM715 -356q0 -68 43 -68q41 0 58.5 27.5t31.5 99.5l254 1436q6 43 6 67q0 35 -11.5 44.5t-33.5 11.5q-31 0 -51.5 -21.5t-26.5 -44t-12 -63.5l-252 -1426q-6 -31 -6 -63z" />
<glyph unicode="&#xb7;" horiz-adv-x="659" d="M276 528q0 66 50.5 116t117.5 50q66 0 117 -48t51 -118q0 -68 -49 -117t-119 -49q-74 0 -121 49.5t-47 116.5z" />
<glyph unicode="&#xb8;" horiz-adv-x="1107" d="M397 -406q6 44 28 54q73 -29 115 -29q47 0 77.5 21.5t36.5 62.5q4 27 -10.5 45.5t-44.5 27.5t-54.5 12t-60.5 5l-10 12l133 209h70l-55 -98q185 -38 166 -172q-11 -77 -88 -130.5t-177 -53.5q-19 0 -32.5 1t-27.5 5t-19 6t-23 11t-24 11z" />
<glyph unicode="&#xb9;" horiz-adv-x="696" d="M306 743q-4 9 0 29.5t13 32.5q36 2 56 5.5t44.5 14t38.5 34t22 61.5l66 307q11 49 9.5 66.5t-18.5 17.5q-29 0 -117 -31q-16 16 -4 68q195 70 288 114q10 5 32 6t29 -6l-115 -542q-15 -72 4.5 -92t76.5 -23q8 -32 -13 -62q-57 2 -190 2q-164 0 -222 -2z" />
<glyph unicode="&#xba;" horiz-adv-x="753" d="M204 879q27 126 126 203t217 77q89 0 138 -35q52 -37 74 -101.5t8 -131.5q-24 -112 -116 -191t-228 -79q-125 0 -184 72.5t-35 185.5zM365 822.5q-3 -31.5 1.5 -65.5t27.5 -51.5t64 -17.5q46 0 79.5 34.5t54.5 135.5q29 123 14.5 182.5t-84.5 59.5q-65 0 -94 -49.5 t-50 -151.5q-10 -45 -13 -76.5z" />
<glyph unicode="&#xbb;" horiz-adv-x="1136" d="M188 92q165 235 274 348q-60 113 -126 348q21 31 66 46q47 -81 97.5 -153t75.5 -102.5t101 -121.5l-7 -33q-10 -8 -29 -23q-243 -193 -406 -354q-38 14 -46 45zM550 92q165 235 274 348q-61 114 -126 348q21 31 65 46q47 -81 98 -153t76 -102.5t101 -121.5l-7 -33 q-10 -8 -31 -24q-242 -193 -404 -353q-38 14 -46 45z" />
<glyph unicode="&#xbc;" horiz-adv-x="1433" d="M222 -111l1127 1342l114 -27l-1128 -1341zM300 643q-4 9 0 29.5t13 32.5q36 2 56 5t44.5 14t38.5 34.5t22 60.5l66 307q11 49 9 66.5t-19 17.5q-29 0 -116 -30q-16 16 -5 67q195 70 289 115q10 5 32 6t29 -6l-115 -543q-15 -72 4.5 -91.5t76.5 -22.5q8 -32 -13 -62 q-57 2 -190 2q-164 0 -222 -2zM767 -35l18 -24h281l-9 -43q-8 -38 -22.5 -61.5t-38.5 -34t-44 -14t-56 -5.5q-9 -12 -13 -32.5t0 -29.5q58 2 185 3q150 0 207 -3q22 29 14 62q-55 3 -71 22.5t-1 92.5l9 43h110l24 86h-116l86 401q4 20 -19 21h-97q-40 -45 -211 -226.5 t-236 -257.5zM902 27l238 259q-9 -43 -27.5 -129.5t-28.5 -129.5h-182z" />
<glyph unicode="&#xbd;" horiz-adv-x="1433" d="M222 -111l1127 1342l114 -27l-1128 -1341zM304 643q-4 9 0 29.5t13 32.5q36 2 56 5t44.5 14t38.5 34.5t22 60.5l66 307q11 49 9.5 66.5t-18.5 17.5q-29 0 -117 -30q-16 16 -5 67q195 70 289 115q10 5 32 6t29 -6l-115 -543q-15 -72 4.5 -91.5t76.5 -22.5q8 -32 -13 -62 q-57 2 -190 2q-164 0 -222 -2zM916 -162q25 117 164 235l136 110q86 70 105 155q16 74 1 115q-11 31 -48 30q-60 0 -81 -37q-5 -9 -13 -47q-1 -5 -3 -15.5t-3 -14.5q-4 -17 -6 -23q-10 -25 -37 -42t-58 -17q-66 0 -47 88q11 51 97.5 110.5t190.5 59.5q115 0 156 -42 q47 -46 28 -136q-15 -72 -85 -136q-48 -44 -131 -108l-98 -77q-56 -40 -72 -91h158q42 0 83.5 37.5t70.5 89.5q40 0 51 -12q-18 -60 -105 -232h-454z" />
<glyph unicode="&#xbe;" horiz-adv-x="1433" d="M222 -111l1127 1342l114 -27l-1128 -1341zM239 721q0 33 26 59.5t61 26.5q19 0 33 -10t19.5 -20.5t11.5 -26.5t7 -19q25 -39 73 -39q57 0 112 66t55 139q0 84 -123 84q-32 0 -68 -8l14 61q78 11 146 62t68 125q0 31 -18 48t-47 17q-33 0 -65 -23t-42 -57 q-6 -28 -31.5 -55t-63.5 -27q-53 0 -52 44q0 6 1 14q10 46 90 106t209 60q85 0 136 -31.5t51 -85.5q0 -91 -124 -166q-3 -3 -3 -6q0 -2 2 -2q109 -37 108 -129q0 -130 -128 -219q-113 -78 -260 -78q-198 0 -198 90zM775 -31l18 -24h281l-9 -43q-8 -38 -22 -61.5t-38.5 -34 t-44.5 -14t-56 -5.5q-9 -12 -13 -32.5t0 -28.5q58 2 185 2q150 0 208 -2q22 29 13 61q-55 3 -71 22.5t-1 92.5l9 43h110l24 86h-116l86 401q4 20 -19 21h-96q-40 -45 -211.5 -226.5t-236.5 -257.5zM910 31l238 259q-9 -43 -27.5 -129.5t-27.5 -129.5h-183z" />
<glyph unicode="&#xbf;" horiz-adv-x="880" d="M51 -154q11 54 39 101.5t76 90.5t79.5 66.5t90.5 63.5q42 27 68 49t58.5 74t47.5 121l5 26q9 40 24 55t55 15q36 0 45 -16.5t1 -53.5l-6 -30q-9 -44 -17.5 -71.5t-30 -74.5t-61.5 -94t-99 -94q-127 -100 -157 -242q-21 -97 4 -161t102 -64q63 0 114.5 31.5t60.5 74.5 q4 20 2 51t4 60q8 38 42 61t78 23q39 0 67.5 -32.5t16.5 -86.5q-11 -51 -43.5 -90t-95.5 -86q-107 -80 -281 -80q-164 0 -242 85.5t-47 227.5zM520 758q12 58 63.5 100.5t109 42.5t89 -40.5t19.5 -98.5q-13 -60 -64 -103t-109 -43t-89.5 41t-18.5 101z" />
<glyph unicode="&#xc0;" horiz-adv-x="1454" d="M10 30.5q6 24.5 17 35.5q51 4 80.5 12t67.5 38.5t75 92.5l631 1048q74 0 233 91l178 -1172q2 -16 6.5 -30.5t11.5 -24.5t11 -17.5t17.5 -13.5t17.5 -9t22.5 -6t20.5 -4t24.5 -3t24.5 -2q8 -10 2 -35t-16 -35q-143 4 -263 4q-188 0 -335 -4q-8 10 -3 34.5t15 35.5 q12 0 30.5 1t29 2t26.5 2t23.5 3t20.5 6t15 10t11.5 14.5t6.5 18.5t-1 24l-45 334h-373q-57 0 -76 -35l-160 -284q-12 -20 -14 -35.5t8 -26t18.5 -16.5t32 -10t34.5 -5t38 -3q8 -10 2 -35t-16 -35q-143 4 -260 4q-39 0 -187 -4q-8 10 -2 34.5zM604 606q-8 -14 2 -20t43 -6 h299l-67 485h-13zM714 1587l3 -24l278 -119q32 -14 69 -14q14 0 29 9t17 21q4 27 -15 43q-82 81 -232 197q-96 -43 -149 -113z" />
<glyph unicode="&#xc1;" horiz-adv-x="1454" d="M10 30.5q6 24.5 17 35.5q51 4 80.5 12t67.5 38.5t75 92.5l631 1048q74 0 233 91l178 -1172q2 -16 6.5 -30.5t11.5 -24.5t11 -17.5t17.5 -13.5t17.5 -9t22.5 -6t20.5 -4t24.5 -3t24.5 -2q8 -10 2 -35t-16 -35q-143 4 -263 4q-188 0 -335 -4q-8 10 -3 34.5t15 35.5 q12 0 30.5 1t29 2t26.5 2t23.5 3t20.5 6t15 10t11.5 14.5t6.5 18.5t-1 24l-45 334h-373q-57 0 -76 -35l-160 -284q-12 -20 -14 -35.5t8 -26t18.5 -16.5t32 -10t34.5 -5t38 -3q8 -10 2 -35t-16 -35q-143 4 -260 4q-39 0 -187 -4q-8 10 -2 34.5zM604 606q-8 -14 2 -20t43 -6 h299l-67 485h-13zM763 1466q4 26 27 43q102 79 288 197q36 -18 69 -49.5t48 -63.5l-9 -24l-312 -119q-38 -14 -74 -14q-14 0 -26 9t-11 21z" />
<glyph unicode="&#xc2;" horiz-adv-x="1454" d="M10 30.5q6 24.5 17 35.5q51 4 80.5 12t67.5 38.5t75 92.5l631 1048q74 0 233 91l178 -1172q2 -16 6.5 -30.5t11.5 -24.5t11 -17.5t17.5 -13.5t17.5 -9t22.5 -6t20.5 -4t24.5 -3t24.5 -2q8 -10 2 -35t-16 -35q-143 4 -263 4q-188 0 -335 -4q-8 10 -3 34.5t15 35.5 q12 0 30.5 1t29 2t26.5 2t23.5 3t20.5 6t15 10t11.5 14.5t6.5 18.5t-1 24l-45 334h-373q-57 0 -76 -35l-160 -284q-12 -20 -14 -35.5t8 -26t18.5 -16.5t32 -10t34.5 -5t38 -3q8 -10 2 -35t-16 -35q-143 4 -260 4q-39 0 -187 -4q-8 10 -2 34.5zM604 606q-8 -14 2 -20t43 -6 h299l-67 485h-13zM748 1485q145 86 290 213l30 10q109 -126 247 -225q-5 -38 -40 -53q-169 54 -238 114q-101 -67 -268 -114q-27 13 -21 55z" />
<glyph unicode="&#xc3;" horiz-adv-x="1454" d="M10 30.5q6 24.5 17 35.5q51 4 80.5 12t67.5 38.5t75 92.5l631 1048q74 0 233 91l178 -1172q2 -16 6.5 -30.5t11.5 -24.5t11 -17.5t17.5 -13.5t17.5 -9t22.5 -6t20.5 -4t24.5 -3t24.5 -2q8 -10 2 -35t-16 -35q-143 4 -263 4q-188 0 -335 -4q-8 10 -3 34.5t15 35.5 q12 0 30.5 1t29 2t26.5 2t23.5 3t20.5 6t15 10t11.5 14.5t6.5 18.5t-1 24l-45 334h-373q-57 0 -76 -35l-160 -284q-12 -20 -14 -35.5t8 -26t18.5 -16.5t32 -10t34.5 -5t38 -3q8 -10 2 -35t-16 -35q-143 4 -260 4q-39 0 -187 -4q-8 10 -2 34.5zM604 606q-8 -14 2 -20t43 -6 h299l-67 485h-13zM707 1442q37 82 91 136t106 54q87 0 145 -51q32 -29 108 -29q66 0 113 88q23 0 38.5 -11.5t13.5 -29.5q-38 -88 -97 -139t-117 -51q-76 0 -127 43q-49 35 -114 35q-27 0 -42.5 -4t-34.5 -22.5t-34 -55.5q-22 0 -36.5 8.5t-12.5 28.5z" />
<glyph unicode="&#xc4;" horiz-adv-x="1454" d="M10 30.5q6 24.5 17 35.5q51 4 80.5 12t67.5 38.5t75 92.5l631 1048q74 0 233 91l178 -1172q2 -16 6.5 -30.5t11.5 -24.5t11 -17.5t17.5 -13.5t17.5 -9t22.5 -6t20.5 -4t24.5 -3t24.5 -2q8 -10 2 -35t-16 -35q-143 4 -263 4q-188 0 -335 -4q-8 10 -3 34.5t15 35.5 q12 0 30.5 1t29 2t26.5 2t23.5 3t20.5 6t15 10t11.5 14.5t6.5 18.5t-1 24l-45 334h-373q-57 0 -76 -35l-160 -284q-12 -20 -14 -35.5t8 -26t18.5 -16.5t32 -10t34.5 -5t38 -3q8 -10 2 -35t-16 -35q-143 4 -260 4q-39 0 -187 -4q-8 10 -2 34.5zM588 1427.5q0 49.5 32.5 83 t82 33.5t82 -33.5t32.5 -83t-32.5 -82t-82 -32.5t-82 32.5t-32.5 82zM604 606q-8 -14 2 -20t43 -6h299l-67 485h-13zM1237 1427.5q0 49.5 34 83t83 33.5t80.5 -33.5t31.5 -83t-31.5 -82t-80.5 -32.5t-83 32.5t-34 82z" />
<glyph unicode="&#xc5;" horiz-adv-x="1454" d="M10 30.5q6 24.5 17 35.5q51 4 80.5 12t67.5 38.5t75 92.5l631 1048q74 0 233 91l178 -1172q2 -16 6.5 -30.5t11.5 -24.5t11 -17.5t17.5 -13.5t17.5 -9t22.5 -6t20.5 -4t24.5 -3t24.5 -2q8 -10 2 -35t-16 -35q-143 4 -263 4q-188 0 -335 -4q-8 10 -3 34.5t15 35.5 q12 0 30.5 1t29 2t26.5 2t23.5 3t20.5 6t15 10t11.5 14.5t6.5 18.5t-1 24l-45 334h-373q-57 0 -76 -35l-160 -284q-12 -20 -14 -35.5t8 -26t18.5 -16.5t32 -10t34.5 -5t38 -3q8 -10 2 -35t-16 -35q-143 4 -260 4q-39 0 -187 -4q-8 10 -2 34.5zM604 606q-8 -14 2 -20t43 -6 h299l-67 485h-13zM810 1532q4 70 60.5 120t128.5 50t122 -49.5t45 -120.5q-4 -69 -59.5 -119.5t-128.5 -50.5q-71 0 -121.5 50t-46.5 120zM886 1532q-3 -45 23 -80t72 -35t76.5 34.5t33.5 80.5q3 49 -24 82t-72 33q-46 0 -76 -33.5t-33 -81.5z" />
<glyph unicode="&#xc6;" horiz-adv-x="1957" d="M22 30.5q5 25.5 17 35.5q74 5 122.5 32t112.5 111l716 942q38 55 14.5 79.5t-98.5 24.5q-17 0 -13 15l10 51l5 4l423 -4h611q54 0 102 8q4 0 5.5 -1.5t1.5 -4.5q0 -7 -8 -62.5t-18 -127t-13 -107.5q-40 -18 -90 -10q-13 118 -50.5 168.5t-144.5 50.5h-174 q-36 0 -66.5 -31t-38.5 -69l-82 -383h166q108 0 150 22.5t63 104.5q11 9 46 9t42 -9q-30 -123 -41 -177q-9 -43 -34 -180q-11 -9 -46 -9t-42 9q10 71 -23 99t-137 28h-166l-99 -465q-9 -41 10 -69.5t53 -28.5h207q111 0 199 71.5t146 190.5q21 5 48.5 2t41.5 -12 q-12 -31 -37 -105.5t-47 -132.5t-44 -104q-184 4 -282 4h-483q-216 -2 -316 -4q-7 9 -2 34.5t16 35.5q62 3 91 7.5t57 23t42 53.5t28 100l62 295h-364l-288 -383q-14 -19 -17.5 -34.5t5.5 -25t20.5 -16.5t33.5 -11t38.5 -6t39.5 -3q7 -9 2 -35t-16 -35q-151 4 -272 4 q-41 0 -193 -4q-7 9 -2 34.5zM746 647h311l100 469q10 47 -10 46q-17 -1 -49 -44z" />
<glyph unicode="&#xc7;" horiz-adv-x="1382" d="M197 645q63 326 303.5 514.5t541.5 188.5q106 0 186.5 -20.5t136.5 -44t91 -28.5q-8 -203 -18 -317q-49 -25 -88 -10q-14 158 -87 246t-257 88q-172 0 -314.5 -167t-189.5 -411q-47 -242 39 -420t254 -178q250 0 477 213q16 0 34.5 -14.5t22.5 -28.5q-258 -276 -555 -276 h-14l-35 -64q185 -38 166 -172q-11 -77 -88.5 -130.5t-177.5 -53.5q-19 0 -32.5 1t-27 5t-18.5 6t-23 11t-25 11q6 44 28 54q73 -29 115 -29q47 0 77.5 21.5t36.5 62.5q4 27 -10 45.5t-44.5 27.5t-54.5 12t-60 5l-11 12l113 177q-233 15 -359 127q-96 86 -129 234.5 t-4 301.5z" />
<glyph unicode="&#xc8;" horiz-adv-x="1183" d="M16.5 30.5q6.5 24.5 16.5 35.5q111 4 147.5 33.5t59.5 150.5l157 819q25 123 0.5 152.5t-133.5 33.5q-8 10 -3 35t15 35l304 -4h579q51 0 98 8q6 0 6.5 -6t-7 -62.5t-16.5 -127t-11 -107.5q-37 -18 -86 -10q-14 119 -50 169t-139 50h-168q-35 0 -63.5 -30.5t-36.5 -69.5 l-74 -383h160q102 0 142 22.5t61 104.5q10 10 43 10t41 -10q-4 -23 -37 -177q-10 -55 -33 -180q-10 -10 -43 -10t-41 10q10 72 -22.5 99.5t-130.5 27.5h-160l-90 -465q-8 -41 10 -69.5t51 -28.5h199q207 0 328 262q53 12 86 -10q-2 -8 -46.5 -144.5t-72.5 -197.5 q-176 4 -271 4h-462q-209 -2 -306 -4q-8 10 -1.5 34.5zM650 1587l3 -24l278 -119q32 -14 70 -14q14 0 28.5 9t16.5 21q4 27 -14 43q-83 81 -233 197q-96 -43 -149 -113z" />
<glyph unicode="&#xc9;" horiz-adv-x="1183" d="M16.5 30.5q6.5 24.5 16.5 35.5q111 4 147.5 33.5t59.5 150.5l157 819q25 123 0.5 152.5t-133.5 33.5q-8 10 -3 35t15 35l304 -4h579q51 0 98 8q6 0 6.5 -6t-7 -62.5t-16.5 -127t-11 -107.5q-37 -18 -86 -10q-14 119 -50 169t-139 50h-168q-35 0 -63.5 -30.5t-36.5 -69.5 l-74 -383h160q102 0 142 22.5t61 104.5q10 10 43 10t41 -10q-4 -23 -37 -177q-10 -55 -33 -180q-10 -10 -43 -10t-41 10q10 72 -22.5 99.5t-130.5 27.5h-160l-90 -465q-8 -41 10 -69.5t51 -28.5h199q207 0 328 262q53 12 86 -10q-2 -8 -46.5 -144.5t-72.5 -197.5 q-176 4 -271 4h-462q-209 -2 -306 -4q-8 10 -1.5 34.5zM694 1466q4 26 26 43q102 79 288 197q36 -18 69 -49.5t48 -63.5l-9 -24l-312 -119q-38 -14 -73 -14q-14 0 -26.5 9t-10.5 21z" />
<glyph unicode="&#xca;" horiz-adv-x="1183" d="M16.5 30.5q6.5 24.5 16.5 35.5q111 4 147.5 33.5t59.5 150.5l157 819q25 123 0.5 152.5t-133.5 33.5q-8 10 -3 35t15 35l304 -4h579q51 0 98 8q6 0 6.5 -6t-7 -62.5t-16.5 -127t-11 -107.5q-37 -18 -86 -10q-14 119 -50 169t-139 50h-168q-35 0 -63.5 -30.5t-36.5 -69.5 l-74 -383h160q102 0 142 22.5t61 104.5q10 10 43 10t41 -10q-4 -23 -37 -177q-10 -55 -33 -180q-10 -10 -43 -10t-41 10q10 72 -22.5 99.5t-130.5 27.5h-160l-90 -465q-8 -41 10 -69.5t51 -28.5h199q207 0 328 262q53 12 86 -10q-2 -8 -46.5 -144.5t-72.5 -197.5 q-176 4 -271 4h-462q-209 -2 -306 -4q-8 10 -1.5 34.5zM596 1485q145 86 291 213l30 10q108 -126 246 -225q-5 -38 -40 -53q-169 54 -238 114q-101 -67 -268 -114q-27 13 -21 55z" />
<glyph unicode="&#xcb;" horiz-adv-x="1183" d="M16.5 30.5q6.5 24.5 16.5 35.5q111 4 147.5 33.5t59.5 150.5l157 819q25 123 0.5 152.5t-133.5 33.5q-8 10 -3 35t15 35l304 -4h579q51 0 98 8q6 0 6.5 -6t-7 -62.5t-16.5 -127t-11 -107.5q-37 -18 -86 -10q-14 119 -50 169t-139 50h-168q-35 0 -63.5 -30.5t-36.5 -69.5 l-74 -383h160q102 0 142 22.5t61 104.5q10 10 43 10t41 -10q-4 -23 -37 -177q-10 -55 -33 -180q-10 -10 -43 -10t-41 10q10 72 -22.5 99.5t-130.5 27.5h-160l-90 -465q-8 -41 10 -69.5t51 -28.5h199q207 0 328 262q53 12 86 -10q-2 -8 -46.5 -144.5t-72.5 -197.5 q-176 4 -271 4h-462q-209 -2 -306 -4q-8 10 -1.5 34.5zM573 1603.5q0 49.5 33 83t82 33.5t82 -33.5t33 -83t-33 -82t-82 -32.5t-82 32.5t-33 82zM956 1603.5q0 49.5 34 83t83 33.5t81 -33.5t32 -83t-32 -82t-81 -32.5t-83 32.5t-34 82z" />
<glyph unicode="&#xcc;" horiz-adv-x="718" d="M52 30.5q5 26.5 22 35.5q49 2 73.5 7t52 22.5t44 55t28.5 99.5l160 821q8 43 10 73t-5 49t-16 31.5t-29.5 18.5t-38 8t-50.5 4q-12 8 -7 35t21 35q156 -4 304 -4q139 0 299 4q12 -8 7 -34.5t-22 -35.5q-49 -2 -73.5 -7t-52 -22.5t-44 -55t-28.5 -99.5l-160 -821 q-8 -43 -10 -73t5 -49t15 -31.5t29.5 -18.5t38 -8t49.5 -4q12 -8 8 -35t-20 -35q-156 4 -299.5 4t-303.5 -4q-12 8 -7 34.5zM404 1587l3 -24l278 -119q32 -14 70 -14q14 0 29 9t16 21q4 27 -14 43q-82 81 -232 197q-96 -43 -150 -113z" />
<glyph unicode="&#xcd;" horiz-adv-x="718" d="M52 30.5q5 26.5 22 35.5q49 2 73.5 7t52 22.5t44 55t28.5 99.5l160 821q8 43 10 73t-5 49t-16 31.5t-29.5 18.5t-38 8t-50.5 4q-12 8 -7 35t21 35q156 -4 304 -4q139 0 299 4q12 -8 7 -34.5t-22 -35.5q-49 -2 -73.5 -7t-52 -22.5t-44 -55t-28.5 -99.5l-160 -821 q-8 -43 -10 -73t5 -49t15 -31.5t29.5 -18.5t38 -8t49.5 -4q12 -8 8 -35t-20 -35q-156 4 -299.5 4t-303.5 -4q-12 8 -7 34.5zM428 1466q4 26 26 43q102 79 288 197q36 -18 69 -49.5t48 -63.5l-9 -24l-312 -119q-38 -14 -74 -14q-14 0 -26 9t-10 21z" />
<glyph unicode="&#xce;" horiz-adv-x="718" d="M52 30.5q5 26.5 22 35.5q49 2 73.5 7t52 22.5t44 55t28.5 99.5l160 821q8 43 10 73t-5 49t-16 31.5t-29.5 18.5t-38 8t-50.5 4q-12 8 -7 35t21 35q156 -4 304 -4q139 0 299 4q12 -8 7 -34.5t-22 -35.5q-49 -2 -73.5 -7t-52 -22.5t-44 -55t-28.5 -99.5l-160 -821 q-8 -43 -10 -73t5 -49t15 -31.5t29.5 -18.5t38 -8t49.5 -4q12 -8 8 -35t-20 -35q-156 4 -299.5 4t-303.5 -4q-12 8 -7 34.5zM357 1485q145 86 290 213l30 10q109 -126 247 -225q-5 -38 -40 -53q-169 54 -238 114q-101 -67 -268 -114q-27 13 -21 55z" />
<glyph unicode="&#xcf;" horiz-adv-x="718" d="M52 30.5q5 26.5 22 35.5q49 2 73.5 7t52 22.5t44 55t28.5 99.5l160 821q8 43 10 73t-5 49t-16 31.5t-29.5 18.5t-38 8t-50.5 4q-12 8 -7 35t21 35q156 -4 304 -4q139 0 299 4q12 -8 7 -34.5t-22 -35.5q-49 -2 -73.5 -7t-52 -22.5t-44 -55t-28.5 -99.5l-160 -821 q-8 -43 -10 -73t5 -49t15 -31.5t29.5 -18.5t38 -8t49.5 -4q12 -8 8 -35t-20 -35q-156 4 -299.5 4t-303.5 -4q-12 8 -7 34.5zM338 1569q0 49 32.5 83t82 34t82 -34t32.5 -83t-32.5 -82t-82 -33t-82 33t-32.5 82zM721 1569q0 49 33.5 83t83 34t81 -34t31.5 -83t-31.5 -82 t-81 -33t-83 33t-33.5 82z" />
<glyph unicode="&#xd0;" horiz-adv-x="1429" d="M51 19q0 34 23 47q49 2 73.5 7t52 22.5t44 55t28.5 99.5l64 330q-92 -2 -178 -7l20 103q78 -4 176 -7l78 402q9 49 10 82q0 63 -31.5 80.5t-107.5 21.5q-9 7 -8 23q0 34 22 47q225 -4 304 -4q35 0 121.5 1t142.5 1q298 0 450 -146t152 -384q0 -195 -79.5 -368.5 t-186.5 -256.5q-221 -172 -541 -172q-39 0 -159 2t-159 2l-303 -4q-9 7 -8 23zM539 180q0 -58 37 -78t126 -20q90 0 179 60.5t159 163.5t113.5 252.5t43.5 314.5q0 80 -16 142.5t-52.5 114.5t-104.5 79.5t-164 27.5q-121 0 -151 -154l-80 -415q124 2 227 8l-20 -103 q-102 5 -224 8l-65 -337q-7 -37 -8 -64z" />
<glyph unicode="&#xd1;" horiz-adv-x="1452" d="M26 30.5q5 24.5 15 35.5q113 12 150.5 43.5t62.5 162.5l166 854q-2 45 -37 85t-94 44q-8 10 -2 35t16 35l336 -4l135 -215l395 -639q41 -66 56 6l110 576q14 72 15.5 109.5t-18 58t-44 26.5t-84.5 12q-8 10 -2 35t17 35q197 -4 237 -4q29 0 221 4q8 -10 2 -34.5 t-16 -35.5q-113 -12 -149.5 -43.5t-61.5 -162.5l-164 -840l-31 -209q-51 -25 -145 -25q-33 39 -61 91l-502 815q-25 41 -37 41q-16 0 -25 -41l-118 -609q-14 -72 -15.5 -109.5t18 -58t44 -26.5t84.5 -12q8 -10 2 -35t-17 -35q-197 4 -235 4q-29 0 -221 -4q-8 10 -3 34.5z M707 1442q37 82 91 136t106 54q87 0 145 -51q32 -29 108 -29q66 0 113 88q23 0 38.5 -11.5t12.5 -29.5q-38 -88 -96.5 -139t-116.5 -51q-76 0 -127 43q-49 35 -114 35q-27 0 -42.5 -4t-34.5 -22.5t-34 -55.5q-22 0 -36.5 8.5t-12.5 28.5z" />
<glyph unicode="&#xd2;" horiz-adv-x="1431" d="M181 493q0 357 268 625q229 229 526 230q238 0 386 -142t148 -379q0 -231 -103.5 -425.5t-287 -308t-407.5 -113.5q-227 0 -378.5 139t-151.5 374zM477 463q0 -188 78.5 -292.5t210.5 -104.5q120 0 223.5 111t163 295.5t59.5 392.5q0 192 -75 294.5t-203 102.5 q-181 0 -307 -219q-58 -101 -104 -265t-46 -315zM773 1587l3 -24l278 -119q32 -14 70 -14q14 0 28.5 9t16.5 21q4 27 -14 43q-83 81 -233 197q-96 -43 -149 -113z" />
<glyph unicode="&#xd3;" horiz-adv-x="1431" d="M181 493q0 357 268 625q229 229 526 230q238 0 386 -142t148 -379q0 -231 -103.5 -425.5t-287 -308t-407.5 -113.5q-227 0 -378.5 139t-151.5 374zM477 463q0 -188 78.5 -292.5t210.5 -104.5q120 0 223.5 111t163 295.5t59.5 392.5q0 192 -75 294.5t-203 102.5 q-181 0 -307 -219q-58 -101 -104 -265t-46 -315zM796 1466q4 26 27 43q102 79 288 197q36 -18 69 -49.5t48 -63.5l-10 -24l-311 -119q-38 -14 -74 -14q-14 0 -26 9t-11 21z" />
<glyph unicode="&#xd4;" horiz-adv-x="1431" d="M181 493q0 357 268 625q229 229 526 230q238 0 386 -142t148 -379q0 -231 -103.5 -425.5t-287 -308t-407.5 -113.5q-227 0 -378.5 139t-151.5 374zM477 463q0 -188 78.5 -292.5t210.5 -104.5q120 0 223.5 111t163 295.5t59.5 392.5q0 192 -75 294.5t-203 102.5 q-181 0 -307 -219q-58 -101 -104 -265t-46 -315zM699 1485q145 86 290 213l30 10q109 -126 247 -225q-5 -38 -40 -53q-169 54 -238 114q-101 -67 -268 -114q-27 13 -21 55z" />
<glyph unicode="&#xd5;" horiz-adv-x="1431" d="M181 493q0 357 268 625q229 229 526 230q238 0 386 -142t148 -379q0 -231 -103.5 -425.5t-287 -308t-407.5 -113.5q-227 0 -378.5 139t-151.5 374zM477 463q0 -188 78.5 -292.5t210.5 -104.5q120 0 223.5 111t163 295.5t59.5 392.5q0 192 -75 294.5t-203 102.5 q-181 0 -307 -219q-58 -101 -104 -265t-46 -315zM707 1442q37 82 91 136t106 54q87 0 145 -51q32 -29 108 -29q66 0 113 88q23 0 38.5 -11.5t13.5 -29.5q-38 -88 -97 -139t-117 -51q-76 0 -127 43q-49 35 -114 35q-27 0 -42.5 -4t-34.5 -22.5t-34 -55.5q-22 0 -36.5 8.5 t-12.5 28.5z" />
<glyph unicode="&#xd6;" horiz-adv-x="1431" d="M181 493q0 357 268 625q229 229 526 230q238 0 386 -142t148 -379q0 -231 -103.5 -425.5t-287 -308t-407.5 -113.5q-227 0 -378.5 139t-151.5 374zM369 1468.5q0 49.5 32.5 83t81.5 33.5t82 -33.5t33 -83t-33 -82t-82 -32.5t-81.5 32.5t-32.5 82zM477 463 q0 -188 78.5 -292.5t210.5 -104.5q120 0 223.5 111t163 295.5t59.5 392.5q0 192 -75 294.5t-203 102.5q-181 0 -307 -219q-58 -101 -104 -265t-46 -315zM1309 1468.5q0 49.5 33.5 83t83 33.5t81 -33.5t31.5 -83t-31.5 -82t-81 -32.5t-83 32.5t-33.5 82z" />
<glyph unicode="&#xd7;" horiz-adv-x="1079" d="M259 227l292 238l-190 244l111 96l192 -246l289 246l72 -86l-297 -244l193 -248l-107 -86l-196 242l-293 -242z" />
<glyph unicode="&#xd8;" horiz-adv-x="1431" d="M123 -37l179 187q-121 137 -121 343q0 357 268 625q229 229 526 230q215 0 358 -118l135 142l93 -51l-157 -164q104 -135 105 -330q0 -231 -103.5 -425.5t-287.5 -308t-407 -113.5q-193 0 -333 101l-161 -169zM477 463q0 -62 10 -119l695 728q-67 190 -248 190t-307 -219 q-58 -101 -104 -265t-46 -315zM521 230q75 -165 245 -164q120 0 223.5 111t163 295.5t59.5 392.5q1 44 -4 86z" />
<glyph unicode="&#xd9;" horiz-adv-x="1437" d="M261 1290q5 25 15 35q197 -4 287 -4q129 0 322 4q8 -10 2 -34.5t-17 -35.5q-121 -4 -156.5 -33.5t-60.5 -152.5l-100 -518q-27 -92 -26 -206t53 -177q82 -102 213 -102q96 0 170.5 31.5t120.5 77.5t82 118t52.5 132t32.5 142l99 502q10 53 10 84t-4 50.5t-30 29.5t-46 13 t-76 9q-8 10 -2 35t17 35q197 -4 249 -4q18 0 211 4q8 -10 2 -34.5t-16 -35.5q-55 -6 -76.5 -11t-47 -23.5t-38 -53t-24.5 -98.5l-93 -465q-29 -143 -76.5 -252.5t-123.5 -195.5t-189.5 -131t-261.5 -45q-272 0 -381 86q-150 117 -90 417l115 586q23 121 1 151.5t-116 34.5 q-8 10 -3 35zM794 1587l2 -24l279 -119q32 -14 69 -14q14 0 29 9t16 21q4 27 -14 43q-82 81 -232 197q-96 -43 -149 -113z" />
<glyph unicode="&#xda;" horiz-adv-x="1437" d="M261 1290q5 25 15 35q197 -4 287 -4q129 0 322 4q8 -10 2 -34.5t-17 -35.5q-121 -4 -156.5 -33.5t-60.5 -152.5l-100 -518q-27 -92 -26 -206t53 -177q82 -102 213 -102q96 0 170.5 31.5t120.5 77.5t82 118t52.5 132t32.5 142l99 502q10 53 10 84t-4 50.5t-30 29.5t-46 13 t-76 9q-8 10 -2 35t17 35q197 -4 249 -4q18 0 211 4q8 -10 2 -34.5t-16 -35.5q-55 -6 -76.5 -11t-47 -23.5t-38 -53t-24.5 -98.5l-93 -465q-29 -143 -76.5 -252.5t-123.5 -195.5t-189.5 -131t-261.5 -45q-272 0 -381 86q-150 117 -90 417l115 586q23 121 1 151.5t-116 34.5 q-8 10 -3 35zM899 1466q4 26 26 43q102 79 288 197q36 -18 69 -49.5t48 -63.5l-9 -24l-312 -119q-38 -14 -74 -14q-14 0 -26 9t-10 21z" />
<glyph unicode="&#xdb;" horiz-adv-x="1437" d="M261 1290q5 25 15 35q197 -4 287 -4q129 0 322 4q8 -10 2 -34.5t-17 -35.5q-121 -4 -156.5 -33.5t-60.5 -152.5l-100 -518q-27 -92 -26 -206t53 -177q82 -102 213 -102q96 0 170.5 31.5t120.5 77.5t82 118t52.5 132t32.5 142l99 502q10 53 10 84t-4 50.5t-30 29.5t-46 13 t-76 9q-8 10 -2 35t17 35q197 -4 249 -4q18 0 211 4q8 -10 2 -34.5t-16 -35.5q-55 -6 -76.5 -11t-47 -23.5t-38 -53t-24.5 -98.5l-93 -465q-29 -143 -76.5 -252.5t-123.5 -195.5t-189.5 -131t-261.5 -45q-272 0 -381 86q-150 117 -90 417l115 586q23 121 1 151.5t-116 34.5 q-8 10 -3 35zM760 1485q145 86 290 213l31 10q108 -126 246 -225q-5 -38 -40 -53q-169 54 -238 114q-101 -67 -268 -114q-27 13 -21 55z" />
<glyph unicode="&#xdc;" horiz-adv-x="1499" d="M281 483l125 586q14 65 15 100.5t-16.5 54.5t-41 24t-76.5 7q-7 9 -1.5 35t16.5 35q204 -4 298 -4q113 0 192 4q7 -9 1.5 -34.5t-16.5 -35.5q-29 -5 -44 -35t-41 -151l-110 -518q-18 -86 -25.5 -140.5t2 -126t46.5 -116.5q85 -102 222 -102q100 0 178.5 31.5t127 77.5 t86 118t56 132.5t36.5 141.5l106 502q23 129 21 151.5t-26 34.5q-7 9 -2 35t16 35q77 -4 116 -4q18 0 220 4q7 -9 2 -34.5t-16 -35.5q-41 -5 -57 -7t-41.5 -9.5t-35 -18t-24 -31t-23 -49t-17.5 -71.5l-99 -465q-30 -143 -81.5 -252.5t-132 -195.5t-199.5 -131t-272 -45 q-281 0 -396 86q-153 116 -89 417zM838 1427.5q0 49.5 32.5 83t81.5 33.5t82 -33.5t33 -83t-33 -82t-82 -32.5t-81.5 32.5t-32.5 82zM1180 1427.5q0 49.5 33.5 83t83 33.5t81 -33.5t31.5 -83t-31.5 -82t-81 -32.5t-83 32.5t-33.5 82z" />
<glyph unicode="&#xdd;" horiz-adv-x="1241" d="M286 1290q5 25 15 35q119 -4 277 -4q86 0 245 4q8 -10 2 -34.5t-16 -35.5q-80 -4 -97.5 -30.5t7.5 -83.5l131 -377q6 -16 15 -22.5t18.5 -2.5t19.5 19l271 397q59 90 -80 100q-8 10 -3 35t15 35q156 -4 217 -4q66 0 184 4q8 -10 2 -34.5t-16 -35.5q-74 -6 -110.5 -23.5 t-77.5 -74.5l-338 -438q-41 -51 -66 -170l-59 -299q-25 -123 3.5 -152.5t151.5 -34.5q8 -10 2 -33.5t-16 -33.5q-197 4 -311 4q-152 0 -344 -4q-8 10 -3 33.5t15 33.5q125 4 164 34t63 153l54 280q10 57 8 81t-19 69l-164 440q-31 82 -61.5 106.5t-95.5 28.5q-8 10 -3 35z M837 1466q4 26 27 43q102 79 288 197q36 -18 69 -49.5t48 -63.5l-10 -24l-311 -119q-38 -14 -74 -14q-14 0 -26 9t-11 21z" />
<glyph unicode="&#xde;" horiz-adv-x="1261" d="M52 30.5q5 26.5 22 35.5q49 2 73.5 7t52 22.5t44 55t28.5 99.5l160 821q8 43 10 73t-5 49t-16 31.5t-29.5 18.5t-38 8t-50.5 4q-12 8 -7 35t21 35q156 -4 304 -4q139 0 299 4q12 -8 7 -34.5t-22 -35.5q-49 -2 -73.5 -7t-52 -22.5t-44 -55t-28.5 -99.5l-1 -4q76 4 204 4 q91 0 162.5 -17t114 -46t73 -66.5t39 -78.5t12 -82.5t-8.5 -78.5q-13 -62 -55 -127t-110.5 -127t-178 -101.5t-237.5 -39.5q-119 0 -161 10l-13 -67q-8 -43 -10 -73t5 -49t15 -31.5t29.5 -18.5t38 -8t49.5 -4q12 -8 8 -35t-20 -35q-156 4 -299.5 4t-303.5 -4q-12 8 -7 34.5z M575 397q43 -6 129 -6q113 0 183.5 73.5t105.5 237.5q29 136 -3 210.5t-123 74.5q-17 0 -85 -4.5t-93 -4.5z" />
<glyph unicode="&#xdf;" horiz-adv-x="1226" d="M-236 -344q0 -49 59.5 -91.5t173.5 -42.5q79 0 154.5 39.5t130.5 115.5q58 80 130.5 250t111.5 339q23 102 55 262t50 238l30 139q52 232 84 302q67 145 201 145q34 0 66.5 -28.5t32.5 -80.5q0 -276 -236 -405l-6 -27q100 -74 124.5 -150.5t24.5 -208.5v-26 q0 -131 -35 -245.5t-83 -114.5q-29 0 -52 12.5t-19 30.5q5 23 28 55.5t27 52.5q8 35 -17.5 58.5t-64.5 23.5t-72 -33t-40 -65q-20 -91 26 -156t165 -65q117 0 217 75.5t152.5 181.5t52.5 205q0 137 -87 248t-216 148v4q183 65 283.5 163.5t100.5 222.5q0 39 -23 82.5 t-64 71.5q-70 47 -234 48q-117 0 -225 -42t-206.5 -147.5t-141.5 -263.5q-27 -88 -123 -88q-33 0 -47 -26.5t-14 -49.5q0 -12 16 -14l96 -11q25 -2 25 -22q-74 -360 -94 -477q-12 -68 -28 -211t-36 -230t-61 -150q-20 -32 -52 -53t-60 -21q-18 0 -32.5 10t-17 14t-18.5 29 q-20 27 -51.5 50.5t-63.5 23.5q-47 0 -72 -29.5t-25 -65.5z" />
<glyph unicode="&#xe0;" horiz-adv-x="1142" d="M154 241q0 215 150 405q89 114 207.5 183.5t242.5 69.5q23 0 133 -12q13 -3 32 -3t60.5 4.5t60.5 4.5q42 0 42 -43q0 -16 -6 -44.5t-17.5 -75t-17.5 -74.5l-87 -402q-14 -59 -13 -87q0 -38 22 -38q18 0 62 27.5t81 68.5q18 0 35.5 -19.5t23.5 -37.5q-147 -188 -364 -188 q-78 0 -103 67q-7 19 -6 49q0 51 17 123l10 37l-8 4q-90 -133 -180.5 -206.5t-157.5 -73.5q-107 0 -163 74t-56 187zM410 283q0 -110 90 -110q88 0 246 290q23 58 40 136t22 126l5 49q-6 39 -70 39q-127 0 -229 -169q-104 -172 -104 -361zM587 1296l8 23q22 21 66 43t92 22 q25 0 41 -4l105 -254q14 -32 11 -53q-2 -14 -13.5 -23.5t-25.5 -9.5q-25 0 -66 41z" />
<glyph unicode="&#xe1;" horiz-adv-x="1142" d="M154 241q0 215 150 405q89 114 207.5 183.5t242.5 69.5q23 0 133 -12q13 -3 32 -3t60.5 4.5t60.5 4.5q42 0 42 -43q0 -16 -6 -44.5t-17.5 -75t-17.5 -74.5l-87 -402q-14 -60 -14 -87q0 -38 23 -38q18 0 62 27.5t81 68.5q18 0 35.5 -19.5t23.5 -37.5q-147 -188 -364 -188 q-78 0 -103 67q-7 19 -6 49q0 51 17 123l10 37l-8 4q-90 -133 -180.5 -206.5t-157.5 -73.5q-107 0 -163 74t-56 187zM410 283q0 -110 90 -110q88 0 246 290q23 58 40 136t22 126l5 49q-6 39 -70 39q-127 0 -229 -169q-104 -172 -104 -361zM584 1063q3 25 23 49l207 268 q13 4 34 4q77 0 110 -49l14 -47l-277 -221q-43 -33 -83 -33q-12 0 -21 9.5t-7 19.5z" />
<glyph unicode="&#xe2;" horiz-adv-x="1142" d="M154 241q0 215 150 405q89 114 207.5 183.5t242.5 69.5q23 0 133 -12q13 -3 32 -3t60.5 4.5t60.5 4.5q42 0 42 -43q0 -16 -6 -44.5t-17.5 -75t-17.5 -74.5l-87 -402q-14 -60 -14 -87q0 -38 23 -38q18 0 62 27.5t81 68.5q18 0 35.5 -19.5t23.5 -37.5q-147 -188 -364 -188 q-78 0 -103 67q-7 19 -6 49q0 51 17 123l10 37l-8 4q-90 -133 -180.5 -206.5t-157.5 -73.5q-107 0 -163 74t-56 187zM410 283q0 -110 90 -110q88 0 246 290q23 58 40 136t22 126l5 49q-6 39 -70 39q-127 0 -229 -169q-104 -172 -104 -361zM456 1083q184 180 256 275h107 q53 -112 176 -275l-57 -39q-125 83 -195 170q-88 -79 -241 -170z" />
<glyph unicode="&#xe3;" horiz-adv-x="1142" d="M154 241q0 215 150 405q89 114 207.5 183.5t242.5 69.5q23 0 133 -12q13 -3 32 -3t60.5 4.5t60.5 4.5q42 0 42 -43q0 -16 -6 -44.5t-17.5 -75t-17.5 -74.5l-87 -402q-14 -59 -13 -87q0 -38 22 -38q18 0 62 27.5t81 68.5q18 0 35.5 -19.5t23.5 -37.5q-147 -188 -364 -188 q-78 0 -103 67q-7 19 -6 49q0 51 17 123l10 37l-8 4q-90 -133 -180.5 -206.5t-157.5 -73.5q-107 0 -163 74t-56 187zM410 283q0 -110 90 -110q88 0 246 290q23 58 40 136t22 126l5 49q-6 39 -70 39q-127 0 -229 -169q-104 -172 -104 -361zM458 1096q37 82 91 136t105 54 q87 0 145 -51q32 -29 108 -29q66 0 113 88q23 0 38.5 -11.5t13.5 -29.5q-38 -88 -97 -139t-116 -51q-76 0 -127 43q-49 35 -115 35q-27 0 -42.5 -4t-34 -22.5t-34.5 -55.5q-22 0 -36.5 8.5t-11.5 28.5z" />
<glyph unicode="&#xe4;" horiz-adv-x="1142" d="M154 241q0 215 150 405q89 114 207.5 183.5t242.5 69.5q23 0 133 -12q13 -3 32 -3t60.5 4.5t60.5 4.5q42 0 42 -43q0 -16 -6 -44.5t-17.5 -75t-17.5 -74.5l-87 -402q-14 -60 -14 -87q0 -38 23 -38q18 0 62 27.5t81 68.5q18 0 35.5 -19.5t23.5 -37.5q-147 -188 -364 -188 q-78 0 -103 67q-7 19 -6 49q0 51 17 123l10 37l-8 4q-90 -133 -180.5 -206.5t-157.5 -73.5q-107 0 -163 74t-56 187zM410 283q0 -110 90 -110q88 0 246 290q23 58 40 136t22 126l5 49q-6 39 -70 39q-127 0 -229 -169q-104 -172 -104 -361zM436 1174q3 47 36.5 79.5 t77.5 32.5q45 0 73 -32.5t25 -79.5q-3 -46 -36.5 -78.5t-77.5 -32.5t-72.5 32.5t-25.5 78.5zM794 1174q3 48 36 80t78 32q44 0 72.5 -32.5t25.5 -79.5q-3 -46 -37 -78.5t-77 -32.5q-45 0 -73 32.5t-25 78.5z" />
<glyph unicode="&#xe5;" horiz-adv-x="1142" d="M154 241q0 215 150 405q89 114 207.5 183.5t242.5 69.5q23 0 133 -12q13 -3 32 -3t60.5 4.5t60.5 4.5q42 0 42 -43q0 -16 -6 -44.5t-17.5 -75t-17.5 -74.5l-87 -402q-14 -60 -14 -87q0 -38 23 -38q18 0 62 27.5t81 68.5q18 0 35.5 -19.5t23.5 -37.5q-147 -188 -364 -188 q-78 0 -103 67q-7 19 -6 49q0 51 17 123l10 37l-8 4q-90 -133 -180.5 -206.5t-157.5 -73.5q-107 0 -163 74t-56 187zM410 283q0 -110 90 -110q88 0 246 290q23 58 40 136t22 126l5 49q-6 39 -70 39q-127 0 -229 -169q-104 -172 -104 -361zM606 1214.5q10 70.5 68 120 t130 49.5q70 0 116 -49.5t36 -120.5q-10 -69 -69 -119.5t-131 -50.5q-71 0 -115.5 50t-34.5 120.5zM684 1214q-6 -41 16.5 -70.5t65.5 -29.5t75 29.5t38 70.5q6 44 -18.5 72.5t-66.5 28.5q-43 0 -73.5 -28.5t-36.5 -72.5z" />
<glyph unicode="&#xe6;" horiz-adv-x="1464" d="M125 174q0 110 105 199q137 116 495 145q27 125 27 176q-1 119 -99 119q-150 0 -149 -113q0 -38 -7 -55q-31 -72 -124 -72q-55 0 -84 28t-29 61q0 102 134 169.5t288 67.5q35 0 72 -6t87 -35t68 -78q2 -2 9 -1t9 -1q59 61 145.5 91t176.5 30q162 0 239 -59.5t77 -130.5 q0 -90 -72 -151q-61 -51 -189 -77t-360 -37q-14 -59 -14 -118q0 -106 45 -169t121 -63q129 0 262 122q33 -7 63 -46q-66 -86 -165 -138t-216 -52q-112 0 -180.5 46t-94.5 102l-8 1q-59 -68 -144.5 -108.5t-168.5 -40.5q-156 0 -237.5 52t-81.5 142zM362 182q0 -100 109 -100 q96 0 172 111q4 8 62 235q-195 -24 -286 -114q-56 -56 -57 -132zM969 532q94 6 136.5 10.5t90 16t73.5 31.5q54 42 54 121q0 41 -25.5 71.5t-68.5 30.5q-80 0 -148.5 -78t-111.5 -203z" />
<glyph unicode="&#xe7;" horiz-adv-x="888" d="M160 412q45 219 207.5 358t339.5 139q147 0 214.5 -61.5t49.5 -151.5q-10 -49 -47 -81.5t-82 -32.5q-47 0 -74 27.5t-23 68.5q8 57 -9 101t-64 44q-78 0 -141.5 -87t-100.5 -253q-35 -160 14.5 -254t147.5 -94t227 107q12 0 27.5 -24.5t15.5 -39.5q-67 -79 -165.5 -134 t-188.5 -63l-31 -57q185 -38 166 -172q-11 -77 -88.5 -130.5t-176.5 -53.5q-19 0 -32.5 1t-27.5 5t-19 6t-23 11t-25 12q6 44 28 53q73 -29 115 -29q47 0 78 22t36 62q4 27 -10 45.5t-44.5 27.5t-54.5 12t-60 5l-11 13l107 167q-153 9 -228 105q-92 119 -47 326z" />
<glyph unicode="&#xe8;" horiz-adv-x="837" d="M129 291q0 82 19.5 164t62.5 162.5t105.5 142t157.5 100.5t210 39q117 0 183.5 -43t66.5 -100q0 -104 -64 -166q-108 -102 -475 -182q-2 -16 -2 -70q0 -236 109 -236q74 0 133 32t145 120q18 0 38 -16.5t28 -34.5q-86 -111 -197.5 -167t-220.5 -56q-170 0 -234.5 81.5 t-64.5 229.5zM391 1296l7 23q22 21 66 43t93 22q24 0 40 -4l106 -254q14 -32 11 -53q-2 -14 -14 -23.5t-26 -9.5q-25 0 -66 41zM410 486q47 8 92.5 25t93.5 47.5t77 82.5t29 117q0 57 -65 57q-34 0 -60.5 -11.5t-56 -44t-57.5 -101t-53 -172.5z" />
<glyph unicode="&#xe9;" horiz-adv-x="837" d="M129 291q0 82 19.5 164t62.5 162.5t105.5 142t157.5 100.5t210 39q117 0 183.5 -43t66.5 -100q0 -104 -64 -166q-108 -102 -475 -182q-2 -16 -2 -70q0 -236 109 -236q74 0 133 32t145 120q18 0 38 -16.5t28 -34.5q-86 -111 -197.5 -167t-220.5 -56q-170 0 -234.5 81.5 t-64.5 229.5zM410 486q47 8 92.5 25t93.5 47.5t77 82.5t29 117q0 57 -65 57q-34 0 -60.5 -11.5t-56 -44t-57.5 -101t-53 -172.5zM453 1063q3 25 23 49l207 268q13 4 34 4q77 0 110 -49l13 -47l-276 -221q-43 -33 -83 -33q-12 0 -21 9.5t-7 19.5z" />
<glyph unicode="&#xea;" horiz-adv-x="837" d="M129 291q0 82 19.5 164t62.5 162.5t105.5 142t157.5 100.5t210 39q117 0 183.5 -43t66.5 -100q0 -104 -64 -166q-108 -102 -475 -182q-2 -16 -2 -70q0 -236 109 -236q74 0 133 32t145 120q18 0 38 -16.5t28 -34.5q-86 -111 -197.5 -167t-220.5 -56q-170 0 -234.5 81.5 t-64.5 229.5zM375 1083q184 180 255 275h107q53 -112 176 -275l-57 -39q-125 83 -195 170q-88 -79 -241 -170zM410 486q47 8 92.5 25t93.5 47.5t77 82.5t29 117q0 57 -65 57q-34 0 -60.5 -11.5t-56 -44t-57.5 -101t-53 -172.5z" />
<glyph unicode="&#xeb;" horiz-adv-x="837" d="M129 299q0 82 19.5 164t62.5 163t105.5 142t157.5 100t210 39q117 0 183.5 -43t66.5 -100q0 -104 -64 -166q-108 -102 -475 -182q-2 -16 -2 -70q0 -236 109 -235q74 0 133 31.5t145 119.5q18 0 38 -16.5t28 -34.5q-86 -111 -197.5 -167t-220.5 -56q-170 0 -234.5 82 t-64.5 229zM407 1174q3 47 37 79.5t77 32.5q45 0 73 -32.5t25 -79.5q-3 -46 -36 -78.5t-78 -32.5q-44 0 -72.5 32.5t-25.5 78.5zM410 494q47 8 92.5 25t93.5 47.5t77 82.5t29 117q0 57 -65 57q-34 0 -60.5 -11.5t-56 -44t-57.5 -101t-53 -172.5zM765 1174q3 48 36 80t78 32 q44 0 72.5 -32.5t25.5 -79.5q-3 -46 -36.5 -78.5t-77.5 -32.5q-45 0 -73 32.5t-25 78.5z" />
<glyph unicode="&#xec;" horiz-adv-x="700" d="M237 828q1 26 11 38q209 27 352 27q42 0 42 -43q0 -16 -6 -44.5t-17.5 -75t-17.5 -74.5l-87 -402q-29 -125 8 -125q18 0 62.5 27.5t81.5 68.5q18 0 35.5 -19.5t23.5 -37.5q-70 -90 -170 -139t-209 -49q-76 0 -100 67q-16 45 14 189l90 421q12 57 12 84q0 39 -36 41l-82 6 q-8 14 -7 40zM307 1296l7 23q22 21 66 43t93 22q24 0 40 -4l106 -254q14 -32 11 -53q-2 -14 -14 -23.5t-26 -9.5q-25 0 -66 41z" />
<glyph unicode="&#xed;" horiz-adv-x="700" d="M237 828q1 26 11 38q209 27 352 27q42 0 42 -43q0 -16 -6 -44.5t-17.5 -75t-17.5 -74.5l-87 -402q-29 -125 8 -125q18 0 62.5 27.5t81.5 68.5q18 0 35.5 -19.5t23.5 -37.5q-70 -90 -170 -139t-209 -49q-76 0 -100 67q-16 45 14 189l90 421q12 57 12 84q0 39 -36 41l-82 6 q-8 14 -7 40zM377 1063q3 25 23 49l208 268q13 4 33 4q77 0 110 -49l14 -47l-277 -221q-43 -33 -82 -33q-12 0 -21.5 9.5t-7.5 19.5z" />
<glyph unicode="&#xee;" horiz-adv-x="700" d="M211 1083q184 180 256 275h106q53 -112 176 -275l-56 -39q-125 83 -196 170q-88 -79 -241 -170zM237 828q1 26 11 38q209 27 352 27q42 0 42 -43q0 -16 -6 -44.5t-17.5 -75t-17.5 -74.5l-87 -402q-29 -125 8 -125q18 0 62.5 27.5t81.5 68.5q18 0 35.5 -19.5t23.5 -37.5 q-70 -90 -170 -139t-209 -49q-76 0 -100 67q-16 45 14 189l90 421q12 57 12 84q0 39 -36 41l-82 6q-8 14 -7 40z" />
<glyph unicode="&#xef;" horiz-adv-x="700" d="M237 828q1 26 11 38q209 27 352 27q42 0 42 -43q0 -16 -6 -44.5t-17.5 -75t-17.5 -74.5l-87 -402q-29 -125 8 -125q18 0 62.5 27.5t81.5 68.5q18 0 35.5 -19.5t23.5 -37.5q-70 -90 -170 -139t-209 -49q-76 0 -100 67q-16 45 14 189l90 421q12 57 12 84q0 39 -36 41l-82 6 q-8 14 -7 40zM237 1174q3 47 37 79.5t77 32.5q45 0 73 -32.5t25 -79.5q-3 -46 -36 -78.5t-78 -32.5q-44 0 -72.5 32.5t-25.5 78.5zM595 1174q3 48 36.5 80t77.5 32t72.5 -32.5t25.5 -79.5q-3 -46 -36.5 -78.5t-77.5 -32.5q-45 0 -73 32.5t-25 78.5z" />
<glyph unicode="&#xf0;" horiz-adv-x="1144" d="M167 428q49 220 242 354q91 63 193.5 95t184.5 32q47 0 102 -10q-30 141 -108 242q-116 -71 -259 -152l-32 74l246 143q-87 112 -138 154l67 70q145 -87 205 -146q47 29 147 86.5t117 67.5l33 -74l-233 -135q156 -177 203 -283q86 -193 28 -457q-57 -256 -222 -383 q-83 -63 -188.5 -94.5t-208.5 -31.5q-135 0 -232.5 68t-134 170t-12.5 210zM461 465q-37 -167 5 -283t132 -116q33 0 66.5 17t72 57.5t74.5 123t61 197.5q27 124 39 278q-58 84 -147 84q-60 0 -113.5 -34t-90 -89.5t-61 -114.5t-38.5 -120z" />
<glyph unicode="&#xf1;" horiz-adv-x="1257" d="M182 35q0 9 4.5 27.5t11.5 44.5t10 40l79 351q31 137 30 223q0 59 -36 61l-82 6q-8 14 -7 40t11 38q209 27 340 27q20 0 34 -14t14 -35q0 -86 -26 -207l4 -4q133 158 227.5 212t200.5 54q72 0 127.5 -40t55.5 -124q0 -43 -27 -155l-78 -326q-31 -125 8 -125 q18 0 62.5 27.5t81.5 68.5q18 0 35.5 -19.5t23.5 -37.5q-70 -90 -170 -139t-209 -49q-76 0 -100 67q-18 51 14 189l76 327q18 80 18 119q0 45 -17 59.5t-54 14.5q-51 0 -124 -73t-183 -216l-78 -320q-3 -11 -9 -39t-9 -40.5t-13 -33t-23 -30t-35 -17t-53 -7.5 q-80 0 -107.5 13.5t-27.5 41.5zM570 1096q37 82 91 136t106 54q87 0 144 -51q33 -29 109 -29q66 0 113 88q23 0 38.5 -11.5t12.5 -29.5q-38 -88 -96.5 -139t-116.5 -51q-76 0 -127 43q-49 35 -114 35q-27 0 -42.5 -4t-34.5 -22.5t-35 -55.5q-22 0 -36.5 8.5t-11.5 28.5z" />
<glyph unicode="&#xf2;" horiz-adv-x="980" d="M137 332q0 138 83.5 279t222.5 218q125 70 253 70q172 0 250 -96t78 -228q0 -196 -90.5 -334.5t-236.5 -211.5q-98 -49 -246 -49q-92 0 -158 35.5t-97.5 93t-45 112t-13.5 111.5zM401 348q0 -283 121 -282q238 0 238 466q0 57 -3 96.5t-13.5 87.5t-35 72.5t-63.5 24.5 q-244 0 -244 -465zM563 1296l7 23q22 21 66 43t93 22q24 0 40 -4l106 -254q14 -32 11 -53q-2 -14 -14 -23.5t-26 -9.5q-25 0 -66 41z" />
<glyph unicode="&#xf3;" horiz-adv-x="980" d="M137 332q0 138 83.5 279t222.5 218q125 70 253 70q172 0 250 -96t78 -228q0 -196 -90.5 -334.5t-236.5 -211.5q-98 -49 -246 -49q-92 0 -158 35.5t-97.5 93t-45 112t-13.5 111.5zM401 348q0 -283 121 -282q238 0 238 466q0 57 -3 96.5t-13.5 87.5t-35 72.5t-63.5 24.5 q-244 0 -244 -465zM514 1063q3 25 23 49l208 268q13 4 33 4q77 0 110 -49l14 -47l-277 -221q-43 -33 -82 -33q-12 0 -21.5 9.5t-7.5 19.5z" />
<glyph unicode="&#xf4;" horiz-adv-x="980" d="M137 332q0 138 83.5 279t222.5 218q125 70 253 70q172 0 250 -96t78 -228q0 -196 -90.5 -334.5t-236.5 -211.5q-98 -49 -246 -49q-92 0 -158 35.5t-97.5 93t-45 112t-13.5 111.5zM401 348q0 -283 121 -282q238 0 238 466q0 57 -3 96.5t-13.5 87.5t-35 72.5t-63.5 24.5 q-244 0 -244 -465zM416 1083q184 180 255 275h107q53 -112 176 -275l-57 -39q-125 83 -195 170q-88 -79 -241 -170z" />
<glyph unicode="&#xf5;" horiz-adv-x="980" d="M137 332q0 138 83.5 279t222.5 218q125 70 253 70q172 0 250 -96t78 -228q0 -196 -90.5 -334.5t-236.5 -211.5q-98 -49 -246 -49q-92 0 -158 35.5t-97.5 93t-45 112t-13.5 111.5zM376 1096q37 82 91 136t105 54q87 0 145 -51q32 -29 108 -29q66 0 113 88q23 0 38.5 -11.5 t13.5 -29.5q-38 -88 -97 -139t-116 -51q-76 0 -127 43q-49 35 -114 35q-27 0 -43 -4t-34.5 -22.5t-34.5 -55.5q-22 0 -36.5 8.5t-11.5 28.5zM401 348q0 -283 121 -282q238 0 238 466q0 57 -3 96.5t-13.5 87.5t-35 72.5t-63.5 24.5q-244 0 -244 -465z" />
<glyph unicode="&#xf6;" horiz-adv-x="980" d="M137 332q0 138 83.5 279t222.5 218q125 70 253 70q172 0 250 -96t78 -228q0 -196 -90.5 -334.5t-236.5 -211.5q-98 -49 -246 -49q-92 0 -158 35.5t-97.5 93t-45 112t-13.5 111.5zM401 348q0 -283 121 -282q238 0 238 466q0 57 -3 96.5t-13.5 87.5t-35 72.5t-63.5 24.5 q-244 0 -244 -465zM444 1174q3 47 36.5 79.5t77.5 32.5q45 0 73 -32.5t25 -79.5q-3 -46 -36 -78.5t-78 -32.5q-44 0 -72.5 32.5t-25.5 78.5zM802 1174q3 48 36 80t78 32q44 0 72.5 -32.5t25.5 -79.5q-3 -46 -36.5 -78.5t-77.5 -32.5q-45 0 -73 32.5t-25 78.5z" />
<glyph unicode="&#xf7;" horiz-adv-x="1079" d="M238 449l24 100h809l-22 -100h-811zM471 147q0 47 39 85t88 38q35 0 57.5 -21.5t22.5 -55.5q0 -51 -40 -87t-87 -36q-35 0 -57.5 21t-22.5 56zM618 813q0 47 39 86t88 39q35 0 57.5 -22.5t22.5 -57.5q0 -49 -40 -86t-87 -37q-37 0 -58.5 21.5t-21.5 56.5z" />
<glyph unicode="&#xf8;" horiz-adv-x="980" d="M143 -26l86 102q-82 97 -82 256q0 138 83.5 279t223.5 218q125 70 253 70q107 0 181 -42l91 108l70 -52l-93 -110q78 -87 78 -228q0 -196 -90.5 -334.5t-235.5 -211.5q-98 -49 -247 -49q-96 0 -164 39l-86 -103zM412 348q0 -29 1 -54l344 408q-25 111 -102 111 q-244 0 -243 -465zM429 176q29 -111 103 -110q238 0 238 466q0 24 -1 49z" />
<glyph unicode="&#xf9;" horiz-adv-x="1323" d="M177 719q70 90 170.5 139t208.5 49q43 0 65.5 -16.5t35.5 -50.5q19 -52 -15 -189l-76 -327q-19 -63 -3.5 -115.5t67.5 -52.5q50 0 105.5 57t170.5 207l79 319q3 11 8.5 39.5t9 40.5t13 33t22.5 30.5t35 17t53 7.5q80 0 107.5 -13.5t27.5 -41.5q0 -9 -4.5 -27.5t-11.5 -44 t-10 -41.5l-107 -485q-14 -64 -13 -87q0 -38 22 -38q18 0 62 27.5t81 68.5q18 0 35.5 -19.5t23.5 -37.5q-147 -188 -364 -188q-78 0 -103 67q-7 19 -6 49q0 24 17 123l-5 -15q1 9 10 46l-4 4q-132 -154 -225 -210t-183 -56q-70 0 -126 41.5t-56 126.5q0 83 16 151l78 326 q31 125 -8 125q-19 0 -63 -27.5t-80 -68.5q-19 0 -36.5 19.5t-23.5 37.5zM614 1296l7 23q22 21 66.5 43t92.5 22q24 0 40 -4l106 -254q14 -32 11 -53q-2 -14 -14 -23.5t-26 -9.5q-25 0 -66 41z" />
<glyph unicode="&#xfa;" horiz-adv-x="1323" d="M177 719q70 90 170.5 139t208.5 49q43 0 65.5 -16.5t35.5 -50.5q19 -52 -15 -189l-76 -327q-19 -63 -3.5 -115.5t67.5 -52.5q50 0 105.5 57t170.5 207l79 319q3 11 8.5 39.5t9 40.5t13 33t22.5 30.5t35 17t53 7.5q80 0 107.5 -13.5t27.5 -41.5q0 -9 -4.5 -27.5t-11.5 -44 t-10 -41.5l-107 -485q-14 -64 -13 -87q0 -38 22 -38q18 0 62 27.5t81 68.5q18 0 35.5 -19.5t23.5 -37.5q-147 -188 -364 -188q-78 0 -103 67q-7 19 -6 49q0 24 17 123l-5 -15q1 9 10 46l-4 4q-132 -154 -225 -210t-183 -56q-70 0 -126 41.5t-56 126.5q0 83 16 151l78 326 q31 125 -8 125q-19 0 -63 -27.5t-80 -68.5q-19 0 -36.5 19.5t-23.5 37.5zM733 1063q3 25 23 49l208 268q13 4 33 4q77 0 110 -49l14 -47l-277 -221q-43 -33 -82 -33q-12 0 -21.5 9.5t-7.5 19.5z" />
<glyph unicode="&#xfb;" horiz-adv-x="1323" d="M177 719q70 90 170.5 139t208.5 49q43 0 65.5 -16.5t35.5 -50.5q19 -52 -15 -189l-76 -327q-19 -63 -3.5 -115.5t67.5 -52.5q50 0 105.5 57t170.5 207l79 319q3 11 8.5 39.5t9 40.5t13 33t22.5 30.5t35 17t53 7.5q80 0 107.5 -13.5t27.5 -41.5q0 -9 -4.5 -27.5t-11.5 -44 t-10 -41.5l-107 -485q-14 -64 -13 -87q0 -38 22 -38q18 0 62 27.5t81 68.5q18 0 35.5 -19.5t23.5 -37.5q-147 -188 -364 -188q-78 0 -103 67q-7 19 -6 49q0 24 17 123l-5 -15q1 9 10 46l-4 4q-132 -154 -225 -210t-183 -56q-70 0 -126 41.5t-56 126.5q0 83 16 151l78 326 q31 125 -8 125q-19 0 -63 -27.5t-80 -68.5q-19 0 -36.5 19.5t-23.5 37.5zM600 1083q184 180 256 275h106q53 -112 176 -275l-56 -39q-125 83 -195 170q-88 -79 -241 -170z" />
<glyph unicode="&#xfc;" horiz-adv-x="1323" d="M177 719q70 90 170.5 139t208.5 49q43 0 65.5 -16.5t35.5 -50.5q19 -52 -15 -189l-76 -327q-19 -63 -3.5 -115.5t67.5 -52.5q50 0 105.5 57t170.5 207l79 319q3 11 8.5 39.5t9 40.5t13 33t22.5 30.5t35 17t53 7.5q80 0 107.5 -13.5t27.5 -41.5q0 -9 -4.5 -27.5t-11.5 -44 t-10 -41.5l-107 -485q-14 -63 -13 -87q0 -38 22 -38q18 0 62 27.5t81 68.5q18 0 35.5 -19.5t23.5 -37.5q-147 -188 -364 -188q-78 0 -103 67q-7 19 -6 49q0 24 17 123l-5 -15q1 9 10 46l-4 4q-132 -154 -225 -210t-183 -56q-70 0 -126 41.5t-56 126.5q0 83 16 151l78 326 q31 125 -8 125q-19 0 -63 -27.5t-80 -68.5q-19 0 -36.5 19.5t-23.5 37.5zM538 1174q3 47 37 79.5t77 32.5q45 0 73 -32.5t25 -79.5q-3 -46 -36 -78.5t-78 -32.5q-44 0 -72.5 32.5t-25.5 78.5zM896 1174q3 48 36.5 80t77.5 32t73 -32.5t25 -79.5q-3 -46 -36.5 -78.5 t-77.5 -32.5q-45 0 -73 32.5t-25 78.5z" />
<glyph unicode="&#xfd;" d="M84 -366q0 63 33.5 104t72.5 41q14 0 42 -14t40 -27q13 -13 42.5 -31t45.5 -18q63 0 177 184q23 49 -36 399t-110 420q-12 16 -21 21t-29 5q-43 0 -120 -36q-28 27 -35 79q72 42 183 90t159 48q37 0 60.5 -34t46.5 -117q55 -231 78 -570l8 -2l167 279q67 111 66 224 q0 19 -27.5 69.5t-27.5 90.5q0 30 38 45t79 15q48 0 90 -23.5t42 -71.5q0 -76 -23 -145t-81 -163l-391 -639q-93 -152 -213.5 -247t-214.5 -95q-45 0 -93 28.5t-48 90.5zM668 1063q3 25 23 49l207 268q13 4 34 4q77 0 110 -49l14 -47l-277 -221q-43 -33 -83 -33 q-12 0 -21 9.5t-7 19.5z" />
<glyph unicode="&#xfe;" horiz-adv-x="1126" d="M-14 -424q0 12 20 16l39 7q92 14 109 92l196 909q-102 -84 -147 -143q-37 0 -58 73q70 88 236 207q92 406 92 416q23 102 -2 128t-125 26q-10 29 10 69q23 4 106 19.5t144.5 25t89.5 9.5q61 0 62 -68q0 -29 -31 -168q-53 -238 -80 -367q121 72 236 72q147 0 221 -85 t74 -222q0 -113 -69 -258.5t-181 -241.5q-133 -113 -307 -112q-82 0 -146 67l-80 -356q-8 -33 4.5 -52.5t26.5 -24.5t37 -7l39 -6q12 -2 12 -17v-61l-4 -4q-139 4 -219 4l-301 -10l-4 4v59zM494 154q63 -88 151 -88q82 0 147.5 98t94 207.5t28.5 187.5q0 236 -102 236 q-80 0 -188 -70z" />
<glyph unicode="&#xff;" d="M84 -366q0 63 33.5 104t72.5 41q14 0 42 -14t40 -27q13 -13 42.5 -31t45.5 -18q63 0 177 184q23 49 -36 399t-110 420q-12 16 -21 21t-29 5q-43 0 -120 -36q-28 27 -35 79q72 42 183 90t159 48q37 0 60.5 -34t46.5 -117q55 -231 78 -570l8 -2l167 279q67 111 66 224 q0 19 -27.5 69.5t-27.5 90.5q0 30 38 45t79 15q48 0 90 -23.5t42 -71.5q0 -76 -23 -145t-81 -163l-391 -639q-93 -152 -213.5 -247t-214.5 -95q-45 0 -93 28.5t-48 90.5zM512 1174q3 47 36.5 79.5t77.5 32.5q45 0 73 -32.5t24 -79.5q-3 -46 -36 -78.5t-77 -32.5t-72.5 32.5 t-25.5 78.5zM870 1174q3 48 36 80t78 32q44 0 72.5 -32.5t25.5 -79.5q-3 -46 -37 -78.5t-77 -32.5q-45 0 -73 32.5t-25 78.5z" />
<glyph unicode="&#x152;" horiz-adv-x="1894" d="M233 653q63 284 289.5 478t522.5 194l241 -4h604q54 0 102 8q4 0 6 -1.5t1 -4.5q0 -7 -8 -62.5t-18.5 -127t-14.5 -107.5q-41 -18 -90 -10q-11 118 -48.5 168.5t-144.5 50.5h-174q-36 0 -67 -31t-40 -69l-85 -383h166q108 0 150 22.5t65 104.5q11 9 46 9t42 -9 q-31 -121 -43 -177q-7 -31 -36 -180q-11 -9 -46 -9t-42 9q11 71 -22 99t-136 28h-166l-103 -465q-9 -41 9.5 -69.5t52.5 -28.5h207q111 0 199 71.5t148 190.5q55 13 89 -10q-12 -32 -37.5 -105.5t-48 -132t-45.5 -104.5q-184 4 -281 4h-701q-305 0 -455.5 186t-87.5 467z M527.5 334q28.5 -131 96.5 -191.5t166 -60.5h25q59 0 96 168l182 819q37 168 -22 168h-70q-145 0 -267 -133.5t-188 -431.5q-47 -207 -18.5 -338z" />
<glyph unicode="&#x153;" horiz-adv-x="1484" d="M154 354q0 203 149.5 374t388.5 171q190 0 272 -134q145 134 361 134q117 0 183.5 -43t66.5 -100q0 -104 -64 -166q-109 -102 -475 -182q-2 -16 -2 -70q0 -236 109 -236q74 0 133 32t145 120q18 0 38 -16.5t28 -34.5q-86 -111 -197.5 -167t-220.5 -56q-201 0 -265 126 q-144 -127 -310 -126q-166 0 -253 106t-87 268zM408 371q0 -133 35.5 -219t80.5 -86q78 0 131.5 54t75 143t28.5 155.5t7 136.5v41v43t-1 37.5t-4 38t-8 32t-13.5 28.5t-19.5 19.5t-27.5 14.5t-37.5 4q-68 0 -115.5 -29.5t-73.5 -70.5t-39 -107.5t-16 -115.5t-3 -119z M1051 486q47 8 92.5 25t93.5 47.5t77 82.5t29 117q0 57 -65 57q-34 0 -60.5 -11.5t-56 -44t-57.5 -101t-53 -172.5z" />
<glyph unicode="&#x178;" horiz-adv-x="1241" d="M286 1290q5 25 15 35q119 -4 277 -4q86 0 245 4q8 -10 2 -34.5t-16 -35.5q-80 -4 -97.5 -30.5t7.5 -83.5l131 -377q6 -16 15 -22.5t18.5 -2.5t19.5 19l271 397q59 90 -80 100q-8 10 -3 35t15 35q156 -4 217 -4q66 0 184 4q8 -10 2 -34.5t-16 -35.5q-74 -6 -110.5 -23.5 t-77.5 -74.5l-338 -438q-41 -51 -66 -170l-59 -299q-25 -123 3.5 -152.5t151.5 -34.5q8 -10 2 -33.5t-16 -33.5q-197 4 -311 4q-152 0 -344 -4q-8 10 -3 33.5t15 33.5q125 4 164 34t63 153l54 280q10 57 8 81t-19 69l-164 440q-31 82 -61.5 106.5t-95.5 28.5q-8 10 -3 35z M655 1569q0 49 33 83t82 34t82 -34t33 -83t-33 -82t-82 -33t-82 33t-33 82zM1038 1569q0 49 34 83t83 34t81 -34t32 -83t-32 -82t-81 -33t-83 33t-34 82z" />
<glyph unicode="&#x2c6;" horiz-adv-x="714" d="M327 1104q181 165 265 264h102q45 -109 153 -264l-49 -29q-123 107 -179 185q-109 -93 -257 -185z" />
<glyph unicode="&#x2dc;" horiz-adv-x="598" d="M251 1186q41 93 89 137.5t112 44.5q65 0 136 -57q51 -45 97 -45q36 0 63.5 22t61.5 84l46 -12q-74 -184 -215 -184q-51 0 -121 53q-65 45 -101 45q-39 0 -66.5 -23t-53.5 -75z" />
<glyph unicode="&#x2000;" horiz-adv-x="860" />
<glyph unicode="&#x2001;" horiz-adv-x="1720" />
<glyph unicode="&#x2002;" horiz-adv-x="860" />
<glyph unicode="&#x2003;" horiz-adv-x="1720" />
<glyph unicode="&#x2004;" horiz-adv-x="573" />
<glyph unicode="&#x2005;" horiz-adv-x="430" />
<glyph unicode="&#x2006;" horiz-adv-x="286" />
<glyph unicode="&#x2007;" horiz-adv-x="286" />
<glyph unicode="&#x2008;" horiz-adv-x="215" />
<glyph unicode="&#x2009;" horiz-adv-x="344" />
<glyph unicode="&#x200a;" horiz-adv-x="95" />
<glyph unicode="&#x2010;" horiz-adv-x="733" d="M188 483q0 29 32 74t63 45h409q74 0 74 -43q0 -25 -32.5 -72t-63.5 -47h-406q-76 0 -76 43z" />
<glyph unicode="&#x2011;" horiz-adv-x="733" d="M188 483q0 29 32 74t63 45h409q74 0 74 -43q0 -25 -32.5 -72t-63.5 -47h-406q-76 0 -76 43z" />
<glyph unicode="&#x2012;" horiz-adv-x="733" d="M188 483q0 29 32 74t63 45h409q74 0 74 -43q0 -25 -32.5 -72t-63.5 -47h-406q-76 0 -76 43z" />
<glyph unicode="&#x2013;" horiz-adv-x="1093" d="M172 518q0 27 16.5 56.5t34.5 29.5h879q29 0 28 -41q0 -23 -17.5 -58.5t-35.5 -35.5h-874q-12 0 -21.5 16.5t-9.5 32.5z" />
<glyph unicode="&#x2014;" horiz-adv-x="1519" d="M156 467l18 141h1401l-21 -141h-1398z" />
<glyph unicode="&#x2018;" horiz-adv-x="548" d="M373 1208q11 52 57.5 118.5t99.5 111.5q52 44 119.5 77.5t123.5 43.5q26 -21 0 -64q-66 -17 -147.5 -97.5t-91.5 -125.5q-3 -13 0 -23.5t11.5 -18t15 -11.5t18 -9t11.5 -6q32 -17 45.5 -57t4.5 -80q-8 -34 -59.5 -72.5t-90.5 -38.5q-81 0 -112.5 64.5t-4.5 187.5z" />
<glyph unicode="&#x2019;" horiz-adv-x="548" d="M300 893q-26 21 0 63q66 17 147.5 98t91.5 126q3 13 0 23t-11.5 18t-15 12t-12.5 7l-17 7q-32 17 -45.5 57t-4.5 81q8 34 59.5 72t90.5 38q81 0 112.5 -64t4.5 -188q-11 -52 -57.5 -118t-99.5 -111q-52 -44 -119.5 -77.5t-123.5 -43.5z" />
<glyph unicode="&#x201a;" horiz-adv-x="548" d="M62 -279q66 17 148 98t92 126q3 13 0 23t-12 18t-15 12t-17.5 9t-12.5 5q-32 17 -45 57t-4 81q8 34 59 72t90 38q81 0 113 -64t4 -188q-11 -52 -57 -118t-100 -111q-52 -44 -119 -77.5t-124 -43.5q-26 21 0 63z" />
<glyph unicode="&#x201c;" horiz-adv-x="768" d="M288 1208q11 52 57.5 118.5t100.5 111.5q52 44 119 77.5t123 43.5q27 -20 0 -64q-66 -17 -147.5 -97.5t-91.5 -125.5q-3 -13 0 -23.5t11.5 -18t15 -11.5t18 -9t11.5 -6q32 -17 45.5 -57t4.5 -80q-8 -34 -59 -72.5t-90 -38.5q-81 0 -113 64.5t-5 187.5zM645 1208 q11 52 57.5 118.5t99.5 111.5q52 44 119 77.5t123 43.5q27 -20 0 -64q-66 -17 -147.5 -97.5t-91.5 -125.5q-3 -13 0 -23.5t12 -18t15 -11.5t17.5 -9t12.5 -6q32 -17 45 -57t4 -80q-8 -34 -59 -72.5t-90 -38.5q-81 0 -112.5 64.5t-4.5 187.5z" />
<glyph unicode="&#x201d;" horiz-adv-x="768" d="M255 893q-26 21 0 63q66 17 147.5 98t91.5 126q3 13 0 23t-12 18t-15 12t-17.5 9t-12.5 5q-32 17 -45 57t-4 81q8 34 59 72t90 38q81 0 113 -64t5 -188q-11 -52 -57.5 -118t-100.5 -111q-52 -44 -119 -77.5t-123 -43.5zM611 893q-26 21 0 63q66 17 148 98t91 126 q3 13 0 23t-11.5 18t-15 12t-11.5 7l-18 7q-32 17 -45.5 57t-4.5 81q8 34 59.5 72t90.5 38q81 0 112.5 -64t4.5 -188q-11 -52 -57.5 -118t-99.5 -111q-52 -44 -119.5 -77.5t-123.5 -43.5z" />
<glyph unicode="&#x201e;" horiz-adv-x="768" d="M-34 -281q66 17 148 98t91 126q3 13 0 23t-11.5 18t-15 12t-12.5 6l-17 8q-32 17 -45.5 57t-4.5 81q8 34 59.5 72t90.5 38q81 0 112.5 -64t4.5 -188q-11 -52 -57.5 -118t-99.5 -111q-52 -44 -119.5 -77.5t-123.5 -43.5q-26 21 0 63zM322 -281q66 17 148 98t92 126 q3 13 0 23t-12 18t-15.5 12t-17.5 9t-12 5q-32 17 -45 57t-4 81q8 34 59 72t90 38q81 0 112.5 -64t4.5 -188q-11 -52 -57.5 -118t-99.5 -111q-52 -44 -119 -77.5t-124 -43.5q-26 21 0 63z" />
<glyph unicode="&#x2022;" horiz-adv-x="718" d="M242 584q0 127 98 220t225 93q92 0 149.5 -55.5t57.5 -145.5q0 -131 -96.5 -224t-229.5 -93q-92 0 -148 56.5t-56 148.5z" />
<glyph unicode="&#x202f;" horiz-adv-x="344" />
<glyph unicode="&#x2039;" horiz-adv-x="727" d="M217 401l16 80q251 152 527 400l-21 -111q-195 -213 -350 -330q115 -109 221 -327l-20 -111q-190 287 -373 399z" />
<glyph unicode="&#x203a;" horiz-adv-x="727" d="M139 0l23 111q176 201 350 329q-113 106 -223 328l22 111q186 -281 371 -400l-14 -80q-249 -150 -529 -399z" />
<glyph unicode="&#x205f;" horiz-adv-x="430" />
<glyph unicode="&#x20ac;" d="M133 473l2 16l49 64h120q8 49 19 94h-157l6 19l49 61h124q85 270 261 408q147 115 352 114q125 0 242 -43q-16 -193 -43 -297q-14 -8 -36 -7q-23 0 -42 7q1 29 2 55q0 107 -29.5 159.5t-111.5 52.5q-120 0 -212 -154q-68 -112 -114 -295h322l-53 -80h-287q-9 -43 -18 -94 h256l-52 -80h-216q-11 -84 -11 -152q0 -267 168 -268q162 0 246 266q21 8 45 8q22 0 33 -8q-20 -154 -68 -296q-125 -43 -277 -43q-207 0 -286 63q-127 102 -127 341q0 43 4 89h-160z" />
<glyph unicode="&#x2122;" horiz-adv-x="1628" d="M256 1190l76 184l47 -16q-8 -23 -12 -23h479q-2 0 -2 23l53 16l2 -186l-47 -10q-4 68 -16.5 86t-44.5 18h-91q-29 0 -36 -43l-105 -541q-4 -25 7.5 -37t43.5 -12h31q10 0 6 -10l-4 -27l-2 -2q-129 2 -170 2l-168 -2l-2 2l4 27q4 10 12 10h31q63 0 72 49l104 543 q10 41 -20 41h-103q-33 0 -52 -18.5t-50 -85.5zM803 612l4 17q2 14 39 14h28q12 0 35 62q16 59 46 169.5t55.5 203.5t46.5 171v6l2 5q6 35 -12 34h-33q-33 2 -33 13l2 16l14 12h183l123 -542q295 494 323 542h170l4 -12l-4 -16q-2 -12 -37 -13h-30q-18 0 -25 -32l-2 -13 l-60 -544q-4 -61 13 -62h28q18 0 27.5 -3t7.5 -11l-2 -17l-12 -12q-90 4 -135 4l-135 -4l-11 12l2 17q2 14 39 14h29q14 0 23 47q0 2 1 7.5t1 7.5l43 403l-299 -498q-14 -20 -37 -20q-25 0 -31 20q-66 293 -111 488q-47 -190 -104 -396q0 -2 -1 -6t-1 -6q-10 -47 4 -47h31 q12 0 22 -4t8 -10l-2 -17l-8 -12q-80 4 -125 4l-96 -4z" />
<glyph unicode="&#xe000;" horiz-adv-x="900" d="M0 0v900h900v-900h-900z" />
</font>
</defs>
</svg>
