<?xml version="1.0" encoding="UTF-8" standalone="no"?>
<!-- Created with sK1/UniConvertor (http://sk1project.org/) -->

<svg
   xmlns:dc="http://purl.org/dc/elements/1.1/"
   xmlns:cc="http://creativecommons.org/ns#"
   xmlns:rdf="http://www.w3.org/1999/02/22-rdf-syntax-ns#"
   xmlns:svg="http://www.w3.org/2000/svg"
   xmlns="http://www.w3.org/2000/svg"
   xmlns:xlink="http://www.w3.org/1999/xlink"
   xmlns:sodipodi="http://sodipodi.sourceforge.net/DTD/sodipodi-0.dtd"
   xmlns:inkscape="http://www.inkscape.org/namespaces/inkscape"
   width="595.276pt"
   height="841.89pt"
   viewBox="0 0 595.276 841.89"
   fill-rule="evenodd"
   id="svg2985"
   version="1.1"
   inkscape:version="0.48.0 r9654"
   sodipodi:docname="Hand.cdr">
  <metadata
     id="metadata2999">
    <rdf:RDF>
      <cc:Work
         rdf:about="">
        <dc:format>image/svg+xml</dc:format>
        <dc:type
           rdf:resource="http://purl.org/dc/dcmitype/StillImage" />
        <dc:title></dc:title>
      </cc:Work>
    </rdf:RDF>
  </metadata>
  <defs
     id="defs2997">
    <linearGradient
       inkscape:collect="always"
       id="linearGradient3774">
      <stop
         style="stop-color:#ffccaa;stop-opacity:1;"
         offset="0"
         id="stop3776" />
      <stop
         style="stop-color:#ffccaa;stop-opacity:0;"
         offset="1"
         id="stop3778" />
    </linearGradient>
    <linearGradient
       inkscape:collect="always"
       xlink:href="#linearGradient3774"
       id="linearGradient3780"
       x1="317.48871"
       y1="531.04877"
       x2="316.34882"
       y2="716.71271"
       gradientUnits="userSpaceOnUse" />
    <linearGradient
       inkscape:collect="always"
       xlink:href="#linearGradient3774"
       id="linearGradient3786"
       gradientUnits="userSpaceOnUse"
       x1="317.48871"
       y1="531.04877"
       x2="316.34882"
       y2="716.71271" />
  </defs>
  <sodipodi:namedview
     pagecolor="#ffffff"
     bordercolor="#666666"
     borderopacity="1"
     objecttolerance="10"
     gridtolerance="10"
     guidetolerance="10"
     inkscape:pageopacity="0"
     inkscape:pageshadow="2"
     inkscape:window-width="1440"
     inkscape:window-height="844"
     id="namedview2995"
     showgrid="false"
     inkscape:zoom="0.49982775"
     inkscape:cx="81.672053"
     inkscape:cy="562.51833"
     inkscape:window-x="-4"
     inkscape:window-y="-4"
     inkscape:window-maximized="1"
     inkscape:current-layer="svg2985" />
  <g
     id="g3782"
     transform="translate(24.734386,30.74478)">
    <path
       inkscape:connector-curvature="0"
       id="path2991"
       d="m 222.13311,664.10072 193.499,0 0,-35.852 0.028,-2.697 0.086,-2.69501 0.14299,-2.69399 0.2,-2.689 0.259,-2.685 0.31401,-2.679 0.372,-2.671 0.428,-2.663 0.485,-2.653 0.542,-2.642 0.59699,-2.63 0.652,-2.617 0.70801,-2.602 0.764,-2.587 0.819,-2.57 0.873,-2.552 0.927,-2.53201 0.981,-2.513 1.033,-2.491 1.087,-2.46799 1.139,-2.44501 1.192,-2.42 1.241,-2.394 1.292,-2.36699 1.342,-2.33901 1.392,-2.30999 1.442,-2.28 1.48899,-2.249 1.53501,-2.217 1.66699,-2.403 1.61701,-2.43601 1.56599,-2.469 1.516,-2.501 1.46299,-2.532 1.41201,-2.561 1.35799,-2.589 1.30501,-2.617 1.25099,-2.644 1.19601,-2.668 1.14199,-2.692 1.08401,-2.716 1.03099,-2.737 0.972,-2.757 0.917,-2.777 0.858,-2.795 0.802,-2.813 0.74201,-2.828 0.68599,-2.843 0.625,-2.856 0.56901,-2.869 0.50799,-2.879 0.44901,-2.89 0.39,-2.898 0.32999,-2.905 0.269,-2.912 0.21,-2.917 0.15,-2.92 0.091,-2.923 0.03,-2.924 0,-166.839 -0.029,-1.427 -0.086,-1.424 -0.144,-1.42 -0.2,-1.413 -0.257,-1.403 -0.313,-1.392 -0.371,-1.379 -0.424,-1.362 -0.478,-1.345 -0.534,-1.323 -0.586,-1.302 -0.637,-1.276 -0.689,-1.25 -0.737,-1.222 -0.788,-1.19 -0.834,-1.158 -0.879,-1.123 -0.925,-1.087 -0.968,-1.049 -1.008,-1.009 -1.05,-0.968 -1.087,-0.924 -1.124,-0.88 -1.157,-0.835 -1.191,-0.786 -1.22,-0.739 -1.25,-0.688 -1.277,-0.638 -1.302,-0.585 -1.324,-0.533 -1.344,-0.479 -1.362,-0.425 -1.379,-0.369 -1.391,-0.314 -1.404,-0.257 -1.414,-0.2 -1.419,-0.144 -1.425,-0.086 -1.427,-0.029 -1.426,0.029 -1.425,0.086 -1.419,0.144 -1.412,0.2 -1.405,0.257 -1.392,0.314 -1.379,0.369 -1.362,0.425 -1.343,0.479 -1.325,0.533 -1.302,0.585 -1.276,0.638 -1.249,0.688 -1.222,0.739 -1.19,0.786 -1.158,0.835 -1.123,0.88 -1.088,0.924 -1.048,0.968 -1.01,1.009 -0.968,1.049 -0.924,1.087 -0.88,1.123 -0.835,1.158 -0.785,1.19 -0.74,1.222 -0.688,1.25 -0.637,1.276 -0.586,1.302 -0.532,1.323 -0.479,1.345 -0.426,1.362 -0.368,1.379 -0.315,1.392 -0.257,1.403 -0.199,1.413 -0.144,1.42 -0.087,1.424 -0.029,1.427 0,-30.3 -0.028,-1.431 -0.087,-1.43 -0.144,-1.425 -0.201,-1.418 -0.258,-1.409 -0.315,-1.397 -0.371,-1.383 -0.426,-1.36799 -0.481,-1.349 -0.533,-1.329 -0.589,-1.306 -0.64,-1.281 -0.69,-1.25401 -0.741,-1.226 -0.79,-1.19499 -0.838,-1.162 -0.883,-1.127 -0.928,-1.091 -0.97,-1.053 -1.014,-1.013 -1.053,-0.971 -1.09,-0.928 -1.127,-0.88301 -1.163,-0.83699 -1.194,-0.79 -1.226,-0.74101 -1.255,-0.691 -1.282,-0.63999 -1.306,-0.588 -1.328,-0.534 -1.349,-0.481 -1.368,-0.426 -1.383,-0.371 -1.397,-0.315 -1.409,-0.258 -1.418,-0.201 -1.424,-0.144 -1.431,-0.087 -1.432,-0.028 -1.431,0.028 -1.43,0.087 -1.425,0.144 -1.418,0.201 -1.409,0.258 -1.397,0.315 -1.384,0.371 -1.367,0.426 -1.349,0.481 -1.328,0.534 -1.307,0.588 -1.281,0.63999 -1.255,0.691 -1.225,0.74101 -1.194,0.79 -1.163,0.83699 -1.128,0.88301 -1.091,0.928 -1.052,0.971 -1.013,1.013 -0.971,1.053 -0.928,1.091 -0.883,1.127 -0.837,1.162 -0.79,1.19499 -0.741,1.226 -0.69,1.25401 -0.64,1.281 -0.589,1.306 -0.535,1.329 -0.479,1.349 -0.428,1.36799 -0.37,1.383 -0.315,1.397 -0.257,1.409 -0.201,1.418 -0.144,1.425 -0.087,1.43 -0.03,1.431 0,-13.561 -0.027,-1.432 -0.087,-1.429 -0.144,-1.425 -0.201,-1.41899 -0.258,-1.40801 -0.316,-1.397 -0.371,-1.384 -0.425,-1.367 -0.481,-1.34899 -0.535,-1.32901 -0.587,-1.306 -0.64,-1.281 -0.692,-1.255 -0.741,-1.226 -0.79,-1.194 -0.837,-1.162 -0.883,-1.12799 -0.927,-1.09101 -0.972,-1.053 -1.013,-1.012 -1.052,-0.971 -1.091,-0.928 -1.128,-0.88399 -1.161,-0.837 -1.196,-0.79 -1.226,-0.74 -1.254,-0.691 -1.281,-0.64 -1.305,-0.588 -1.33,-0.535 -1.349,-0.481 -1.368,-0.426 -1.382,-0.37 -1.398,-0.315 -1.408,-0.258 -1.419,-0.202 -1.425,-0.144 -1.43,-0.086 -1.431,-0.029 -1.432,0.029 -1.429,0.086 -1.425,0.144 -1.419,0.202 -1.408,0.258 -1.398,0.315 -1.382,0.37 -1.368,0.426 -1.349,0.481 -1.329,0.535 -1.306,0.588 -1.281,0.64 -1.254,0.691 -1.226,0.74 -1.195,0.79 -1.162,0.837 -1.127,0.88399 -1.091,0.928 -1.053,0.971 -1.013,1.012 -0.971,1.053 -0.928,1.09101 -0.883,1.12799 -0.837,1.162 -0.79,1.194 -0.741,1.226 -0.691,1.255 -0.64,1.281 -0.588,1.306 -0.534,1.32901 -0.481,1.34899 -0.426,1.367 -0.37099,1.384 -0.315,1.397 -0.258,1.40801 -0.201,1.41899 -0.14401,1.425 -0.087,1.429 -0.028,1.432 0,-110.19398 -0.029,-1.426 -0.086,-1.425 -0.144,-1.42 -0.2,-1.413 -0.257,-1.403 -0.314,-1.392 -0.369,-1.379 -0.425,-1.362 -0.479,-1.344 -0.533,-1.324 -0.585,-1.302 -0.638,-1.276 -0.689,-1.25 -0.738,-1.221 -0.787,-1.191 -0.834,-1.158 -0.88,-1.123 -0.924,-1.087 -0.968,-1.049 -1.009,-1.009 -1.049,-0.968 -1.087,-0.924 -1.123,-0.88 -1.158,-0.835 -1.191,-0.786 -1.221,-0.739 -1.25,-0.688 -1.277,-0.638 -1.301,-0.585 -1.324,-0.533 -1.344,-0.479 -1.362,-0.425 -1.379,-0.369 -1.392,-0.314 -1.404,-0.257 -1.41199,-0.2 -1.42001,-0.144 -1.425,-0.086 -1.426,-0.029 -1.42699,0.029 -1.425,0.086 -1.41901,0.144 -1.413,0.2 -1.404,0.257 -1.392,0.314 -1.37899,0.369 -1.36201,0.425 -1.344,0.479 -1.324,0.533 -1.301,0.585 -1.27699,0.638 -1.25,0.688 -1.221,0.739 -1.191,0.786 -1.158,0.835 -1.123,0.88 -1.087,0.924 -1.049,0.968 -1.009,1.009 -0.967,1.049 -0.925,1.087 -0.88,1.123 -0.834,1.158 -0.787,1.191 -0.738,1.221 -0.689,1.25 -0.637,1.276 -0.586,1.302 -0.533,1.324 -0.479,1.344 -0.425,1.362 -0.369,1.379 -0.313,1.392 -0.258,1.403 -0.2,1.413 -0.144,1.42 -0.086,1.425 -0.029,1.426 0,211.34598 -0.832,-1.80399 -0.885,-1.77801 -0.938,-1.752 -0.989,-1.722 -1.04,-1.69299 -1.09,-1.661 -1.139,-1.628 -1.186,-1.594 -1.233,-1.557 -1.279,-1.52101 -1.323,-1.482 -1.367,-1.442 -1.408,-1.4 -1.45,-1.35899 -1.489,-1.31401 -1.528,-1.26999 -1.565,-1.22501 -1.6,-1.177 -1.635,-1.129 -1.667,-1.08 -1.698,-1.031 -1.729,-0.979 -1.756,-0.928 -1.784,-0.875 -1.808,-0.822 -1.833,-0.768 -1.854,-0.714 -1.874,-0.658 -1.893,-0.60199 -1.911,-0.54501 -1.925,-0.48899 -1.939,-0.43201 -1.952,-0.374 -1.961,-0.315 -1.97,-0.258 -1.976,-0.199 -1.982,-0.14 -1.985,-0.081 -1.987,-0.023 -1.986,0.036 -1.984,0.096 -1.981,0.154 -1.975,0.213 -1.409,0.201 -1.399,0.258 -1.388,0.314 -1.374,0.368 -1.358,0.424 -1.34,0.477 -1.321,0.531 -1.297,0.583 -1.273999,0.635 -1.247,0.685 -1.219,0.734 -1.188,0.782 -1.156,0.83 -1.122,0.875 -1.086,0.919 -1.049,0.962 -1.009,1.003 -0.968,1.042 -0.926,1.081 -0.881,1.116 -0.837,1.151 -0.789,1.184 -0.742,1.214 -0.693,1.243 -0.642,1.27 -0.591,1.294 -0.53899,1.317 -0.485,1.337 -0.432,1.356 -0.377,1.372 -0.322,1.386 -0.266,1.397 -0.211,1.408 -0.153,1.414 -0.097,1.419 -0.04,1.423 0.016,1.422 0.074,1.421 0.13,1.417 0.188,1.411 0.243,1.401 0.299,1.391 0.355,1.378 0.409,1.363 0.464,1.345 0.517,1.326 0.56899,1.303 0.622,1.28 0.672,1.254 0.721,1.227 0.77,1.196 0.818,1.165 0.863,1.131 0.908,1.095 0.951,1.058 0.992,1.02 1.033,0.979 1.071,0.937 1.107,0.893 1.143,0.848 1.175,0.802 1.206,0.754 1.236,0.706 1.262999,0.655 1.288,0.604 1.311,0.553 1.333,0.499 1.507,0.563 1.485,0.618 1.461,0.674 1.435,0.728 1.407,0.78 1.377,0.833 1.344,0.884 1.311,0.933 1.275,0.981 1.237,1.028 1.199,1.074 1.157,1.118 1.115,1.16 1.07,1.201 1.025,1.24 0.978,1.278 0.93,1.313 0.88,1.347 0.829,1.378 0.777,1.409 0.724,1.437 0.67,1.463 0.615,1.487 0.559,1.50901 0.502,1.528 0.444,1.546 0.387,1.562 0.328,1.575 0.269,1.587 0.21,1.595 0.15,1.602 0.09,1.606 0.03,1.60899 0,14.07 0.029,3.142 0.088,3.141 0.147,3.13901 0.205,3.136 0.263,3.131 0.322,3.12599 0.38,3.11901 0.439,3.112 0.496,3.103 0.554,3.093 0.612,3.082 0.669,3.07 0.726,3.057 0.784,3.044 0.839,3.028 0.897,3.012 0.952,2.994 1.008,2.977 1.063,2.957 1.118,2.936 1.173,2.915 1.227,2.893 1.281,2.87 1.334,2.845 1.387,2.82 1.44,2.793 1.491,2.766 1.542,2.738 1.594,2.708 1.643,2.678 1.694,2.647 1.742,2.615 1.791,2.583 1.839,2.548 1.886,2.513 1.932,2.478 1.979,2.441 2.024,2.404 2.068,2.366 2.112,2.327 2.155,2.287 2.197,2.247 2.239,2.205 2.279,2.162 2.32,2.12 2.359,2.077 2.397,2.032 2.434,1.987 2.471,1.941 1.48,1.178 1.443,1.224 1.402,1.269 1.363,1.313 1.32,1.355 1.277,1.395 1.232,1.436 1.186,1.473 1.14,1.511 1.091,1.545 1.041,1.579 0.992,1.611 0.94,1.641 0.888,1.671 0.835,1.697 0.781,1.723 0.727,1.747 0.671,1.769 0.615,1.789 0.558,1.807 0.501,1.825 0.443,1.839 0.385,1.852 0.326,1.863 0.268,1.873 0.208,1.88 0.149,1.886 0.089,1.89 0.03,1.891 0,35.852 z"
       style="fill:url(#linearGradient3786);fill-opacity:1;stroke:none" />
    <path
       inkscape:connector-curvature="0"
       id="path2993"
       d="m 438.99411,554.89772 1.667,-2.403 1.617,-2.436 1.566,-2.469 1.516,-2.501 1.463,-2.532 1.412,-2.561 1.358,-2.589 1.305,-2.617 1.251,-2.644 1.196,-2.668 1.142,-2.692 1.084,-2.716 1.031,-2.737 0.972,-2.757 0.917,-2.777 0.858,-2.795 0.802,-2.813 0.742,-2.828 0.686,-2.843 0.625,-2.856 0.569,-2.869 0.508,-2.879 0.449,-2.89 0.39,-2.898 0.33,-2.905 0.269,-2.912 0.21,-2.917 0.15,-2.92 0.091,-2.923 0.03,-2.924 m -283.98,-320.894 0,254.653 m 70.867,-254.653 0,220.864 m 213.113,-66.809 0,166.839 m -70.867,-197.139 0,97.109 m -71.124,-110.67 0,110.67 m -190.078,74.715 0,-14.07 m 89.002,195.007 0,35.852 m 193.499,-35.852 0,35.852 m -163.545,-512.368 -0.029,-1.426 -0.086,-1.425 -0.144,-1.42 -0.2,-1.413 -0.257,-1.403 -0.314,-1.392 -0.369,-1.379 -0.425,-1.362 -0.479,-1.344 -0.533,-1.324 -0.585,-1.302 -0.638,-1.276 -0.689,-1.25 -0.738,-1.221 -0.787,-1.191 -0.834,-1.158 -0.88,-1.123 -0.924,-1.087 -0.968,-1.049 -1.009,-1.009 -1.049,-0.968 -1.087,-0.924 -1.123,-0.88 -1.158,-0.835 -1.191,-0.786 -1.221,-0.739 -1.25,-0.688 -1.277,-0.638 -1.301,-0.585 -1.324,-0.533 -1.344,-0.479 -1.362,-0.425 -1.379,-0.369 -1.392,-0.314 -1.404,-0.257 -1.412,-0.2 -1.42,-0.144 -1.425,-0.086 -1.426,-0.029 -1.427,0.029 -1.425,0.086 -1.419,0.144 -1.413,0.2 -1.404,0.257 -1.392,0.314 -1.379,0.369 -1.362,0.425 -1.344,0.479 -1.324,0.533 -1.301,0.585 -1.277,0.638 -1.25,0.688 -1.221,0.739 -1.191,0.786 -1.158,0.835 -1.123,0.88 -1.087,0.924 -1.04899,0.968 -1.00901,1.009 -0.96699,1.049 -0.92501,1.087 -0.88,1.123 -0.834,1.158 -0.787,1.191 -0.738,1.221 -0.689,1.25 -0.637,1.276 -0.586,1.302 -0.533,1.324 -0.479,1.344 -0.425,1.362 -0.369,1.379 -0.313,1.392 -0.258,1.403 -0.2,1.413 -0.144,1.42 -0.086,1.425 -0.029,1.426 m 17.532,428.984 -2.471,-1.941 -2.434,-1.987 -2.397,-2.032 -2.359,-2.077 -2.32,-2.12 -2.279,-2.162 -2.239,-2.205 -2.197,-2.247 -2.155,-2.287 -2.112,-2.327 -2.068,-2.366 -2.024,-2.404 -1.979,-2.441 -1.932,-2.478 -1.886,-2.513 -1.839,-2.548 -1.791,-2.583 -1.742,-2.615 -1.69399,-2.647 -1.64301,-2.678 -1.59399,-2.708 -1.542,-2.738 -1.49101,-2.766 -1.44,-2.793 -1.387,-2.82 -1.334,-2.845 -1.281,-2.87 -1.227,-2.893 -1.173,-2.915 -1.118,-2.936 -1.063,-2.957 -1.008,-2.977 -0.952,-2.994 -0.897,-3.012 -0.839,-3.028 -0.78399,-3.044 -0.726,-3.057 -0.66901,-3.07 -0.612,-3.082 -0.554,-3.093 -0.496,-3.103 -0.439,-3.112 -0.38,-3.119 -0.322,-3.126 -0.263,-3.131 -0.205,-3.136 -0.147,-3.139 -0.088,-3.141 -0.029,-3.142 m -21.29699,-123.555 -1.409,0.201 -1.399,0.258 -1.388,0.314 -1.374,0.368 -1.358,0.424 -1.34001,0.477 -1.32099,0.531 -1.297,0.583 -1.274002,0.635 -1.24701,0.685 -1.219,0.734 -1.18799,0.782 -1.156,0.83 -1.12201,0.875 -1.08599,0.919 -1.04901,0.962 -1.009,1.003 -0.968,1.042 -0.926,1.081 -0.881,1.116 -0.837,1.151 -0.789,1.184 -0.742,1.214 -0.693,1.243 -0.642,1.27 -0.591,1.294 -0.539,1.317 -0.485,1.337 -0.432,1.356 -0.377,1.372 -0.322,1.386 -0.266,1.397 -0.211,1.408 -0.153,1.414 -0.097,1.419 -0.04,1.423 0.016,1.422 0.074,1.421 0.13,1.417 0.188,1.411 0.243,1.401 0.299,1.391 0.355,1.378 0.409,1.363 0.464,1.345 0.517,1.326 0.569,1.303 0.622,1.28 0.672,1.254 0.721,1.227 0.77,1.196 0.818,1.165 0.863,1.131 0.908,1.095 0.951,1.058 0.992,1.02 1.033,0.979 1.071,0.937 1.107,0.893 1.143,0.848 1.175,0.802 1.206,0.754 1.236,0.706 1.263002,0.655 1.288,0.604 1.311,0.553 1.333,0.499 m 218.85501,-130.669 -0.027,-1.432 -0.087,-1.429 -0.144,-1.425 -0.20101,-1.419 -0.25799,-1.408 -0.316,-1.397 -0.371,-1.384 -0.425,-1.367 -0.481,-1.349 -0.535,-1.329 -0.587,-1.306 -0.64,-1.281 -0.692,-1.255 -0.741,-1.226 -0.79,-1.194 -0.837,-1.162 -0.883,-1.128 -0.927,-1.091 -0.972,-1.053 -1.013,-1.012 -1.052,-0.971 -1.091,-0.928 -1.128,-0.884 -1.161,-0.837 -1.196,-0.79 -1.226,-0.74 -1.254,-0.691 -1.281,-0.64 -1.305,-0.588 -1.33,-0.535 -1.349,-0.481 -1.368,-0.426 -1.382,-0.37 -1.398,-0.315 -1.408,-0.258 -1.419,-0.202 -1.425,-0.144 -1.43,-0.086 -1.431,-0.029 -1.432,0.029 -1.429,0.086 -1.425,0.144 -1.419,0.202 -1.408,0.258 -1.39801,0.315 -1.382,0.37 -1.368,0.426 -1.34899,0.481 -1.329,0.535 -1.306,0.588 -1.281,0.64 -1.25401,0.691 -1.226,0.74 -1.195,0.79 -1.16199,0.837 -1.127,0.884 -1.091,0.928 -1.053,0.971 -1.013,1.012 -0.971,1.053 -0.928,1.091 -0.883,1.128 -0.837,1.162 -0.79,1.194 -0.741,1.226 -0.691,1.255 -0.64,1.281 -0.588,1.306 -0.534,1.329 -0.481,1.349 -0.426,1.367 -0.371,1.384 -0.315,1.397 -0.258,1.408 -0.201,1.419 -0.144,1.425 -0.087,1.429 -0.028,1.432 m 71.122,13.561 0.03,-1.431 0.087,-1.43 0.144,-1.425 0.201,-1.418 0.257,-1.409 0.315,-1.397 0.37,-1.383 0.428,-1.368 0.479,-1.349 0.535,-1.329 0.589,-1.306 0.64,-1.281 0.69,-1.254 0.741,-1.226 0.79,-1.195 0.837,-1.162 0.883,-1.127 0.928,-1.091 0.971,-1.053 1.013,-1.013 1.052,-0.971 1.091,-0.928 1.128,-0.883 1.163,-0.837 1.194,-0.79 1.225,-0.741 1.255,-0.691 1.281,-0.64 1.307,-0.588 1.328,-0.534 1.349,-0.481 1.367,-0.426 1.384,-0.371 1.397,-0.315 1.409,-0.258 1.418,-0.201 1.425,-0.144 1.43,-0.087 1.431,-0.028 1.432,0.028 1.431,0.087 1.424,0.144 1.418,0.201 1.409,0.258 1.397,0.315 1.383,0.371 1.368,0.426 1.349,0.481 1.328,0.534 1.306,0.588 1.28199,0.64 1.255,0.691 1.226,0.741 1.19401,0.79 1.163,0.837 1.127,0.883 1.09,0.928 1.053,0.971 1.014,1.013 0.97,1.053 0.928,1.091 0.883,1.127 0.838,1.162 0.79,1.195 0.741,1.226 0.69,1.254 0.64,1.281 0.589,1.306 0.533,1.329 0.481,1.349 0.426,1.368 0.371,1.383 0.315,1.397 0.25799,1.409 0.20101,1.418 0.144,1.425 0.087,1.43 0.028,1.431 m -261.20201,157.754 -0.03,-1.609 -0.09,-1.606 -0.15,-1.602 -0.21,-1.595 -0.269,-1.587 -0.328,-1.575 -0.387,-1.562 -0.444,-1.546 -0.502,-1.528 -0.559,-1.509 -0.615,-1.487 -0.67,-1.463 -0.724,-1.437 -0.77699,-1.409 -0.82901,-1.378 -0.88,-1.347 -0.93,-1.313 -0.978,-1.278 -1.025,-1.24 -1.07,-1.201 -1.115,-1.16 -1.157,-1.118 -1.199,-1.074 -1.237,-1.028 -1.275,-0.981 -1.311,-0.933 -1.344,-0.884 -1.377,-0.833 -1.407,-0.78 -1.435,-0.728 -1.461,-0.674 -1.485,-0.618 -1.507,-0.563 m 7.48,-68.839 1.975,-0.213 1.981,-0.154 1.984,-0.096 1.986,-0.036 1.987,0.023 1.985,0.081 1.982,0.14 1.976,0.199 1.97,0.258 1.961,0.315 1.952,0.374 1.939,0.432 1.925,0.489 1.911,0.545 1.893,0.602 1.874,0.658 1.854,0.714 1.833,0.768 1.808,0.822 1.784,0.875 1.756,0.928 1.729,0.979 1.698,1.031 1.667,1.08 1.635,1.129 1.6,1.177 1.565,1.225 1.528,1.27 1.489,1.314 1.45,1.359 1.408,1.4 1.367,1.442 1.323,1.482 1.279,1.521 1.233,1.557 1.186,1.594 1.139,1.628 1.09,1.661 1.04,1.693 0.989,1.722 0.938,1.752 0.885,1.778 0.832,1.804 m 40.913,265.17 -0.03,-1.891 -0.089,-1.89 -0.149,-1.886 -0.208,-1.88 -0.268,-1.873 -0.326,-1.863 -0.385,-1.852 -0.443,-1.839 -0.501,-1.825 -0.558,-1.807 -0.615,-1.789 -0.671,-1.769 -0.727,-1.747 -0.781,-1.723 -0.835,-1.697 -0.888,-1.671 -0.94,-1.641 -0.992,-1.611 -1.041,-1.579 -1.091,-1.545 -1.14,-1.511 -1.186,-1.473 -1.232,-1.436 -1.277,-1.395 -1.32,-1.355 -1.363,-1.313 -1.402,-1.269 -1.443,-1.224 -1.48,-1.178 m 216.88,47.532 0.028,-2.697 0.086,-2.695 0.143,-2.694 0.2,-2.689 0.259,-2.685 0.314,-2.679 0.372,-2.671 0.428,-2.663 0.485,-2.653 0.542,-2.642 0.597,-2.63 0.652,-2.617 0.708,-2.602 0.764,-2.587 0.819,-2.57 0.873,-2.552 0.927,-2.532 0.981,-2.513 1.033,-2.491 1.087,-2.468 1.139,-2.445 1.192,-2.42 1.241,-2.394 1.292,-2.367 1.342,-2.339 1.392,-2.31 1.442,-2.28 1.489,-2.249 1.535,-2.217 m -257.774,-148.512 -0.029,2.418 -0.087,2.417 -0.145,2.414 -0.203,2.411 -0.26,2.404 -0.319,2.398 -0.376,2.389 -0.433,2.379 -0.49,2.369 -0.547,2.356 -0.603,2.342 -0.659,2.327 -0.715,2.311 -0.77,2.292 -0.825,2.274 -0.88,2.253 m 0,0 -0.893,2.286 -0.839,2.305 -0.786,2.325 -0.731,2.342 -0.677,2.359 -0.621,2.374 -0.566,2.388 -0.51,2.4 -0.455,2.411 -0.398,2.422 -0.341,2.43 -0.285,2.437 -0.228,2.443 m 227.784,-169.274 0.029,-1.427 0.087,-1.424 0.144,-1.42 0.199,-1.413 0.257,-1.403 0.315,-1.392 0.368,-1.379 0.426,-1.362 0.479,-1.345 0.532,-1.323 0.586,-1.302 0.637,-1.276 0.688,-1.25 0.74,-1.222 0.785,-1.19 0.835,-1.158 0.88,-1.123 0.924,-1.087 0.968,-1.049 1.01,-1.009 1.048,-0.968 1.088,-0.924 1.123,-0.88 1.158,-0.835 1.19,-0.786 1.222,-0.739 1.249,-0.688 1.276,-0.638 1.302,-0.585 1.325,-0.533 1.343,-0.479 1.362,-0.425 1.379,-0.369 1.392,-0.314 1.405,-0.257 1.412,-0.2 1.419,-0.144 1.425,-0.086 1.426,-0.029 1.427,0.029 1.425,0.086 1.419,0.144 1.414,0.2 1.404,0.257 1.391,0.314 1.379,0.369 1.362,0.425 1.344,0.479 1.324,0.533 1.302,0.585 1.277,0.638 1.25,0.688 1.22,0.739 1.191,0.786 1.157,0.835 1.124,0.88 1.087,0.924 1.05,0.968 1.008,1.009 0.968,1.049 0.925,1.087 0.879,1.123 0.83401,1.158 0.788,1.19 0.73699,1.222 0.68901,1.25 0.637,1.276 0.586,1.302 0.534,1.323 0.478,1.345 0.424,1.362 0.371,1.379 0.313,1.392 0.25699,1.403 0.20001,1.413 0.144,1.42 0.086,1.424 0.029,1.427"
       style="fill:none;stroke:#000000;stroke-width:9;stroke-linecap:round;stroke-linejoin:round;stroke-miterlimit:4;stroke-dasharray:none" />
  </g>
</svg>
