<?xml version="1.0" standalone="no"?>
<!DOCTYPE svg PUBLIC "-//W3C//DTD SVG 1.1//EN" "http://www.w3.org/Graphics/SVG/1.1/DTD/svg11.dtd" >
<svg xmlns="http://www.w3.org/2000/svg">
<metadata></metadata>
<defs>
<font id="linux_libertineitalic" horiz-adv-x="909" >
<font-face units-per-em="2048" ascent="1638" descent="-410" />
<missing-glyph horiz-adv-x="512" />
<glyph unicode="&#x2e;&#x2e;&#x2e;" horiz-adv-x="1533" d="M129 72q0 45 37 84t90 39q41 0 67.5 -26t26.5 -65q0 -47 -38 -87t-89 -40q-39 0 -66.5 28t-27.5 67zM672 72q0 45 37 84t90 39q41 0 67.5 -26t26.5 -65q0 -47 -38 -87t-89 -40q-41 0 -67.5 28t-26.5 67zM1212 72q0 45 37 84t90 39q41 0 68 -26t27 -65q0 -47 -38 -87 t-89 -40q-41 0 -68 28t-27 67z" />
<glyph unicode="&#xfb01;" horiz-adv-x="1155" d="M-161 -393q0 30 18.5 52t57.5 22q31 0 59 -21t44 -46q21 -34 50 -34q23 0 50.5 18t44.5 45q39 61 71 218t64 389.5t48 318.5l43 230h-162q-12 0 -12 4q0 10 8 35q8 33 60 34l123 7q66 324 213 455q110 98 272 98q111 0 207 -77t96 -151q0 -49 -30.5 -80.5t-67.5 -31.5 q-39 0 -62.5 25.5t-23.5 68.5q0 63 -5.5 84.5t-31.5 56.5q-29 37 -103 37q-125 0 -198 -131q-23 -39 -41.5 -87t-29.5 -92t-18.5 -78t-12.5 -64.5t-5 -32.5h223q78 0 173.5 7t111.5 7q42 0 42 -43q0 -16 -5.5 -43t-18 -78.5t-17.5 -72.5l-93 -402q-23 -98 -23 -107 q0 -35 21 -34q18 0 57 24.5t76 67.5q35 0 47 -35q-150 -190 -285 -190q-84 0 -83 67q0 29 34 189l97 421q16 68 16 103q0 25 -55 34q-33 5 -113 5h-219l-6 -35q-137 -774 -226 -1016q-25 -68 -53 -106q-92 -129 -237 -129q-97 0 -143.5 27.5t-46.5 66.5z" />
<glyph unicode="&#xfb02;" horiz-adv-x="1167" d="M-161 -393q0 30 18.5 52t57.5 22q27 0 54 -18t42 -39q1 -2 5 -8.5t5.5 -8.5t5.5 -7t6 -7t6 -5t8 -4.5t9.5 -2.5t11.5 -1q23 0 49.5 17.5t43.5 44.5q11 17 21.5 42t19 50t18 62.5t15.5 65t14 74t12.5 72t12 76.5t10 71t9.5 71t8 63q18 131 84 510h-168q-12 0 -12 4 q0 10 8 35q8 33 57 34l136 7q46 323 210 456q116 94 281 95q53 0 116.5 -19.5t89.5 -42.5q71 39 132 62q25 0 25 -21q-23 -82 -52 -215l-209 -934q-27 -119 -26 -129q0 -29 24 -29q20 0 65.5 34t88.5 85q31 0 45 -35q-125 -207 -297 -206q-88 0 -88 90q0 35 31 174l209 934 q-2 51 -64 126q-48 58 -106 58q-90 0 -171 -91q-88 -98 -122 -276l-23 -116h226q14 0 14 -11l-10 -45q-6 -25 -54 -24h-190l-6 -35q-34 -190 -97 -498q-60 -292 -99.5 -428.5t-82.5 -195.5q-92 -129 -237 -129q-97 0 -143.5 27.5t-46.5 66.5z" />
<glyph unicode="&#xfb03;" horiz-adv-x="1677" d="M-161 -393q0 30 18.5 52t57.5 22q31 0 59 -21t44 -46q21 -34 50 -34q23 0 49.5 17.5t43.5 44.5q11 17 21.5 42t19 50t18 62.5t15.5 65t14 74t12.5 72t12 76.5t10 71t9.5 71t8 63q18 131 84 510h-168q-12 0 -12 4q0 10 8 35q8 33 57 34l136 7q8 43 18 87t46 129t83 146.5 t130 109.5t185 48q48 0 131.5 -25t121.5 -62q9 9 23 22q110 98 271 98q111 0 207 -77t96 -151q0 -49 -30.5 -80.5t-67.5 -31.5q-39 0 -62.5 25.5t-23.5 68.5q0 63 -5 84.5t-32 56.5q-29 37 -102 37q-125 0 -199 -131q-23 -39 -41 -87t-29.5 -92t-18.5 -78t-12 -64.5 t-5 -32.5h223q78 0 173 7t111 7q42 0 42 -43q0 -16 -5 -43t-18 -78.5t-18 -72.5l-93 -402q-23 -98 -22 -107q0 -35 20 -34q18 0 57 24.5t76 67.5q35 0 47 -35q-150 -190 -284 -190q-84 0 -84 67q0 29 35 189l96 421q16 68 16 103q0 25 -55 34q-33 5 -113 5h-219l-6 -35 q-127 -723 -205 -934q-25 -68 -53 -106q-92 -129 -238 -130q-97 0 -143 28t-46 67q0 30 18.5 51.5t57.5 21.5q31 0 59 -20.5t44 -45.5q21 -34 49 -34q23 0 51 18t45 45q39 61 66 199.5t53 345t43 299.5l43 230h-143h-18h-201l-6 -35q-34 -190 -97 -498 q-60 -292 -99.5 -428.5t-82.5 -195.5q-92 -129 -237 -129q-97 0 -143.5 27.5t-46.5 66.5zM565 879h242h12h111q38 186 101 306q-21 16 -48 56q-19 29 -33 45t-42 30.5t-62 14.5q-25 0 -52.5 -11t-66.5 -41t-75 -99.5t-58 -169.5z" />
<glyph unicode="&#xfb04;" horiz-adv-x="1699" d="M-201 -395q0 8 5.5 19t21.5 24.5t43 13.5q37 0 70 -41q31 -43 65 -43q39 0 78 39q18 18 37.5 60t41 117t38 136.5t40 170t35 160.5t35 169t27.5 139l47 230h-166q-10 0 -10 4q0 8 8 31q12 37 55 38l127 7q8 47 17.5 87t44.5 128t79 147t125.5 108.5t184.5 49.5 q55 0 129 -36t98 -89q68 96 155 133t152 37q52 0 129.5 -26t103.5 -50q71 39 132 62q25 0 25 -21q-23 -82 -52 -215l-209 -934q-27 -119 -26 -129q0 -29 24 -29q20 0 65.5 34t88.5 85q31 0 45 -35q-125 -207 -297 -206q-88 0 -88 90q0 35 31 174l209 934q-2 51 -64 126 q-66 80 -135 80q-37 0 -98.5 -44t-96.5 -128q-29 -66 -61 -202l-31 -131h221q12 0 13 -11l-8 -45q-4 -25 -56 -24h-188l-6 -33q-63 -342 -143.5 -620.5t-151.5 -399.5q-104 -178 -252 -178q-164 0 -164 100q0 16 15.5 38t54.5 22q33 0 67 -43q31 -41 66 -41q41 0 78 37 q31 31 63.5 120.5t69.5 249.5t55 250t53 268l45 230h-374l-9 -33q-25 -98 -64.5 -263t-63 -261.5t-55.5 -212t-59.5 -194.5t-54.5 -130q-113 -203 -258 -203q-96 0 -134 31t-38 72zM553 879h371q37 173 90 288h-4q-43 0 -60.5 22.5t-28 65.5t-30 68t-66.5 25 q-23 0 -49 -12.5t-62 -45.5t-71 -105.5t-59 -174.5z" />
<glyph horiz-adv-x="2048" />
<glyph horiz-adv-x="2048" />
<glyph unicode="&#xd;" horiz-adv-x="682" />
<glyph unicode=" "  horiz-adv-x="512" />
<glyph unicode="&#x09;" horiz-adv-x="512" />
<glyph unicode="&#xa0;" horiz-adv-x="512" />
<glyph unicode="!" horiz-adv-x="464" d="M178 63q0 2 1 8.5t1 10.5q10 45 47 76.5t82 31.5q39 0 65.5 -25.5t26.5 -64.5q0 -2 -1 -8t-1 -10q-8 -45 -46 -77t-83 -32q-39 0 -65.5 26t-26.5 64zM324 426v4q31 311 36 385q6 82 7 139q0 16 -1 46t-1 44q0 90 14 168q14 76 55 113t82 37q39 0 65.5 -28.5t26.5 -82.5 q0 -25 -4 -39q-10 -59 -27.5 -116.5t-46 -136t-49.5 -144.5q-66 -223 -96 -371q-10 -41 -37 -41q-25 0 -24 23z" />
<glyph unicode="&#x22;" horiz-adv-x="688" d="M336 872q4 326 6 345q6 37 43 69.5t82 32.5q59 0 59 -53q0 -10 -2 -15l-133 -370zM596 874q2 326 6 345q4 37 42 69.5t81 32.5q59 0 59 -53v-15l-133 -370z" />
<glyph unicode="#" horiz-adv-x="897" d="M115 375l32 98h187l74 225h-185l33 101h186l115 348h70l-117 -348h225l117 348h68l-117 -348h184l-33 -101h-184l-76 -225h185l-31 -98h-184l-119 -348h-68l117 348h-225l-117 -348h-68l115 348h-184zM401 473h228l73 225h-225z" />
<glyph unicode="$" horiz-adv-x="897" d="M115 -2q14 78 26 301l56 6q8 -102 62.5 -175.5t152.5 -84.5l97 496q-43 21 -73 38t-71 49.5t-64 67t-35.5 85t-1.5 108.5q16 83 80 147t138 95t149 39l22 114h70l-22 -113q40 -2 122.5 -11t112.5 -5q-12 -78 -16 -293l-56 -8l-4 37q-10 104 -50 156.5t-121 60.5l-86 -438 q319 -130 278 -351q-6 -30 -16 -60.5t-40.5 -82.5t-72 -91t-116 -71t-168.5 -38l-28 -142h-69l27 142q-62 4 -128.5 24t-81 20t-33 -11t-40.5 -11zM397 897q-21 -114 142 -198l80 408q-79 -12 -142 -68t-80 -142zM482 46q79 12 149 63t90 151q5 42 5.5 73t-13 58t-26 45 t-35 34t-39.5 25t-40 19z" />
<glyph unicode="%" horiz-adv-x="1304" d="M209 -10l876 1028q-94 -39 -211 -39q-92 0 -165 43q6 -25 6 -51q0 -119 -72 -241t-188 -122q-90 0 -138.5 67.5t-48.5 155.5q0 121 81 223.5t190 102.5q92 0 135 -51q110 -51 219 -51q205 0 307 110l68 -43l-983 -1151zM373 803q0 -72 28.5 -103.5t65.5 -31.5 q78 0 131 100t53 201q0 68 -28.5 95.5t-63.5 27.5q-70 0 -128 -97.5t-58 -191.5zM795 186q0 121 79.5 223.5t190.5 102.5q74 0 124 -43t50 -143q0 -123 -71.5 -244t-188.5 -121q-88 0 -136 68.5t-48 156.5zM899 158q0 -72 28.5 -105t63.5 -33q80 0 133.5 101.5t53.5 200.5 q0 49 -18.5 78.5t-37 37.5t-37.5 8q-72 0 -129 -97t-57 -191z" />
<glyph unicode="&#x26;" horiz-adv-x="1443" d="M141 248q0 156 107.5 276.5t353.5 247.5q-55 137 -55 227q0 139 108.5 229.5t255.5 90.5q98 0 161 -49t63 -131q0 -102 -108.5 -200.5t-258.5 -176.5q4 -6 15.5 -33t25.5 -57.5t54 -106.5t98 -176q276 324 276 399q0 23 -25 23h-59q-10 0 -6 14l6 35l4 4q106 -4 176 -4 l180 4l3 -4l-7 -33q-2 -16 -20 -16h-57q-31 0 -58.5 -17.5t-62.5 -60.5t-70 -93t-102.5 -142t-139.5 -179l54 -92q72 -135 133 -135q96 0 178 117l27 -16q-51 -104 -116 -157.5t-122 -53.5q-39 0 -66.5 7t-68.5 39.5t-74 94.5l-47 78q-199 -219 -418 -219q-156 0 -247 64.5 t-91 201.5zM303 250q0 -102 56.5 -150.5t146.5 -48.5q100 0 173 50.5t179 168.5q-198 346 -221 426q-63 -31 -108.5 -60.5t-103.5 -83.5t-90 -131t-32 -171zM696 1032q0 -61 41 -188q262 156 262 299q1 106 -110 106q-66 0 -129.5 -64.5t-63.5 -152.5z" />
<glyph unicode="'" horiz-adv-x="389" d="M315 872q4 326 9 345q4 37 41.5 69.5t80.5 32.5q59 0 60 -53v-15l-133 -370z" />
<glyph unicode="(" horiz-adv-x="626" d="M176 315q0 92 17 201q49 274 210 514q164 250 390 418l30 -37q-188 -174 -305 -403q-121 -231 -166 -492q-27 -156 -26 -280q0 -113 18 -213q37 -229 162 -406l-43 -35q-179 185 -242 418q-45 150 -45 315z" />
<glyph unicode=")" horiz-adv-x="641" d="M37 -381q188 176 305 406q121 231 166 491q27 156 27 281q0 109 -19 213q-37 229 -162 405l43 35q176 -182 242 -418q45 -150 45 -315q0 -92 -16 -201q-51 -279 -211 -516q-168 -252 -389 -416z" />
<glyph unicode="*" horiz-adv-x="886" d="M373 1233v12q6 25 25.5 43.5t52.5 18.5q39 0 92 -45t88 -60v23q0 31 -9.5 78t-9.5 65q0 4 1 11t1 12q6 33 29 56t49 23q55 0 56 -55v-16q-6 -29 -37 -99.5t-39 -99.5q41 16 108.5 61.5t106.5 45.5q57 0 57 -54v-8q-12 -76 -153 -76q-63 0 -113 -8q16 -25 77.5 -74 t61.5 -88q0 -10 -2 -16q-4 -27 -25.5 -43t-44.5 -16q-35 0 -53 32.5t-30.5 93t-24.5 87.5q-20 -27 -56 -90.5t-62.5 -93t-61.5 -29.5q-23 0 -37 14t-14 35v8q8 39 38.5 65.5t82.5 57t83 57.5q-33 8 -86 8q-152 0 -151 64z" />
<glyph unicode="+" horiz-adv-x="1079" d="M211 424l16 100h357l61 357h100l-61 -357h354l-18 -100h-354l-64 -354h-100l63 354h-354z" />
<glyph unicode="," horiz-adv-x="448" d="M46 -223q79 18 146.5 76t67.5 102q0 16 -10 27.5t-21.5 15.5t-31.5 10q-70 18 -70 84q0 45 36 74t85 29t79.5 -36t30.5 -96q0 -63 -22.5 -125.5t-92 -125t-180.5 -82.5q-24 20 -17 47z" />
<glyph unicode="-" horiz-adv-x="681" d="M158 492q0 25 24.5 56.5t40.5 31.5h469q23 0 23 -25t-24.5 -61.5t-47.5 -36.5h-465q-20 0 -20 35z" />
<glyph unicode="." horiz-adv-x="448" d="M129 72q0 45 37 84t90 39q41 0 67.5 -26t26.5 -65q0 -47 -38 -87t-89 -40q-39 0 -66.5 28t-27.5 67z" />
<glyph unicode="/" horiz-adv-x="595" d="M0 -43l739 1440h84l-737 -1440h-86z" />
<glyph unicode="0" d="M199 294q-19 144 14 308q55 291 203.5 469t302.5 178q145 0 213 -133q96 -182 37 -495q-33 -170 -96.5 -301.5t-136 -202t-142.5 -104t-131 -33.5q-115 0 -182 86q-63 84 -82 228zM347 251q1 -91 35 -145.5t97 -54.5q25 0 53.5 9.5t75.5 55.5t82 122q57 125 115 421 q76 387 -19 484q-28 35 -81 35q-37 0 -75 -25t-83 -84t-89 -185t-79 -304q-16 -84 -24.5 -161t-7.5 -168z" />
<glyph unicode="1" d="M258 29.5q6 23.5 16 33.5q115 4 159 36t67 151l131 668q25 119 -17 118q-53 0 -180 -51q-25 20 -20 55q303 135 426 205q12 0 10 -10q-12 -41 -59 -274l-140 -711q-23 -123 2 -152.5t133 -34.5q8 -10 3 -33.5t-15 -33.5q-197 4 -239 4q-82 0 -275 -4q-8 10 -2 33.5z" />
<glyph unicode="2" d="M98 -4q18 98 80 188t228 236l174 149q197 174 231 361q27 133 -14 190.5t-109 57.5q-98 0 -153.5 -39t-65.5 -86q0 -2 6 -49q4 -27 0 -43q-6 -31 -43 -56.5t-65 -25.5q-31 0 -50.5 23t-13.5 56q20 102 139 196.5t273 94.5q135 0 219 -78.5t53 -232.5q-14 -74 -56 -140.5 t-85 -107.5t-125 -110l-238 -199q-23 -18 -54.5 -48t-81.5 -93.5t-58 -106.5h350q53 0 91 43t85 154q37 8 55 -11q-35 -150 -110 -323q-88 4 -152 4h-344z" />
<glyph unicode="3" d="M127 117q4 25 36 48t62 23q47 0 74 -53q2 -4 6 -14t6 -14.5t8.5 -13.5t11.5 -13t14 -11.5t19.5 -10.5t26 -5t33.5 -2q33 0 72 14.5t87 46t89 101.5t59 166q51 264 -207 264q-59 0 -94 -4l2 66q139 20 244.5 111t122.5 177q18 92 -20.5 138.5t-108.5 46.5q-35 0 -75 -10.5 t-86 -48.5t-56 -97q-23 -106 -97 -107q-33 0 -46 23t-7 47q14 78 124 171t298 93q137 0 199 -80q49 -66 30 -161q-16 -86 -74.5 -150.5t-185.5 -122.5l2 -4q106 -18 174 -96t39 -227q-39 -195 -190.5 -311.5t-333.5 -116.5q-98 0 -184 39.5t-74 97.5z" />
<glyph unicode="4" d="M150 438q408 504 686 789q18 23 34 22h64l4 -4q-6 -18 -43 -198l-117 -598h164q29 0 23 -33q-4 -18 -28 -41t-42 -23h-135l-37 -188q4 -35 -3 -52.5t16.5 -28.5t33.5 -12t52 -6q13 -2 20 -2q8 -10 2 -33.5t-17 -33.5q-127 4 -213 4q-106 0 -233 -4q-8 10 -2 33.5t16 33.5 q109 8 140 31q30 23 38 70l37 188h-401q-59 0 -59 86zM254 449h375l114 589q-178 -197 -489 -589z" />
<glyph unicode="5" d="M135 131q6 31 34 53.5t56 22.5q53 0 88 -66q2 -4 10.5 -20.5t12.5 -22.5t13 -18t18.5 -17.5t24 -9.5t32.5 -4q90 0 173 97.5t110 240.5q31 160 -17.5 235.5t-150.5 75.5q-125 0 -260 -49l182 590q113 -10 211 -10q115 0 325 22l13 -8l-58 -139q-123 -12 -209 -12 q-66 0 -227 18l-104 -342q88 33 198 33q160 0 235 -110.5t44 -266.5q-37 -195 -179.5 -321t-324.5 -126q-92 0 -177 47.5t-73 106.5z" />
<glyph unicode="6" d="M170 264q-12 88 16 211q25 125 97.5 256t183.5 240q201 199 485 280q18 -14 13 -53q-194 -70 -327 -202.5t-209 -291.5q101 44 196 44q188 0 254.5 -93.5t38.5 -240.5q-14 -70 -50.5 -143.5t-90.5 -140.5t-135 -110t-173 -43q-51 0 -95 12.5t-92.5 44.5t-74 87t-37.5 143 zM349 139q46 -90 155 -90q78 0 144.5 84t96.5 244q6 57 6.5 123.5t-47 121t-135.5 54.5q-94 0 -172 -47q-32 -83 -47 -160q-47 -240 -1 -330z" />
<glyph unicode="7" d="M281 -12q176 283 657 1108h-352q-39 0 -65.5 -9.5t-65.5 -50.5t-74 -118q-31 -2 -62 6q86 248 103 327q2 6 8 6q8 -2 31.5 -15t62.5 -13h404q80 0 155 22l27 -24q-297 -504 -682 -1247l-135 -7z" />
<glyph unicode="8" d="M160 299q29 141 162 246q74 57 180 112l-45 33q-152 113 -119 277q23 121 130 201.5t255 80.5q141 0 209 -71.5t45 -184.5q-16 -88 -106.5 -162.5t-190.5 -121.5l121 -88q135 -96 98 -289q-27 -133 -149.5 -242.5t-303.5 -109.5q-160 0 -238.5 82.5t-47.5 236.5zM291 299 q-25 -125 33.5 -186.5t140.5 -61.5q90 0 173 52.5t110 187.5q31 164 -119 272l-82 58q-219 -133 -256 -322zM485 1006q-25 -123 97 -215l53 -39q182 121 205 243q14 78 -19 130.5t-123 52.5q-86 0 -142 -49.5t-71 -122.5z" />
<glyph unicode="9" d="M219 29q195 71 327.5 203.5t208.5 291.5q-101 -45 -196 -45q-188 0 -254.5 93.5t-38.5 240.5q14 70 50 143.5t90.5 140t135.5 109.5t173 43q51 0 95 -12t92 -44t72.5 -87t37 -143.5t-16.5 -210.5q-53 -276 -278 -496q-201 -199 -486 -281q-18 14 -12 54zM428 760 q4 -51 17.5 -97.5t57.5 -79t111 -32.5q95 0 173 47q32 83 47 160q47 240 0.5 330t-154.5 90q-78 0 -145.5 -84t-98.5 -244q-12 -39 -8 -90z" />
<glyph unicode=":" horiz-adv-x="448" d="M164 174q0 45 37 84t90 39q41 0 67.5 -25.5t26.5 -64.5q0 -47 -38 -87t-89 -40q-41 0 -67.5 27.5t-26.5 66.5zM258 711q0 45 37 84t90 39q41 0 67.5 -26t26.5 -65q0 -47 -38 -87t-89 -40q-41 0 -67.5 28t-26.5 67z" />
<glyph unicode=";" horiz-adv-x="448" d="M65 -223q79 18 146.5 76t67.5 102q0 16 -10.5 27.5t-21.5 15.5t-32 10q-70 18 -70 84q0 45 36 74t85 29t80 -36t31 -96q0 -63 -22.5 -125.5t-92 -125t-180.5 -82.5q-24 20 -17 47zM256 711q0 45 37 84t90 39q41 0 67.5 -26t26.5 -65q0 -47 -38 -87t-89 -40 q-39 0 -66.5 28t-27.5 67z" />
<glyph unicode="&#x3c;" horiz-adv-x="997" d="M178 440l17 99l849 288l-18 -102l-690 -236l606 -237l-16 -102z" />
<glyph unicode="=" horiz-adv-x="1079" d="M186 295l19 100h811l-19 -100h-811zM231 551l19 100h811l-19 -100h-811z" />
<glyph unicode="&#x3e;" horiz-adv-x="997" d="M127 145l16 103l691 235l-607 238l19 102l747 -291l-16 -98z" />
<glyph unicode="?" horiz-adv-x="829" d="M299 1065q0 92 106.5 188.5t286.5 96.5q139 0 221 -66.5t82 -179.5q0 -82 -33.5 -150.5t-87 -115.5t-107.5 -84t-105.5 -73t-69.5 -65q-49 -68 -66 -149l-14 -90q-2 -20 -31 -21q-12 0 -18 5.5t-4 15.5l16 94q20 106 64.5 183t93.5 119t96 82t77 95.5t30 134.5 q0 84 -49.5 143.5t-124.5 59.5q-98 0 -155.5 -42t-57.5 -93q0 -18 10 -35q6 -12 6 -28q0 -35 -25.5 -64t-70.5 -29q-70 0 -70 68zM338 72q0 45 37 84t90 39q41 0 67.5 -26t26.5 -65q0 -47 -38 -87t-89 -40q-39 0 -66.5 28t-27.5 67z" />
<glyph unicode="@" horiz-adv-x="1697" d="M207 457q70 330 348.5 562t601.5 232q305 0 464 -192.5t97 -480.5q-20 -94 -67 -181.5t-125 -166t-199 -127t-268 -48.5q-37 0 -47.5 27t-1.5 57q8 37 55 129l-4 2q-82 -106 -162 -158.5t-135 -52.5q-88 0 -135 48.5t-48 104.5t3 101q45 211 221 369t336 158 q47 0 84 -24.5t43 -63.5l20 49l107 26l24 -10l-225 -528q-49 -123 -53 -137q-4 -25 14 -25q158 0 258 97.5t152 338.5q31 158 3 275.5t-99.5 195.5t-160.5 117t-184 39q-242 0 -463 -179.5t-294 -516.5q-20 -98 -23.5 -196.5t22 -200t79 -178.5t155.5 -126t244 -49 q225 0 411 135l19 -37q-119 -82 -226.5 -124t-254.5 -42q-334 0 -496 223.5t-90 557.5zM727 332q-39 -188 109 -189q49 0 128.5 77t145.5 190q86 133 111 237q12 57 -17.5 93t-81.5 36q-96 0 -188 -82q-160 -137 -207 -362z" />
<glyph unicode="A" horiz-adv-x="1366" d="M6 0l6 39q2 16 19 16q72 4 119 35t100 119l645 1065q43 74 80 74q20 0 27.5 -14.5t13.5 -47.5l188 -1110q8 -59 36 -86t87 -33l21 -2q18 0 16 -16l-4 -39l-4 -4q-143 4 -232 4q-113 0 -260 -4l-2 4l4 39q2 16 17 16l57 4q100 8 100 69q0 9 -2 19l-51 347h-409 q-57 0 -76 -35l-172 -297q-15 -25 -15 -48q0 -49 74 -55l55 -4q14 0 13 -16l-4 -39l-7 -4q-143 4 -256 4q-35 0 -182 -4zM581 594q0 -14 48 -14h342l-84 546h-4l-297 -520q-5 -7 -5 -12z" />
<glyph unicode="B" horiz-adv-x="1140" d="M33 0l8 39q4 16 16 16l60 4q66 4 87 19.5t32 66.5l200 1031q5 22 5 36q0 27 -19 36.5t-72 13.5l-57 4q-12 0 -12 14l8 41l6 4q184 -4 248 -4q41 0 124 2t115 2q368 0 369 -240q0 -34 -8 -75q-14 -80 -82 -154t-154 -115v-4q237 -75 237 -285q0 -36 -7 -75 q-31 -158 -167 -269.5t-403 -111.5q-100 0 -177 2t-103 2q-66 0 -250 -4zM394 131q0 -36 32 -50.5t117 -14.5q207 0 296 71.5t115 200.5q7 38 8 75q0 120 -81 193.5t-246 73.5h-135l-103 -520q-3 -18 -3 -29zM512 750h145q283 0 330 235q8 39 8 72q0 104 -63.5 151 t-149.5 47t-123.5 -9t-47 -24.5t-17.5 -54.5z" />
<glyph unicode="C" horiz-adv-x="1261" d="M182 494q0 75 15 151q57 297 285.5 500t478.5 203q104 0 183 -21.5t133 -45.5t95 -26q-14 -135 -18 -317l-60 -8q-33 342 -370 342q-63 0 -141 -35t-160 -101.5t-151 -185.5t-97 -266q-17 -87 -17 -173q0 -125 34.5 -222.5t115 -161.5t199.5 -64q137 0 254.5 52.5 t244.5 171.5q29 0 39 -31q-254 -276 -553 -276q-130 0 -230 41t-160 113.5t-90 163.5t-30 196z" />
<glyph unicode="D" horiz-adv-x="1366" d="M33 0l6 37q4 18 18 18l60 4q104 6 121 93l198 1019q4 23 5 37q0 30 -19.5 40t-71.5 14l-53 4q-18 0 -14 16l6 39l6 4q184 -4 248 -4q35 0 144.5 2t176.5 2q245 0 401 -158.5t156 -397.5q0 -69 -14 -138q-35 -180 -120 -310.5t-197.5 -198t-223 -97t-225.5 -29.5 q-117 0 -224.5 2t-129.5 2q-66 0 -250 -4zM392 123q0 -34 40.5 -45.5t161.5 -11.5q522 0 623 516q18 94 18 184q0 101 -24.5 185.5t-76 154.5t-143 109.5t-215.5 39.5q-84 0 -127 -15t-53 -64l-201 -1026q-3 -16 -3 -27z" />
<glyph unicode="E" horiz-adv-x="1077" d="M23 0l8 41q4 14 18 14l60 4q57 4 82.5 24.5t35.5 63.5l199 1022q3 16 3 29q0 31 -20 45.5t-67 18.5l-57 4q-16 0 -13 14l9 41l4 4q184 -4 247 -4h498q47 0 94 8q9 0 9 -6q0 -129 -17 -297l-57 -10q-14 121 -48 172t-137 51h-204q-72 0 -86 -70l-82 -430h250q88 0 114 86 l15 52q4 16 18 16h43l6 -8q-34 -123 -43 -185q-18 -88 -26 -178l-11 -6h-43q-16 0 -10 16l4 52q1 10 1 17q0 34 -19.5 47.5t-65.5 13.5h-250l-100 -515q-2 -13 -2 -21q0 -46 61 -46h267q195 0 317 268l59 -10q-25 -59 -139 -342q-156 4 -250 4h-422q-66 0 -249 -4z" />
<glyph unicode="F" horiz-adv-x="935" d="M25 0l8 39q4 16 18 16l53 4q61 4 88 25.5t35 67.5l199 1017q3 16 3 30q0 30 -20 44.5t-67 18.5l-57 4q-16 0 -13 14l9 41l4 4q184 -4 247 -4h500q45 0 94 8q6 0 7 -6q0 -74 -17 -297l-57 -10q-14 121 -48 172t-137 51h-204q-72 0 -86 -70l-82 -430h250q88 0 114 86l15 52 q4 16 18 16h43l6 -8q-34 -123 -43 -185q-18 -88 -26 -178l-11 -6h-43q-16 0 -10 16l4 52q1 10 1 17q0 34 -19.5 47.5t-65.5 13.5h-250l-98 -510q-3 -15 -3 -28q0 -32 21.5 -46.5t71.5 -18.5l49 -4q18 0 15 -16l-9 -39l-4 -4q-184 4 -252 4q-63 0 -247 -4z" />
<glyph unicode="G" horiz-adv-x="1359" d="M171 498q0 64 13 131q63 324 304 521.5t509 197.5q135 0 251 -46.5t161 -46.5q-18 -190 -18 -315l-62 -12q-14 156 -96 250t-277 94q-203 0 -372.5 -169t-221.5 -433q-11 -60 -11 -122q0 -94 26 -180t76.5 -157.5t135.5 -114.5t193 -43q188 0 308 99l61 313q3 15 3 26 q0 31 -22 43.5t-73 16.5l-49 4q-16 0 -13 16l11 54l4 4q184 -4 247.5 -4t182.5 4l4 -4l-10 -54q-2 -12 -21 -16q-49 -6 -72.5 -23.5t-31.5 -66.5l-47 -238q-6 -31 20 -57q-252 -190 -561 -190q-253 0 -402.5 146t-149.5 372z" />
<glyph unicode="H" horiz-adv-x="1378" d="M39 30q2 20 8 25l64 6q61 6 89.5 28t37.5 67l198 1009q2 14 2 26q0 27 -13 41q-19 20 -79 28l-70 6q-4 8 -0.5 30.5t7.5 28.5q180 -4 260 -4q61 0 245 4q6 -14 4.5 -33.5t-8.5 -25.5l-63 -6q-61 -6 -89 -28t-38 -67l-83 -422h641l83 422q2 14 2 25q1 28 -13 42 q-20 20 -79 28l-70 6q-4 8 -1 30.5t7 28.5q180 -4 260 -4q61 0 246 4q5 -10 5 -24q0 -5 -1 -9q-2 -20 -8 -26l-63 -6q-61 -6 -89 -28t-38 -67l-199 -1009q-3 -15 -3 -28q-1 -26 13 -40q20 -20 80 -27l70 -6q4 -8 1 -30.5t-7 -28.5q-180 4 -261 4q-61 0 -245 -4 q-6 14 -4 33.5t8 25.5l63 6q61 6 90 28t37 67l99 501h-641l-99 -501q-3 -15 -3 -28q0 -26 14 -40q20 -20 79 -27l70 -6q4 -8 1 -30.5t-7 -28.5q-180 4 -260 4q-61 0 -246 -4q-5 10 -5 24q0 5 1 10z" />
<glyph unicode="I" horiz-adv-x="573" d="M39 30q2 20 8 25l64 6q61 6 89.5 28t37.5 67l198 1009q2 14 2 26q0 27 -13 41q-19 20 -79 28l-70 6q-4 8 -0.5 30.5t7.5 28.5q180 -4 260 -4q61 0 245 4q5 -11 5 -26q-1 -3 -1 -7q-2 -20 -8 -26l-63 -6q-61 -6 -89 -28t-38 -67l-199 -1009q-3 -15 -3 -28q0 -26 14 -40 q20 -20 79 -27l70 -6q4 -8 1 -30.5t-7 -28.5q-180 4 -260 4q-61 0 -246 -4q-5 10 -5 24q0 5 1 10z" />
<glyph unicode="J" horiz-adv-x="847" d="M63 -289q0 29 20.5 55.5t57.5 26.5q63 0 97 -47q8 -12 14 -28.5t9 -28t9 -19.5t19 -8q201 0 293 555l67 401l-252 19v41l265 14l4 25q27 158 52 247t75 197l-2 8q-12 -6 -33 -6q-51 0 -109 25q-27 10 -80 35.5t-90 38t-76 12.5q-33 0 -54 -18.5t-21 -38.5q0 -6 32.5 -39 t32.5 -62q0 -63 -67 -63q-76 0 -76 90q0 76 68.5 145.5t203.5 69.5q84 0 303 -103q8 47 39 89t76 42q76 0 76 -57t-125 -141q-12 -74 -34.5 -244t-22.5 -207q0 -31 19 -41t75 -14l-6 -51l-109 -10l-59 -359q-113 -672 -494 -672q-76 0 -136.5 34t-60.5 87z" />
<glyph unicode="K" horiz-adv-x="1304" d="M39 30q2 20 8 25l64 6q61 6 89.5 28t37.5 67l198 1009q2 14 2 26q0 27 -13 41q-19 20 -79 28l-70 6q-4 8 -0.5 30.5t7.5 28.5q180 -4 260 -4q61 0 245 4q6 -14 4.5 -33.5t-8.5 -25.5l-63 -6q-61 -6 -89 -28t-38 -67l-90 -454q92 5 174 80l401 360q60 56 60 82 q0 24 -47 29l-39 4q-16 0 -13 16l7 39l6 4q184 -4 227 -4q8 0 193 4l6 -4l-9 -39q-4 -16 -24 -16q-51 -6 -84 -14.5t-84 -35t-102 -73.5l-336 -309q-86 -80 -92 -101q-4 -27 14 -51l328 -532q45 -80 135 -93l12 -2q16 -4 14 -16l-6 -39l-8 -4q-184 4 -203 4q-57 0 -139 -4 l-2 4l2 12q8 35 8 59q0 42 -20 79l-242 405q-43 78 -152 78l5 25l-99 -502q-3 -15 -3 -28q0 -26 14 -40q20 -20 79 -27l70 -6q4 -8 1 -30.5t-7 -28.5q-180 4 -260 4q-61 0 -246 -4q-5 10 -5 24q0 5 1 10z" />
<glyph unicode="L" horiz-adv-x="1062" d="M41 30q2 20 8 25l64 6q61 6 90 28t37 67l196 1009q2 14 2 26q0 27 -13 41q-19 20 -79 28l-70 6q-4 8 -0.5 30.5t7.5 28.5q180 -4 260 -4q61 0 245 4q6 -14 4.5 -33.5t-8.5 -25.5l-63 -6q-61 -6 -90 -28t-37 -67l-193 -983q-3 -15 -2 -27q0 -35 20 -55t56 -20h225 q178 0 301 268q35 8 58 -14q-84 -209 -119 -338q-180 4 -233 4h-416q-61 0 -246 -4q-5 10 -5 24q0 5 1 10z" />
<glyph unicode="M" horiz-adv-x="1646" d="M33 0l4 39q2 16 20 16l54 4q74 4 102 117l289 1000q7 26 7 40q0 22 -15.5 32.5t-51.5 13.5l-55 4q-10 0 -13 4t-3 10l4 41l4 4l295 -2l200 -1042q2 -27 11 -27q6 0 22 29l621 1042h258l4 -4l-4 -41q-2 -12 -25 -14l-53 -4q-82 -6 -92 -86l-125 -998q-3 -28 -4 -45 q0 -69 61 -74l54 -4q10 0 14 -4t4 -12l-4 -39l-4 -4q-184 4 -221 4q-23 0 -211 -4l-4 4l4 39q2 14 20 16l53 4q37 2 59.5 38t28.5 81l123 916h-4l-653 -1084q-13 -22 -30 -22h-1q-20 0 -26 22l-199 1063h-4l-258 -897q-8 -30 -9 -53q0 -59 54 -64l49 -4q16 0 16 -16l-2 -39 l-6 -4q-115 4 -180 4q-55 0 -174 -4z" />
<glyph unicode="N" horiz-adv-x="1363" d="M25 0l4 37q2 16 28 18l52 4q106 8 131 121l184 946q-2 45 -33 90.5t-76 49.5q-31 4 -28 16l4 39l6 4h270l498 -909q63 -113 78 -113q12 0 24 62l152 776q3 17 3 31q0 83 -87 90l-49 4q-27 2 -25 16l6 39l4 4q184 -4 226 -4q29 0 213 4l4 -4l-4 -39q-2 -14 -19 -16l-55 -4 q-106 -8 -129 -121l-213 -1098q-14 -63 -53 -63q-47 0 -70 49l-510 903q-41 68 -55 67q-18 0 -39 -100l-139 -719q-3 -16 -4 -31q0 -82 88 -90l51 -4q14 -2 12 -16l-4 -39l-4 -4q-184 4 -213 4q-41 0 -225 -4z" />
<glyph unicode="O" horiz-adv-x="1368" d="M179 480q0 74 16 155q59 303 268 508t469 205q227 0 371 -143t144 -380q0 -74 -15 -151q-59 -309 -266.5 -501.5t-487.5 -192.5q-223 0 -361 134.5t-138 365.5zM365 499q0 -208 105 -329t261 -121q174 0 316.5 159t195.5 427q21 110 21 205q0 213 -100 325.5t-271 112.5 q-154 0 -303.5 -155.5t-206.5 -452.5q-18 -90 -18 -171z" />
<glyph unicode="P" horiz-adv-x="1021" d="M33 0l8 39q4 16 18 16l52 4q59 4 88 23.5t37 62.5l200 1031q2 10 2 19q0 33 -22 49t-49 18l-76 4q-12 0 -10 12l8 43l6 4q143 -4 250 -4q43 0 139 9t119 9q108 0 185.5 -25.5t116 -69t55 -88t16.5 -95.5q0 -33 -7 -66q-14 -72 -50 -140.5t-97 -133t-163.5 -104 t-229.5 -39.5q-86 0 -146 20l-88 -453q-3 -15 -3 -25q0 -31 22 -44.5t71 -16.5l72 -4q16 0 12 -16l-8 -39l-4 -4q-184 4 -268 4q-109 0 -252 -4zM496 657q35 -10 137 -10q295 0 356 311q11 59 12 106q0 206 -227 206q-98 0 -134 -22.5t-44 -71.5z" />
<glyph unicode="Q" horiz-adv-x="1368" d="M179 480q0 74 16 155q59 303 268 508t469 205q227 0 371 -143t144 -380q0 -74 -15 -151q-52 -269 -218 -452.5t-399 -228.5q-140 -35 -296 -139q22 3 38 3q92 0 184.5 -42t177.5 -84t154 -42q113 0 187 75l28 -24q-143 -168 -315 -168q-86 0 -164 30.5t-126 66.5 t-111.5 67t-122.5 31q-32 0 -74 -25q-49 -45 -94 -96l-68 41q19 26 47 50q152 152 343 247q-193 23 -308.5 154.5t-115.5 341.5zM365 499q0 -208 105 -329t261 -121q174 0 316.5 159t195.5 427q21 110 21 205q0 213 -100 325.5t-271 112.5q-154 0 -303.5 -155.5 t-206.5 -452.5q-18 -90 -18 -171z" />
<glyph unicode="R" horiz-adv-x="1136" d="M33 0l8 39q4 16 18 16l52 4q61 4 88.5 24.5t36.5 63.5l200 1029q2 10 2 19q0 33 -22 49t-49 18l-76 4q-12 0 -10 12l8 43l6 4q184 -4 248 -4q43 0 136.5 9t113.5 9q113 0 190.5 -19.5t128.5 -82.5q63 -77 64 -179q0 -35 -9 -77q-29 -141 -131 -230t-198 -120l163 -430 q31 -80 65 -119t93 -39l-6 -49q-31 -14 -86 -14q-152 0 -225 182l-140 356q-18 41 -62 59.5t-157 18.5l-88 -449q-3 -15 -3 -26q0 -30 21.5 -44t71.5 -18l52 -4q16 0 12 -16l-6 -39l-6 -4q-184 4 -250 4t-250 -4zM496 666h98q162 0 263 67.5t136 245.5q9 49 10 89 q-1 202 -223 202q-98 0 -137 -22.5t-47 -71.5z" />
<glyph unicode="S" horiz-adv-x="929" d="M104 10q18 117 27 328l62 6q2 -291 278 -291q238 0 283 232q8 42 8 76q0 85 -45 140t-125 95q-64 32 -109.5 61t-93.5 71.5t-73.5 97.5t-25.5 120q0 33 7 68q31 154 164 244t274 90q106 0 175 -31t100 -35q-2 -33 -9.5 -120t-7.5 -144l-63 4q-6 59 -15.5 98t-32 79 t-67.5 59.5t-113 19.5q-96 0 -168.5 -57.5t-91.5 -151.5q-4 -20 -4 -42q0 -157 217 -257q59 -27 103 -54.5t87 -68t65.5 -94.5t22.5 -120q0 -35 -7 -77q-31 -156 -173.5 -266t-312.5 -110q-88 0 -185 15t-151 15z" />
<glyph unicode="T" horiz-adv-x="1114" d="M227 1080q70 169 97 268q6 -2 60 -14.5t85 -12.5h684q33 0 58.5 4t56 11t53.5 12q-2 -27 -2 -56q0 -107 24 -231q-25 -10 -61 -10q-27 109 -61.5 149.5t-110.5 40.5h-111q-53 0 -76.5 -17.5t-33.5 -68.5l-195 -999q-2 -14 -2 -25q0 -29 14 -43q20 -20 78 -27l70 -6 q4 -8 1 -30.5t-7 -28.5q-180 4 -260 4q-61 0 -246 -4q-6 14 -4 33.5t8 25.5l64 6q61 6 88.5 28t38.5 67l194 1005q3 16 3 29q0 24 -10 34q-15 16 -75 17h-141q-81 0 -128 -37t-91 -138q-39 0 -62 14z" />
<glyph unicode="U" horiz-adv-x="1298" d="M250 1282l6 39l6 4q184 -4 248 -4q68 0 252 4l4 -4l-8 -39q-4 -16 -19 -16l-51 -4q-61 -4 -89 -26t-38 -65l-121 -620q-25 -139 -25 -200q0 -112 56 -185q82 -102 213 -103q96 0 172 32t122 78t82 119t52 133t33 142l117 600q3 16 3 29q0 32 -21.5 47t-69.5 19l-54 4 q-16 0 -12 16l8 39l4 4q184 -4 215 -4q33 0 217 4l4 -4l-8 -39q-4 -16 -18 -16l-51 -4q-61 -4 -90 -27t-37 -68l-111 -563q-57 -303 -194 -463.5t-420 -160.5q-51 0 -98.5 8.5t-99 33.5t-89.5 63.5t-62 104t-24 150.5q0 65 14 143l135 688q3 15 3 27q0 31 -21.5 45.5 t-71.5 18.5l-51 4q-13 0 -13 10q0 3 1 6z" />
<glyph unicode="V" horiz-adv-x="1222" d="M225 1294.5q0 -20.5 8 -28.5q45 -6 59.5 -9.5t40 -15.5t36 -36.5t16.5 -65.5l166 -1116q6 -47 37 -48q29 0 55 48l621 1110q66 117 213 133q10 8 10 28.5t-10 30.5q-152 -4 -193 -4q-61 0 -225 4q-10 -10 -10 -30.5t10 -28.5q85 -6 115 -33q15 -14 15 -35t-15 -49 l-478 -889q-8 -8 -14 0l-131 911q-1 6 -1 11q0 39 39 58q44 22 109 26q10 8 10.5 28.5t-10.5 30.5q-135 -4 -247 -4q-53 0 -218 4q-8 -10 -8 -30.5z" />
<glyph unicode="W" horiz-adv-x="1861" d="M274 1296q0 19 11 29q147 -4 221 -4q111 0 246 4q10 -10 10 -30.5t-10 -28.5q-66 -4 -108 -26q-38 -20 -38 -61v-8l70 -725l14 -135l78 131l403 753h89q15 -131 22 -200l66 -571l14 -125l76 141l383 709q14 25 14 44q0 24 -21 39q-38 28 -124 34q-10 8 -10.5 28.5 t10.5 30.5q164 -4 231 -4q66 0 201 4q8 -10 8 -30.5t-8 -28.5q-131 -14 -197 -133l-616 -1110q-14 -27 -22.5 -35t-20.5 -8q-29 0 -35 45l-86 727q-4 38 -10.5 77.5t-9.5 60.5q-1 5 -10 5q-5 -9 -31 -57.5t-44 -79.5l-401 -733q-16 -29 -23.5 -37t-19.5 -8q-16 0 -20.5 9 t-8.5 36l-123 1093q-8 78 -42.5 105.5t-116.5 42.5q-11 8 -11 30z" />
<glyph unicode="X" horiz-adv-x="1286" d="M6 0l8 41q2 14 25 14q121 6 256 158l344 383q27 29 29 47q1 6 1 12q0 21 -18 50l-200 419q-59 125 -148 142q-29 8 -29 14l9 39l6 6q156 -4 203 -4q55 0 239 4q0 -6 2 -6l-6 -39q-2 -14 -12 -14l-66 -4q-25 -2 -36 -9.5t-11 -21.5q0 -17 21 -60l163 -360q12 -23 19 -23 q9 0 31 25l323 358q43 48 43 69q0 19 -37 22l-57 4q-14 0 -12 14l8 41l4 4q160 -4 195 -4q33 0 192 4l4 -4l-8 -41q0 -14 -21 -14q-55 -2 -101 -22.5t-71.5 -44t-68.5 -69.5l-328 -362q-33 -37 -39 -61q-1 -6 -1 -11q0 -21 20 -57l219 -430q72 -145 178 -154q12 0 12 -14 l-8 -41l-4 -4q-160 4 -207 4q-61 0 -246 -4l-6 4l8 41q4 14 15 14l41 4q37 4 51.5 10.5t14.5 19.5q0 14 -23 61l-185 385q-12 23 -24 22q-6 0 -35 -29l-332 -370q-38 -46 -38 -67q0 -26 48 -32l37 -4q10 -2 11 -14l-9 -41l-6 -4q-184 4 -221 4q-47 0 -166 -4v4z" />
<glyph unicode="Y" horiz-adv-x="1130" d="M252 1296q-1 7 -1 12q0 12 3 17q115 -4 213 -4q59 0 219 4q4 -6 2 -28.5t-6 -30.5l-68 -6q-49 -4 -55 -21.5t12 -58.5l174 -494h9l323 494q29 42 29 58q0 17 -39 22l-66 6q-4 6 -2 29.5t7 29.5q156 -4 186 -4q45 0 164 4q2 -3 2 -12q0 -7 -1 -17q-3 -22 -9 -30l-54 -4 q-49 -4 -75.5 -27t-65.5 -78l-358 -522q-16 -27 -29 -86l-78 -393q-3 -15 -3 -28q0 -26 13 -40q21 -20 80 -27l70 -6q4 -8 1 -30.5t-7 -28.5q-180 4 -260 4q-61 0 -246 -4q-6 14 -4 33.5t8 25.5l63 6q113 10 127 95l72 374q7 34 7 52q0 19 -7 36l-188 502 q-33 84 -53.5 109.5t-71.5 32.5l-31 4q-4 8 -6 30z" />
<glyph unicode="Z" horiz-adv-x="1183" d="M84 24q0 27 27 54l979 1108q20 23 22 37q6 16 -16 16h-453q-100 0 -154.5 -57.5t-117.5 -186.5l-58 11q53 139 111 342q29 -2 65.5 -14.5t88.5 -12.5h630q33 4 75 12t54 8q41 0 42 -16q0 -36 -70 -115l-944 -1063q-20 -31 -23 -41q-6 -27 43 -26h459q102 0 169.5 69.5 t127.5 198.5l59 -10q-80 -201 -119 -342q-197 4 -247 4h-717q-33 0 -33 24z" />
<glyph unicode="[" horiz-adv-x="684" d="M109 -410l319 1821h440l-14 -88h-301l-289 -1642h299l-14 -91h-440z" />
<glyph unicode="\" horiz-adv-x="657" d="M274 1430h91l272 -1528h-90z" />
<glyph unicode="]" horiz-adv-x="684" d="M-6 -410l14 91h301l289 1642h-299l14 88h441l-322 -1821h-438z" />
<glyph unicode="^" horiz-adv-x="1060" d="M354 711l369 620h86l147 -620h-90l-123 503l-299 -503h-90z" />
<glyph unicode="_" horiz-adv-x="995" d="M-45 -315l14 90h979l-16 -90h-977z" />
<glyph unicode="`" horiz-adv-x="802" d="M438 1366l8 20l21 13q20 12 32.5 17t37 12.5t51.5 7.5q18 0 28 -6l99 -256q6 -18 6 -31t-2 -19q-4 -23 -33 -22q-18 0 -53 41z" />
<glyph unicode="a" horiz-adv-x="995" d="M333 694q173 205 343 205q53 0 164 -12q16 -4 143 -4l-141 -637q-20 -98 -21 -115q0 -29 25 -29q35 0 115 109q27 0 47 -33q-90 -198 -261 -198h-2q-83 0 -83 90v2q0 45 20 112l27 86l-4 4q-198 -294 -346 -294h-1q-198 0 -198 273q0 236 173 441zM324 289 q0 -197 90 -197q49 0 148 110t175 247q23 57 41.5 144t24.5 145l6 59q-61 39 -127 39q-133 0 -245.5 -186.5t-112.5 -360.5z" />
<glyph unicode="b" horiz-adv-x="978" d="M209 217l211 936q14 63 14 102q0 57 -43 58l-63 4q-10 0 -11 10l7 49q178 12 286 54q25 0 25 -21q-22 -82 -51 -215l-113 -506l4 -2q43 49 63.5 71.5t66.5 63.5t92 59.5t96 18.5q129 0 172 -61.5t43 -182.5q0 -150 -114 -323.5t-261 -276.5q-110 -75 -212 -75h-3 q-132 0 -182 68q-35 46 -34 109q0 28 7 60zM375 270q-17 -72 -17 -120q0 -99 70 -99q127 0 269.5 177t142.5 388q0 186 -109 187q-20 0 -40.5 -6t-43 -22.5t-39 -29t-43 -41t-38 -42t-42 -50.5t-41.5 -47z" />
<glyph unicode="c" horiz-adv-x="796" d="M170 305q0 134 45 250t123 200q61 65 147.5 104.5t151.5 39.5q78 0 128 -17.5t70.5 -52t25.5 -61.5t5 -66q0 -37 -31.5 -64.5t-74.5 -27.5q-25 0 -40 19.5t-15 46t10 43t10 39.5q0 78 -86 78q-125 0 -213 -132.5t-88 -353.5q0 -137 51 -203q37 -47 103 -47 q76 0 139.5 40.5t130.5 116.5q14 0 27 -10t18 -25q-79 -110 -176.5 -176t-202.5 -66q-127 0 -197 98q-61 86 -61 227z" />
<glyph unicode="d" horiz-adv-x="1001" d="M166 274q0 233 165 429t335 196q55 0 99 -31.5t62 -81.5h2l76 367q14 70 15 102q0 57 -43 58l-64 4q-10 0 -10 10l6 49q178 12 287 54q25 0 24 -21q-20 -82 -51 -215l-217 -948q-20 -98 -21 -115q0 -29 25 -29q35 0 115 109q27 0 47 -33q-90 -198 -260 -198h-2 q-84 0 -84 92q0 31 20 112l15 54l-7 4q-94 -137 -170.5 -199.5t-154.5 -62.5q-84 0 -133 53t-62.5 112.5t-13.5 128.5zM330 307q0 -233 80 -233q57 0 138 90t159 233q94 172 94 250q0 59 -37 118.5t-92 59.5q-90 0 -171 -85t-126 -203.5t-45 -229.5z" />
<glyph unicode="e" horiz-adv-x="821" d="M170 291q0 80 17.5 163t57.5 163.5t97 142t143 100.5t189 39q98 0 146 -50t48 -101q0 -27 -1 -39.5t-10 -43t-27.5 -52t-56.5 -52.5t-92 -54.5t-141 -49.5t-198 -49q-2 -16 -2 -70q0 -131 40 -183.5t115.5 -52.5t127 26t135.5 112q33 0 47 -33q-176 -227 -383 -227 q-123 0 -187.5 87t-64.5 224zM356 486q66 8 125 25.5t117.5 48t93.5 82t35 116.5q0 45 -22.5 61.5t-77.5 16.5q-183 0 -271 -350z" />
<glyph unicode="f" horiz-adv-x="643" d="M-161 -393q0 30 18.5 52t57.5 22q31 0 59 -21t44 -46q21 -34 50 -34q23 0 49.5 17.5t43.5 44.5q11 17 21.5 42t19 50t18 62.5t15.5 65t14 74t12.5 72t12 76.5t10 71t9.5 71t8 63q18 131 84 510h-168q-12 0 -12 4q0 10 8 35q8 33 57 34l136 7q63 303 161 419 q57 68 135 100t134 32q106 0 171 -44.5t65 -108.5q0 -22 -18.5 -45.5t-59.5 -23.5q-76 0 -96 101q-6 30 -24 41.5t-55 11.5q-35 0 -85 -40t-85 -124q-39 -88 -61 -203l-23 -116h226q14 0 14 -11l-10 -45q-6 -25 -54 -24h-190l-6 -35q-34 -190 -97 -498 q-60 -292 -99.5 -428.5t-82.5 -195.5q-92 -129 -237 -129q-97 0 -143.5 27.5t-46.5 66.5z" />
<glyph unicode="g" horiz-adv-x="976" d="M14 -279q0 143 277 295q-53 31 -53 99q0 51 33.5 114.5t76.5 108.5q-94 113 -94 242q0 135 79 227t240 92q127 0 201 -86q94 86 203 86q35 0 57.5 -20.5t22.5 -49t-18.5 -48t-45.5 -19.5q-35 0 -57 35q-12 20 -31 20q-12 0 -44 -15.5t-52 -35.5q41 -59 41 -170 q0 -150 -87 -238t-224 -88q-84 0 -140 35q-47 -88 -47 -125q0 -29 15.5 -48t49.5 -33.5t66.5 -22.5t89 -21.5t93.5 -25.5q209 -61 208 -234q0 -282 -463 -282h-3q-94 0 -177.5 16t-150 65.5t-66.5 126.5zM152 -231q0 -88 86 -138.5t254 -50.5q125 0 187 47t62 113 q0 53 -37.5 91t-125.5 79q-125 57 -248 84q-178 -129 -178 -225zM406 578q0 -246 143 -246q149 0 149 264q0 109 -34.5 175.5t-98.5 66.5q-94 0 -126.5 -66.5t-32.5 -193.5z" />
<glyph unicode="h" horiz-adv-x="1062" d="M182 35q0 4 26 112l224 1006q14 63 14 102q0 57 -43 58l-63 4q-10 0 -10 10l6 49q178 12 287 54q25 0 24 -21q-23 -82 -51 -215l-124 -556q131 153 221.5 207t178.5 54q135 0 136 -164q0 -39 -27 -155l-78 -326q-23 -98 -22 -117q0 -35 20 -35q16 0 55 30t78 73 q35 0 47 -35q-150 -190 -284 -190q-84 0 -84 67q0 49 35 189l77 327q20 86 21 137q0 45 -17.5 60.5t-54.5 15.5q-53 0 -144 -80t-192 -209l-78 -340q-3 -15 -8.5 -46t-10 -47.5t-13.5 -36.5t-24 -28.5t-38 -8.5q-84 0 -84 55z" />
<glyph unicode="i" horiz-adv-x="565" d="M219 47q0 29 35 189l96 421q18 78 19 105q0 37 -37 41l-82 6q-23 33 -2 57q209 27 254 27q42 0 42 -43q0 -16 -5.5 -43t-18.5 -78.5t-18 -72.5l-92 -402q-23 -98 -23 -117q0 -35 21 -35q16 0 55 30t78 73q35 0 47 -35q-150 -190 -285 -190q-84 0 -84 67zM412 1167 q0 41 29.5 70t68.5 29t68.5 -29t29.5 -70t-29.5 -69.5t-68.5 -28.5t-68.5 28.5t-29.5 69.5z" />
<glyph unicode="j" horiz-adv-x="530" d="M-160 -303q0 31 18.5 47t41.5 16q55 0 89 -44t56 -44q37 0 79 48.5t73 164.5q20 82 52 240t48 235l65 297q16 76 17 105q0 37 -37 41l-82 6q-23 33 -2 57q178 27 254 27q42 0 42 -43q0 -14 -39 -194l-38 -177q-37 -170 -65.5 -285.5t-70.5 -237.5t-87 -193.5 t-108.5 -117.5t-137.5 -46q-72 0 -120 25.5t-48 72.5zM422 1167q0 41 28.5 70t69.5 29t69.5 -29t28.5 -70t-28.5 -69.5t-69.5 -28.5t-69.5 28.5t-28.5 69.5z" />
<glyph unicode="k" horiz-adv-x="995" d="M156 35q0 4 26 112l226 1006q14 63 14 102q0 57 -43 58l-64 4q-10 0 -10 10l6 49q178 12 287 54q25 0 25 -21q-20 -82 -52 -215l-147 -637q48 0 121 63l82 70q236 209 338 209q100 0 100 -72q0 -43 -34 -72.5t-60 -29.5q-37 0 -63.5 14.5t-51.5 14.5q-55 0 -197 -127 l-106 -95v-8q47 -12 65.5 -33.5t47.5 -76.5q10 -20 44.5 -103.5t67.5 -146.5q2 -4 7.5 -13.5t7.5 -13.5l6 -12t6 -11t7 -8.5t8 -8.5t8.5 -6t11.5 -4t12 -1q39 0 106 98q23 0 46 -26q-102 -178 -207 -178q-61 0 -105.5 48t-96.5 162q-19 42 -50.5 134.5t-50.5 128.5 q-19 33 -41 33q-28 0 -45 -7l-74 -332q-2 -12 -8 -45t-10.5 -48t-13.5 -36t-24.5 -29.5t-37.5 -8.5q-84 0 -84 55z" />
<glyph unicode="l" horiz-adv-x="544" d="M190 70q0 45 29 174l203 909q14 63 14 102q0 57 -43 58l-63 4q-10 0 -11 10l7 49q178 12 286 54q25 0 25 -21q-22 -82 -51 -215l-209 -934q-25 -109 -25 -129q0 -29 25 -29q20 0 64 33t87 86q31 0 45 -35q-124 -206 -295 -206h-2q-86 0 -86 90z" />
<glyph unicode="m" horiz-adv-x="1603" d="M256 147l117 510q18 86 18 105q0 37 -37 41l-82 6q-23 33 -2 57q209 27 254 27q42 0 42 -43q0 -16 -6 -43.5t-19.5 -77.5t-19.5 -73l-5 -19l4 -2q205 264 402 264q118 0 118 -175v-3q0 -53 -8 -96q109 135 194 204.5t183 69.5q53 0 89 -44t36 -134q0 -72 -21 -150 l-96 -364q-10 -39 -10 -82q0 -23 14 -23q59 0 144 134q39 0 45 -29q-94 -227 -303 -227q-23 0 -44 19.5t-21 48.5q0 39 36 185l80 322q18 72 18 145q0 43 -14 59.5t-45 16.5q-51 0 -123 -66.5t-197 -240.5l-78 -322q-3 -15 -8.5 -46t-10 -47.5t-13.5 -36.5t-24 -28.5 t-38 -8.5q-83 0 -83 54v1q0 3 26 112l98 416q16 72 17 137q0 45 -11.5 60.5t-42.5 15.5q-133 0 -340 -299l-82 -330q-4 -16 -9.5 -46t-10 -47t-13 -36.5t-23.5 -28.5t-38 -9q-83 0 -83 54q0 5 26 113z" />
<glyph unicode="n" horiz-adv-x="1060" d="M182 35q0 4 26 112l116 510q18 86 18 105q0 37 -37 41l-82 6q-23 33 -2 57q178 27 258 27q42 0 42 -43q0 -72 -43 -194l-7 -19l2 -2q135 158 216 211t167 53q135 0 135 -164q0 -39 -26 -155l-78 -326q-23 -98 -23 -117q0 -35 21 -35q16 0 55 30t78 73q35 0 47 -35 q-150 -190 -291 -190q-84 0 -84 67q0 49 35 189l78 327q27 113 26 139q0 45 -17 59.5t-54 14.5q-94 0 -316 -289l-78 -340q-3 -15 -8.5 -46t-10 -47.5t-13.5 -36.5t-24 -28.5t-38 -8.5q-88 0 -88 55z" />
<glyph unicode="o" horiz-adv-x="915" d="M160 332q0 96 31.5 193.5t91 182.5t159 138t222.5 53q288 0 288 -330q0 -180 -90 -330.5t-227 -220.5q-76 -38 -183 -38h-6q-92 0 -153.5 37.5t-88 99t-35.5 112t-9 103.5zM330 348q0 -145 47 -219t100 -74q135 0 217 125q88 135 88 373q0 125 -31 188q-46 90 -124 90 q-100 0 -172 -84.5t-98.5 -189.5t-26.5 -209z" />
<glyph unicode="p" horiz-adv-x="1001" d="M-39 -444q0 12 21 16l38 6q92 14 109 92l211 940q-102 -84 -147 -143q-51 0 -64 43q70 88 236 207l26 121q2 12 8.5 46t10.5 48t13 35.5t24.5 30t37.5 8.5q86 0 86 -56q0 -10 -5 -32.5t-12 -50.5t-9 -40q121 72 235 72q262 0 262 -307q0 -219 -165 -422 q-156 -190 -355 -190q-86 0 -149 67l-90 -377q-8 -33 4 -52t26.5 -24.5t36.5 -7.5l39 -6q12 -2 12 -16v-41l-4 -4q-139 4 -219 4l-213 -10l-4 4v39zM391 137q61 -86 152 -86q57 0 114 40.5t99 106.5q56 87 87 185t31 176q0 246 -159 246q-80 0 -189 -70z" />
<glyph unicode="q" horiz-adv-x="1005" d="M166 301q0 127 52 241.5t132 190.5t172 121t174 45q119 0 197 -108l59 83q27 39 64 39q22 0 22 -18q0 -14 -4 -33l-274 -1192q-3 -12 -3 -22q0 -52 70 -62l39 -6q12 -2 13 -16v-41l-5 -4q-139 4 -219 4l-215 -10l-4 4v39q0 12 21 16l39 6q49 8 73.5 28.5t34.5 63.5 l135 533l-6 2q-162 -225 -327 -225q-131 0 -185.5 92t-54.5 229zM338 324q0 -100 27.5 -179t83.5 -79q59 0 163.5 102t139.5 201q29 84 53 183t24 124q0 63 -34.5 106t-89.5 43q-152 0 -259.5 -155.5t-107.5 -345.5z" />
<glyph unicode="r" horiz-adv-x="731" d="M182 35q0 14 4.5 31.5t11.5 41.5t10 39l114 510q14 57 14 105q0 37 -37 41l-82 6q-23 33 -2 57q209 27 246 27q44 0 44 -51q0 -29 -35 -186l-17 -72l8 -2q68 145 151.5 231t159.5 86q53 0 80 -29.5t27 -66.5q0 -43 -27 -79t-66 -36q-33 0 -69 43q-20 25 -43 25 q-57 0 -260 -369l-60 -240q-4 -15 -10.5 -47t-11 -47.5t-14.5 -35.5t-23.5 -28.5t-34.5 -8.5q-78 0 -78 55z" />
<glyph unicode="s" horiz-adv-x="722" d="M121 139q0 25 18.5 48.5t57.5 23.5q41 0 65.5 -33t30.5 -76q4 -33 24.5 -44t63.5 -11q76 0 125 36t49 116q0 100 -125 184q-178 121 -178 260q0 100 80 178t207 78q92 0 162.5 -53t70.5 -111q0 -69 -72 -69h-2q-37 0 -63.5 32.5t-30.5 73.5q-8 59 -92 59q-61 0 -95 -43 t-34 -102q0 -74 82 -129q135 -90 189.5 -164t54.5 -151q0 -117 -87 -189.5t-235 -72.5h-31q-102 6 -168.5 53t-66.5 106z" />
<glyph unicode="t" horiz-adv-x="628" d="M207 803q0 10 8 35q8 33 57 34l109 7l27 102q4 16 11 56t13 58.5t22.5 36t43.5 17.5q82 0 82 -55q0 -4 -27 -123l-21 -92h203q10 -8 10 -23q0 -8 -3 -19q-9 -30 -27 -38h-201l-121 -539q-23 -98 -23 -128t27 -30q51 0 164 127q37 0 45 -39q-51 -92 -138 -151t-159 -59 q-51 0 -75.5 20t-24.5 74q0 41 29 168l124 557h-143q-12 0 -12 4z" />
<glyph unicode="u" horiz-adv-x="1067" d="M174 709q150 190 309 190q74 0 74 -68q0 -16 -43 -188l-88 -334q-18 -72 -18 -131q0 -76 61 -76q72 0 150.5 94.5t203.5 309.5l60 225q4 16 12 57t13 58.5t23.5 35t45.5 17.5q86 0 86 -55q0 -10 -5 -33t-12.5 -50.5t-9.5 -39.5l-114 -467q-23 -98 -23 -117q0 -35 21 -35 q16 0 55 30t78 73q35 0 47 -35q-150 -190 -285 -190q-76 0 -76 67q0 66 35 189l23 79l-6 4q-125 -182 -211 -260.5t-197 -78.5q-59 0 -98 40.5t-39 122.5q0 61 20 138l90 344q27 98 27 116q0 35 -21 35q-16 0 -60 -29.5t-81 -72.5q-35 0 -47 35z" />
<glyph unicode="v" horiz-adv-x="966" d="M167 669q58 89 134 159.5t125 70.5q55 0 80.5 -57.5t48.5 -208.5l69 -477l9 -5q35 28 128 153q62 83 108 186.5t46 167.5q0 58 -43 123q-11 17 -11 42q0 76 95 76q107 0 108 -97q0 -89 -56 -218q-14 -32 -32.5 -67.5t-33 -61t-38 -61t-34 -50.5t-33.5 -47.5t-25 -35.5 q-69 -98 -171 -211q-67 -75 -88 -75q-43 0 -66 131l-86 500q-20 125 -46.5 125t-58.5 -24t-85 -75q-35 5 -44 37z" />
<glyph unicode="w" horiz-adv-x="1409" d="M167 669q58 89 134 159.5t125 70.5q53 0 78.5 -57.5t50.5 -208.5l70 -436l5 -3q43 66 126 222.5t141 292.5q45 23 100 24q18 -44 51 -182q43 -179 72 -354l15 -4q47 52 92 111q57 77 94 180t37 174q0 58 -43 123q-11 17 -11 42q0 76 95 76q107 0 107 -97q0 -89 -55 -218 q-83 -195 -175 -325q-96 -135 -154 -208q-61 -76 -94 -76q-30 0 -47 120q-31 213 -81 433l-12 -2q-104 -226 -260 -471q-23 -36 -47.5 -58t-37.5 -22q-33 0 -56 131l-86 500q-20 125 -46.5 125t-58.5 -24t-85 -75q-35 5 -44 37z" />
<glyph unicode="x" horiz-adv-x="972" d="M72 57q0 33 21.5 55.5t56.5 22.5q31 0 59 -12q25 -12 55.5 -12t57.5 39l191 281l-73 202q-23 64 -36 86q-13 23 -54 23h-3q-41 0 -134 -44q-21 20 -27 63q60 44 148.5 91t122.5 47q37 0 59.5 -31.5t48.5 -115.5l58 -181l102 148q74 104 132 142t138 38q39 0 71 -22.5 t32 -59.5q0 -35 -21.5 -61.5t-44.5 -26.5q-41 0 -67.5 20.5t-61.5 20.5q-59 0 -96 -55l-156 -230l111 -329q25 -76 49 -76q37 0 102 84q35 -6 50 -39q-86 -145 -226 -145q-49 0 -72.5 24.5t-43.5 89.5l-79 249l-143 -204q-66 -94 -110.5 -126.5t-98.5 -32.5q-41 0 -79.5 20 t-38.5 57z" />
<glyph unicode="y" horiz-adv-x="1030" d="M100 -393q0 45 30 74.5t65 29.5q39 0 71 -28q45 -37 72 -37q23 0 81 64.5t118 162.5q6 13 6 53q0 80 -25 270q-37 283 -82 437q-19 65 -32 86q-13 23 -54 23h-3q-41 0 -134 -44q-21 20 -27 63q60 44 148.5 91t122.5 47q37 0 60.5 -34t45.5 -117q42 -174 59.5 -324.5 t28.5 -361.5l14 -6q23 34 63 96q38 64 66 108l28 44q154 242 155 354q0 58 -43 123q-11 17 -11 42q0 76 95 76q107 0 107 -97q0 -89 -55 -218q-26 -60 -99.5 -184t-117.5 -193l-131 -207l-93 -143q-98 -152 -210 -244t-194 -92q-39 0 -82 20.5t-43 65.5z" />
<glyph unicode="z" horiz-adv-x="892" d="M111 14q10 39 127 172l492 543q-26 -4 -64 -4q-27 0 -103 9t-127 9q-72 0 -105.5 -22.5t-66.5 -91.5q-39 0 -55 16q27 94 87 174t112 80q57 0 217 -27q130 -28 159 -28h2h2q53 0 109 65l59 -30q-6 -8 -112 -138q-68 -84 -260.5 -290.5t-223.5 -241.5q64 0 109 -11.5 t64 -24.5t46.5 -24.5t61.5 -11.5q35 0 59.5 7.5t61.5 38t74 89.5q33 0 51 -20q-70 -158 -126 -215t-126 -57q-90 0 -176 51q-86 53 -156 53q-18 0 -52 -28.5t-65 -80.5q-23 2 -47 13q-18 4 -28 26z" />
<glyph unicode="{" horiz-adv-x="559" d="M168 500l2 10q143 39 180 248l70 387q29 168 98.5 237.5t239.5 73.5l-6 -29q-68 -18 -115 -84q-41 -51 -66 -182l-65 -370q-25 -135 -65 -193.5t-124 -91.5q100 -47 101 -168q0 -51 -17 -143l-59 -336q-10 -68 -10 -109q0 -47 10 -82q27 -66 84 -84l-4 -28 q-176 4 -215 73q-25 43 -25 119q0 45 15 141l63 359q10 57 10 96q0 129 -102 156z" />
<glyph unicode="|" horiz-adv-x="419" d="M82 -477l319 1812h91l-320 -1812h-90z" />
<glyph unicode="}" horiz-adv-x="559" d="M-18 -444l6 28q68 18 114 84q41 57 66 182l63 371q25 135 66 194.5t125 92.5q-100 43 -100 166q0 55 16 143l57 336q12 65 13 111q0 49 -13 79q-12 33 -30.5 52.5t-27.5 22.5t-26 9l6 29q176 -4 215 -74q23 -45 23 -118q0 -63 -14 -142l-64 -356q-8 -49 -8 -98 q0 -129 100 -156v-10q-143 -39 -182 -246l-68 -389q-31 -168 -98 -238q-74 -70 -239 -73z" />
<glyph unicode="~" horiz-adv-x="919" d="M129 428q39 102 128 182t179 80q47 0 140.5 -66.5t138.5 -66.5q53 0 118.5 34t108.5 103l33 -12q-47 -100 -110.5 -159.5t-103.5 -73t-75 -13.5q-55 0 -142 66.5t-141 66.5q-57 0 -130.5 -41t-118.5 -106z" />
<glyph unicode="&#xa1;" horiz-adv-x="464" d="M61 -365q0 12 5 41q14 76 59 203t63 193q29 98 51.5 184t34 133t13.5 53q10 41 37 41q23 0 22 -20v-4q0 -16 -15.5 -157.5t-21.5 -229.5q-4 -55 -4 -138v-92q0 -84 -12 -166q-14 -76 -55 -112.5t-84 -36.5q-39 0 -66 27.5t-27 80.5zM270 786q0 12 2 21q8 45 45 76.5 t82 31.5q41 0 67 -25.5t26 -66.5q-1 -12 -3 -16q-8 -45 -44.5 -78t-82.5 -33q-39 0 -65.5 26t-26.5 64z" />
<glyph unicode="&#xa2;" horiz-adv-x="897" d="M190 451q0 134 45.5 250t123.5 199q54 58 128.5 96t140.5 46l29 154h70l-30 -153q65 -5 106.5 -24t58 -52t21 -57.5t4.5 -61.5t-32 -64.5t-75 -27.5q-25 0 -40 19.5t-15 46t10 43t10 38.5q0 62 -60 75l-142 -730q114 13 239 154q14 0 27.5 -9.5t17.5 -24.5 q-140 -196 -307 -235l-31 -158h-69l29 150q-127 0 -197 98q-61 86 -62 228zM358 496q0 -137 52 -203q24 -33 63 -43l142 726q-109 -24 -183 -152.5t-74 -327.5z" />
<glyph unicode="&#xa3;" horiz-adv-x="897" d="M39 14q12 61 117 111q18 13 41 33q127 111 182 387l10 53h-135l16 82h134l4 16q45 227 225 375q125 106 278 107q49 0 98.5 -22.5t39.5 -68.5q-6 -37 -33 -57t-64 -20q-31 0 -59 37q-45 45 -88 45q-70 0 -137.5 -86t-92.5 -211l-22 -115h266l-14 -82h-268l-2 -10 q-57 -309 -207 -408q-2 -2 -6.5 -4t-5.5 -3q11 1 20 1q129 0 207 -57q49 -39 108 -39q49 0 111.5 24.5t105.5 71.5l33 -27q-94 -172 -303 -172q-80 0 -182 66q-84 53 -142 53q-86 0 -96 -53q-6 -37 -35.5 -56.5t-60.5 -19.5q-20 0 -33.5 15.5t-9.5 33.5z" />
<glyph unicode="&#xa4;" horiz-adv-x="897" d="M106 299l125 88q-47 76 -47 162q0 29 6 63q25 129 121 226l-90 84l90 79l74 -102q115 72 233 72q121 0 209 -76l115 113l66 -84l-129 -90q43 -68 43 -154q0 -34 -7 -68q-23 -125 -112 -221l90 -90l-88 -78l-76 107q-112 -76 -237 -76q-123 0 -209 74l-107 -111zM309 555 q0 -94 53.5 -154.5t145.5 -60.5q102 0 183 80t102 192q4 37 4 56q0 94 -53.5 155.5t-137.5 61.5q-104 0 -187.5 -80t-103.5 -191q-6 -31 -6 -59z" />
<glyph unicode="&#xa5;" horiz-adv-x="897" d="M150 260l16 80h269l25 129h-270l17 82h257l-136 475q-14 49 -33 71.5t-57 22.5h-15q-18 6 -16 17l6 37l4 4q33 -6 186 -7q133 0 179 7l2 -4l-6 -35q-4 -18 -19 -19h-27q-49 0 -55 -26q-2 -12 10 -64l123 -436l277 436q31 55 33 66q4 14 -7.5 20t-38.5 6h-30q-14 0 -10 15 l8 37l2 4q49 -6 160 -7q90 0 147 7l4 -4l-6 -35q-4 -16 -23 -17h-14q-82 0 -141 -96l-304 -475h269l-16 -82h-294l-25 -129h294l-16 -80h-294l-22 -113q-10 -47 12.5 -68.5t81.5 -21.5h56q16 0 12 -16l-6 -39l-6 -4q-176 4 -256 4l-267 -4l-2 4l7 39q4 16 20 16h53 q113 0 129 90l22 113h-269z" />
<glyph unicode="&#xa6;" horiz-adv-x="419" d="M92 -412l131 742h101l-131 -742h-101zM279 639l131 741h100l-131 -741h-100z" />
<glyph unicode="&#xa7;" horiz-adv-x="968" d="M167 -172q0 40 21.5 72t71.5 32q61 0 66 -84q4 -68 24.5 -102.5t81.5 -34.5q85 0 147.5 62.5t62.5 152.5q0 111 -138 195q-8 5 -47 27.5t-52.5 31t-47 32t-48 38.5t-38 42t-33.5 51t-19 56.5t-9 67.5q0 37 8.5 77t31 93t72 109.5t120.5 105.5q-58 79 -58 166 q0 138 97.5 234t270.5 96q123 0 191.5 -56.5t68.5 -123.5q0 -105 -86 -105q-68 0 -72 84q-4 68 -26.5 102.5t-84.5 34.5q-86 0 -146 -52.5t-60 -140.5q0 -59 35 -116.5t106 -100.5q8 -5 47 -27.5t52 -31t47 -32t48 -38.5t38 -41.5t34 -50.5t18.5 -57t8.5 -68q0 -38 -8 -77.5 t-29.5 -92.5t-70.5 -109t-119 -104q52 -68 52 -148q0 -153 -109.5 -251t-270.5 -98q-122 0 -185.5 55.5t-63.5 124.5zM343 580q0 -49 16.5 -89.5t54 -77t65 -57.5t81.5 -57q10 -7 15 -10q81 -53 129 -100q64 45 98.5 96.5t34.5 129.5q0 49 -16.5 90t-54 77.5t-65.5 57.5 t-82 57q-10 7 -15 10q-75 49 -124 100q-45 -33 -69.5 -56.5t-46 -68.5t-21.5 -102z" />
<glyph unicode="&#xa8;" horiz-adv-x="768" d="M317 1157q0 45 35 77t76 32q33 0 55.5 -21.5t22.5 -54.5q0 -47 -36 -79t-75 -32q-35 0 -56.5 21.5t-21.5 56.5zM647 1157q0 47 35 79t76 32q33 0 55.5 -22.5t22.5 -55.5q0 -45 -35 -77t-76 -32q-33 0 -55.5 21.5t-22.5 54.5z" />
<glyph unicode="&#xa9;" horiz-adv-x="1296" d="M70 626.5q0 239.5 170 408.5t409.5 169t408.5 -169t169 -408.5t-169 -409.5t-408.5 -170t-409.5 170t-170 409.5zM133 627q0 -213 150.5 -363.5t365.5 -150.5q213 0 363.5 150.5t150.5 363.5t-150.5 363.5t-363.5 150.5q-215 0 -365.5 -150.5t-150.5 -363.5zM344 629 q0 119 86 212t223 93q80 0 133.5 -14.5t77.5 -14.5l25 -160l-55 -8q-8 43 -14.5 63.5t-24 45t-52 35t-88.5 10.5q-74 0 -135 -61.5t-61 -204.5q0 -109 53 -182.5t154 -73.5q115 0 186 104l43 -29q-35 -55 -96.5 -93t-139.5 -38q-141 0 -228 93.5t-87 222.5z" />
<glyph unicode="&#xaa;" horiz-adv-x="565" d="M250 842q0 10 4 35q29 123 238 176l118 30q10 41 11 82q0 88 -74 88q-106 0 -117 -55q-4 -16 -4 -20v-7q2 -2 2 -8q0 -10 -2 -16q-4 -14 -19.5 -28.5t-39.5 -14.5q-41 0 -41 37q0 2 1 7t1 7q12 57 89 103.5t142 46.5q160 0 160 -150q0 -43 -10 -84l-35 -153 q-14 -59 -15 -91q0 -27 15 -26q10 0 24 10l11 -33q-46 -45 -99 -45q-31 0 -47 21.5t-16 50.5q0 6 2 8q-61 -47 -98 -63.5t-82 -16.5q-53 0 -86 30t-33 79zM352 856q0 -57 70 -57q49 0 137 67l39 162q-127 -33 -179 -64.5t-65 -80.5q-2 -10 -2 -27z" />
<glyph unicode="&#xab;" horiz-adv-x="950" d="M184 424l6 33l50 32q176 123 407 345l47 -50q-207 -238 -340 -344q94 -117 195 -344l-70 -49q-143 231 -260 344q-23 23 -35 33zM520 424l6 33l49 32q176 123 408 345l45 -50q-207 -238 -340 -344q94 -117 195 -344l-68 -49q-143 231 -260 344q-23 23 -35 33z" />
<glyph unicode="&#xac;" horiz-adv-x="1146" d="M178 731l17 90h1048l-96 -549h-109l80 459h-940z" />
<glyph unicode="&#xad;" horiz-adv-x="716" d="M158 512q2 4 2 6q4 25 25.5 50.5t37.5 25.5h469q23 0 23 -25v-12q-4 -18 -27 -46t-41 -28h-465q-25 0 -24 29z" />
<glyph unicode="&#xae;" horiz-adv-x="1296" d="M70 626.5q0 239.5 170 408.5t409.5 169t408.5 -169t169 -408.5t-169 -409.5t-408.5 -170t-409.5 170t-170 409.5zM133 627q0 -213 150.5 -363.5t365.5 -150.5q213 0 363.5 150.5t150.5 363.5t-150.5 363.5t-363.5 150.5q-215 0 -365.5 -150.5t-150.5 -363.5zM424 342v25 q0 10 20 10h25q16 0 16 16v457q0 23 -8 22l-33 -2q-20 2 -20 13v22q72 10 235 10q104 0 149.5 -47t45.5 -106q0 -47 -29.5 -86t-58.5 -54l-29 -16l99 -168q37 -63 82 -63v-27q-27 -8 -48 -8q-90 0 -127 78l-98 162q-10 8 -55 8v-195q0 -16 14 -16h25q23 0 22 -12v-23 q-86 4 -114 4zM590 631q33 0 54.5 3t49 14t43 40t15.5 74q0 53 -27 86t-78 33q-27 0 -57 -7v-243z" />
<glyph unicode="&#xaf;" horiz-adv-x="813" d="M315 1106q0 4 2 8q4 20 20.5 40t35.5 20h499q25 0 25 -23v-6q-4 -18 -22.5 -40t-36.5 -22h-502q-20 0 -21 23z" />
<glyph unicode="&#xb0;" horiz-adv-x="546" d="M281 1178q0 11 4 36q14 84 84.5 143.5t154.5 59.5q74 0 122 -47t48 -121q0 -23 -2 -35q-16 -84 -85.5 -144t-153.5 -60q-76 0 -124 47t-48 121zM348 1184q0 -49 31 -83t84 -34q59 0 104.5 44t57.5 101q0 4 1 13.5t1 13.5q0 49 -29 86t-84 37q-61 0 -106.5 -45t-55.5 -105 q-4 -20 -4 -28z" />
<glyph unicode="&#xb1;" horiz-adv-x="1079" d="M141 37l19 100h809l-19 -100h-809zM240 598l18 100h354l64 357h100l-61 -357h352l-16 -100h-355l-61 -354h-103l64 354h-356z" />
<glyph unicode="&#xb2;" horiz-adv-x="628" d="M238 745q20 113 235 261q90 61 129 107t53 124q4 20 4 31q0 47 -27.5 69.5t-60.5 22.5q-113 0 -120 -60q-2 -10 -1 -25t-1 -24q-4 -23 -26 -36t-38 -13q-18 0 -32.5 12.5t-14.5 28.5q0 6 2 8q10 53 75.5 105.5t174.5 52.5q80 0 135 -31.5t55 -101.5q0 -23 -4 -37 q-12 -66 -66.5 -121t-162.5 -123q-154 -96 -170 -184h166q70 0 143 137l47 -10q-41 -90 -74 -193h-421z" />
<glyph unicode="&#xb3;" horiz-adv-x="628" d="M236 805q0 18 20 31.5t39 13.5q27 0 47 -29q23 -37 94 -37q49 0 110.5 38t80.5 130q2 12 2 31q0 100 -137 100q-10 0 -43 -4l6 49q72 10 120 49.5t60 100.5q0 4 1 11t1 11q0 59 -70 60q-39 0 -78.5 -18.5t-48.5 -53.5q-14 -59 -63 -59q-41 0 -41 37q6 41 77.5 92 t188.5 51q72 0 112 -25.5t40 -72.5q0 -14 -2 -23q-16 -82 -131 -139q51 -6 92 -42t41 -101q0 -12 -4 -37q-20 -104 -120 -170t-224 -66q-59 0 -114.5 21.5t-55.5 50.5z" />
<glyph unicode="&#xb4;" horiz-adv-x="698" d="M383 1132.5q0 22.5 20 49.5l209 258q12 4 31 4q61 0 92 -37q8 -8 13 -10v-23l-275 -223q-49 -41 -65 -41q-25 0 -25 22.5z" />
<glyph unicode="&#xb5;" horiz-adv-x="993" d="M14 -375q0 41 49.5 170t63.5 189q6 25 19.5 124t27.5 166l102 457q4 14 9.5 46t9.5 48.5t13 36t24.5 28.5t38.5 9q86 0 86 -55q0 -4 -27 -123l-96 -420q-51 -219 88 -219q68 0 150.5 103.5t209.5 320.5l60 225q4 16 12 57t13 58.5t23.5 35t45.5 17.5q86 0 86 -55 q0 -10 -5 -33t-12.5 -50.5t-9.5 -39.5l-114 -467q-23 -98 -23 -117q0 -35 21 -35q16 0 55 30t78 73q35 0 47 -35q-150 -190 -285 -190q-76 0 -76 67q0 66 35 189l23 79l-6 4q-125 -182 -211 -260.5t-197 -78.5q-57 0 -86 47q-25 0 -29 -19q-14 -59 -14 -153q0 -23 1 -64 t1 -59q0 -117 -37 -164t-84 -47q-25 0 -52.5 29.5t-27.5 74.5z" />
<glyph unicode="&#xb6;" horiz-adv-x="1232" d="M205 788q0 59 8 111q35 195 163 309.5t329 114.5q90 0 202.5 -5t128.5 -5l144 6l227 4l-8 -43q-4 -14 -15 -14h-61q-51 0 -70.5 -26t-31.5 -101l-252 -1434q-8 -41 -8 -72q0 -33 14 -43t51 -12h61q12 0 9 -14l-9 -43h-671l8 43q2 14 14 14h60q51 2 69.5 25.5t32.5 103.5 l133 758q-53 -25 -162 -25q-49 0 -96 9.5t-97 35t-87 63.5t-61.5 100.5t-24.5 139.5zM715 -356q0 -68 43 -68q41 0 58.5 27.5t31.5 99.5l254 1436q6 43 6 67q0 35 -11.5 44.5t-33.5 11.5q-31 0 -51.5 -21.5t-26.5 -44t-12 -63.5l-252 -1426q-6 -31 -6 -63z" />
<glyph unicode="&#xb7;" horiz-adv-x="512" d="M254 518q0 43 34 77t77 34t76.5 -34t33.5 -77t-33.5 -76.5t-76.5 -33.5t-77 33.5t-34 76.5z" />
<glyph unicode="&#xb8;" horiz-adv-x="1107" d="M346 -336l29 37q59 -20 114 -20q57 0 101.5 27.5t44.5 74.5q0 25 -20.5 39t-51.5 14q-43 0 -94 -12l-10 12l121 178h69l-76 -118q25 6 54 6q53 0 87 -24.5t34 -72.5q0 -76 -75 -126t-181 -50q-72 0 -146 35z" />
<glyph unicode="&#xb9;" horiz-adv-x="628" d="M285 745l8 43q6 10 16 11h74q25 0 47.5 21.5t30.5 53.5l59 312q4 27 6 42t1 25.5t-5 14.5t-14 4q-47 0 -123 -33l-8 55q135 47 260 115h33l-105 -535q-8 -33 3.5 -54t33.5 -21h57q12 0 11 -11l-8 -43q-106 2 -177 3z" />
<glyph unicode="&#xba;" horiz-adv-x="714" d="M252 879q25 131 115 205.5t221 74.5q141 0 193.5 -76.5t29.5 -191.5q-23 -113 -112 -191.5t-226 -78.5q-115 0 -179.5 73.5t-41.5 184.5zM373 899q-16 -86 15.5 -153.5t117.5 -67.5q57 0 110.5 41t71.5 139q23 121 -11 185.5t-112 64.5q-74 0 -125 -60.5t-67 -148.5z" />
<glyph unicode="&#xbb;" horiz-adv-x="950" d="M125 96q207 238 340 344q-94 117 -195 344l68 50q143 -231 260 -345q23 -23 35 -32l-6 -33l-49 -33q-176 -123 -408 -344zM459 96q207 238 340 344q-94 117 -195 344l70 50q143 -231 260 -345q23 -23 35 -32l-6 -33l-50 -33q-176 -123 -407 -344z" />
<glyph unicode="&#xbc;" horiz-adv-x="1351" d="M201 -70l1083 1178l84 -16l-1081 -1178zM279 645l8 43q4 10 16 10h74q25 0 47 21.5t31 54.5l59 311q4 27 6 42.5t1 25.5t-5 14t-14 4q-47 0 -123 -32l-8 55q135 47 260 115h33l-105 -535q-8 -33 3 -54.5t34 -21.5h57q12 0 11 -10l-9 -43q-106 2 -176 2zM796 61 q0 12 11 33q16 25 27 35q90 109 296 301q47 43 87 64q2 2 28 2q8 0 15.5 -1t14.5 -6.5t5 -13.5l-82 -369h115l-29 -69h-102l-11 -49q-12 -53 6.5 -71.5t77.5 -22.5q8 -33 -14 -60q-61 2 -158 2q-100 0 -161 -2q-4 8 0 27.5t14 32.5q68 4 92.5 19.5t36.5 74.5l10 49h-241 q-37 0 -38 24zM891 106h201l63 287q-225 -221 -264 -287z" />
<glyph unicode="&#xbd;" horiz-adv-x="1351" d="M160 -70l1083 1178l84 -16l-1081 -1178zM283 645l8 43q4 10 16 10h74q25 0 47.5 21.5t30.5 54.5l59 311q4 27 6 42.5t1 25.5t-5 14t-14 4q-47 0 -123 -32l-8 55q135 47 260 115h33l-105 -535q-8 -33 3.5 -54.5t33.5 -21.5h57q12 0 11 -10l-9 -43q-106 2 -176 2zM807 -162 q20 113 235 260q90 61 129 107.5t54 124.5q4 20 4 30q0 47 -27.5 70t-60.5 23q-113 0 -121 -60q-2 -10 -1 -25.5t-1 -23.5q-4 -23 -26 -36t-38 -13q-18 0 -32.5 12t-14.5 29q0 6 2 8q10 53 76 105.5t174 52.5q80 0 135.5 -32t55.5 -101q0 -23 -4 -37q-12 -66 -66.5 -121 t-163.5 -123q-154 -96 -170 -184h166q70 0 143 137l48 -10q-41 -90 -74 -193h-422z" />
<glyph unicode="&#xbe;" horiz-adv-x="1351" d="M201 -70l1083 1178l84 -16l-1081 -1178zM231 700q0 18 20.5 31.5t39.5 13.5q27 0 47 -28q23 -37 94 -37q49 0 110.5 38t80.5 130q2 12 2 31q0 100 -138 100q-10 0 -43 -4l7 49q72 10 120 49.5t60 100.5q0 4 1 11t1 11q0 59 -70 59q-39 0 -79 -18t-48 -53q-14 -59 -63 -60 q-41 0 -41 37q6 41 77.5 92.5t188.5 51.5q72 0 112 -26t40 -73q0 -14 -2 -22q-16 -82 -132 -140q51 -6 92.5 -41.5t41.5 -101.5q0 -12 -5 -37q-20 -104 -119.5 -169.5t-224.5 -65.5q-59 0 -114.5 21.5t-55.5 49.5zM743 65q0 12 11 33q16 25 26 35q90 109 297 301 q47 43 86 64q2 2 29 2q8 0 15 -1t14.5 -6.5t5.5 -13.5l-82 -368h115l-29 -70h-103l-10 -49q-12 -53 6.5 -71.5t77.5 -22.5q8 -33 -14 -60q-61 2 -158 2q-100 0 -162 -2q-4 8 0 27.5t15 32.5q68 4 92.5 19.5t36.5 74.5l10 49h-242q-37 0 -37 24zM838 111h200l64 286 q-225 -221 -264 -286z" />
<glyph unicode="&#xbf;" horiz-adv-x="829" d="M43 -211q0 12 3 35.5t3 28.5q12 76 63.5 143t93.5 100t118 84q98 63 125 103q53 74 65 149l16 90q2 20 29 21q25 0 19 -21l-17 -94q-10 -59 -21.5 -100t-55.5 -107.5t-115 -122.5q-145 -117 -166 -237q-4 -37 -4 -54q0 -86 46 -144t120 -58q86 0 148.5 34.5t70.5 81.5 q6 35 -4 54q-8 18 -5 49q6 33 34 52.5t61 19.5q70 0 69 -66q0 -2 -1 -10t-1 -13q-18 -102 -135 -184q-109 -80 -268 -80q-137 0 -214 66.5t-77 179.5zM494 795q0 4 1 10t1 8q10 45 47 77t82 32q39 0 65.5 -26t26.5 -62q0 -4 -1 -11.5t-1 -9.5q-8 -45 -46 -76.5t-83 -31.5 q-39 0 -65.5 25.5t-26.5 64.5z" />
<glyph unicode="&#xc0;" horiz-adv-x="1366" d="M6 0l6 39q2 16 19 16q72 4 119 35t100 119l645 1065q43 74 80 74q20 0 27.5 -14.5t13.5 -47.5l188 -1110q8 -59 36 -86t87 -33l21 -2q18 0 16 -16l-4 -39l-4 -4q-143 4 -232 4q-113 0 -260 -4l-2 4l4 39q2 16 17 16l57 4q100 8 100 69q0 9 -2 19l-51 347h-409 q-57 0 -76 -35l-172 -297q-15 -25 -15 -48q0 -49 74 -55l55 -4q14 0 13 -16l-4 -39l-7 -4q-143 4 -256 4q-35 0 -182 -4zM581 594q0 -14 48 -14h342l-84 546h-4l-297 -520q-5 -7 -5 -12zM815 1589l178 92l209 -172q23 -18 23 -34q0 -39 -39 -39q-27 0 -82 24z" />
<glyph unicode="&#xc1;" horiz-adv-x="1366" d="M6 0l6 39q2 16 19 16q72 4 119 35t100 119l645 1065q43 74 80 74q20 0 27.5 -14.5t13.5 -47.5l188 -1110q8 -59 36 -86t87 -33l21 -2q18 0 16 -16l-4 -39l-4 -4q-143 4 -232 4q-113 0 -260 -4l-2 4l4 39q2 16 17 16l57 4q100 8 100 69q0 9 -2 19l-51 347h-409 q-57 0 -76 -35l-172 -297q-15 -25 -15 -48q0 -49 74 -55l55 -4q14 0 13 -16l-4 -39l-7 -4q-143 4 -256 4q-35 0 -182 -4zM581 594q0 -14 48 -14h342l-84 546h-4l-297 -520q-5 -7 -5 -12zM786 1458q0 25 43 51l289 172l133 -92l-346 -129q-74 -24 -94 -24q-25 0 -25 22z" />
<glyph unicode="&#xc2;" horiz-adv-x="1366" d="M6 0l6 39q2 16 19 16q72 4 119 35t100 119l645 1065q43 74 80 74q20 0 27.5 -14.5t13.5 -47.5l188 -1110q8 -59 36 -86t87 -33l21 -2q18 0 16 -16l-4 -39l-4 -4q-143 4 -232 4q-113 0 -260 -4l-2 4l4 39q2 16 17 16l57 4q100 8 100 69q0 9 -2 19l-51 347h-409 q-57 0 -76 -35l-172 -297q-15 -25 -15 -48q0 -49 74 -55l55 -4q14 0 13 -16l-4 -39l-7 -4q-143 4 -256 4q-35 0 -182 -4zM581 594q0 -14 48 -14h342l-84 546h-4l-297 -520q-5 -7 -5 -12zM762 1479q121 78 248 192h88q61 -104 162 -192l-43 -43q-115 59 -189 127 q-119 -76 -248 -127z" />
<glyph unicode="&#xc3;" horiz-adv-x="1366" d="M6 0l6 39q2 16 19 16q72 4 119 35t100 119l645 1065q43 74 80 74q20 0 27.5 -14.5t13.5 -47.5l188 -1110q8 -59 36 -86t87 -33l21 -2q18 0 16 -16l-4 -39l-4 -4q-143 4 -232 4q-113 0 -260 -4l-2 4l4 39q2 16 17 16l57 4q100 8 100 69q0 9 -2 19l-51 347h-409 q-57 0 -76 -35l-172 -297q-15 -25 -15 -48q0 -49 74 -55l55 -4q14 0 13 -16l-4 -39l-7 -4q-143 4 -256 4q-35 0 -182 -4zM581 594q0 -14 48 -14h342l-84 546h-4l-297 -520q-5 -7 -5 -12zM684 1448q41 93 88.5 137.5t112.5 44.5t135 -57q52 -45 98 -45q36 0 63.5 22.5 t60.5 83.5l46 -12q-74 -184 -215 -184q-51 0 -120 53q-65 45 -102 45q-39 0 -66.5 -23t-53.5 -75z" />
<glyph unicode="&#xc4;" horiz-adv-x="1366" d="M6 0l6 39q2 16 19 16q72 4 119 35t100 119l645 1065q43 74 80 74q20 0 27.5 -14.5t13.5 -47.5l188 -1110q8 -59 36 -86t87 -33l21 -2q18 0 16 -16l-4 -39l-4 -4q-143 4 -232 4q-113 0 -260 -4l-2 4l4 39q2 16 17 16l57 4q100 8 100 69q0 9 -2 19l-51 347h-409 q-57 0 -76 -35l-172 -297q-15 -25 -15 -48q0 -49 74 -55l55 -4q14 0 13 -16l-4 -39l-7 -4q-143 4 -256 4q-35 0 -182 -4zM581 594q0 -14 48 -14h342l-84 546h-4l-297 -520q-5 -7 -5 -12zM641 1446q0 41 29.5 69.5t68.5 28.5t69 -28.5t30 -69.5t-30 -69.5t-69 -28.5 t-68.5 28.5t-29.5 69.5zM1126 1446q0 41 29 69.5t70 28.5t69.5 -28.5t28.5 -69.5t-28.5 -69.5t-69.5 -28.5t-70 28.5t-29 69.5z" />
<glyph unicode="&#xc5;" horiz-adv-x="1366" d="M6 0l6 39q2 16 19 16q72 4 119 35t100 119l645 1065q10 16 17 28q-58 12 -89.5 58.5t-19.5 107.5q14 70 77.5 120t134.5 50q72 0 115 -49.5t29 -120.5q-11 -53 -52 -96.5t-95 -61.5q1 -5 4 -24l188 -1110q8 -59 36 -86t87 -33l21 -2q18 0 16 -16l-4 -39l-4 -4 q-143 4 -232 4q-113 0 -260 -4l-2 4l4 39q2 16 17 16l57 4q100 8 100 69q0 9 -2 19l-51 347h-409q-57 0 -76 -35l-172 -297q-15 -25 -15 -48q0 -49 74 -55l55 -4q14 0 13 -16l-4 -39l-7 -4q-143 4 -256 4q-35 0 -182 -4zM581 594q0 -14 48 -14h342l-84 546h-4l-297 -520 q-5 -7 -5 -12zM878 1468q-9 -46 12.5 -80t67 -34t81 34.5t44.5 79.5q10 49 -12 82t-67 33q-46 0 -81 -33.5t-45 -81.5z" />
<glyph unicode="&#xc6;" horiz-adv-x="1697" d="M4 0l8 39q2 12 23 16l45 4q55 4 80.5 23.5t75.5 91.5l704 1008q20 37 6 57.5t-47 22.5l-59 4q-16 0 -13 14l9 41l4 2l344 -2h151h437q-14 -158 -19 -315l-59 -11q-6 55 -10.5 82t-16.5 64t-29.5 54t-48 30.5t-73.5 13.5h-197q-33 0 -57.5 -26.5t-30.5 -63.5l-80 -406h201 q49 0 72.5 20.5t43.5 70.5l25 61q8 16 18 16h43q6 0 7 -8q-41 -129 -56 -194q-6 -31 -10 -71t-7 -79t-5 -47l-4 -6h-45q-14 0 -15 14l2 64q-2 47 -19.5 68.5t-64.5 21.5h-200l-101 -522q-12 -72 58 -72h256q102 0 171.5 71.5t129.5 200.5l57 -10q-82 -203 -117 -342h-665 l-254 -4l-4 4l8 37q4 18 18 18l54 4q111 8 124 93l78 393h-350l-283 -406q-27 -39 -31.5 -53t5.5 -19.5t49 -7.5l55 -4q10 0 11 -12l-9 -43l-2 -4q-133 4 -211 4l-178 -4zM653 625h312l108 553q6 43 -2 47z" />
<glyph unicode="&#xc7;" horiz-adv-x="1261" d="M182 494q0 75 15 151q57 297 285.5 500t478.5 203q104 0 183 -21.5t133 -45.5t95 -26q-14 -135 -18 -317l-60 -8q-33 342 -370 342q-63 0 -141 -35t-160 -101.5t-151 -185.5t-97 -266q-17 -87 -17 -173q0 -125 34.5 -222.5t115 -161.5t199.5 -64q137 0 254.5 52.5 t244.5 171.5q29 0 39 -31q-224 -243 -487 -273l-69 -120q26 6 54 6q55 0 89 -27t34 -74q0 -79 -77 -128.5t-176 -49.5q-72 0 -144 35q7 33 31 53q72 -29 113 -28q56 0 89.5 28.5t33.5 75.5q0 49 -55 49q-53 0 -95 -12l-9 12l109 177q-128 1 -227 42.5t-158 113.5t-89 162.5 t-30 195.5z" />
<glyph unicode="&#xc8;" horiz-adv-x="1077" d="M23 0l8 41q4 14 18 14l60 4q57 4 82.5 24.5t35.5 63.5l199 1022q3 16 3 29q0 31 -20 45.5t-67 18.5l-57 4q-16 0 -13 14l9 41l4 4q184 -4 247 -4h498q47 0 94 8q9 0 9 -6q0 -129 -17 -297l-57 -10q-14 121 -48 172t-137 51h-204q-72 0 -86 -70l-82 -430h250q88 0 114 86 l15 52q4 16 18 16h43l6 -8q-34 -123 -43 -185q-18 -88 -26 -178l-11 -6h-43q-16 0 -10 16l4 52q1 10 1 17q0 34 -19.5 47.5t-65.5 13.5h-250l-100 -515q-2 -13 -2 -21q0 -46 61 -46h267q195 0 317 268l59 -10q-25 -59 -139 -342q-156 4 -250 4h-422q-66 0 -249 -4zM567 1583 l178 92l209 -172q23 -19 23 -35q0 -39 -39 -38q-27 0 -82 24z" />
<glyph unicode="&#xc9;" horiz-adv-x="1077" d="M23 0l8 41q4 14 18 14l60 4q57 4 82.5 24.5t35.5 63.5l199 1022q3 16 3 29q0 31 -20 45.5t-67 18.5l-57 4q-16 0 -13 14l9 41l4 4q184 -4 247 -4h498q47 0 94 8q9 0 9 -6q0 -129 -17 -297l-57 -10q-14 121 -48 172t-137 51h-204q-72 0 -86 -70l-82 -430h250q88 0 114 86 l15 52q4 16 18 16h43l6 -8q-34 -123 -43 -185q-18 -88 -26 -178l-11 -6h-43q-16 0 -10 16l4 52q1 10 1 17q0 34 -19.5 47.5t-65.5 13.5h-250l-100 -515q-2 -13 -2 -21q0 -46 61 -46h267q195 0 317 268l59 -10q-25 -59 -139 -342q-156 4 -250 4h-422q-66 0 -249 -4z M538.5 1447.5q0.5 22.5 43.5 51.5l288 172l134 -92l-347 -129q-74 -25 -94 -25q-25 0 -24.5 22.5z" />
<glyph unicode="&#xca;" horiz-adv-x="1077" d="M23 0l8 41q4 14 18 14l60 4q57 4 82.5 24.5t35.5 63.5l199 1022q3 16 3 29q0 31 -20 45.5t-67 18.5l-57 4q-16 0 -13 14l9 41l4 4q184 -4 247 -4h498q47 0 94 8q9 0 9 -6q0 -129 -17 -297l-57 -10q-14 121 -48 172t-137 51h-204q-72 0 -86 -70l-82 -430h250q88 0 114 86 l15 52q4 16 18 16h43l6 -8q-34 -123 -43 -185q-18 -88 -26 -178l-11 -6h-43q-16 0 -10 16l4 52q1 10 1 17q0 34 -19.5 47.5t-65.5 13.5h-250l-100 -515q-2 -13 -2 -21q0 -46 61 -46h267q195 0 317 268l59 -10q-25 -59 -139 -342q-156 4 -250 4h-422q-66 0 -249 -4zM573 1468 q121 78 248 193h88q61 -104 162 -193l-43 -43q-115 59 -188 127q-119 -76 -248 -127z" />
<glyph unicode="&#xcb;" horiz-adv-x="1077" d="M23 0l8 41q4 14 18 14l60 4q57 4 82.5 24.5t35.5 63.5l199 1022q3 16 3 29q0 31 -20 45.5t-67 18.5l-57 4q-16 0 -13 14l9 41l4 4q184 -4 247 -4h498q47 0 94 8q9 0 9 -6q0 -129 -17 -297l-57 -10q-14 121 -48 172t-137 51h-204q-72 0 -86 -70l-82 -430h250q88 0 114 86 l15 52q4 16 18 16h43l6 -8q-34 -123 -43 -185q-18 -88 -26 -178l-11 -6h-43q-16 0 -10 16l4 52q1 10 1 17q0 34 -19.5 47.5t-65.5 13.5h-250l-100 -515q-2 -13 -2 -21q0 -46 61 -46h267q195 0 317 268l59 -10q-25 -59 -139 -342q-156 4 -250 4h-422q-66 0 -249 -4zM559 1503 q0 2 1 7.5t1 9.5q8 39 41 65.5t72 26.5q33 0 54.5 -20.5t21.5 -53.5q0 -2 -1 -8t-1 -10q-8 -39 -40 -66t-71 -27q-33 0 -55.5 21.5t-22.5 54.5zM948 1505q0 11 2 17q8 37 40 64.5t71 27.5q33 0 54.5 -21.5t21.5 -52.5q0 -14 -2 -18q-6 -39 -38 -67t-71 -28q-35 0 -56.5 21.5 t-21.5 56.5z" />
<glyph unicode="&#xcc;" horiz-adv-x="573" d="M39 29.5q2 19.5 8 25.5l64 6q61 6 89.5 28t37.5 67l198 1009q8 47 -11 67.5t-79 27.5l-70 6q-4 8 -0.5 30.5t7.5 28.5q180 -4 260 -4q61 0 245 4q6 -14 4.5 -33.5t-8.5 -25.5l-63 -6q-61 -6 -89 -28t-38 -67l-199 -1009q-10 -47 10.5 -67.5t79.5 -27.5l70 -6 q4 -8 1 -30.5t-7 -28.5q-180 4 -260 4q-61 0 -246 -4q-6 14 -4 33.5zM268 1579l178 92l209 -172q23 -19 23 -35q0 -39 -39 -39q-27 0 -82 25z" />
<glyph unicode="&#xcd;" horiz-adv-x="573" d="M39 29.5q2 19.5 8 25.5l64 6q61 6 89.5 28t37.5 67l198 1009q8 47 -11 67.5t-79 27.5l-70 6q-4 8 -0.5 30.5t7.5 28.5q180 -4 260 -4q61 0 245 4q6 -14 4.5 -33.5t-8.5 -25.5l-63 -6q-61 -6 -89 -28t-38 -67l-199 -1009q-10 -47 10.5 -67.5t79.5 -27.5l70 -6 q4 -8 1 -30.5t-7 -28.5q-180 4 -260 4q-61 0 -246 -4q-6 14 -4 33.5zM403 1447.5q0 22.5 43 51.5l289 172l133 -92l-346 -129q-74 -25 -94 -25q-25 0 -25 22.5z" />
<glyph unicode="&#xce;" horiz-adv-x="573" d="M39 29.5q2 19.5 8 25.5l64 6q61 6 89.5 28t37.5 67l198 1009q8 47 -11 67.5t-79 27.5l-70 6q-4 8 -0.5 30.5t7.5 28.5q180 -4 260 -4q61 0 245 4q6 -14 4.5 -33.5t-8.5 -25.5l-63 -6q-61 -6 -89 -28t-38 -67l-199 -1009q-10 -47 10.5 -67.5t79.5 -27.5l70 -6 q4 -8 1 -30.5t-7 -28.5q-180 4 -260 4q-61 0 -246 -4q-6 14 -4 33.5zM317 1468q121 78 248 193h88q61 -104 162 -193l-43 -43q-115 59 -188 127q-119 -76 -248 -127z" />
<glyph unicode="&#xcf;" horiz-adv-x="573" d="M39 29.5q2 19.5 8 25.5l64 6q61 6 89.5 28t37.5 67l198 1009q8 47 -11 67.5t-79 27.5l-70 6q-4 8 -0.5 30.5t7.5 28.5q180 -4 260 -4q61 0 245 4q6 -14 4.5 -33.5t-8.5 -25.5l-63 -6q-61 -6 -89 -28t-38 -67l-199 -1009q-10 -47 10.5 -67.5t79.5 -27.5l70 -6 q4 -8 1 -30.5t-7 -28.5q-180 4 -260 4q-61 0 -246 -4q-6 14 -4 33.5zM299 1503q0 2 1 7.5t1 9.5q8 39 41 65.5t72 26.5q33 0 54 -20.5t21 -53.5q0 -2 -1 -8t-1 -10q-8 -39 -39.5 -66t-70.5 -27q-33 0 -55.5 21.5t-22.5 54.5zM688 1505q0 11 2 17q8 37 40 64.5t71 27.5 q33 0 54.5 -21.5t21.5 -52.5q0 -14 -3 -18q-6 -39 -37.5 -67t-70.5 -28q-33 0 -55.5 21.5t-22.5 56.5z" />
<glyph unicode="&#xd0;" horiz-adv-x="1366" d="M33 0l6 37q4 18 18 18l60 4q104 6 121 93l85 436h-186l17 80h184l98 503q4 23 5 37q0 30 -19.5 40t-71.5 14l-53 4q-18 0 -14 16l6 39l6 4q184 -4 248 -4q35 0 144.5 2t176.5 2q245 0 401 -158.5t156 -397.5q0 -69 -14 -138q-35 -180 -120 -310.5t-197.5 -198t-223 -97 t-225.5 -29.5q-117 0 -224.5 2t-129.5 2q-66 0 -250 -4zM392 123q0 -34 40.5 -45.5t161.5 -11.5q522 0 623 516q18 94 18 184q0 101 -24.5 185.5t-76 154.5t-143 109.5t-215.5 39.5q-84 0 -127 -15t-53 -64l-99 -508h212l-17 -80h-211l-86 -438q-3 -16 -3 -27z" />
<glyph unicode="&#xd1;" horiz-adv-x="1363" d="M25 0l4 37q2 16 28 18l52 4q106 8 131 121l184 946q-2 45 -33 90.5t-76 49.5q-31 4 -28 16l4 39l6 4h270l498 -909q63 -113 78 -113q12 0 24 62l152 776q3 17 3 31q0 83 -87 90l-49 4q-27 2 -25 16l6 39l4 4q184 -4 226 -4q29 0 213 4l4 -4l-4 -39q-2 -14 -19 -16l-55 -4 q-106 -8 -129 -121l-213 -1098q-14 -63 -53 -63q-47 0 -70 49l-510 903q-41 68 -55 67q-18 0 -39 -100l-139 -719q-3 -16 -4 -31q0 -82 88 -90l51 -4q14 -2 12 -16l-4 -39l-4 -4q-184 4 -213 4q-41 0 -225 -4zM661 1438q41 93 88.5 137.5t112.5 44.5t136 -57q51 -45 97 -45 q36 0 63.5 22t60.5 84l47 -12q-74 -184 -216 -185q-51 0 -120 54q-65 45 -102 45q-39 0 -66 -23.5t-54 -75.5z" />
<glyph unicode="&#xd2;" horiz-adv-x="1368" d="M179 480q0 74 16 155q59 303 268 508t469 205q227 0 371 -143t144 -380q0 -74 -15 -151q-59 -309 -266.5 -501.5t-487.5 -192.5q-223 0 -361 134.5t-138 365.5zM365 499q0 -208 105 -329t261 -121q174 0 316.5 159t195.5 427q21 110 21 205q0 213 -100 325.5t-271 112.5 q-154 0 -303.5 -155.5t-206.5 -452.5q-18 -90 -18 -171zM623 1579l178 92l209 -172q22 -19 22 -35q0 -39 -39 -39q-27 0 -82 25z" />
<glyph unicode="&#xd3;" horiz-adv-x="1368" d="M179 480q0 74 16 155q59 303 268 508t469 205q227 0 371 -143t144 -380q0 -74 -15 -151q-59 -309 -266.5 -501.5t-487.5 -192.5q-223 0 -361 134.5t-138 365.5zM365 499q0 -208 105 -329t261 -121q174 0 316.5 159t195.5 427q21 110 21 205q0 213 -100 325.5t-271 112.5 q-154 0 -303.5 -155.5t-206.5 -452.5q-18 -90 -18 -171zM755.5 1447.5q0.5 22.5 43.5 51.5l288 172l134 -92l-347 -129q-74 -25 -94 -25q-25 0 -24.5 22.5z" />
<glyph unicode="&#xd4;" horiz-adv-x="1368" d="M179 480q0 74 16 155q59 303 268 508t469 205q227 0 371 -143t144 -380q0 -74 -15 -151q-59 -309 -266.5 -501.5t-487.5 -192.5q-223 0 -361 134.5t-138 365.5zM365 499q0 -208 105 -329t261 -121q174 0 316.5 159t195.5 427q21 110 21 205q0 213 -100 325.5t-271 112.5 q-154 0 -303.5 -155.5t-206.5 -452.5q-18 -90 -18 -171zM690 1468q121 78 248 193h88q61 -104 162 -193l-43 -43q-115 59 -189 127q-119 -76 -247 -127z" />
<glyph unicode="&#xd5;" horiz-adv-x="1368" d="M179 480q0 74 16 155q59 303 268 508t469 205q227 0 371 -143t144 -380q0 -74 -15 -151q-59 -309 -266.5 -501.5t-487.5 -192.5q-223 0 -361 134.5t-138 365.5zM365 499q0 -208 105 -329t261 -121q174 0 316.5 159t195.5 427q21 110 21 205q0 213 -100 325.5t-271 112.5 q-154 0 -303.5 -155.5t-206.5 -452.5q-18 -90 -18 -171zM655 1438q41 93 88.5 137.5t112.5 44.5t136 -57q51 -45 97 -45q36 0 63.5 22t60.5 84l47 -12q-74 -184 -216 -185q-51 0 -120 54q-65 45 -102 45q-39 0 -66.5 -23.5t-53.5 -75.5z" />
<glyph unicode="&#xd6;" horiz-adv-x="1368" d="M179 480q0 74 16 155q59 303 268 508t469 205q227 0 371 -143t144 -380q0 -74 -15 -151q-59 -309 -266.5 -501.5t-487.5 -192.5q-223 0 -361 134.5t-138 365.5zM365 499q0 -208 105 -329t261 -121q174 0 316.5 159t195.5 427q21 110 21 205q0 213 -100 325.5t-271 112.5 q-154 0 -303.5 -155.5t-206.5 -452.5q-18 -90 -18 -171zM428 1446q0 41 29.5 69.5t68.5 28.5t69 -28.5t30 -69.5t-30 -69.5t-69 -28.5t-68.5 28.5t-29.5 69.5zM1266 1446q0 41 28.5 69.5t69.5 28.5t69.5 -28.5t28.5 -69.5t-28.5 -69.5t-69.5 -28.5t-69.5 28.5t-28.5 69.5z " />
<glyph unicode="&#xd7;" horiz-adv-x="1079" d="M256 221l295 250l-207 252l84 72l207 -252l297 252l57 -72l-295 -252l205 -250l-84 -71l-205 249l-295 -249z" />
<glyph unicode="&#xd8;" horiz-adv-x="1368" d="M143 -37l159 167q-123 134 -123 350q0 74 16 155q59 303 268 508t469 205q241 0 384 -157l173 181l51 -51l-179 -188q85 -129 86 -308q0 -74 -15 -151q-59 -309 -266.5 -501.5t-487.5 -192.5q-191 0 -321 100l-160 -168zM365 499q0 -142 53 -248l797 835 q-92 192 -322 192q-154 0 -303.5 -155.5t-206.5 -452.5q-18 -90 -18 -171zM458 186q104 -137 273 -137q174 0 316.5 159t195.5 427q21 110 21 205q1 94 -20 170z" />
<glyph unicode="&#xd9;" horiz-adv-x="1298" d="M250 1282l6 39l6 4q184 -4 248 -4q68 0 252 4l4 -4l-8 -39q-4 -16 -19 -16l-51 -4q-61 -4 -89 -26t-38 -65l-121 -620q-25 -139 -25 -200q0 -112 56 -185q82 -102 213 -103q96 0 172 32t122 78t82 119t52 133t33 142l117 600q3 16 3 29q0 32 -21.5 47t-69.5 19l-54 4 q-16 0 -12 16l8 39l4 4q184 -4 215 -4q33 0 217 4l4 -4l-8 -39q-4 -16 -18 -16l-51 -4q-61 -4 -90 -27t-37 -68l-111 -563q-57 -303 -194 -463.5t-420 -160.5q-51 0 -98.5 8.5t-99 33.5t-89.5 63.5t-62 104t-24 150.5q0 65 14 143l135 688q3 15 3 27q0 31 -21.5 45.5 t-71.5 18.5l-51 4q-16 0 -12 16zM793 1579l178 92l209 -172q22 -19 22 -35q0 -39 -39 -39q-27 0 -82 25z" />
<glyph unicode="&#xda;" horiz-adv-x="1298" d="M250 1282l6 39l6 4q184 -4 248 -4q68 0 252 4l4 -4l-8 -39q-4 -16 -19 -16l-51 -4q-61 -4 -89 -26t-38 -65l-121 -620q-25 -139 -25 -200q0 -112 56 -185q82 -102 213 -103q96 0 172 32t122 78t82 119t52 133t33 142l117 600q3 16 3 29q0 32 -21.5 47t-69.5 19l-54 4 q-16 0 -12 16l8 39l4 4q184 -4 215 -4q33 0 217 4l4 -4l-8 -39q-4 -16 -18 -16l-51 -4q-61 -4 -90 -27t-37 -68l-111 -563q-57 -303 -194 -463.5t-420 -160.5q-51 0 -98.5 8.5t-99 33.5t-89.5 63.5t-62 104t-24 150.5q0 65 14 143l135 688q3 15 3 27q0 31 -21.5 45.5 t-71.5 18.5l-51 4q-16 0 -12 16zM763.5 1447.5q0.5 22.5 43.5 51.5l289 172l133 -92l-346 -129q-75 -25 -95 -25q-25 0 -24.5 22.5z" />
<glyph unicode="&#xdb;" horiz-adv-x="1298" d="M250 1282l6 39l6 4q184 -4 248 -4q68 0 252 4l4 -4l-8 -39q-4 -16 -19 -16l-51 -4q-61 -4 -89 -26t-38 -65l-121 -620q-25 -139 -25 -200q0 -112 56 -185q82 -102 213 -103q96 0 172 32t122 78t82 119t52 133t33 142l117 600q3 16 3 29q0 32 -21.5 47t-69.5 19l-54 4 q-16 0 -12 16l8 39l4 4q184 -4 215 -4q33 0 217 4l4 -4l-8 -39q-4 -16 -18 -16l-51 -4q-61 -4 -90 -27t-37 -68l-111 -563q-57 -303 -194 -463.5t-420 -160.5q-51 0 -98.5 8.5t-99 33.5t-89.5 63.5t-62 104t-24 150.5q0 65 14 143l135 688q3 15 3 27q0 31 -21.5 45.5 t-71.5 18.5l-51 4q-16 0 -12 16zM739 1468q121 78 248 193h88q61 -104 162 -193l-43 -43q-115 59 -188 127q-119 -76 -248 -127z" />
<glyph unicode="&#xdc;" horiz-adv-x="1298" d="M257 270q-17 88 11 213l131 670q10 55 -24.5 81t-91.5 32q-18 0 -15 18l8 37l5 4q143 -4 229 -4q66 0 164 4q23 0 16 -31q-4 -23 -31 -28q-88 -23 -106 -129l-115 -586q-16 -90 -22 -139.5t5 -122t50 -123.5q78 -102 213 -103q117 0 203 44.5t136 125t75.5 156.5 t46.5 178l104 539q27 143 -51 160q-31 6 -24 26q4 33 36 33q98 -4 125 -4q51 0 199 4l2 -4l-6 -37q-4 -16 -53 -18q-106 -8 -134 -133l-102 -529q-29 -147 -70 -252.5t-111.5 -193.5t-179 -133t-255.5 -45q-57 0 -111.5 12t-113 45t-92.5 89t-51 144zM709 1448 q0 39 28.5 67.5t67.5 28.5t67.5 -28.5t28.5 -67.5t-28.5 -67.5t-67.5 -28.5t-67.5 28.5t-28.5 67.5zM1004 1448q0 39 28.5 67.5t67.5 28.5t67.5 -28.5t28.5 -67.5t-28.5 -67.5t-67.5 -28.5t-67.5 28.5t-28.5 67.5z" />
<glyph unicode="&#xdd;" horiz-adv-x="1130" d="M252 1295.5q-2 21.5 2 29.5q115 -4 213 -4q59 0 219 4q4 -6 2 -28.5t-6 -30.5l-68 -6q-49 -4 -55 -21.5t12 -58.5l174 -494h9l323 494q31 45 29 60t-39 20l-66 6q-4 6 -2 29.5t7 29.5q156 -4 186 -4q45 0 164 4q4 -6 1 -28.5t-9 -30.5l-54 -4q-49 -4 -75.5 -27t-65.5 -78 l-358 -522q-16 -27 -29 -86l-78 -393q-10 -47 10.5 -67.5t79.5 -27.5l70 -6q4 -8 1 -30.5t-7 -28.5q-180 4 -260 4q-61 0 -246 -4q-6 14 -4 33.5t8 25.5l63 6q113 10 127 95l72 374q7 34 7 52q0 19 -7 36l-188 502q-33 84 -53.5 109.5t-71.5 32.5l-31 4q-4 8 -6 29.5z M806.5 1447.5q0.5 22.5 43.5 51.5l289 172l133 -92l-346 -129q-75 -25 -95 -25q-25 0 -24.5 22.5z" />
<glyph unicode="&#xde;" horiz-adv-x="1026" d="M16 0l9 39q4 16 18 16l53 4q61 4 88 24.5t37 63.5l201 1031q8 45 -12.5 62t-79.5 22l-51 4q-16 0 -13 16l8 39l5 2q170 -2 247 -2l254 2l2 -2l-6 -39q-4 -16 -18 -16l-56 -4q-59 -4 -86.5 -22.5t-35.5 -61.5l-21 -115q70 4 176 4q104 0 180 -23.5t113 -62.5t59.5 -87 t18.5 -97t-8 -95q-12 -63 -49 -126.5t-98.5 -125t-163 -100.5t-226.5 -39q-109 0 -145 15l-35 -179q-8 -47 11.5 -65.5t76.5 -22.5l53 -4q16 0 13 -16l-9 -39l-4 -4q-170 4 -248 4l-254 -4zM426 385q27 -10 137 -10q297 0 361 327q33 166 -31 234t-172 68q-98 0 -178 -23z " />
<glyph unicode="&#xdf;" horiz-adv-x="1112" d="M-168 -389q0 26 18.5 45.5t52.5 19.5q56 0 87 -50q11 -17 16.5 -24.5t16 -14.5t22.5 -7q27 0 55.5 25.5t47.5 64.5q16 35 32.5 89.5t33.5 137t26 129.5t26.5 148.5t20.5 114.5q68 377 90 487q0 16 -4 19.5t-21 3.5h-84q-16 0 -16 14q0 20 14.5 43t46.5 23q80 0 109 98 q123 453 491 453q129 0 192.5 -55.5t63.5 -133.5q0 -193 -319 -399v-4q59 -47 93 -78t80 -82t67.5 -110.5t21.5 -125.5q0 -160 -121 -311t-295 -151q-172 0 -172 135t84 135q57 0 57.5 -41t-22 -73t-22.5 -44q0 -45 92 -45q74 0 142.5 121t68.5 246q0 211 -205 397l6 27 q31 20 67.5 51t90 85t88.5 124.5t35 142.5q0 123 -125 123q-61 0 -110.5 -28.5t-81.5 -67.5t-58.5 -107.5t-41 -121t-32.5 -134.5l-31 -139q-23 -106 -70.5 -341t-72.5 -343.5t-72 -244.5t-98 -210q-84 -115 -209 -114q-95 0 -133.5 30t-38.5 68z" />
<glyph unicode="&#xe0;" horiz-adv-x="995" d="M160 256q0 233 173 438t343 205q53 0 164 -12q16 -4 143 -4l-141 -637q-20 -98 -21 -115q0 -29 25 -29q35 0 115 109q27 0 47 -33q-90 -199 -263 -198q-84 0 -83 92q0 45 20 112l27 86l-4 4q-199 -295 -347 -294q-199 0 -198 276zM324 289q0 -197 90 -197q49 0 148 110 t175 247q23 57 41.5 144t24.5 145l6 59q-61 39 -127 39q-133 0 -245.5 -186.5t-112.5 -360.5zM583 1309l8 22q72 47 143 47q14 0 30 -4l91 -258q7 -24 2 -49q-2 -8 -12.5 -15.5t-22.5 -7.5q-16 0 -51 41z" />
<glyph unicode="&#xe1;" horiz-adv-x="995" d="M160 256q0 233 173 438t343 205q53 0 164 -12q16 -4 143 -4l-141 -637q-20 -98 -21 -115q0 -29 25 -29q35 0 115 109q27 0 47 -33q-90 -199 -263 -198q-84 0 -83 92q0 45 20 112l27 86l-4 4q-199 -295 -347 -294q-199 0 -198 276zM324 289q0 -197 90 -197q49 0 148 110 t175 247q23 57 41.5 144t24.5 145l6 59q-61 39 -127 39q-133 0 -245.5 -186.5t-112.5 -360.5zM514 1063q4 21 35 57l205 244q12 4 29 4q63 0 103 -47l2 -23l-281 -223q-47 -39 -69 -39q-11 0 -18.5 8t-5.5 19z" />
<glyph unicode="&#xe2;" horiz-adv-x="995" d="M160 256q0 233 173 438t343 205q53 0 164 -12q16 -4 143 -4l-141 -637q-20 -98 -21 -115q0 -29 25 -29q35 0 115 109q27 0 47 -33q-90 -199 -263 -198q-84 0 -83 92q0 45 20 112l27 86l-4 4q-199 -295 -347 -294q-199 0 -198 276zM324 289q0 -197 90 -197q49 0 148 110 t175 247q23 57 41.5 144t24.5 145l6 59q-61 39 -127 39q-133 0 -245.5 -186.5t-112.5 -360.5zM415 1073q181 165 265 264h102q45 -109 153 -264l-49 -29q-123 107 -179 185q-109 -93 -257 -185z" />
<glyph unicode="&#xe3;" horiz-adv-x="995" d="M160 256q0 233 173 438t343 205q53 0 164 -12q16 -4 143 -4l-141 -637q-20 -98 -21 -115q0 -29 25 -29q35 0 115 109q27 0 47 -33q-90 -199 -263 -198q-84 0 -83 92q0 45 20 112l27 86l-4 4q-199 -295 -347 -294q-199 0 -198 276zM324 289q0 -197 90 -197q49 0 148 110 t175 247q23 57 41.5 144t24.5 145l6 59q-61 39 -127 39q-133 0 -245.5 -186.5t-112.5 -360.5zM376 1077q41 93 89 138t112 45q65 0 136 -58q51 -45 97 -45q36 0 63.5 22.5t61.5 84.5l46 -13q-74 -184 -215 -184q-51 0 -121 53q-65 45 -101 45q-39 0 -66.5 -23t-53.5 -75z " />
<glyph unicode="&#xe4;" horiz-adv-x="995" d="M160 256q0 233 173 438t343 205q53 0 164 -12q16 -4 143 -4l-141 -637q-20 -98 -21 -115q0 -29 25 -29q35 0 115 109q27 0 47 -33q-90 -199 -263 -198q-84 0 -83 92q0 45 20 112l27 86l-4 4q-199 -295 -347 -294q-199 0 -198 276zM324 289q0 -197 90 -197q49 0 148 110 t175 247q23 57 41.5 144t24.5 145l6 59q-61 39 -127 39q-133 0 -245.5 -186.5t-112.5 -360.5zM469 1173.5q0 38.5 27.5 66.5t66.5 28t66.5 -28t27.5 -66.5t-27.5 -66.5t-66.5 -28t-66.5 28t-27.5 66.5zM797 1173.5q0 38.5 27.5 66.5t66.5 28t66.5 -28t27.5 -66.5 t-27.5 -66.5t-66.5 -28t-66.5 28t-27.5 66.5z" />
<glyph unicode="&#xe5;" horiz-adv-x="995" d="M160 256q0 233 173 438t343 205q53 0 164 -12q16 -4 143 -4l-141 -637q-20 -98 -21 -115q0 -29 25 -29q35 0 115 109q27 0 47 -33q-90 -199 -263 -198q-84 0 -83 92q0 45 20 112l27 86l-4 4q-199 -295 -347 -294q-199 0 -198 276zM324 289q0 -197 90 -197q49 0 148 110 t175 247q23 57 41.5 144t24.5 145l6 59q-61 39 -127 39q-133 0 -245.5 -186.5t-112.5 -360.5zM522 1214.5q14 69.5 77.5 119.5t135.5 50t115 -49t28 -121q-14 -69 -76.5 -119.5t-135.5 -50.5q-71 0 -114.5 50.5t-29.5 120zM598 1214q-9 -46 12 -80t66.5 -34t81 34.5 t45.5 79.5q10 49 -12.5 82t-67.5 33q-46 0 -80.5 -33.5t-44.5 -81.5z" />
<glyph unicode="&#xe6;" horiz-adv-x="1406" d="M123 166q0 305 606 346q25 117 25 172q0 86 -44 120t-92 34q-41 0 -82 -9.5t-78 -39t-37 -74.5q0 -7 1.5 -15t1.5 -13q0 -37 -29.5 -63t-70.5 -26q-66 0 -66 61q0 96 120 168t261 72q203 0 250 -143q137 143 323 143q143 0 212 -57.5t69 -124.5q0 -61 -38 -108.5t-95 -75 t-147.5 -47t-167 -26.5t-183.5 -14q-12 -57 -12 -112q0 -117 56.5 -185.5t152.5 -68.5q139 0 264 113l29 -21q-66 -86 -157 -139t-189 -53q-199 0 -283 141q-59 -63 -147.5 -102t-172.5 -39q-137 0 -208.5 50t-71.5 136zM274 182q0 -117 152 -116q133 0 213 141 q31 55 74 233q-45 -4 -89 -10t-112 -24.5t-117 -44t-85 -72.5t-36 -107zM883 518q82 4 135 9t119.5 18.5t104.5 33t64.5 53.5t26.5 79q0 47 -38 82.5t-101 35.5q-100 0 -184 -88t-127 -223z" />
<glyph unicode="&#xe7;" horiz-adv-x="796" d="M170 305q0 134 45 250t123 200q61 65 147.5 104.5t151.5 39.5q78 0 128 -17.5t70.5 -52t25.5 -61.5t5 -66q0 -37 -31.5 -64.5t-74.5 -27.5q-25 0 -40 19.5t-15 46t10 43t10 39.5q0 78 -86 78q-125 0 -213 -132.5t-88 -353.5q0 -137 51 -203q37 -47 103 -47 q76 0 139.5 40.5t130.5 116.5q14 0 27 -10t18 -25q-135 -189 -297 -232l-69 -119q26 6 55 6q55 0 88.5 -27t33.5 -73q0 -79 -77 -128.5t-176 -49.5q-72 0 -144 34q7 33 31 54q72 -29 113 -29q56 0 89.5 28.5t33.5 75.5q0 50 -55 50q-53 0 -95 -13l-9 13l104 168h-5 q-127 0 -197 98q-61 86 -61 227z" />
<glyph unicode="&#xe8;" horiz-adv-x="821" d="M170 291q0 80 17.5 163t57.5 163.5t97 142t143 100.5t189 39q98 0 146 -50t48 -101q0 -27 -1 -39.5t-10 -43t-27.5 -52t-56.5 -52.5t-92 -54.5t-141 -49.5t-198 -49q-2 -16 -2 -70q0 -131 40 -183.5t115.5 -52.5t127 26t135.5 112q33 0 47 -33q-176 -227 -383 -227 q-123 0 -187.5 87t-64.5 224zM356 486q66 8 125 25.5t117.5 48t93.5 82t35 116.5q0 45 -22.5 61.5t-77.5 16.5q-183 0 -271 -350zM507 1309l9 22q72 47 142 47q14 0 30 -4l91 -258q7 -24 2 -49q-2 -8 -12.5 -15.5t-22.5 -7.5q-16 0 -51 41z" />
<glyph unicode="&#xe9;" horiz-adv-x="821" d="M170 291q0 80 17.5 163t57.5 163.5t97 142t143 100.5t189 39q98 0 146 -50t48 -101q0 -27 -1 -39.5t-10 -43t-27.5 -52t-56.5 -52.5t-92 -54.5t-141 -49.5t-198 -49q-2 -16 -2 -70q0 -131 40 -183.5t115.5 -52.5t127 26t135.5 112q33 0 47 -33q-176 -227 -383 -227 q-123 0 -187.5 87t-64.5 224zM356 486q66 8 125 25.5t117.5 48t93.5 82t35 116.5q0 45 -22.5 61.5t-77.5 16.5q-183 0 -271 -350zM524 1063q4 21 36 57l204 244q12 4 30 4q63 0 103 -47l1 -23l-281 -223q-47 -39 -69 -39q-11 0 -18.5 8t-5.5 19z" />
<glyph unicode="&#xea;" horiz-adv-x="821" d="M170 291q0 80 17.5 163t57.5 163.5t97 142t143 100.5t189 39q98 0 146 -50t48 -101q0 -27 -1 -39.5t-10 -43t-27.5 -52t-56.5 -52.5t-92 -54.5t-141 -49.5t-198 -49q-2 -16 -2 -70q0 -131 40 -183.5t115.5 -52.5t127 26t135.5 112q33 0 47 -33q-176 -227 -383 -227 q-123 0 -187.5 87t-64.5 224zM349 1073q181 165 265 264h102q45 -109 154 -264l-49 -29q-123 107 -180 185q-109 -93 -257 -185zM356 486q66 8 125 25.5t117.5 48t93.5 82t35 116.5q0 45 -22.5 61.5t-77.5 16.5q-183 0 -271 -350z" />
<glyph unicode="&#xeb;" horiz-adv-x="821" d="M170 291q0 80 17.5 163t57.5 163.5t97 142t143 100.5t189 39q98 0 146 -50t48 -101q0 -27 -1 -39.5t-10 -43t-27.5 -52t-56.5 -52.5t-92 -54.5t-141 -49.5t-198 -49q-2 -16 -2 -70q0 -131 40 -183.5t115.5 -52.5t127 26t135.5 112q33 0 47 -33q-176 -227 -383 -227 q-123 0 -187.5 87t-64.5 224zM356 486q66 8 125 25.5t117.5 48t93.5 82t35 116.5q0 45 -22.5 61.5t-77.5 16.5q-183 0 -271 -350zM397 1173.5q0 38.5 28 66.5t66.5 28t66.5 -28t28 -66.5t-28 -66.5t-66.5 -28t-66.5 28t-28 66.5zM725 1173.5q0 38.5 27.5 66.5t66.5 28 t66.5 -28t27.5 -66.5t-27.5 -66.5t-66.5 -28t-66.5 28t-27.5 66.5z" />
<glyph unicode="&#xec;" horiz-adv-x="565" d="M219 47q0 29 35 189l96 421q18 78 19 105q0 37 -37 41l-82 6q-23 33 -2 57q209 27 254 27q42 0 42 -43q0 -16 -5.5 -43t-18.5 -78.5t-18 -72.5l-92 -402q-23 -98 -23 -117q0 -35 21 -35q16 0 55 30t78 73q35 0 47 -35q-150 -190 -285 -190q-84 0 -84 67zM255 1309l9 22 q72 47 143 47q13 0 29 -4l91 -258q7 -24 2 -49q-2 -8 -12.5 -15.5t-22.5 -7.5q-16 0 -51 41z" />
<glyph unicode="&#xed;" horiz-adv-x="565" d="M219 47q0 29 35 189l96 421q18 78 19 105q0 37 -37 41l-82 6q-23 33 -2 57q209 27 254 27q42 0 42 -43q0 -16 -5.5 -43t-18.5 -78.5t-18 -72.5l-92 -402q-23 -98 -23 -117q0 -35 21 -35q16 0 55 30t78 73q35 0 47 -35q-150 -190 -285 -190q-84 0 -84 67zM385 1092 q4 21 35 57l205 244q12 4 29 4q63 0 103 -47l2 -23l-281 -223q-47 -39 -69 -39q-11 0 -18.5 8t-5.5 19z" />
<glyph unicode="&#xee;" horiz-adv-x="565" d="M208 1073q181 165 265 264h102q45 -109 153 -264l-49 -29q-123 107 -179 185q-109 -93 -257 -185zM219 47q0 29 35 189l96 421q18 78 19 105q0 37 -37 41l-82 6q-23 33 -2 57q209 27 254 27q42 0 42 -43q0 -16 -5.5 -43t-18.5 -78.5t-18 -72.5l-92 -402q-23 -98 -23 -117 q0 -35 21 -35q16 0 55 30t78 73q35 0 47 -35q-150 -190 -285 -190q-84 0 -84 67z" />
<glyph unicode="&#xef;" horiz-adv-x="565" d="M219 47q0 29 35 189l96 421q18 78 19 105q0 37 -37 41l-82 6q-23 33 -2 57q209 27 254 27q42 0 42 -43q0 -16 -5.5 -43t-18.5 -78.5t-18 -72.5l-92 -402q-23 -98 -23 -117q0 -35 21 -35q16 0 55 30t78 73q35 0 47 -35q-150 -190 -285 -190q-84 0 -84 67zM236 1173.5 q0 38.5 27.5 66.5t66.5 28t66.5 -28t27.5 -66.5t-27.5 -66.5t-66.5 -28t-66.5 28t-27.5 66.5zM563 1173.5q0 38.5 27.5 66.5t66.5 28t67 -28t28 -66.5t-28 -66.5t-67 -28t-66.5 28t-27.5 66.5z" />
<glyph unicode="&#xf0;" horiz-adv-x="978" d="M154 305q0 49 14 121q29 125 93.5 222t142 150.5t153.5 80t143 26.5q88 0 152 -28q-31 164 -115 307l-258 -150l-28 66l247 143l-24 35q-49 63 -111 119l41 43q106 -66 184 -144l252 146l29 -66l-229 -135l28 -35q170 -225 170 -504q0 -109 -26 -217q-57 -246 -216 -378 t-345 -132q-147 0 -222 94.5t-75 235.5zM317 322q0 -121 51.5 -194t135.5 -73q94 0 189 90.5t147 311.5q29 127 28 245q0 6 -1 17.5t-1 15.5q-53 98 -184 99q-74 0 -136.5 -35t-103.5 -94.5t-66.5 -119t-39.5 -124.5q-18 -74 -19 -139z" />
<glyph unicode="&#xf1;" horiz-adv-x="1060" d="M182 35q0 4 26 112l116 510q18 86 18 105q0 37 -37 41l-82 6q-23 33 -2 57q178 27 258 27q42 0 42 -43q0 -72 -43 -194l-7 -19l2 -2q135 158 216 211t167 53q135 0 135 -164q0 -39 -26 -155l-78 -326q-23 -98 -23 -117q0 -35 21 -35q16 0 55 30t78 73q35 0 47 -35 q-150 -190 -291 -190q-84 0 -84 67q0 49 35 189l78 327q27 113 26 139q0 45 -17 59.5t-54 14.5q-94 0 -316 -289l-78 -340q-3 -15 -8.5 -46t-10 -47.5t-13.5 -36.5t-24 -28.5t-38 -8.5q-88 0 -88 55zM460 1087q41 93 89 138t112 45q65 0 136 -58q51 -45 97 -45 q36 0 63.5 22.5t60.5 84.5l47 -12q-74 -184 -215 -185q-51 0 -121 53q-65 45 -101 46q-39 0 -66.5 -23.5t-54.5 -75.5z" />
<glyph unicode="&#xf2;" horiz-adv-x="915" d="M160 332q0 96 31.5 193.5t91 182.5t159 138t222.5 53q289 0 288 -332q0 -178 -90 -328.5t-227 -220.5q-78 -39 -189 -38q-92 0 -153.5 37.5t-88 99t-35.5 112t-9 103.5zM330 348q0 -145 47 -219t100 -74q135 0 217 125q88 135 88 373q0 125 -31 188q-46 90 -124 90 q-100 0 -172 -84.5t-98.5 -189.5t-26.5 -209zM548 1309l9 22q72 47 142 47q14 0 30 -4l91 -258q7 -24 2 -49q-2 -8 -12.5 -15.5t-22.5 -7.5q-16 0 -51 41z" />
<glyph unicode="&#xf3;" horiz-adv-x="915" d="M160 332q0 96 31.5 193.5t91 182.5t159 138t222.5 53q289 0 288 -332q0 -178 -90 -328.5t-227 -220.5q-78 -39 -189 -38q-92 0 -153.5 37.5t-88 99t-35.5 112t-9 103.5zM330 348q0 -145 47 -219t100 -74q135 0 217 125q88 135 88 373q0 125 -31 188q-46 90 -124 90 q-100 0 -172 -84.5t-98.5 -189.5t-26.5 -209zM461 1063q4 21 35 57l204 244q12 4 30 4q63 0 103 -47l2 -23l-281 -223q-47 -39 -70 -39q-11 0 -18 8t-5 19z" />
<glyph unicode="&#xf4;" horiz-adv-x="915" d="M160 332q0 96 31.5 193.5t91 182.5t159 138t222.5 53q289 0 288 -332q0 -178 -90 -328.5t-227 -220.5q-78 -39 -189 -38q-92 0 -153.5 37.5t-88 99t-35.5 112t-9 103.5zM330 348q0 -145 47 -219t100 -74q135 0 217 125q88 135 88 373q0 125 -31 188q-46 90 -124 90 q-100 0 -172 -84.5t-98.5 -189.5t-26.5 -209zM374 1073q181 165 265 264h102q45 -109 153 -264l-49 -29q-123 107 -179 185q-109 -93 -257 -185z" />
<glyph unicode="&#xf5;" horiz-adv-x="915" d="M160 332q0 96 31.5 193.5t91 182.5t159 138t222.5 53q289 0 288 -332q0 -178 -90 -328.5t-227 -220.5q-78 -39 -189 -38q-92 0 -153.5 37.5t-88 99t-35.5 112t-9 103.5zM325 1087q41 93 89 138t112 45q65 0 136 -58q51 -45 97 -45q36 0 63.5 22.5t60.5 84.5l47 -12 q-74 -184 -216 -185q-51 0 -120 53q-65 45 -101 46q-39 0 -66.5 -23.5t-54.5 -75.5zM330 348q0 -145 47 -219t100 -74q135 0 217 125q88 135 88 373q0 125 -31 188q-46 90 -124 90q-100 0 -172 -84.5t-98.5 -189.5t-26.5 -209z" />
<glyph unicode="&#xf6;" horiz-adv-x="915" d="M160 332q0 96 31.5 193.5t91 182.5t159 138t222.5 53q289 0 288 -332q0 -178 -90 -328.5t-227 -220.5q-78 -39 -189 -38q-92 0 -153.5 37.5t-88 99t-35.5 112t-9 103.5zM330 348q0 -145 47 -219t100 -74q135 0 217 125q88 135 88 373q0 125 -31 188q-46 90 -124 90 q-100 0 -172 -84.5t-98.5 -189.5t-26.5 -209zM389 1173.5q0 38.5 27.5 66.5t66.5 28t67 -28t28 -66.5t-28 -66.5t-67 -28t-66.5 28t-27.5 66.5zM717 1173.5q0 38.5 27.5 66.5t66.5 28t66.5 -28t27.5 -66.5t-27.5 -66.5t-66.5 -28t-66.5 28t-27.5 66.5z" />
<glyph unicode="&#xf7;" horiz-adv-x="1079" d="M238 449l24 100h809l-22 -100h-811zM471 147q0 47 39 85t88 38q35 0 57.5 -21.5t22.5 -55.5q0 -51 -40 -87t-87 -36q-35 0 -57.5 21t-22.5 56zM618 813q0 47 39 86t88 39q35 0 57.5 -22.5t22.5 -57.5q0 -49 -40 -86t-87 -37q-37 0 -58.5 21.5t-21.5 56.5z" />
<glyph unicode="&#xf8;" horiz-adv-x="915" d="M129 -43l99 121q-69 92 -68 254q0 96 31.5 193.5t91 182.5t159 138t222.5 53q120 0 189 -56l110 134l67 -49l-122 -150q44 -78 44 -211q0 -178 -90 -328.5t-227 -220.5q-78 -39 -189 -38q-91 0 -154 39l-95 -117zM330 348q0 -72 13 -129l415 507q-2 6 -7 15 q-46 90 -124 90q-100 0 -172 -84.5t-98.5 -189t-26.5 -209.5zM378 126q42 -70 99 -71q135 0 217 125q88 135 88 373q0 37 -2 67z" />
<glyph unicode="&#xf9;" horiz-adv-x="1067" d="M174 709q150 190 309 190q74 0 74 -68q0 -16 -43 -188l-88 -334q-18 -72 -18 -131q0 -76 61 -76q72 0 150.5 94.5t203.5 309.5l60 225q4 16 12 57t13 58.5t23.5 35t45.5 17.5q86 0 86 -55q0 -10 -5 -33t-12.5 -50.5t-9.5 -39.5l-114 -467q-23 -98 -23 -117q0 -35 21 -35 q16 0 55 30t78 73q35 0 47 -35q-150 -190 -285 -190q-76 0 -76 67q0 66 35 189l23 79l-6 4q-125 -182 -211 -260.5t-197 -78.5q-59 0 -98 40.5t-39 122.5q0 61 20 138l90 344q27 98 27 116q0 35 -21 35q-16 0 -60 -29.5t-81 -72.5q-35 0 -47 35zM562 1309l9 22q72 47 143 47 q13 0 29 -4l91 -258q7 -24 3 -49q-2 -8 -13 -15.5t-23 -7.5q-16 0 -51 41z" />
<glyph unicode="&#xfa;" horiz-adv-x="1067" d="M174 709q150 190 309 190q74 0 74 -68q0 -16 -43 -188l-88 -334q-18 -72 -18 -131q0 -76 61 -76q72 0 150.5 94.5t203.5 309.5l60 225q4 16 12 57t13 58.5t23.5 35t45.5 17.5q86 0 86 -55q0 -10 -5 -33t-12.5 -50.5t-9.5 -39.5l-114 -467q-23 -98 -23 -117q0 -35 21 -35 q16 0 55 30t78 73q35 0 47 -35q-150 -190 -285 -190q-76 0 -76 67q0 66 35 189l23 79l-6 4q-125 -182 -211 -260.5t-197 -78.5q-59 0 -98 40.5t-39 122.5q0 61 20 138l90 344q27 98 27 116q0 35 -21 35q-16 0 -60 -29.5t-81 -72.5q-35 0 -47 35zM631 1063q4 21 35 57 l204 244q12 4 30 4q63 0 103 -47l2 -23l-281 -223q-47 -39 -70 -39q-11 0 -18 8t-5 19z" />
<glyph unicode="&#xfb;" horiz-adv-x="1067" d="M174 709q150 190 309 190q74 0 74 -68q0 -16 -43 -188l-88 -334q-18 -72 -18 -131q0 -76 61 -76q72 0 150.5 94.5t203.5 309.5l60 225q4 16 12 57t13 58.5t23.5 35t45.5 17.5q86 0 86 -55q0 -10 -5 -33t-12.5 -50.5t-9.5 -39.5l-114 -467q-23 -98 -23 -117q0 -35 21 -35 q16 0 55 30t78 73q35 0 47 -35q-150 -190 -285 -190q-76 0 -76 67q0 66 35 189l23 79l-6 4q-125 -182 -211 -260.5t-197 -78.5q-59 0 -98 40.5t-39 122.5q0 61 20 138l90 344q27 98 27 116q0 35 -21 35q-16 0 -60 -29.5t-81 -72.5q-35 0 -47 35zM472 1073q181 165 265 264 h102q45 -109 154 -264l-49 -29q-123 107 -180 185q-109 -93 -257 -185z" />
<glyph unicode="&#xfc;" horiz-adv-x="1067" d="M174 709q150 190 309 190q74 0 74 -68q0 -16 -43 -188l-88 -334q-18 -72 -18 -131q0 -76 61 -76q72 0 150.5 94.5t203.5 309.5l60 225q4 16 12 57t13 58.5t23.5 35t45.5 17.5q86 0 86 -55q0 -10 -5 -33t-12.5 -50.5t-9.5 -39.5l-114 -467q-23 -98 -23 -117q0 -35 21 -35 q16 0 55 30t78 73q35 0 47 -35q-150 -190 -285 -190q-76 0 -76 67q0 66 35 189l23 79l-6 4q-125 -182 -211 -260.5t-197 -78.5q-59 0 -98 40.5t-39 122.5q0 61 20 138l90 344q27 98 27 116q0 35 -21 35q-16 0 -60 -29.5t-81 -72.5q-35 0 -47 35zM487 1173.5q0 38.5 28 66.5 t67 28t66.5 -28t27.5 -66.5t-27.5 -66.5t-66.5 -28t-67 28t-28 66.5zM815 1173.5q0 38.5 27.5 66.5t66.5 28t67 -28t28 -66.5t-28 -66.5t-67 -28t-66.5 28t-27.5 66.5z" />
<glyph unicode="&#xfd;" horiz-adv-x="1030" d="M100 -393q0 45 30 74.5t65 29.5q39 0 71 -28q45 -37 72 -37q23 0 81 64.5t118 162.5q18 41 -19 323.5t-82 436.5q-19 65 -32 86q-14 24 -57 23q-41 0 -134 -44q-21 20 -27 63q60 44 148.5 91t122.5 47q37 0 60.5 -34t45.5 -117q42 -174 59.5 -324.5t28.5 -361.5l14 -6 q23 34 62.5 96.5t52.5 85.5l42 66q154 242 155 354q0 58 -43 123q-11 17 -11 42q0 76 95 76q107 0 107 -97q0 -89 -55 -218q-26 -60 -99.5 -184t-95.5 -158l-153 -242l-93 -143q-98 -152 -210 -244t-194 -92q-39 0 -82 20.5t-43 65.5zM637 1065q4 21 35 57l205 244 q12 4 29 4q63 0 103 -47l2 -23l-281 -223q-47 -39 -70 -39q-11 0 -18 8t-5 19z" />
<glyph unicode="&#xfe;" horiz-adv-x="1024" d="M-59 -446q0 12 20 16l39 6q91 14 109 94l223 969q-100 -80 -158 -162l-39 27q59 102 217 225l101 424q14 61 14 102q0 57 -43 58l-64 4q-10 0 -10 10l6 49q178 12 287 54q25 0 25 -21q-23 -82 -52 -215l-81 -367q125 72 264 72q123 0 198.5 -85t75.5 -222 q0 -88 -40 -192.5t-109.5 -199t-176 -157.5t-223.5 -63q-104 0 -172 67l-90 -377q-8 -33 4.5 -52t26.5 -23.5t37 -8.5l39 -6q12 -2 12 -16v-41l-4 -4q-139 4 -219 4l-213 -12l-4 4v39zM373 137q53 -86 155 -86q98 0 176 55.5t119 139.5t61.5 164.5t20.5 148.5q0 94 -40 169 t-134 75q-111 0 -217 -55z" />
<glyph unicode="&#xff;" horiz-adv-x="1030" d="M100 -393q0 45 30 74.5t65 29.5q39 0 71 -28q45 -37 72 -37q23 0 81 64.5t118 162.5q18 41 -19 323.5t-82 436.5q-19 65 -32 86q-14 24 -57 23q-41 0 -134 -44q-21 20 -27 63q60 44 148.5 91t122.5 47q37 0 60.5 -34t45.5 -117q42 -174 59.5 -324.5t28.5 -361.5l14 -6 q23 34 62.5 96.5t52.5 85.5l42 66q154 242 155 354q0 58 -43 123q-11 17 -11 42q0 76 95 76q107 0 107 -97q0 -89 -55 -218q-26 -60 -99.5 -184t-95.5 -158l-153 -242l-93 -143q-98 -152 -210 -244t-194 -92q-39 0 -82 20.5t-43 65.5zM485 1173.5q0 38.5 28 66.5t66.5 28 t66.5 -28t28 -66.5t-28 -66.5t-66.5 -28t-66.5 28t-28 66.5zM813 1173.5q0 38.5 27.5 66.5t66.5 28t66.5 -28t27.5 -66.5t-27.5 -66.5t-66.5 -28t-66.5 28t-27.5 66.5z" />
<glyph unicode="&#x152;" horiz-adv-x="1665" d="M207 651q55 289 241.5 480.5t450.5 191.5q135 -2 223 -2h154h504l-27 -285l-55 -6q4 76 -33 142.5t-109 66.5h-301q-70 0 -84 -65l-81 -424h206q49 0 73 20.5t44 69.5l27 61q4 16 16 17h43q8 0 4 -9q-6 -25 -25.5 -91t-27.5 -103q-8 -43 -14 -113t-9 -84l-4 -6h-45 q-14 0 -14 14l2 64q-2 47 -19.5 68.5t-64.5 21.5h-207l-102 -533q-8 -39 7 -53t50 -14h309q162 0 265 258l51 -10l-115 -328h-676l-202 -4q-270 2 -390 186.5t-65 468.5zM389 670q-57 -299 29 -451.5t254 -152.5h24q57 0 83 18t34 63l201 1029q8 45 -10.5 60t-75.5 15h-70 q-158 0 -283.5 -137t-185.5 -444z" />
<glyph unicode="&#x153;" horiz-adv-x="1443" d="M160 334q0 96 30.5 192.5t89 181.5t157 138t220.5 53q210 0 262 -173q138 173 361 173q98 0 146.5 -50t48.5 -101q0 -27 -1 -39.5t-10.5 -43t-28 -52t-56.5 -52.5t-92 -54.5t-141 -50t-198 -48.5q-2 -16 -2 -70q0 -131 40 -183.5t116 -52.5t127 26t135 112q33 0 47 -33 q-176 -227 -383 -227q-88 0 -146.5 46t-85.5 127q-141 -173 -337 -173q-82 0 -143.5 38.5t-93.5 98t-47 115t-15 102.5zM332 350q0 -299 157 -299q82 0 141.5 58.5t88.5 145.5t41 163t12 137q0 59 -4 97t-17.5 84t-46 68.5t-83.5 22.5q-84 0 -144.5 -47t-89.5 -123.5 t-42 -152.5t-13 -154zM962 486q66 8 125 25.5t117.5 48t93.5 82t35 116.5q0 45 -22.5 61.5t-77.5 16.5q-183 0 -271 -350z" />
<glyph unicode="&#x178;" horiz-adv-x="1130" d="M252 1295.5q-2 21.5 2 29.5q115 -4 213 -4q59 0 219 4q4 -6 2 -28.5t-6 -30.5l-68 -6q-49 -4 -55 -21.5t12 -58.5l174 -494h9l323 494q31 45 29 60t-39 20l-66 6q-4 6 -2 29.5t7 29.5q156 -4 186 -4q45 0 164 4q4 -6 1 -28.5t-9 -30.5l-54 -4q-49 -4 -75.5 -27t-65.5 -78 l-358 -522q-16 -27 -29 -86l-78 -393q-10 -47 10.5 -67.5t79.5 -27.5l70 -6q4 -8 1 -30.5t-7 -28.5q-180 4 -260 4q-61 0 -246 -4q-6 14 -4 33.5t8 25.5l63 6q113 10 127 95l72 374q7 34 7 52q0 19 -7 36l-188 502q-33 84 -53.5 109.5t-71.5 32.5l-31 4q-4 8 -6 29.5z M625 1518q0 45 34.5 76.5t75.5 31.5q33 0 55.5 -21.5t22.5 -54.5q0 -47 -36 -78.5t-75 -31.5q-35 0 -56 21.5t-21 56.5zM954 1518q0 47 35 78.5t76 31.5q33 0 55.5 -22.5t22.5 -55.5q0 -45 -35 -76.5t-76 -31.5q-33 0 -55.5 21.5t-22.5 54.5z" />
<glyph unicode="&#x2c6;" horiz-adv-x="714" d="M327 1104q181 165 265 264h102q45 -109 153 -264l-49 -29q-123 107 -179 185q-109 -93 -257 -185z" />
<glyph unicode="&#x2dc;" horiz-adv-x="598" d="M251 1186q41 93 89 137.5t112 44.5q65 0 136 -57q51 -45 97 -45q36 0 63.5 22t61.5 84l46 -12q-74 -184 -215 -184q-51 0 -121 53q-65 45 -101 45q-39 0 -66.5 -23t-53.5 -75z" />
<glyph unicode="&#x2000;" horiz-adv-x="840" />
<glyph unicode="&#x2001;" horiz-adv-x="1681" />
<glyph unicode="&#x2002;" horiz-adv-x="840" />
<glyph unicode="&#x2003;" horiz-adv-x="1681" />
<glyph unicode="&#x2004;" horiz-adv-x="560" />
<glyph unicode="&#x2005;" horiz-adv-x="420" />
<glyph unicode="&#x2006;" horiz-adv-x="280" />
<glyph unicode="&#x2007;" horiz-adv-x="280" />
<glyph unicode="&#x2008;" horiz-adv-x="210" />
<glyph unicode="&#x2009;" horiz-adv-x="336" />
<glyph unicode="&#x200a;" horiz-adv-x="93" />
<glyph unicode="&#x2010;" horiz-adv-x="681" d="M158 492q0 25 24.5 56.5t40.5 31.5h469q23 0 23 -25t-24.5 -61.5t-47.5 -36.5h-465q-20 0 -20 35z" />
<glyph unicode="&#x2011;" horiz-adv-x="681" d="M158 492q0 25 24.5 56.5t40.5 31.5h469q23 0 23 -25t-24.5 -61.5t-47.5 -36.5h-465q-20 0 -20 35z" />
<glyph unicode="&#x2012;" horiz-adv-x="681" d="M158 492q0 25 24.5 56.5t40.5 31.5h469q23 0 23 -25t-24.5 -61.5t-47.5 -36.5h-465q-20 0 -20 35z" />
<glyph unicode="&#x2013;" horiz-adv-x="1093" d="M176 487l19 101h933l-18 -101h-934z" />
<glyph unicode="&#x2014;" horiz-adv-x="1519" d="M156 487l18 101h1401l-21 -101h-1398z" />
<glyph unicode="&#x2018;" horiz-adv-x="548" d="M426 1153q0 63 22.5 125.5t92 125t180.5 83.5q24 -20 17 -47q-79 -18 -146.5 -76t-67.5 -102q0 -16 10.5 -27.5t21.5 -16t32 -10.5q69 -18 69 -84q0 -45 -35.5 -73.5t-85 -28.5t-80 36t-30.5 95z" />
<glyph unicode="&#x2019;" horiz-adv-x="548" d="M335 1012q79 18 146.5 75.5t67.5 102.5q0 16 -10.5 27.5t-21.5 15.5t-32 10q-69 18 -69 84q0 45 35.5 74t85 29t80 -36t30.5 -96q0 -63 -22.5 -125.5t-92 -125t-180.5 -82.5q-24 20 -17 47z" />
<glyph unicode="&#x201a;" horiz-adv-x="548" d="M97 -223q79 18 146.5 76t67.5 102q0 16 -10 27.5t-21.5 15.5t-31.5 10q-70 18 -70 84q0 45 36 74t85 29t80 -36t31 -96q0 -63 -22.5 -125.5t-92.5 -125t-180 -82.5q-24 20 -18 47z" />
<glyph unicode="&#x201c;" horiz-adv-x="768" d="M341 1153q0 45 13.5 92t44 97.5t92 90t145.5 54.5q24 -20 17 -47q-79 -18 -146.5 -76t-67.5 -102q0 -17 10.5 -28.5t21.5 -15.5t32 -10q69 -18 69 -84q0 -46 -36 -74t-84.5 -28t-79.5 35.5t-31 95.5zM697 1153q0 45 13.5 92t44 97.5t92 90t145.5 54.5q24 -20 18 -47 q-79 -18 -146.5 -76t-67.5 -102q0 -17 10 -28.5t21 -15.5t32 -10q70 -18 70 -84q0 -46 -36.5 -74t-85 -28t-79.5 35.5t-31 95.5z" />
<glyph unicode="&#x201d;" horiz-adv-x="768" d="M302 1012q79 18 146.5 75.5t67.5 102.5q0 17 -10.5 28.5t-21.5 15.5t-32 9q-69 18 -69 84q0 46 36 74.5t84.5 28.5t79.5 -35.5t31 -96.5q0 -45 -13.5 -92t-44 -97.5t-92 -89.5t-145.5 -54q-24 20 -17 47zM658 1012q79 18 146.5 75.5t67.5 102.5q0 17 -10 28.5t-21 15.5 t-32 9q-70 18 -70 84q0 46 36 74.5t84.5 28.5t79.5 -35.5t31 -96.5q0 -45 -13.5 -92t-44 -97.5t-92 -89.5t-145.5 -54q-24 20 -17 47z" />
<glyph unicode="&#x201e;" horiz-adv-x="768" d="M27 -225q79 18 146.5 75.5t67.5 102.5q0 17 -10 28.5t-21 15.5t-32 9q-70 18 -70 84q0 46 36.5 74.5t85 28.5t79.5 -35.5t31 -96.5q0 -45 -13.5 -92t-44 -97.5t-92 -89.5t-145.5 -54q-24 20 -18 47zM384 -225q79 18 146.5 75.5t67.5 102.5q0 17 -10.5 28.5t-21 15.5 t-32.5 9q-69 18 -69 84q0 46 36 74.5t84.5 28.5t79.5 -35.5t31 -96.5q0 -45 -13.5 -92t-44 -97.5t-92 -89.5t-145.5 -54q-24 20 -17 47z" />
<glyph unicode="&#x2022;" horiz-adv-x="718" d="M242 583.5q0 28.5 6 59.5q12 55 45 96q35 51 76 82q43 34 92 56q49 20 104 20q57 0 99 -20q45 -25 67 -58q27 -33 37 -82q4 -12 4 -40.5t-6 -59.5q-12 -51 -43 -100q-39 -53 -76 -82q-41 -35 -94 -58q-53 -18 -107 -18q-55 0 -96 20q-45 25 -69 58q-29 39 -35 84 q-4 14 -4 42.5z" />
<glyph unicode="&#x202f;" horiz-adv-x="336" />
<glyph unicode="&#x2039;" horiz-adv-x="727" d="M217 401l16 80q251 152 527 400l-21 -111q-195 -213 -350 -330q115 -109 221 -327l-20 -111q-190 287 -373 399z" />
<glyph unicode="&#x203a;" horiz-adv-x="727" d="M139 0l23 111q176 201 350 329q-113 106 -223 328l22 111q186 -281 371 -400l-14 -80q-249 -150 -529 -399z" />
<glyph unicode="&#x205f;" horiz-adv-x="420" />
<glyph unicode="&#x20ac;" horiz-adv-x="897" d="M88 457l4 18l49 51h76q3 20 8 45t13 60h-86l6 20l49 49h51q72 229 216 363.5t319 134.5q57 0 141 -16.5t110 -14.5q-18 -111 -18 -299l-63 -10q-6 123 -46 195.5t-143 72.5q-114 0 -206 -119.5t-145 -306.5h451l-49 -69h-420q-5 -25 -8 -37q-6 -32 -12 -68h385l-51 -69 h-343q-43 -395 206 -396q53 0 96 20.5t80 66t59.5 81t56.5 101.5l60 -15q-16 -43 -69.5 -154.5t-67.5 -154.5q-27 2 -111 -14.5t-141 -16.5q-180 0 -267.5 129t-68.5 353h-121z" />
<glyph unicode="&#x2122;" horiz-adv-x="1628" d="M256 1190l76 184l47 -16q-8 -23 -12 -23h479q-2 0 -2 23l53 16l2 -186l-47 -10q-4 68 -16.5 86t-44.5 18h-91q-29 0 -36 -43l-105 -541q-4 -25 7.5 -37t43.5 -12h31q10 0 6 -10l-4 -27l-2 -2q-129 2 -170 2l-168 -2l-2 2l4 27q4 10 12 10h31q63 0 72 49l104 543 q10 41 -20 41h-103q-33 0 -52 -18.5t-50 -85.5zM803 612l4 17q2 14 39 14h28q12 0 35 62q16 59 46 169.5t55.5 203.5t46.5 171v6l2 5q6 35 -12 34h-33q-33 2 -33 13l2 16l14 12h183l123 -542q295 494 323 542h170l4 -12l-4 -16q-2 -12 -37 -13h-30q-18 0 -25 -32l-2 -13 l-60 -544q-4 -61 13 -62h28q18 0 27.5 -3t7.5 -11l-2 -17l-12 -12q-90 4 -135 4l-135 -4l-11 12l2 17q2 14 39 14h29q14 0 23 47q0 2 1 7.5t1 7.5l43 403l-299 -498q-14 -20 -37 -20q-25 0 -31 20q-66 293 -111 488q-47 -190 -104 -396q0 -2 -1 -6t-1 -6q-10 -47 4 -47h31 q12 0 22 -4t8 -10l-2 -17l-8 -12q-80 4 -125 4l-96 -4z" />
<glyph unicode="&#xe000;" horiz-adv-x="900" d="M0 0v900h900v-900h-900z" />
</font>
</defs>
</svg>
